<?xml version="1.0" encoding="UTF-8" standalone="no"?>
<svg
   xmlns:dc="http://purl.org/dc/elements/1.1/"
   xmlns:cc="http://creativecommons.org/ns#"
   xmlns:rdf="http://www.w3.org/1999/02/22-rdf-syntax-ns#"
   xmlns:svg="http://www.w3.org/2000/svg"
   xmlns="http://www.w3.org/2000/svg"
   viewBox="0 0 653.33331 656"
   height="656"
   width="653.33331"
   xml:space="preserve"
   id="svg2"
   version="1.1"><metadata
     id="metadata8"><rdf:RDF><cc:Work
         rdf:about=""><dc:format>image/svg+xml</dc:format><dc:type
           rdf:resource="http://purl.org/dc/dcmitype/StillImage" /></cc:Work></rdf:RDF></metadata><defs
     id="defs6"><clipPath
       id="clipPath18"
       clipPathUnits="userSpaceOnUse"><path
         style="clip-rule:evenodd"
         id="path16"
         d="M 0,0 H 490 V 491.43906 H 0 Z" /></clipPath><clipPath
       id="clipPath30"
       clipPathUnits="userSpaceOnUse"><path
         style="clip-rule:evenodd"
         id="path28"
         d="M 0,0 H 490 V 490.71954 H 0 Z" /></clipPath></defs><g
     transform="matrix(1.3333333,0,0,1.3333333,0,1.64e-5)"
     id="g10"><g
       id="g12"><g
         clip-path="url(#clipPath18)"
         id="g14"><g
           transform="scale(0.71953011)"
           id="g20"><path
             id="path22"
             style="fill:#ffffff;fill-opacity:1;fill-rule:nonzero;stroke:none"
             d="M 0,0 H 681 V 683 H 0 Z" /></g></g></g><g
       id="g24"><g
         clip-path="url(#clipPath30)"
         id="g26"><g
           transform="scale(0.71953011)"
           id="g32"><path
             id="path34"
             style="fill:none;stroke:#000000;stroke-width:1;stroke-linecap:butt;stroke-linejoin:miter;stroke-miterlimit:10;stroke-dasharray:none;stroke-opacity:1"
             d="m 660,340 c -6e-5,21.01151 -2.04962,41.82111 -6.14874,62.42886 -4.09918,20.60776 -10.16913,40.61768 -18.2099,60.02976 -8.04077,19.41208 -17.89783,37.85333 -29.57123,55.32373 -11.67334,17.4704 -24.93866,33.63434 -39.79602,48.49176 -14.85742,14.85736 -31.02136,28.12268 -48.49176,39.79602 -17.4704,11.6734 -35.91165,21.53046 -55.32373,29.57123 -19.41208,8.04077 -39.42203,14.11072 -60.02979,18.2099 C 381.82111,657.95038 361.01151,659.99994 340,660 c -21.01151,-6e-5 -41.82117,-2.04962 -62.42892,-6.14874 -20.60779,-4.09918 -40.61771,-10.16913 -60.0298,-18.2099 -19.4121,-8.04077 -37.85337,-17.89783 -55.32378,-29.57123 C 144.74709,594.39679 128.58319,581.13147 113.72582,566.27411 98.868446,551.41669 85.603073,535.25275 73.92971,517.78235 62.256348,500.31195 52.399292,481.8707 44.358543,462.45862 36.317791,443.04654 30.247847,423.03659 26.148706,402.42883 22.049568,381.82111 19.999998,361.01151 20,340 c -2e-6,-21.01151 2.049568,-41.82117 6.148706,-62.42892 4.099141,-20.60779 10.169085,-40.61771 18.209837,-60.0298 8.040749,-19.4121 17.897805,-37.85337 29.571167,-55.32378 11.673363,-17.47041 24.938736,-33.63431 39.79611,-48.49168 14.85737,-14.857374 31.02127,-28.122747 48.49168,-39.79611 17.47041,-11.673362 35.91168,-21.530418 55.32378,-29.571167 19.41209,-8.040752 39.42201,-14.110696 60.0298,-18.209837 C 298.17883,22.049568 318.98849,20 340,20 c 21.01151,0 41.82111,2.049568 62.42886,6.148706 20.60776,4.099141 40.61768,10.169085 60.02976,18.209837 19.41208,8.040749 37.85333,17.897805 55.32373,29.571167 17.4704,11.673363 33.63434,24.938736 48.49176,39.79611 14.85736,14.85737 28.12268,31.02127 39.79602,48.49168 11.6734,17.47041 21.53046,35.91168 29.57123,55.32378 8.04077,19.41209 14.11072,39.42201 18.2099,60.0298 C 657.95038,298.17883 659.99994,318.98849 660,340 Z" /><path
             id="path36"
             style="fill:none;stroke:#000000;stroke-width:1;stroke-linecap:butt;stroke-linejoin:miter;stroke-miterlimit:10;stroke-dasharray:none;stroke-opacity:1"
             d="m 304,135 c 0,0 21.25333,0 63.76001,0" /><path
             id="path38"
             style="fill:#000000;fill-opacity:1;fill-rule:nonzero;stroke:none"
             d="m 373.76001,135 -8,4 2,-4 -2,-4 z" /><path
             id="path40"
             style="fill:none;stroke:#000000;stroke-width:1;stroke-linecap:butt;stroke-linejoin:miter;stroke-miterlimit:10;stroke-dasharray:none;stroke-opacity:1"
             d="m 373.76001,135 -8,4 2,-4 -2,-4 z" /><path
             id="path42"
             style="fill:none;stroke:#000000;stroke-width:1;stroke-linecap:butt;stroke-linejoin:miter;stroke-miterlimit:10;stroke-dasharray:none;stroke-opacity:1"
             d="m 156,115 h 136 c 3.31369,0 6.14212,1.17157 8.48526,3.51471 2.34314,2.34315 3.51471,5.17158 3.51474,8.48529 v 56 c -3e-5,3.31369 -1.1716,6.14211 -3.51474,8.48526 C 298.14212,193.8284 295.31369,194.99998 292,195 H 156 c -3.31372,-2e-5 -6.14215,-1.1716 -8.48529,-3.51474 C 145.17155,189.14211 143.99998,186.31369 144,183 v -56 c -2e-5,-3.31371 1.17155,-6.14214 3.51471,-8.48529 C 149.85785,116.17157 152.68628,115 156,115 Z" /></g><g
           transform="matrix(0.71953011,0,0,0.71953011,113.68576,94.977974)"
           id="g44"><text
             id="text48"
             style="font-variant:normal;font-weight:normal;font-size:20px;font-family:Helvetica;-inkscape-font-specification:Helvetica;writing-mode:lr-tb;fill:#000000;fill-opacity:1;fill-rule:nonzero;stroke:none"
             transform="translate(24.921875,18)"><tspan
               id="tspan46"
               y="0"
               x="0 13.339844 24.462891 34.462891 38.90625 50.029297 61.152344 71.152344">Business</tspan></text>
<text
             id="text52"
             style="font-variant:normal;font-weight:normal;font-size:20px;font-family:Helvetica;-inkscape-font-specification:Helvetica;writing-mode:lr-tb;fill:#000000;fill-opacity:1;fill-rule:nonzero;stroke:none"
             transform="translate(0.453125,42)"><tspan
               id="tspan50"
               y="0"
               x="0 14.443359 25.566406 36.689453 47.8125 54.472656 64.472656 70.029297 81.152344 92.275391 103.39844 107.8418 118.96484">Understanding</tspan></text>
</g><g
           transform="scale(0.71953011)"
           id="g54"><path
             id="path56"
             style="fill:none;stroke:#000000;stroke-width:1;stroke-linecap:butt;stroke-linejoin:miter;stroke-miterlimit:10;stroke-dasharray:none;stroke-opacity:1"
             d="m 536,155 c 13.33331,0 20,23.58667 20,70.75999" /><path
             id="path58"
             style="fill:#000000;fill-opacity:1;fill-rule:nonzero;stroke:none"
             d="m 556,231.75999 -4,-8 4,2 4,-2 z" /><path
             id="path60"
             style="fill:none;stroke:#000000;stroke-width:1;stroke-linecap:butt;stroke-linejoin:miter;stroke-miterlimit:10;stroke-dasharray:none;stroke-opacity:1"
             d="m 556,231.75999 -4,-8 4,2 4,-2 z" /><path
             id="path62"
             style="fill:none;stroke:#000000;stroke-width:1;stroke-linecap:butt;stroke-linejoin:miter;stroke-miterlimit:10;stroke-dasharray:none;stroke-opacity:1"
             d="m 376,175 c 0,0 -21.25333,0 -63.76001,0" /><path
             id="path64"
             style="fill:#000000;fill-opacity:1;fill-rule:nonzero;stroke:none"
             d="m 306.23999,175 8,-4 -2,4 2,4 z" /><path
             id="path66"
             style="fill:none;stroke:#000000;stroke-width:1;stroke-linecap:butt;stroke-linejoin:miter;stroke-miterlimit:10;stroke-dasharray:none;stroke-opacity:1"
             d="m 306.23999,175 8,-4 -2,4 2,4 z" /><path
             id="path68"
             style="fill:none;stroke:#000000;stroke-width:1;stroke-linecap:butt;stroke-linejoin:miter;stroke-miterlimit:10;stroke-dasharray:none;stroke-opacity:1"
             d="m 388,115 h 136 c 3.31366,0 6.14209,1.17157 8.48523,3.51471 2.34314,2.34315 3.51471,5.17158 3.51477,8.48529 v 56 c -6e-5,3.31369 -1.17163,6.14211 -3.51477,8.48526 C 530.14209,193.8284 527.31366,194.99998 524,195 H 388 c -3.31375,-2e-5 -6.14218,-1.1716 -8.48532,-3.51474 C 377.17154,189.14211 375.99997,186.31369 376,183 v -56 c -3e-5,-3.31371 1.17154,-6.14214 3.51468,-8.48529 C 381.85782,116.17157 384.68625,115 388,115 Z" /></g><g
           transform="matrix(0.71953011,0,0,0.71953011,280.61673,94.977974)"
           id="g70"><text
             id="text74"
             style="font-variant:normal;font-weight:normal;font-size:20px;font-family:Helvetica;-inkscape-font-specification:Helvetica;writing-mode:lr-tb;fill:#000000;fill-opacity:1;fill-rule:nonzero;stroke:none"
             transform="translate(44.375,18)"><tspan
               id="tspan72"
               y="0"
               x="0 14.443359 25.566406 31.123047">Data</tspan></text>
<text
             id="text78"
             style="font-variant:normal;font-weight:normal;font-size:20px;font-family:Helvetica;-inkscape-font-specification:Helvetica;writing-mode:lr-tb;fill:#000000;fill-opacity:1;fill-rule:nonzero;stroke:none"
             transform="translate(0.453125,42)"><tspan
               id="tspan76"
               y="0"
               x="0 14.443359 25.566406 36.689453 47.8125 54.472656 64.472656 70.029297 81.152344 92.275391 103.39844 107.8418 118.96484">Understanding</tspan></text>
</g><g
           transform="scale(0.71953011)"
           id="g80"><path
             id="path82"
             style="fill:none;stroke:#000000;stroke-width:1;stroke-linecap:butt;stroke-linejoin:miter;stroke-miterlimit:10;stroke-dasharray:none;stroke-opacity:1"
             d="m 585,316 c 0,0 -0.27667,13.59 -0.83002,40.76999" /><path
             id="path84"
             style="fill:#000000;fill-opacity:1;fill-rule:nonzero;stroke:none"
             d="m 584.04999,362.76001 -3.83997,-8.08002 3.95996,2.09 4.04004,-1.91998 z" /><path
             id="path86"
             style="fill:none;stroke:#000000;stroke-width:1;stroke-linecap:butt;stroke-linejoin:miter;stroke-miterlimit:10;stroke-dasharray:none;stroke-opacity:1"
             d="m 584.04999,362.76001 -3.83997,-8.08002 3.95996,2.09 4.04004,-1.91998 z" /><path
             id="path88"
             style="fill:none;stroke:#000000;stroke-width:1;stroke-linecap:butt;stroke-linejoin:miter;stroke-miterlimit:10;stroke-dasharray:none;stroke-opacity:1"
             d="m 476,235 h 136 c 3.31366,0 6.14209,1.17157 8.48523,3.51471 2.34314,2.34315 3.51471,5.17158 3.51477,8.48529 v 56 c -6e-5,3.31369 -1.17163,6.14212 -3.51477,8.48526 C 618.14209,313.82843 615.31366,315 612,315 H 476 c -3.31375,0 -6.14218,-1.17157 -8.48532,-3.51474 C 465.17154,309.14212 463.99997,306.31369 464,303 v -56 c -3e-5,-3.31371 1.17154,-6.14214 3.51468,-8.48529 C 469.85782,236.17157 472.68625,235 476,235 Z" /></g><g
           transform="matrix(0.71953011,0,0,0.71953011,354.00882,181.32159)"
           id="g90"><text
             id="text94"
             style="font-variant:normal;font-weight:normal;font-size:20px;font-family:Helvetica;-inkscape-font-specification:Helvetica;writing-mode:lr-tb;fill:#000000;fill-opacity:1;fill-rule:nonzero;stroke:none"
             transform="translate(31.375,18)"><tspan
               id="tspan92"
               y="0"
               x="0 14.443359 25.566406 31.123047">Data</tspan></text>
<text
             id="text98"
             style="font-variant:normal;font-weight:normal;font-size:20px;font-family:Helvetica;-inkscape-font-specification:Helvetica;writing-mode:lr-tb;fill:#000000;fill-opacity:1;fill-rule:nonzero;stroke:none"
             transform="translate(0.796875,42)"><tspan
               id="tspan96"
               y="0"
               x="0 13.339844 20 31.123047 42.246094 53.369141 60.029297 71.152344 76.708984 81.152344 92.275391">Preparation</tspan></text>
</g><g
           transform="scale(0.71953011)"
           id="g100"><path
             id="path102"
             style="fill:none;stroke:#000000;stroke-width:1;stroke-linecap:butt;stroke-linejoin:miter;stroke-miterlimit:10;stroke-dasharray:none;stroke-opacity:1"
             d="M 269,570 C 173.66666,570 126,507.74667 126,383.23999" /><path
             id="path104"
             style="fill:#000000;fill-opacity:1;fill-rule:nonzero;stroke:none"
             d="m 126,377.23999 4,8 -4,-2 -4,2 z" /><path
             id="path106"
             style="fill:none;stroke:#000000;stroke-width:1;stroke-linecap:butt;stroke-linejoin:miter;stroke-miterlimit:10;stroke-dasharray:none;stroke-opacity:1"
             d="m 126,377.23999 4,8 -4,-2 -4,2 z" /><path
             id="path108"
             style="fill:none;stroke:#000000;stroke-width:1;stroke-linecap:butt;stroke-linejoin:miter;stroke-miterlimit:10;stroke-dasharray:none;stroke-opacity:1"
             d="m 389,530 c 36,0 54,-48.33331 54,-145 C 443,288.33331 406.5,240 333.5,240 260.5,240 224,227.74667 224,203.24001" /><path
             id="path110"
             style="fill:#000000;fill-opacity:1;fill-rule:nonzero;stroke:none"
             d="m 224,197.24001 4,8 -4,-2 -4,2 z" /><path
             id="path112"
             style="fill:none;stroke:#000000;stroke-width:1;stroke-linecap:butt;stroke-linejoin:miter;stroke-miterlimit:10;stroke-dasharray:none;stroke-opacity:1"
             d="m 224,197.24001 4,8 -4,-2 -4,2 z" /><path
             id="path114"
             style="fill:none;stroke:#000000;stroke-width:1;stroke-linecap:butt;stroke-linejoin:miter;stroke-miterlimit:10;stroke-dasharray:none;stroke-opacity:1"
             d="m 281,530 h 136 c 3.31369,0 6.14212,1.17157 8.48526,3.51471 2.34314,2.34314 3.51471,5.17157 3.51474,8.48529 v 56 c -3e-5,3.31372 -1.1716,6.14215 -3.51474,8.48529 C 423.14212,608.82843 420.31369,610 417,610 H 281 c -3.31372,0 -6.14215,-1.17157 -8.48529,-3.51471 C 270.17157,604.14215 269,601.31372 269,598 v -56 c 0,-3.31372 1.17157,-6.14215 3.51471,-8.48529 C 274.85785,531.17157 277.68628,530 281,530 Z" /></g><g
           transform="matrix(0.71953011,0,0,0.71953011,217.2981,402.21732)"
           id="g116"><text
             id="text120"
             style="font-variant:normal;font-weight:normal;font-size:20px;font-family:Helvetica;-inkscape-font-specification:Helvetica;writing-mode:lr-tb;fill:#000000;fill-opacity:1;fill-rule:nonzero;stroke:none"
             transform="translate(0.796875,18)"><tspan
               id="tspan118"
               y="0"
               x="0 13.339844 23.339844 34.462891 38.90625 50.029297 61.152344 66.708984 71.152344 82.275391">Evaluation</tspan></text>
</g><g
           transform="scale(0.71953011)"
           id="g122"><path
             id="path124"
             style="fill:none;stroke:#000000;stroke-width:1;stroke-linecap:butt;stroke-linejoin:miter;stroke-miterlimit:10;stroke-dasharray:none;stroke-opacity:1"
             d="m 58,295 h 136 c 3.31371,0 6.14212,1.17157 8.48528,3.51471 2.34313,2.34314 3.5147,5.17157 3.51472,8.48529 v 56 c -2e-5,3.31369 -1.17159,6.14212 -3.51472,8.48526 C 200.14212,373.8284 197.31371,374.99997 194,375 H 58 c -3.313709,-3e-5 -6.142136,-1.1716 -8.485283,-3.51474 C 47.171574,369.14212 46,366.31369 46,363 v -56 c 0,-3.31372 1.171574,-6.14215 3.514717,-8.48529 C 51.857864,296.17157 54.686291,295 58,295 Z" /></g><g
           transform="matrix(0.71953011,0,0,0.71953011,51.806168,233.12775)"
           id="g126"><text
             id="text130"
             style="font-variant:normal;font-weight:normal;font-size:20px;font-family:Helvetica;-inkscape-font-specification:Helvetica;writing-mode:lr-tb;fill:#000000;fill-opacity:1;fill-rule:nonzero;stroke:none"
             transform="translate(0.140625,18)"><tspan
               id="tspan128"
               y="0"
               x="0 14.443359 25.566406 36.689453 41.132812 52.255859 62.255859 78.916016 90.039062 101.16211">Deployment</tspan></text>
</g><g
           transform="scale(0.71953011)"
           id="g132"><path
             id="path134"
             style="fill:none;stroke:#000000;stroke-width:1;stroke-linecap:butt;stroke-linejoin:miter;stroke-miterlimit:10;stroke-dasharray:none;stroke-opacity:1"
             d="m 543,446 c 0,82.66669 -35.25333,124 -105.76001,124" /><path
             id="path136"
             style="fill:#000000;fill-opacity:1;fill-rule:nonzero;stroke:none"
             d="m 431.23999,570 8,-4 -2,4 2,4 z" /><path
             id="path138"
             style="fill:none;stroke:#000000;stroke-width:1;stroke-linecap:butt;stroke-linejoin:miter;stroke-miterlimit:10;stroke-dasharray:none;stroke-opacity:1"
             d="m 431.23999,570 8,-4 -2,4 2,4 z" /><path
             id="path140"
             style="fill:none;stroke:#000000;stroke-width:1;stroke-linecap:butt;stroke-linejoin:miter;stroke-miterlimit:10;stroke-dasharray:none;stroke-opacity:1"
             d="m 504,365 c 0,0 0,-13.58667 0,-40.76001" /><path
             id="path142"
             style="fill:#000000;fill-opacity:1;fill-rule:nonzero;stroke:none"
             d="m 504,318.23999 4,8 -4,-2 -4,2 z" /><path
             id="path144"
             style="fill:none;stroke:#000000;stroke-width:1;stroke-linecap:butt;stroke-linejoin:miter;stroke-miterlimit:10;stroke-dasharray:none;stroke-opacity:1"
             d="m 504,318.23999 4,8 -4,-2 -4,2 z" /><path
             id="path146"
             style="fill:none;stroke:#000000;stroke-width:1;stroke-linecap:butt;stroke-linejoin:miter;stroke-miterlimit:10;stroke-dasharray:none;stroke-opacity:1"
             d="m 476,365 h 136 c 3.31366,0 6.14209,1.17157 8.48523,3.51471 2.34314,2.34314 3.51471,5.17157 3.51477,8.48529 v 56 c -6e-5,3.31369 -1.17163,6.14209 -3.51477,8.48523 C 618.14209,443.82837 615.31366,444.99997 612,445 H 476 c -3.31375,-3e-5 -6.14218,-1.17163 -8.48532,-3.51477 C 465.17154,439.14209 463.99997,436.31369 464,433 v -56 c -3e-5,-3.31372 1.17154,-6.14215 3.51468,-8.48529 C 469.85782,366.17157 472.68625,365 476,365 Z" /></g><g
           transform="matrix(0.71953011,0,0,0.71953011,360.48459,283.49487)"
           id="g148"><text
             id="text152"
             style="font-variant:normal;font-weight:normal;font-size:20px;font-family:Helvetica;-inkscape-font-specification:Helvetica;writing-mode:lr-tb;fill:#000000;fill-opacity:1;fill-rule:nonzero;stroke:none"
             transform="translate(0.6875,18)"><tspan
               id="tspan150"
               y="0"
               x="0 16.660156 27.783203 38.90625 50.029297 54.472656 58.916016 63.359375 74.482422">Modelling</tspan></text>
</g><g
           transform="scale(0.71953011)"
           id="g154"><path
             id="path156"
             style="fill:none;stroke:#000000;stroke-width:1;stroke-linecap:butt;stroke-linejoin:miter;stroke-miterlimit:10;stroke-dasharray:none;stroke-opacity:1"
             d="M 23,376 21.16,352.31" /><path
             id="path158"
             style="fill:#000000;fill-opacity:1;fill-rule:nonzero;stroke:none"
             d="M 19.6,332.37 31.120001,351.54001 11.19,353.09 Z" /><path
             id="path160"
             style="fill:none;stroke:#000000;stroke-width:1;stroke-linecap:butt;stroke-linejoin:miter;stroke-miterlimit:10;stroke-dasharray:none;stroke-opacity:1"
             d="M 19.6,332.37 31.120001,351.54001 11.19,353.09 Z" /><path
             id="path162"
             style="fill:none;stroke:#000000;stroke-width:1;stroke-linecap:butt;stroke-linejoin:miter;stroke-miterlimit:10;stroke-dasharray:none;stroke-opacity:1"
             d="M 323.57001,19.639999 H 334.19" /><path
             id="path164"
             style="fill:#000000;fill-opacity:1;fill-rule:nonzero;stroke:none"
             d="m 354.19,19.639999 -20,10 V 9.6400003 Z" /><path
             id="path166"
             style="fill:none;stroke:#000000;stroke-width:1;stroke-linecap:butt;stroke-linejoin:miter;stroke-miterlimit:10;stroke-dasharray:none;stroke-opacity:1"
             d="m 354.19,19.639999 -20,10 V 9.6400003 Z" /><path
             id="path168"
             style="fill:none;stroke:#000000;stroke-width:1;stroke-linecap:butt;stroke-linejoin:miter;stroke-miterlimit:10;stroke-dasharray:none;stroke-opacity:1"
             d="m 659,320 0.17999,16.41" /><path
             id="path170"
             style="fill:#000000;fill-opacity:1;fill-rule:nonzero;stroke:none"
             d="m 659.40002,356.41 -10.22003,-19.89001 20,-0.22 z" /><path
             id="path172"
             style="fill:none;stroke:#000000;stroke-width:1;stroke-linecap:butt;stroke-linejoin:miter;stroke-miterlimit:10;stroke-dasharray:none;stroke-opacity:1"
             d="m 659.40002,356.41 -10.22003,-19.89001 20,-0.22 z" /><path
             id="path174"
             style="fill:none;stroke:#000000;stroke-width:1;stroke-linecap:butt;stroke-linejoin:miter;stroke-miterlimit:10;stroke-dasharray:none;stroke-opacity:1"
             d="m 365,659 -2.78,0.10999" /><path
             id="path176"
             style="fill:#000000;fill-opacity:1;fill-rule:nonzero;stroke:none"
             d="m 342.23001,659.90997 19.59,-10.78997 0.79999,19.97998 z" /><path
             id="path178"
             style="fill:none;stroke:#000000;stroke-width:1;stroke-linecap:butt;stroke-linejoin:miter;stroke-miterlimit:10;stroke-dasharray:none;stroke-opacity:1"
             d="m 342.23001,659.90997 19.59,-10.78997 0.79999,19.97998 z" /></g><g
           transform="matrix(0.71953011,0,0,0.71953011,0.35976505,0.35976505)"
           id="g180"><path
             id="path182"
             style="fill:#505050;fill-opacity:1;fill-rule:nonzero;stroke:none"
             d="m 270,358.66 c 6.75,4.81 18.89999,9.03 32.57001,11.19999 24.03,3.86001 49.67999,3.76001 72.63998,0.36001 14.22,-2.09 26.61002,-5.92001 34.79001,-11.56 v 35.72 c -1.07001,9.85999 -10.76001,15.06 -21.25,18.53 -23.75,7.19001 -64.54001,8.09 -93.48999,1.19001 -12.03,-3.25 -24.23001,-8.70002 -25.26001,-19.75 z m 0,-53.98999 c 6.75,4.84 18.89999,9.03 32.57001,11.22998 24.03,3.83002 49.67999,3.76001 72.63998,0.36002 C 389.42999,314.13 401.82001,310.34 410,304.70999 v 35.68002 c -1.07001,9.85999 -10.76001,15.06 -21.25,18.56 -23.75,7.15 -64.54001,8.06 -93.48999,1.19 -12.03,-3.25 -24.23001,-8.70001 -25.26001,-19.75 z M 270,290.41 c 0,-9.42999 21.72,-19.29 68.67001,-20.41 46.59,0 71.32999,10.79999 71.32999,20.37 0,10.58001 -29.98999,20.26 -66.79999,20.26 C 305.42999,311.10001 270,302.5 270,290.41 Z" /></g><g
           transform="matrix(0.71953011,0,0,0.71953011,228.81058,239.60353)"
           id="g184"><text
             id="text188"
             style="font-variant:normal;font-weight:normal;font-size:22px;font-family:Helvetica;-inkscape-font-specification:Helvetica;writing-mode:lr-tb;fill:#ffffff;fill-opacity:1;fill-rule:nonzero;stroke:none"
             transform="translate(0,20)"><tspan
               id="tspan186"
               y="0"
               x="0 15.887695 28.123047 34.235352">Data</tspan></text>
</g></g></g></g></svg>