<?xml version="1.0" encoding="UTF-8" standalone="no"?>
<svg
   xmlns:dc="http://purl.org/dc/elements/1.1/"
   xmlns:cc="http://creativecommons.org/ns#"
   xmlns:rdf="http://www.w3.org/1999/02/22-rdf-syntax-ns#"
   xmlns:svg="http://www.w3.org/2000/svg"
   xmlns="http://www.w3.org/2000/svg"
   viewBox="0 0 1318.72 618.56"
   height="618.56"
   width="1318.72"
   xml:space="preserve"
   id="svg2"
   version="1.1"><metadata
     id="metadata8"><rdf:RDF><cc:Work
         rdf:about=""><dc:format>image/svg+xml</dc:format><dc:type
           rdf:resource="http://purl.org/dc/dcmitype/StillImage" /></cc:Work></rdf:RDF></metadata><defs
     id="defs6"><clipPath
       id="clipPath18"
       clipPathUnits="userSpaceOnUse"><path
         style="clip-rule:evenodd"
         id="path16"
         d="M 0,0 H 4120.8335 V 1933.0454 H 0 Z" /></clipPath><clipPath
       id="clipPath30"
       clipPathUnits="userSpaceOnUse"><path
         style="clip-rule:evenodd"
         id="path28"
         d="M 0,0 H 4120.8335 V 1930.0485 H 0 Z" /></clipPath></defs><g
     transform="matrix(0.31999998,0,0,0.31999998,0,1.2130666e-5)"
     id="g10"><g
       id="g12"><g
         clip-path="url(#clipPath18)"
         id="g14"><g
           transform="scale(2.9969697)"
           id="g20"><path
             id="path22"
             style="fill:#ffffff;fill-opacity:1;fill-rule:nonzero;stroke:none"
             d="M 0,0 H 1375 V 645 H 0 Z" /></g></g></g><g
       id="g24"><g
         clip-path="url(#clipPath30)"
         id="g26"><g
           transform="scale(2.9969697)"
           id="g32"><path
             id="path34"
             style="fill:#ffe6cc;fill-opacity:1;fill-rule:nonzero;stroke:none"
             d="m 1372,322 c 0,5.23703 -0.275,10.47092 -0.8251,15.70166 -0.5501,5.23074 -1.3746,10.452 -2.4734,15.66382 -1.0988,5.21182 -2.4708,10.4079 -4.1157,15.58822 -1.6449,5.18033 -3.5609,10.33872 -5.748,15.47513 -2.1872,5.13642 -4.6426,10.24469 -7.3665,15.3248 -2.724,5.08008 -5.713,10.12589 -8.9673,15.13742 -3.2542,5.01154 -6.7697,9.98276 -10.5465,14.91367 -3.7767,4.93088 -7.8102,9.81552 -12.1002,14.65393 -4.2902,4.83841 -8.8318,9.62469 -13.6249,14.35892 -4.7931,4.73425 -9.8319,9.4107 -15.1164,14.02935 -5.2846,4.61866 -10.8086,9.17395 -16.572,13.66593 -5.7635,4.49191 -11.7593,8.9151 -17.9875,13.26956 -6.2284,4.35446 -12.6815,8.63489 -19.3595,12.84131 -6.6782,4.20642 -13.5732,8.3338 -20.6849,12.38208 -7.1119,4.04828 -14.4323,8.01263 -21.9607,11.89306 -7.5286,3.88038 -15.2564,7.67212 -23.1834,11.37525 -7.9271,3.70318 -16.0438,7.31323 -24.3503,10.8302 -8.3065,3.51703 -16.7926,6.93664 -25.4584,10.25897 -8.6659,3.32233 -17.5011,6.54334 -26.5053,9.66303 -9.0044,3.11969 -18.1673,6.13433 -27.4884,9.04388 -9.3212,2.90961 -18.7896,5.71057 -28.4052,8.40289 -9.6156,2.69239 -19.3668,5.27295 -29.2537,7.7417 -9.8868,2.46869 -19.89736,4.82257 -30.03158,7.06171 -10.13421,2.23914 -20.37988,4.36078 -30.73712,6.36487 -10.35718,2.00415 -20.81335,3.88836 -31.36853,5.65265 -10.55524,1.76434 -21.19678,3.40661 -31.92456,4.92688 -10.72784,1.5202 -21.52905,2.91656 -32.40363,4.18908 -10.87457,1.27246 -21.80938,2.41956 -32.8045,3.44129 -10.99512,1.02166 -22.03729,1.91675 -33.12653,2.68518 -11.08917,0.76843 -22.21203,1.4093 -33.36853,1.92267 -11.15655,0.5133 -22.33337,0.89843 -33.53039,1.15539 C 709.41431,641.87146 698.21051,641.99994 687,642 c -11.21051,-6e-5 -22.41431,-0.12854 -33.61139,-0.3855 -11.19702,-0.25696 -22.37378,-0.64209 -33.53033,-1.15539 -11.15656,-0.51337 -22.27942,-1.15424 -33.36866,-1.92261 -11.08917,-0.76849 -22.13134,-1.66358 -33.12652,-2.68524 -10.99512,-1.02173 -21.92999,-2.16883 -32.80457,-3.44129 -10.87454,-1.27252 -21.67572,-2.66888 -32.40353,-4.18908 -10.72781,-1.52027 -21.36936,-3.16254 -31.92459,-4.92688 -10.55521,-1.76429 -21.01139,-3.6485 -31.36859,-5.65265 -10.35718,-2.00409 -20.60288,-4.12573 -30.73706,-6.36487 -10.13419,-2.23914 -20.14472,-4.59302 -30.03153,-7.06171 -9.88681,-2.46875 -19.63803,-5.04931 -29.25363,-7.7417 -9.6156,-2.69232 -19.08402,-5.49328 -28.40521,-8.40289 -9.32123,-2.90955 -18.48404,-5.92419 -27.48841,-9.04388 -9.00439,-3.11969 -17.83953,-6.3407 -26.50538,-9.66303 -8.66588,-3.32233 -17.15204,-6.74194 -25.4585,-10.25897 -8.30646,-3.51697 -16.42322,-7.12702 -24.35026,-10.8302 -7.92705,-3.70313 -15.65485,-7.49487 -23.18337,-11.37525 -7.52855,-3.88043 -14.84875,-7.84478 -21.96065,-11.89306 -7.11189,-4.04828 -14.00688,-8.17566 -20.68499,-12.38208 -6.67812,-4.20642 -13.13129,-8.48685 -19.35952,-12.84131 -6.22824,-4.35446 -12.22405,-8.77765 -17.987416,-13.26959 -5.763374,-4.49195 -11.287361,-9.04724 -16.57196,-13.66587 -5.284615,-4.61865 -10.323486,-9.2951 -15.116608,-14.02938 -4.793125,-4.73423 -9.334728,-9.52051 -13.624817,-14.35892 -4.290084,-4.83841 -8.323486,-9.72305 -12.100204,-14.65393 -3.776714,-4.93088 -7.292194,-9.9021 -10.54644,-14.91364 -3.254248,-5.01156 -6.243342,-10.05737 -8.96728,-15.13745 C 19.804649,394.67352 17.349148,389.56528 15.16208,384.42886 12.975013,379.29245 11.059016,374.13406 9.4140892,368.9537 7.7691622,363.77338 6.3972864,358.5773 5.2984619,353.36548 4.1996369,348.15366 3.3751874,342.9324 2.8251123,337.70166 2.2750373,332.47092 2,327.23703 2,322 c 0,-5.23703 0.2750373,-10.47092 0.8251123,-15.70163 0.5500751,-5.23074 1.3745246,-10.45203 2.4733496,-15.66385 1.0988245,-5.21185 2.4707003,-10.40796 4.1156273,-15.58829 1.6449268,-5.18039 3.5609238,-10.33877 5.7479908,-15.47515 2.187068,-5.1364 4.642569,-10.24466 7.366505,-15.32476 2.723938,-5.08009 5.713032,-10.1259 8.96728,-15.13742 3.254246,-5.01153 6.769726,-9.98276 10.54644,-14.91365 3.776718,-4.93091 7.81012,-9.81557 12.100204,-14.65396 4.290089,-4.83839 8.831692,-9.62471 13.624817,-14.35893 4.793122,-4.73422 9.831986,-9.41066 15.1166,-14.02931 5.284607,-4.61867 10.808594,-9.17399 16.571968,-13.66594 5.763356,-4.49196 11.759166,-8.91517 17.987406,-13.26961 6.22824,-4.35443 12.68141,-8.63486 19.35951,-12.8413 6.67812,-4.20642 13.57312,-8.33377 20.68501,-12.38206 7.1119,-4.04829 14.4321,-8.01263 21.96065,-11.89302 7.52852,-3.88039 15.25632,-7.67215 23.18337,-11.375298 7.92704,-3.703147 16.0438,-7.313209 24.35028,-10.830192 8.30644,-3.516976 16.7926,-6.936638 25.45848,-10.25898 8.66585,-3.322342 17.50099,-6.543365 26.50538,-9.663063 9.00437,-3.119701 18.16718,-6.134327 27.48841,-9.043873 9.32119,-2.909542 18.78961,-5.710502 28.40521,-8.402881 9.6156,-2.692372 19.36682,-5.272919 29.25363,-7.741642 9.88681,-2.468724 19.89734,-4.822648 30.03153,-7.061768 10.13418,-2.239122 20.37988,-4.360748 30.73706,-6.364878 10.3572,-2.004127 20.81341,-3.888344 31.36862,-5.652649 10.5552,-1.764305 21.19675,-3.406574 31.92456,-4.926805 10.72781,-1.520232 21.52899,-2.916597 32.40353,-4.189094 10.87458,-1.272496 21.80945,-2.4195926 32.80457,-3.4412887 10.99518,-1.0216956 22.03735,-1.9167594 33.12659,-2.6851925 11.08917,-0.7684331 22.21203,-1.409309 33.36859,-1.9226287 C 631.01483,3.0275674 642.19159,2.6424232 653.38861,2.3854539 664.58569,2.1284847 675.78949,2 687,2 c 11.21051,0 22.41431,0.1284847 33.61127,0.3854539 11.19708,0.2569693 22.37384,0.6421135 33.53039,1.1554332 11.15656,0.5133197 22.27942,1.1541956 33.36859,1.9226282 11.08924,0.7684331 22.13141,1.6634974 33.12653,2.685193 10.99512,1.0216961 21.92999,2.1687927 32.80457,3.4412887 10.87457,1.272498 21.67572,2.668863 32.40356,4.189095 10.72778,1.520232 21.36926,3.162499 31.9245,4.926804 10.55524,1.764305 21.01141,3.648522 31.36859,5.652649 10.35724,2.00413 20.60297,4.125754 30.73718,6.364874 10.13422,2.239124 20.14472,4.593048 30.03152,7.061772 9.8868,2.468723 19.638,5.04927 29.2536,7.741645 9.6156,2.692376 19.084,5.493336 28.4051,8.402878 9.3212,2.909546 18.484,5.924172 27.4884,9.043873 9.0044,3.119698 17.8396,6.340721 26.5055,9.663063 8.6658,3.322342 17.152,6.742004 25.4585,10.25898 8.3064,3.516983 16.4231,7.127045 24.3502,10.830192 7.927,3.703148 15.6548,7.494908 23.1834,11.375298 7.5284,3.88039 14.8488,7.84473 21.9607,11.89302 7.1117,4.04829 14.0067,8.17564 20.6849,12.38206 6.678,4.20644 13.1311,8.48687 19.3595,12.84131 6.2282,4.35445 12.224,8.77765 17.9875,13.26961 5.7634,4.49196 11.2874,9.04726 16.572,13.66593 5.2845,4.61865 10.3233,9.29509 15.1164,14.02931 4.7931,4.73422 9.3347,9.52054 13.6249,14.35893 4.29,4.83839 8.3235,9.72305 12.1002,14.65395 3.7768,4.9309 7.2923,9.90213 10.5465,14.91366 3.2543,5.01152 6.2433,10.05734 8.9673,15.13744 2.7239,5.08009 5.1793,10.18834 7.3665,15.32474 2.1871,5.13638 4.1031,10.29476 5.748,15.47515 1.6449,5.18033 3.0169,10.37644 4.1157,15.58829 1.0988,5.21182 1.9233,10.43311 2.4734,15.66385 C 1371.725,311.52908 1372,316.76297 1372,322 Z" /><path
             id="path36"
             style="fill:#f5f5f5;fill-opacity:1;fill-rule:nonzero;stroke:none"
             d="m 1037,318 c 0,4.50058 -0.1405,8.99847 -0.4216,13.49362 -0.2812,4.49515 -0.7024,8.98218 -1.2638,13.46109 -0.5614,4.47891 -1.2625,8.94428 -2.1029,13.39615 -0.8405,4.45187 -1.8195,8.88486 -2.9369,13.29895 -1.1174,4.41409 -2.3721,8.80402 -3.7639,13.16971 -1.3918,4.36569 -2.919,8.70196 -4.5818,13.00876 -1.6628,4.30676 -3.4591,8.57889 -5.3888,12.8164 -1.9297,4.23746 -3.9906,8.43522 -6.1826,12.5932 -2.1919,4.15799 -4.5125,8.27124 -6.9615,12.33973 -2.4491,4.06845 -5.02364,8.08728 -7.72378,12.05645 -2.70019,3.96915 -5.52264,7.88385 -8.4674,11.74411 -2.94483,3.86032 -6.00843,7.6615 -9.19074,11.4036 -3.18231,3.74209 -6.47955,7.42059 -9.89166,11.03549 -3.41217,3.61493 -6.93518,7.1619 -10.56897,10.6409 -3.63385,3.47897 -7.37408,6.88583 -11.22076,10.22055 -3.84668,3.33469 -7.79517,6.59323 -11.84552,9.77564 -4.0503,3.18243 -8.19751,6.28479 -12.44172,9.30719 -4.2442,3.0224 -8.58013,5.96118 -13.00793,8.81634 -4.4278,2.85516 -8.94214,5.62317 -13.54297,8.30414 -4.60077,2.68097 -9.28247,5.27167 -14.04517,7.77209 -4.76263,2.50037 -9.60052,4.90741 -14.51367,7.2212 -4.91302,2.31378 -9.89538,4.53143 -14.94702,6.65307 -5.0517,2.12152 -10.16656,4.14447 -15.3446,6.06873 -5.1781,1.92419 -10.41315,3.74743 -15.70514,5.46972 -5.29193,1.72229 -10.63452,3.34156 -16.02771,4.85779 -5.39319,1.51618 -10.83045,2.92749 -16.31183,4.23395 -5.48138,1.30646 -11.00031,2.50647 -16.55664,3.59997 -5.55634,1.09357 -11.14343,2.07935 -16.76141,2.95734 -5.61799,0.87799 -11.25995,1.64722 -16.92591,2.30762 -5.66595,0.66034 -11.34918,1.21112 -17.04962,1.65228 -5.7005,0.4411 -11.41125,0.7721 -17.13238,0.99292 -5.72114,0.22083 -11.44568,0.33124 -17.17365,0.3313 -5.72803,-6e-5 -11.45264,-0.11047 -17.17377,-0.3313 -5.72107,-0.22082 -11.43182,-0.55182 -17.13226,-0.99292 -5.70044,-0.44116 -11.38367,-0.99194 -17.04968,-1.65228 -5.66602,-0.6604 -11.30799,-1.42963 -16.92597,-2.30762 -5.61798,-0.87799 -11.20508,-1.86377 -16.76141,-2.95734 -5.55634,-1.0935 -11.0752,-2.29351 -16.55652,-3.59997 -5.48138,-1.30646 -10.9187,-2.71777 -16.31189,-4.23395 -5.39319,-1.51623 -10.73578,-3.1355 -16.02777,-4.85779 -5.29199,-1.72229 -10.52704,-3.54553 -15.70514,-5.46978 -5.17798,-1.92426 -10.29278,-3.94715 -15.34448,-6.06867 -5.0517,-2.12164 -10.03406,-4.33929 -14.94711,-6.65307 -4.91309,-2.31379 -9.75098,-4.72083 -14.51365,-7.2212 -4.76266,-2.50042 -9.44439,-5.09112 -14.04516,-7.77209 -4.60077,-2.68097 -9.11505,-5.44898 -13.54288,-8.30414 -4.42783,-2.85516 -8.76382,-5.79394 -13.00799,-8.81634 -4.24418,-3.0224 -8.39142,-6.12476 -12.44172,-9.30719 -4.05032,-3.18241 -7.99881,-6.44095 -11.84549,-9.77567 -3.84671,-3.33469 -7.58694,-6.74155 -11.22076,-10.22052 -3.63382,-3.479 -7.1568,-7.02597 -10.569,-10.6409 -3.4122,-3.6149 -6.70944,-7.2934 -9.89175,-11.03549 -3.18235,-3.7421 -6.24588,-7.54328 -9.19068,-11.40357 -2.94479,-3.86026 -5.76724,-7.77496 -8.46741,-11.74411 -2.70016,-3.96917 -5.27478,-7.988 -7.72381,-12.05648 -2.44904,-4.06849 -4.76956,-8.18174 -6.96158,-12.33973 -2.19202,-4.15798 -4.25287,-8.35574 -6.18259,-12.59323 -1.92971,-4.23751 -3.72592,-8.50964 -5.38867,-12.8164 -1.66275,-4.3068 -3.19003,-8.64304 -4.58185,-13.00876 -1.39178,-4.36569 -2.64642,-8.75559 -3.76388,-13.16971 -1.11746,-4.41409 -2.09644,-8.84705 -2.93689,-13.29892 -0.84049,-4.45187 -1.54144,-8.91727 -2.10288,-13.39618 -0.56146,-4.47888 -0.98272,-8.96591 -1.26376,-13.46106 C 337.14053,326.99847 337,322.50058 337,318 c 0,-4.50058 0.14053,-8.99844 0.4216,-13.49362 0.28104,-4.49515 0.7023,-8.98218 1.26376,-13.46109 0.56144,-4.47891 1.26239,-8.94434 2.10285,-13.39621 0.84048,-4.45188 1.81946,-8.88486 2.93692,-13.29895 1.11746,-4.41409 2.3721,-8.804 3.76391,-13.16971 1.39182,-4.36571 2.91907,-8.70195 4.58182,-13.00873 1.66275,-4.30679 3.45896,-8.57893 5.38867,-12.81643 1.92972,-4.23749 3.99057,-8.43523 6.18259,-12.59324 2.19202,-4.15799 4.51254,-8.27122 6.96158,-12.33972 2.44903,-4.06846 5.02365,-8.08728 7.72381,-12.05642 2.70017,-3.96917 5.52265,-7.88389 8.46744,-11.74416 2.94477,-3.86028 6.0083,-7.66147 9.19065,-11.40355 3.18231,-3.7421 6.47955,-7.42059 9.89172,-11.03549 3.4122,-3.6149 6.93521,-7.16184 10.56903,-10.64083 3.63382,-3.479 7.37405,-6.88586 11.22073,-10.22056 3.84671,-3.3347 7.7952,-6.59326 11.84552,-9.77566 4.0503,-3.18239 8.19754,-6.28479 12.44172,-9.30719 4.2442,-3.02241 8.5802,-5.96117 13.00802,-8.81631 4.4278,-2.85514 8.94208,-5.62321 13.54288,-8.304202 4.60077,-2.680993 9.2825,-5.271691 14.04516,-7.77208 4.76267,-2.500389 9.60053,-4.907463 14.51365,-7.221222 4.91305,-2.313759 9.89538,-4.531425 14.94708,-6.652984 5.0517,-2.12156 10.1665,-4.144455 15.34454,-6.068703 5.17804,-1.924248 10.41309,-3.747521 15.70508,-5.469818 5.29199,-1.722298 10.63458,-3.341545 16.02777,-4.857746 5.39319,-1.516201 10.83045,-2.927525 16.31183,-4.233971 5.48138,-1.306446 11.00024,-2.506447 16.55658,-3.600002 5.55633,-1.093548 11.14343,-2.079335 16.76141,-2.957356 5.61798,-0.878017 11.25995,-1.647213 16.92597,-2.307586 5.66601,-0.660374 11.34924,-1.211125 17.04968,-1.652257 5.70044,-0.441135 11.41119,-0.772121 17.13226,-0.992954 C 675.54736,43.110416 681.27197,43 687,43 c 5.72797,0 11.45251,0.110416 17.17365,0.331249 5.72113,0.220829 11.43188,0.551815 17.13232,0.992951 5.70044,0.441135 11.38367,0.991886 17.04962,1.652256 5.66602,0.660373 11.30798,1.429573 16.92597,2.30759 5.61798,0.878021 11.20507,1.863808 16.76141,2.957356 5.55633,1.093555 11.07526,2.293556 16.55664,3.600006 5.48138,1.306446 10.91864,2.717769 16.31183,4.233967 5.39319,1.516201 10.73578,3.135448 16.02771,4.857746 5.29199,1.722297 10.52704,3.54557 15.70508,5.469818 5.1781,1.924248 10.29296,3.947151 15.3446,6.068718 5.05158,2.121559 10.03394,4.339218 14.94702,6.652977 4.91309,2.313759 9.75098,4.720825 14.51367,7.221214 4.76264,2.500389 9.4444,5.09108 14.04523,7.772072 4.60077,2.681 9.11511,5.44907 13.54297,8.3042 4.4278,2.85514 8.76373,5.79391 13.00793,8.81632 4.24421,3.0224 8.39142,6.1248 12.44172,9.30719 4.05035,3.1824 7.99884,6.44096 11.84558,9.77566 3.84662,3.3347 7.58685,6.74156 11.2207,10.22055 3.63379,3.47899 7.1568,7.02594 10.56897,10.64082 3.41211,3.61492 6.70935,7.29341 9.89166,11.03551 3.18231,3.74208 6.24591,7.54327 9.19068,11.40356 2.94476,3.86028 5.76727,7.775 8.46746,11.74416 2.70014,3.96915 5.27468,7.98796 7.72378,12.05643 2.449,4.06848 4.7696,8.18171 6.9615,12.3397 2.192,4.15801 4.2529,8.35575 6.1826,12.59324 1.9298,4.2375 3.7261,8.50964 5.3888,12.81642 1.6628,4.30677 3.19,8.64303 4.5818,13.00874 1.3918,4.36571 2.6465,8.75562 3.7639,13.16971 1.1174,4.41409 2.0963,8.84707 2.9368,13.29895 0.8405,4.45187 1.5416,8.9173 2.103,13.39621 0.5614,4.47891 0.9826,8.96594 1.2638,13.46109 0.2811,4.49518 0.4216,8.99304 0.4216,13.49362 z" /><path
             id="path38"
             style="fill:#ffffff;fill-opacity:1;fill-rule:nonzero;stroke:none"
             d="m 587,361 c 0,-13.32999 191,-13.32999 191,0 v 30 c 0,13.32999 -191,13.32999 -191,0 z" /><path
             id="path40"
             style="fill:none;stroke:#000000;stroke-width:1;stroke-linecap:butt;stroke-linejoin:miter;stroke-miterlimit:10;stroke-dasharray:none;stroke-opacity:1"
             d="m 587,361 c 0,-13.32999 191,-13.32999 191,0 v 30 c 0,13.32999 -191,13.32999 -191,0 z" /><path
             id="path42"
             style="fill:none;stroke:#000000;stroke-width:1;stroke-linecap:butt;stroke-linejoin:miter;stroke-miterlimit:10;stroke-dasharray:none;stroke-opacity:1"
             d="m 587,361 c 0,10 191,10 191,0" /></g><g
           transform="matrix(2.9969697,0,0,2.9969697,1867.1122,1117.8698)"
           id="g44"><text
             id="text48"
             style="font-variant:normal;font-weight:bold;font-size:19px;font-family:Helvetica;-inkscape-font-specification:Helvetica-Bold;writing-mode:lr-tb;fill:#000000;fill-opacity:1;fill-rule:nonzero;stroke:none"
             transform="translate(0.84375,18)"><tspan
               id="tspan46"
               y="0"
               x="0 13.721191 24.288086 30.615234 41.182129 46.460938 60.182129 70.749023 76.027832 86.594727 97.161621 107.72852">Data Release</tspan></text>
</g><g
           transform="scale(2.9969697)"
           id="g50"><path
             id="path52"
             style="fill:#ffffff;fill-opacity:1;fill-rule:nonzero;stroke:none"
             d="m 587,320 c 0,-14.67001 191,-14.67001 191,0 v 32 c 0,14.67001 -191,14.67001 -191,0 z" /><path
             id="path54"
             style="fill:none;stroke:#000000;stroke-width:1;stroke-linecap:butt;stroke-linejoin:miter;stroke-miterlimit:10;stroke-dasharray:none;stroke-opacity:1"
             d="m 587,320 c 0,-14.67001 191,-14.67001 191,0 v 32 c 0,14.67001 -191,14.67001 -191,0 z" /><path
             id="path56"
             style="fill:none;stroke:#000000;stroke-width:1;stroke-linecap:butt;stroke-linejoin:miter;stroke-miterlimit:10;stroke-dasharray:none;stroke-opacity:1"
             d="m 587,320 c 0,11 191,11 191,0" /></g><g
           transform="matrix(2.9969697,0,0,2.9969697,1807.1727,997.99091)"
           id="g58"><text
             id="text62"
             style="font-variant:normal;font-weight:bold;font-size:19px;font-family:Helvetica;-inkscape-font-specification:Helvetica-Bold;writing-mode:lr-tb;fill:#000000;fill-opacity:1;fill-rule:nonzero;stroke:none"
             transform="translate(0.34375,18)"><tspan
               id="tspan60"
               y="0"
               x="0 13.721191 24.288086 30.615234 41.182129 46.460938 60.182129 67.576172 78.143066 89.749023 95.027832 101.35498 111.92188 122.48877 128.81592 134.09473 145.70068">Data Architecting</tspan></text>
</g><g
           transform="scale(2.9969697)"
           id="g64"><path
             id="path66"
             style="fill:#ffffff;fill-opacity:1;fill-rule:nonzero;stroke:none"
             d="m 586.5,282 c 0,-13.32999 191,-13.32999 191,0 v 30 c 0,13.32999 -191,13.32999 -191,0 z" /><path
             id="path68"
             style="fill:none;stroke:#000000;stroke-width:1;stroke-linecap:butt;stroke-linejoin:miter;stroke-miterlimit:10;stroke-dasharray:none;stroke-opacity:1"
             d="m 586.5,282 c 0,-13.32999 191,-13.32999 191,0 v 30 c 0,13.32999 -191,13.32999 -191,0 z" /><path
             id="path70"
             style="fill:none;stroke:#000000;stroke-width:1;stroke-linecap:butt;stroke-linejoin:miter;stroke-miterlimit:10;stroke-dasharray:none;stroke-opacity:1"
             d="m 586.5,282 c 0,10 191,10 191,0" /></g><g
           transform="matrix(2.9969697,0,0,2.9969697,1828.1515,881.10907)"
           id="g72"><text
             id="text76"
             style="font-variant:normal;font-weight:bold;font-size:19px;font-family:Helvetica;-inkscape-font-specification:Helvetica-Bold;writing-mode:lr-tb;fill:#000000;fill-opacity:1;fill-rule:nonzero;stroke:none"
             transform="translate(0.21875,18)"><tspan
               id="tspan74"
               y="0"
               x="0 13.721191 24.288086 30.615234 41.182129 46.460938 59.133789 64.412598 81.306641 92.912598 98.191406 108.7583 115.08545 120.36426">Data Simulatio</tspan></text>
<text
             id="text80"
             style="font-variant:normal;font-weight:bold;font-size:19px;font-family:Helvetica;-inkscape-font-specification:Helvetica-Bold;writing-mode:lr-tb;fill:#000000;fill-opacity:1;fill-rule:nonzero;stroke:none"
             transform="translate(132.1875,18)"><tspan
               id="tspan78"
               y="0"
               x="0">n</tspan></text>
</g><g
           transform="scale(2.9969697)"
           id="g82"><path
             id="path84"
             style="fill:#ffffff;fill-opacity:1;fill-rule:nonzero;stroke:none"
             d="m 586.5,244 c 0,-13.33 191,-13.33 191,0 v 30 c 0,13.32999 -191,13.32999 -191,0 z" /><path
             id="path86"
             style="fill:none;stroke:#000000;stroke-width:1;stroke-linecap:butt;stroke-linejoin:miter;stroke-miterlimit:10;stroke-dasharray:none;stroke-opacity:1"
             d="m 586.5,244 c 0,-13.33 191,-13.33 191,0 v 30 c 0,13.32999 -191,13.32999 -191,0 z" /><path
             id="path88"
             style="fill:none;stroke:#000000;stroke-width:1;stroke-linecap:butt;stroke-linejoin:miter;stroke-miterlimit:10;stroke-dasharray:none;stroke-opacity:1"
             d="m 586.5,244 c 0,10 191,10 191,0" /></g><g
           transform="matrix(2.9969697,0,0,2.9969697,1819.1606,767.22424)"
           id="g90"><text
             id="text94"
             style="font-variant:normal;font-weight:bold;font-size:19px;font-family:Helvetica;-inkscape-font-specification:Helvetica-Bold;writing-mode:lr-tb;fill:#000000;fill-opacity:1;fill-rule:nonzero;stroke:none"
             transform="translate(0.046875,18)"><tspan
               id="tspan92"
               y="0"
               x="0 13.721191 24.288086 30.615234 41.182129 46.460938 60.182129 70.749023 82.35498 93.960938 99.239746 109.80664 115.08545 121.4126 126.69141 138.29736">Data Acquisition</tspan></text>
</g><g
           transform="scale(2.9969697)"
           id="g96"><path
             id="path98"
             style="fill:#ffffff;fill-opacity:1;fill-rule:nonzero;stroke:none"
             d="m 459,133 h 136 c 0.7879,0 1.56824,0.0769 2.341,0.23058 0.77283,0.15371 1.5232,0.38133 2.25116,0.68286 0.72797,0.30153 1.4195,0.67115 2.07465,1.10891 0.65515,0.43775 1.26129,0.9352 1.81848,1.49236 0.55713,0.55714 1.05457,1.16328 1.49237,1.81842 0.43768,0.65514 0.80731,1.34669 1.10889,2.07466 0.30151,0.72795 0.52911,1.47832 0.68286,2.25111 C 606.92316,143.43169 607,144.21205 607,145 v 56 c 0,0.78792 -0.0768,1.56828 -0.23059,2.34106 -0.15375,0.7728 -0.38135,1.52317 -0.68286,2.25112 -0.30158,0.72795 -0.67121,1.41949 -1.10889,2.07464 -0.4378,0.65514 -0.93524,1.26128 -1.49237,1.81844 -0.55719,0.55714 -1.16333,1.0546 -1.81854,1.49236 -0.65509,0.43774 -1.34662,0.80738 -2.07459,1.10891 -0.72796,0.30153 -1.47833,0.52915 -2.25116,0.68286 -0.77276,0.15372 -1.5531,0.23059 -2.341,0.23061 H 459 c -0.78793,-2e-5 -1.56833,-0.0769 -2.34113,-0.23061 -0.77279,-0.15371 -1.52319,-0.38134 -2.25112,-0.68287 -0.72797,-0.30153 -1.41953,-0.67118 -2.07468,-1.10894 -0.65512,-0.43772 -1.26126,-0.93518 -1.81839,-1.49232 -0.55716,-0.55716 -1.0546,-1.16331 -1.49234,-1.81845 -0.43775,-0.65514 -0.8074,-1.34668 -1.10895,-2.07463 -0.30154,-0.72795 -0.52914,-1.47832 -0.68286,-2.25112 C 447.07684,202.56828 447,201.78792 447,201 v -56 c 0,-0.78795 0.0768,-1.56831 0.23053,-2.3411 0.15372,-0.77279 0.38132,-1.52316 0.68283,-2.25111 0.30154,-0.72797 0.67117,-1.41952 1.10895,-2.07466 0.43777,-0.65514 0.93521,-1.26128 1.49237,-1.81842 0.55713,-0.55716 1.16327,-1.05461 1.81839,-1.49236 0.65515,-0.43776 1.34671,-0.80738 2.07468,-1.10891 0.72793,-0.30153 1.47833,-0.52915 2.25112,-0.68286 C 457.43167,133.07686 458.21207,133 459,133 Z" /><path
             id="path100"
             style="fill:none;stroke:#000000;stroke-width:1;stroke-linecap:butt;stroke-linejoin:miter;stroke-miterlimit:10;stroke-dasharray:none;stroke-opacity:1"
             d="m 459,133 h 136 c 0.7879,0 1.56824,0.0769 2.341,0.23058 0.77283,0.15371 1.5232,0.38133 2.25116,0.68286 0.72797,0.30153 1.4195,0.67115 2.07465,1.10891 0.65515,0.43775 1.26129,0.9352 1.81848,1.49236 0.55713,0.55714 1.05457,1.16328 1.49237,1.81842 0.43768,0.65514 0.80731,1.34669 1.10889,2.07466 0.30151,0.72795 0.52911,1.47832 0.68286,2.25111 C 606.92316,143.43169 607,144.21205 607,145 v 56 c 0,0.78792 -0.0768,1.56828 -0.23059,2.34106 -0.15375,0.7728 -0.38135,1.52317 -0.68286,2.25112 -0.30158,0.72795 -0.67121,1.41949 -1.10889,2.07464 -0.4378,0.65514 -0.93524,1.26128 -1.49237,1.81844 -0.55719,0.55714 -1.16333,1.0546 -1.81854,1.49236 -0.65509,0.43774 -1.34662,0.80738 -2.07459,1.10891 -0.72796,0.30153 -1.47833,0.52915 -2.25116,0.68286 -0.77276,0.15372 -1.5531,0.23059 -2.341,0.23061 H 459 c -0.78793,-2e-5 -1.56833,-0.0769 -2.34113,-0.23061 -0.77279,-0.15371 -1.52319,-0.38134 -2.25112,-0.68287 -0.72797,-0.30153 -1.41953,-0.67118 -2.07468,-1.10894 -0.65512,-0.43772 -1.26126,-0.93518 -1.81839,-1.49232 -0.55716,-0.55716 -1.0546,-1.16331 -1.49234,-1.81845 -0.43775,-0.65514 -0.8074,-1.34668 -1.10895,-2.07463 -0.30154,-0.72795 -0.52914,-1.47832 -0.68286,-2.25112 C 447.07684,202.56828 447,201.78792 447,201 v -56 c 0,-0.78795 0.0768,-1.56831 0.23053,-2.3411 0.15372,-0.77279 0.38132,-1.52316 0.68283,-2.25111 0.30154,-0.72797 0.67117,-1.41952 1.10895,-2.07466 0.43777,-0.65514 0.93521,-1.26128 1.49237,-1.81842 0.55713,-0.55716 1.16327,-1.05461 1.81839,-1.49236 0.65515,-0.43776 1.34671,-0.80738 2.07468,-1.10891 0.72793,-0.30153 1.47833,-0.52915 2.25112,-0.68286 C 457.43167,133.07686 458.21207,133 459,133 Z" /></g><g
           transform="matrix(2.9969697,0,0,2.9969697,1366.6182,449.54544)"
           id="g102"><text
             id="text106"
             style="font-variant:normal;font-weight:bold;font-size:20px;font-family:Helvetica;-inkscape-font-specification:Helvetica-Bold;writing-mode:lr-tb;fill:#000000;fill-opacity:1;fill-rule:nonzero;stroke:none"
             transform="translate(27.03125,18)"><tspan
               id="tspan104"
               y="0"
               x="0 14.443359 26.660156 37.783203 43.339844 55.556641 66.679688 77.802734">Business</tspan></text>
<text
             id="text110"
             style="font-variant:normal;font-weight:bold;font-size:20px;font-family:Helvetica;-inkscape-font-specification:Helvetica-Bold;writing-mode:lr-tb;fill:#000000;fill-opacity:1;fill-rule:nonzero;stroke:none"
             transform="translate(0.9375,42)"><tspan
               id="tspan108"
               y="0"
               x="0 14.443359 26.660156 38.876953 50 57.783203 68.90625 75.566406 86.689453 98.90625 111.12305 116.67969 128.89648">Understanding</tspan></text>
</g><g
           transform="scale(2.9969697)"
           id="g112"><path
             id="path114"
             style="fill:#ffffff;fill-opacity:1;fill-rule:nonzero;stroke:none"
             d="m 779,133 h 136 c 0.7879,0 1.56824,0.0769 2.341,0.23058 0.77277,0.15371 1.52314,0.38133 2.2511,0.68286 0.72797,0.30153 1.41956,0.67115 2.07465,1.10891 0.65515,0.43775 1.26129,0.9352 1.81848,1.49236 0.55713,0.55714 1.05456,1.16328 1.49231,1.81842 0.4378,0.65514 0.80743,1.34669 1.10895,2.07466 0.30151,0.72795 0.52911,1.47832 0.68286,2.25111 0.15375,0.77279 0.23059,1.55315 0.23065,2.3411 v 56 c -6e-5,0.78792 -0.0769,1.56828 -0.23065,2.34106 -0.15375,0.7728 -0.38135,1.52317 -0.68286,2.25112 -0.30152,0.72795 -0.67115,1.41949 -1.10895,2.07464 -0.43775,0.65514 -0.93518,1.26128 -1.49231,1.81844 -0.55719,0.55714 -1.16333,1.0546 -1.81854,1.49236 -0.65509,0.43774 -1.34662,0.80738 -2.07459,1.10891 -0.72796,0.30153 -1.47833,0.52915 -2.2511,0.68286 -0.77276,0.15372 -1.5531,0.23059 -2.341,0.23061 H 779 c -0.78796,-2e-5 -1.56836,-0.0769 -2.34119,-0.23061 -0.77282,-0.15371 -1.52319,-0.38134 -2.25116,-0.68287 -0.72796,-0.30153 -1.41949,-0.67118 -2.07464,-1.10894 -0.65509,-0.43772 -1.26123,-0.93518 -1.81836,-1.49232 -0.55719,-0.55716 -1.05463,-1.16331 -1.49243,-1.81845 -0.43775,-0.65514 -0.80738,-1.34668 -1.10895,-2.07463 -0.30151,-0.72795 -0.52911,-1.47832 -0.6828,-2.25112 C 767.07678,202.56828 766.99994,201.78792 767,201 v -56 c -6e-5,-0.78795 0.0768,-1.56831 0.23047,-2.3411 0.15369,-0.77279 0.38129,-1.52316 0.6828,-2.25111 0.30157,-0.72797 0.6712,-1.41952 1.10895,-2.07466 0.4378,-0.65514 0.93524,-1.26128 1.49243,-1.81842 0.55713,-0.55716 1.16327,-1.05461 1.81836,-1.49236 0.65515,-0.43776 1.34668,-0.80738 2.07464,-1.10891 0.72797,-0.30153 1.47834,-0.52915 2.25116,-0.68286 C 777.43164,133.07686 778.21204,133 779,133 Z" /><path
             id="path116"
             style="fill:none;stroke:#000000;stroke-width:1;stroke-linecap:butt;stroke-linejoin:miter;stroke-miterlimit:10;stroke-dasharray:none;stroke-opacity:1"
             d="m 779,133 h 136 c 0.7879,0 1.56824,0.0769 2.341,0.23058 0.77277,0.15371 1.52314,0.38133 2.2511,0.68286 0.72797,0.30153 1.41956,0.67115 2.07465,1.10891 0.65515,0.43775 1.26129,0.9352 1.81848,1.49236 0.55713,0.55714 1.05456,1.16328 1.49231,1.81842 0.4378,0.65514 0.80743,1.34669 1.10895,2.07466 0.30151,0.72795 0.52911,1.47832 0.68286,2.25111 0.15375,0.77279 0.23059,1.55315 0.23065,2.3411 v 56 c -6e-5,0.78792 -0.0769,1.56828 -0.23065,2.34106 -0.15375,0.7728 -0.38135,1.52317 -0.68286,2.25112 -0.30152,0.72795 -0.67115,1.41949 -1.10895,2.07464 -0.43775,0.65514 -0.93518,1.26128 -1.49231,1.81844 -0.55719,0.55714 -1.16333,1.0546 -1.81854,1.49236 -0.65509,0.43774 -1.34662,0.80738 -2.07459,1.10891 -0.72796,0.30153 -1.47833,0.52915 -2.2511,0.68286 -0.77276,0.15372 -1.5531,0.23059 -2.341,0.23061 H 779 c -0.78796,-2e-5 -1.56836,-0.0769 -2.34119,-0.23061 -0.77282,-0.15371 -1.52319,-0.38134 -2.25116,-0.68287 -0.72796,-0.30153 -1.41949,-0.67118 -2.07464,-1.10894 -0.65509,-0.43772 -1.26123,-0.93518 -1.81836,-1.49232 -0.55719,-0.55716 -1.05463,-1.16331 -1.49243,-1.81845 -0.43775,-0.65514 -0.80738,-1.34668 -1.10895,-2.07463 -0.30151,-0.72795 -0.52911,-1.47832 -0.6828,-2.25112 C 767.07678,202.56828 766.99994,201.78792 767,201 v -56 c -6e-5,-0.78795 0.0768,-1.56831 0.23047,-2.3411 0.15369,-0.77279 0.38129,-1.52316 0.6828,-2.25111 0.30157,-0.72797 0.6712,-1.41952 1.10895,-2.07466 0.4378,-0.65514 0.93524,-1.26128 1.49243,-1.81842 0.55713,-0.55716 1.16327,-1.05461 1.81836,-1.49236 0.65515,-0.43776 1.34668,-0.80738 2.07464,-1.10891 0.72797,-0.30153 1.47834,-0.52915 2.25116,-0.68286 C 777.43164,133.07686 778.21204,133 779,133 Z" /></g><g
           transform="matrix(2.9969697,0,0,2.9969697,2325.6484,449.54544)"
           id="g118"><text
             id="text122"
             style="font-variant:normal;font-weight:bold;font-size:20px;font-family:Helvetica;-inkscape-font-specification:Helvetica-Bold;writing-mode:lr-tb;fill:#000000;fill-opacity:1;fill-rule:nonzero;stroke:none"
             transform="translate(49.828125,18)"><tspan
               id="tspan120"
               y="0"
               x="0 14.443359 25.566406 32.226562">Data</tspan></text>
<text
             id="text126"
             style="font-variant:normal;font-weight:bold;font-size:20px;font-family:Helvetica;-inkscape-font-specification:Helvetica-Bold;writing-mode:lr-tb;fill:#000000;fill-opacity:1;fill-rule:nonzero;stroke:none"
             transform="translate(0.9375,42)"><tspan
               id="tspan124"
               y="0"
               x="0 14.443359 26.660156 38.876953 50 57.783203 68.90625 75.566406 86.689453 98.90625 111.12305 116.67969 128.89648">Understanding</tspan></text>
</g><g
           transform="scale(2.9969697)"
           id="g128"><path
             id="path130"
             style="fill:#ffffff;fill-opacity:1;fill-rule:nonzero;stroke:none"
             d="m 829,278 h 136 c 0.7879,0 1.56824,0.0769 2.341,0.23059 0.77277,0.15372 1.52307,0.38132 2.25104,0.68283 0.72797,0.30155 1.4195,0.67117 2.07465,1.10895 0.65509,0.43774 1.26129,0.93518 1.81848,1.49234 0.55713,0.55713 1.05456,1.16327 1.49231,1.81839 0.43774,0.65512 0.80737,1.34668 1.10895,2.07468 0.30151,0.72793 0.52911,1.47833 0.68286,2.25113 0.15374,0.77279 0.23065,1.55316 0.23071,2.34109 v 56 c -6e-5,0.7879 -0.077,1.56824 -0.23071,2.34103 -0.15375,0.7728 -0.38135,1.52317 -0.68286,2.25113 -0.30158,0.72794 -0.67121,1.4195 -1.10895,2.07462 -0.43775,0.65518 -0.93518,1.26132 -1.49231,1.81848 -0.55719,0.55716 -1.16339,1.0546 -1.81848,1.49234 -0.65515,0.43774 -1.34668,0.80737 -2.07465,1.10892 -0.72797,0.30154 -1.47827,0.52917 -2.25104,0.68289 -0.77276,0.15372 -1.5531,0.23056 -2.341,0.23059 H 829 c -0.78796,-3e-5 -1.56836,-0.0769 -2.34113,-0.23059 -0.77282,-0.15372 -1.52319,-0.38135 -2.25116,-0.68289 -0.72796,-0.30155 -1.41955,-0.67118 -2.07464,-1.10895 -0.65509,-0.43771 -1.26123,-0.93515 -1.81836,-1.49231 -0.55719,-0.55716 -1.05463,-1.1633 -1.49237,-1.81848 -0.43781,-0.65512 -0.80744,-1.34668 -1.10895,-2.07462 -0.30157,-0.72796 -0.52917,-1.47833 -0.68286,-2.25113 C 817.07678,347.56824 816.99994,346.7879 817,346 v -56 c -6e-5,-0.78793 0.0768,-1.5683 0.23053,-2.34109 0.15369,-0.7728 0.38129,-1.5232 0.6828,-2.25113 0.30151,-0.728 0.6712,-1.41956 1.10901,-2.07468 0.43774,-0.65512 0.93518,-1.26126 1.49237,-1.81839 0.55713,-0.55716 1.16327,-1.0546 1.81842,-1.49234 0.65509,-0.43778 1.34662,-0.8074 2.07458,-1.10895 0.72797,-0.30151 1.47834,-0.52911 2.25116,-0.68283 C 827.43164,278.07687 828.21204,278 829,278 Z" /><path
             id="path132"
             style="fill:none;stroke:#000000;stroke-width:1;stroke-linecap:butt;stroke-linejoin:miter;stroke-miterlimit:10;stroke-dasharray:none;stroke-opacity:1"
             d="m 829,278 h 136 c 0.7879,0 1.56824,0.0769 2.341,0.23059 0.77277,0.15372 1.52307,0.38132 2.25104,0.68283 0.72797,0.30155 1.4195,0.67117 2.07465,1.10895 0.65509,0.43774 1.26129,0.93518 1.81848,1.49234 0.55713,0.55713 1.05456,1.16327 1.49231,1.81839 0.43774,0.65512 0.80737,1.34668 1.10895,2.07468 0.30151,0.72793 0.52911,1.47833 0.68286,2.25113 0.15374,0.77279 0.23065,1.55316 0.23071,2.34109 v 56 c -6e-5,0.7879 -0.077,1.56824 -0.23071,2.34103 -0.15375,0.7728 -0.38135,1.52317 -0.68286,2.25113 -0.30158,0.72794 -0.67121,1.4195 -1.10895,2.07462 -0.43775,0.65518 -0.93518,1.26132 -1.49231,1.81848 -0.55719,0.55716 -1.16339,1.0546 -1.81848,1.49234 -0.65515,0.43774 -1.34668,0.80737 -2.07465,1.10892 -0.72797,0.30154 -1.47827,0.52917 -2.25104,0.68289 -0.77276,0.15372 -1.5531,0.23056 -2.341,0.23059 H 829 c -0.78796,-3e-5 -1.56836,-0.0769 -2.34113,-0.23059 -0.77282,-0.15372 -1.52319,-0.38135 -2.25116,-0.68289 -0.72796,-0.30155 -1.41955,-0.67118 -2.07464,-1.10895 -0.65509,-0.43771 -1.26123,-0.93515 -1.81836,-1.49231 -0.55719,-0.55716 -1.05463,-1.1633 -1.49237,-1.81848 -0.43781,-0.65512 -0.80744,-1.34668 -1.10895,-2.07462 -0.30157,-0.72796 -0.52917,-1.47833 -0.68286,-2.25113 C 817.07678,347.56824 816.99994,346.7879 817,346 v -56 c -6e-5,-0.78793 0.0768,-1.5683 0.23053,-2.34109 0.15369,-0.7728 0.38129,-1.5232 0.6828,-2.25113 0.30151,-0.728 0.6712,-1.41956 1.10901,-2.07468 0.43774,-0.65512 0.93518,-1.26126 1.49237,-1.81839 0.55713,-0.55716 1.16327,-1.0546 1.81842,-1.49234 0.65509,-0.43778 1.34662,-0.8074 2.07458,-1.10895 0.72797,-0.30151 1.47834,-0.52911 2.25116,-0.68283 C 827.43164,278.07687 828.21204,278 829,278 Z" /></g><g
           transform="matrix(2.9969697,0,0,2.9969697,2520.4514,884.10608)"
           id="g134"><text
             id="text138"
             style="font-variant:normal;font-weight:bold;font-size:20px;font-family:Helvetica;-inkscape-font-specification:Helvetica-Bold;writing-mode:lr-tb;fill:#000000;fill-opacity:1;fill-rule:nonzero;stroke:none"
             transform="translate(34.828125,18)"><tspan
               id="tspan136"
               y="0"
               x="0 14.443359 25.566406 32.226562">Data</tspan></text>
<text
             id="text142"
             style="font-variant:normal;font-weight:bold;font-size:20px;font-family:Helvetica;-inkscape-font-specification:Helvetica-Bold;writing-mode:lr-tb;fill:#000000;fill-opacity:1;fill-rule:nonzero;stroke:none"
             transform="translate(0.921875,42)"><tspan
               id="tspan140"
               y="0"
               x="0 13.339844 21.123047 32.246094 44.462891 55.585938 63.369141 74.492188 81.152344 86.708984 98.925781">Preparation</tspan></text>
</g><g
           transform="scale(2.9969697)"
           id="g144"><path
             id="path146"
             style="fill:#ffffff;fill-opacity:1;fill-rule:nonzero;stroke:none"
             d="m 459,422.5 h 136 c 0.7879,3e-5 1.56824,0.0769 2.341,0.23056 0.77283,0.15372 1.5232,0.38132 2.25116,0.68283 0.72797,0.30155 1.4195,0.67117 2.07465,1.10892 0.65515,0.43777 1.26129,0.93524 1.81848,1.4924 0.55713,0.55713 1.05457,1.16327 1.49237,1.81842 0.43768,0.65512 0.80731,1.34668 1.10889,2.07465 0.30151,0.72793 0.52911,1.47833 0.68286,2.25113 C 606.92316,432.9317 607,433.71207 607,434.5 v 56 c 0,0.78793 -0.0768,1.56827 -0.23059,2.34106 -0.15375,0.7728 -0.38135,1.52317 -0.68286,2.2511 -0.30158,0.72794 -0.67121,1.41947 -1.10889,2.07465 -0.4378,0.65512 -0.93524,1.26129 -1.49237,1.81845 -0.55719,0.55716 -1.16333,1.0546 -1.81854,1.49231 -0.65509,0.43777 -1.34662,0.8074 -2.07459,1.10892 -0.72796,0.30151 -1.47833,0.52914 -2.25116,0.68289 -0.77276,0.15372 -1.5531,0.23059 -2.341,0.23062 H 459 c -0.78793,-3e-5 -1.56833,-0.0769 -2.34113,-0.23062 -0.77279,-0.15375 -1.52319,-0.38138 -2.25112,-0.68289 -0.72797,-0.30152 -1.41953,-0.67115 -2.07468,-1.10889 -0.65512,-0.43774 -1.26126,-0.93518 -1.81839,-1.49234 -0.55716,-0.55716 -1.0546,-1.16333 -1.49234,-1.81845 -0.43775,-0.65518 -0.8074,-1.34671 -1.10895,-2.07465 -0.30154,-0.72793 -0.52914,-1.47833 -0.68286,-2.25113 C 447.07684,492.06827 447,491.28793 447,490.5 v -56 c 0,-0.78793 0.0768,-1.5683 0.23053,-2.34109 0.15372,-0.7728 0.38132,-1.5232 0.68283,-2.25113 0.30154,-0.72797 0.67117,-1.41953 1.10895,-2.07465 0.43777,-0.65515 0.93521,-1.26129 1.49237,-1.81842 0.55713,-0.55716 1.16327,-1.05463 1.81839,-1.4924 0.65515,-0.43775 1.34671,-0.80737 2.07468,-1.10892 0.72793,-0.30151 1.47833,-0.52911 2.25112,-0.68283 0.7728,-0.15369 1.5532,-0.23053 2.34113,-0.23056 z" /><path
             id="path148"
             style="fill:none;stroke:#000000;stroke-width:1;stroke-linecap:butt;stroke-linejoin:miter;stroke-miterlimit:10;stroke-dasharray:none;stroke-opacity:1"
             d="m 459,422.5 h 136 c 0.7879,3e-5 1.56824,0.0769 2.341,0.23056 0.77283,0.15372 1.5232,0.38132 2.25116,0.68283 0.72797,0.30155 1.4195,0.67117 2.07465,1.10892 0.65515,0.43777 1.26129,0.93524 1.81848,1.4924 0.55713,0.55713 1.05457,1.16327 1.49237,1.81842 0.43768,0.65512 0.80731,1.34668 1.10889,2.07465 0.30151,0.72793 0.52911,1.47833 0.68286,2.25113 C 606.92316,432.9317 607,433.71207 607,434.5 v 56 c 0,0.78793 -0.0768,1.56827 -0.23059,2.34106 -0.15375,0.7728 -0.38135,1.52317 -0.68286,2.2511 -0.30158,0.72794 -0.67121,1.41947 -1.10889,2.07465 -0.4378,0.65512 -0.93524,1.26129 -1.49237,1.81845 -0.55719,0.55716 -1.16333,1.0546 -1.81854,1.49231 -0.65509,0.43777 -1.34662,0.8074 -2.07459,1.10892 -0.72796,0.30151 -1.47833,0.52914 -2.25116,0.68289 -0.77276,0.15372 -1.5531,0.23059 -2.341,0.23062 H 459 c -0.78793,-3e-5 -1.56833,-0.0769 -2.34113,-0.23062 -0.77279,-0.15375 -1.52319,-0.38138 -2.25112,-0.68289 -0.72797,-0.30152 -1.41953,-0.67115 -2.07468,-1.10889 -0.65512,-0.43774 -1.26126,-0.93518 -1.81839,-1.49234 -0.55716,-0.55716 -1.0546,-1.16333 -1.49234,-1.81845 -0.43775,-0.65518 -0.8074,-1.34671 -1.10895,-2.07465 -0.30154,-0.72793 -0.52914,-1.47833 -0.68286,-2.25113 C 447.07684,492.06827 447,491.28793 447,490.5 v -56 c 0,-0.78793 0.0768,-1.5683 0.23053,-2.34109 0.15372,-0.7728 0.38132,-1.5232 0.68283,-2.25113 0.30154,-0.72797 0.67117,-1.41953 1.10895,-2.07465 0.43777,-0.65515 0.93521,-1.26129 1.49237,-1.81842 0.55713,-0.55716 1.16327,-1.05463 1.81839,-1.4924 0.65515,-0.43775 1.34671,-0.80737 2.07468,-1.10892 0.72793,-0.30151 1.47833,-0.52911 2.25112,-0.68283 0.7728,-0.15369 1.5532,-0.23053 2.34113,-0.23056 z" /></g><g
           transform="matrix(2.9969697,0,0,2.9969697,1426.5576,1351.6333)"
           id="g150"><text
             id="text154"
             style="font-variant:normal;font-weight:bold;font-size:20px;font-family:Helvetica;-inkscape-font-specification:Helvetica-Bold;writing-mode:lr-tb;fill:#000000;fill-opacity:1;fill-rule:nonzero;stroke:none"
             transform="translate(0.921875,18)"><tspan
               id="tspan152"
               y="0"
               x="0 13.339844 24.462891 35.585938 41.142578 53.359375 64.482422 71.142578 76.699219 88.916016">Evaluation</tspan></text>
</g><g
           transform="scale(2.9969697)"
           id="g156"><path
             id="path158"
             style="fill:#ffffff;fill-opacity:1;fill-rule:nonzero;stroke:none"
             d="m 399,278 h 136 c 0.7879,0 1.56824,0.0769 2.341,0.23059 0.77283,0.15372 1.5232,0.38132 2.25116,0.68283 0.72797,0.30155 1.4195,0.67117 2.07465,1.10895 0.65515,0.43774 1.26129,0.93518 1.81842,1.49234 0.55719,0.55713 1.05463,1.16327 1.49237,1.81839 0.43768,0.65512 0.80731,1.34668 1.10889,2.07468 0.30151,0.72793 0.52911,1.47833 0.68286,2.25113 0.15375,0.77279 0.23059,1.55316 0.23065,2.34109 v 56 c -6e-5,0.7879 -0.0769,1.56824 -0.23065,2.34103 -0.15375,0.7728 -0.38135,1.52317 -0.68286,2.25113 -0.30158,0.72794 -0.67121,1.4195 -1.10889,2.07462 -0.43774,0.65518 -0.93518,1.26132 -1.49237,1.81848 -0.55713,0.55716 -1.16327,1.0546 -1.81842,1.49234 -0.65515,0.43774 -1.34668,0.80737 -2.07465,1.10892 -0.72796,0.30154 -1.47833,0.52917 -2.25116,0.68289 -0.77276,0.15372 -1.5531,0.23056 -2.341,0.23059 H 399 c -0.78793,-3e-5 -1.5683,-0.0769 -2.34106,-0.23059 -0.7728,-0.15372 -1.5232,-0.38135 -2.25116,-0.68289 -0.72797,-0.30155 -1.41953,-0.67118 -2.07465,-1.10895 -0.65515,-0.43771 -1.26129,-0.93515 -1.81842,-1.49231 -0.55716,-0.55716 -1.05463,-1.1633 -1.4924,-1.81848 -0.43775,-0.65512 -0.80737,-1.34668 -1.10892,-2.07462 -0.30151,-0.72796 -0.52914,-1.47833 -0.68286,-2.25113 C 387.07681,347.56824 386.99997,346.7879 387,346 v -56 c -3e-5,-0.78793 0.0768,-1.5683 0.2305,-2.34109 0.15375,-0.7728 0.38138,-1.5232 0.68289,-2.25113 0.30155,-0.728 0.67117,-1.41956 1.10892,-2.07468 0.43777,-0.65512 0.93524,-1.26126 1.4924,-1.81839 0.55713,-0.55716 1.16327,-1.0546 1.81842,-1.49234 0.65512,-0.43778 1.34668,-0.8074 2.07465,-1.10895 0.72796,-0.30151 1.47836,-0.52911 2.25116,-0.68283 C 397.4317,278.07687 398.21207,278 399,278 Z" /><path
             id="path160"
             style="fill:none;stroke:#000000;stroke-width:1;stroke-linecap:butt;stroke-linejoin:miter;stroke-miterlimit:10;stroke-dasharray:none;stroke-opacity:1"
             d="m 399,278 h 136 c 0.7879,0 1.56824,0.0769 2.341,0.23059 0.77283,0.15372 1.5232,0.38132 2.25116,0.68283 0.72797,0.30155 1.4195,0.67117 2.07465,1.10895 0.65515,0.43774 1.26129,0.93518 1.81842,1.49234 0.55719,0.55713 1.05463,1.16327 1.49237,1.81839 0.43768,0.65512 0.80731,1.34668 1.10889,2.07468 0.30151,0.72793 0.52911,1.47833 0.68286,2.25113 0.15375,0.77279 0.23059,1.55316 0.23065,2.34109 v 56 c -6e-5,0.7879 -0.0769,1.56824 -0.23065,2.34103 -0.15375,0.7728 -0.38135,1.52317 -0.68286,2.25113 -0.30158,0.72794 -0.67121,1.4195 -1.10889,2.07462 -0.43774,0.65518 -0.93518,1.26132 -1.49237,1.81848 -0.55713,0.55716 -1.16327,1.0546 -1.81842,1.49234 -0.65515,0.43774 -1.34668,0.80737 -2.07465,1.10892 -0.72796,0.30154 -1.47833,0.52917 -2.25116,0.68289 -0.77276,0.15372 -1.5531,0.23056 -2.341,0.23059 H 399 c -0.78793,-3e-5 -1.5683,-0.0769 -2.34106,-0.23059 -0.7728,-0.15372 -1.5232,-0.38135 -2.25116,-0.68289 -0.72797,-0.30155 -1.41953,-0.67118 -2.07465,-1.10895 -0.65515,-0.43771 -1.26129,-0.93515 -1.81842,-1.49231 -0.55716,-0.55716 -1.05463,-1.1633 -1.4924,-1.81848 -0.43775,-0.65512 -0.80737,-1.34668 -1.10892,-2.07462 -0.30151,-0.72796 -0.52914,-1.47833 -0.68286,-2.25113 C 387.07681,347.56824 386.99997,346.7879 387,346 v -56 c -3e-5,-0.78793 0.0768,-1.5683 0.2305,-2.34109 0.15375,-0.7728 0.38138,-1.5232 0.68289,-2.25113 0.30155,-0.728 0.67117,-1.41956 1.10892,-2.07468 0.43777,-0.65512 0.93524,-1.26126 1.4924,-1.81839 0.55713,-0.55716 1.16327,-1.0546 1.81842,-1.49234 0.65512,-0.43778 1.34668,-0.8074 2.07465,-1.10895 0.72796,-0.30151 1.47836,-0.52911 2.25116,-0.68283 C 397.4317,278.07687 398.21207,278 399,278 Z" /></g><g
           transform="matrix(2.9969697,0,0,2.9969697,1225.7606,920.0697)"
           id="g162"><text
             id="text166"
             style="font-variant:normal;font-weight:bold;font-size:20px;font-family:Helvetica;-inkscape-font-specification:Helvetica-Bold;writing-mode:lr-tb;fill:#000000;fill-opacity:1;fill-rule:nonzero;stroke:none"
             transform="translate(0.265625,18)"><tspan
               id="tspan164"
               y="0"
               x="0 14.443359 25.566406 37.783203 43.339844 55.556641 66.679688 84.462891 95.585938 107.80273">Deployment</tspan></text>
</g><g
           transform="scale(2.9969697)"
           id="g168"><path
             id="path170"
             style="fill:#ffffff;fill-opacity:1;fill-rule:nonzero;stroke:none"
             d="m 779,422.5 h 136 c 0.7879,3e-5 1.56824,0.0769 2.341,0.23056 0.77277,0.15372 1.52314,0.38132 2.2511,0.68283 0.72797,0.30155 1.41956,0.67117 2.07465,1.10892 0.65515,0.43777 1.26129,0.93524 1.81848,1.4924 0.55713,0.55713 1.05456,1.16327 1.49231,1.81842 0.4378,0.65512 0.80743,1.34668 1.10895,2.07465 0.30151,0.72793 0.52911,1.47833 0.68286,2.25113 0.15375,0.77279 0.23059,1.55316 0.23065,2.34109 v 56 c -6e-5,0.78793 -0.0769,1.56827 -0.23065,2.34106 -0.15375,0.7728 -0.38135,1.52317 -0.68286,2.2511 -0.30152,0.72794 -0.67115,1.41947 -1.10895,2.07465 -0.43775,0.65512 -0.93518,1.26129 -1.49231,1.81845 -0.55719,0.55716 -1.16333,1.0546 -1.81854,1.49231 -0.65509,0.43777 -1.34662,0.8074 -2.07459,1.10892 -0.72796,0.30151 -1.47833,0.52914 -2.2511,0.68289 -0.77276,0.15372 -1.5531,0.23059 -2.341,0.23062 H 779 c -0.78796,-3e-5 -1.56836,-0.0769 -2.34119,-0.23062 -0.77282,-0.15375 -1.52319,-0.38138 -2.25116,-0.68289 -0.72796,-0.30152 -1.41949,-0.67115 -2.07464,-1.10889 -0.65509,-0.43774 -1.26123,-0.93518 -1.81836,-1.49234 -0.55719,-0.55716 -1.05463,-1.16333 -1.49243,-1.81845 -0.43775,-0.65518 -0.80738,-1.34671 -1.10895,-2.07465 -0.30151,-0.72793 -0.52911,-1.47833 -0.6828,-2.25113 C 767.07678,492.06827 766.99994,491.28793 767,490.5 v -56 c -6e-5,-0.78793 0.0768,-1.5683 0.23047,-2.34109 0.15369,-0.7728 0.38129,-1.5232 0.6828,-2.25113 0.30157,-0.72797 0.6712,-1.41953 1.10895,-2.07465 0.4378,-0.65515 0.93524,-1.26129 1.49243,-1.81842 0.55713,-0.55716 1.16327,-1.05463 1.81836,-1.4924 0.65515,-0.43775 1.34668,-0.80737 2.07464,-1.10892 0.72797,-0.30151 1.47834,-0.52911 2.25116,-0.68283 0.77283,-0.15369 1.55323,-0.23053 2.34119,-0.23056 z" /><path
             id="path172"
             style="fill:none;stroke:#000000;stroke-width:1;stroke-linecap:butt;stroke-linejoin:miter;stroke-miterlimit:10;stroke-dasharray:none;stroke-opacity:1"
             d="m 779,422.5 h 136 c 0.7879,3e-5 1.56824,0.0769 2.341,0.23056 0.77277,0.15372 1.52314,0.38132 2.2511,0.68283 0.72797,0.30155 1.41956,0.67117 2.07465,1.10892 0.65515,0.43777 1.26129,0.93524 1.81848,1.4924 0.55713,0.55713 1.05456,1.16327 1.49231,1.81842 0.4378,0.65512 0.80743,1.34668 1.10895,2.07465 0.30151,0.72793 0.52911,1.47833 0.68286,2.25113 0.15375,0.77279 0.23059,1.55316 0.23065,2.34109 v 56 c -6e-5,0.78793 -0.0769,1.56827 -0.23065,2.34106 -0.15375,0.7728 -0.38135,1.52317 -0.68286,2.2511 -0.30152,0.72794 -0.67115,1.41947 -1.10895,2.07465 -0.43775,0.65512 -0.93518,1.26129 -1.49231,1.81845 -0.55719,0.55716 -1.16333,1.0546 -1.81854,1.49231 -0.65509,0.43777 -1.34662,0.8074 -2.07459,1.10892 -0.72796,0.30151 -1.47833,0.52914 -2.2511,0.68289 -0.77276,0.15372 -1.5531,0.23059 -2.341,0.23062 H 779 c -0.78796,-3e-5 -1.56836,-0.0769 -2.34119,-0.23062 -0.77282,-0.15375 -1.52319,-0.38138 -2.25116,-0.68289 -0.72796,-0.30152 -1.41949,-0.67115 -2.07464,-1.10889 -0.65509,-0.43774 -1.26123,-0.93518 -1.81836,-1.49234 -0.55719,-0.55716 -1.05463,-1.16333 -1.49243,-1.81845 -0.43775,-0.65518 -0.80738,-1.34671 -1.10895,-2.07465 -0.30151,-0.72793 -0.52911,-1.47833 -0.6828,-2.25113 C 767.07678,492.06827 766.99994,491.28793 767,490.5 v -56 c -6e-5,-0.78793 0.0768,-1.5683 0.23047,-2.34109 0.15369,-0.7728 0.38129,-1.5232 0.6828,-2.25113 0.30157,-0.72797 0.6712,-1.41953 1.10895,-2.07465 0.4378,-0.65515 0.93524,-1.26129 1.49243,-1.81842 0.55713,-0.55716 1.16327,-1.05463 1.81836,-1.4924 0.65515,-0.43775 1.34668,-0.80737 2.07464,-1.10892 0.72797,-0.30151 1.47834,-0.52911 2.25116,-0.68283 0.77283,-0.15369 1.55323,-0.23053 2.34119,-0.23056 z" /></g><g
           transform="matrix(2.9969697,0,0,2.9969697,2397.5757,1351.6333)"
           id="g174"><text
             id="text178"
             style="font-variant:normal;font-weight:bold;font-size:20px;font-family:Helvetica;-inkscape-font-specification:Helvetica-Bold;writing-mode:lr-tb;fill:#000000;fill-opacity:1;fill-rule:nonzero;stroke:none"
             transform="translate(0.828125,18)"><tspan
               id="tspan176"
               y="0"
               x="0 16.660156 28.876953 41.09375 52.216797 57.773438 63.330078 68.886719 81.103516">Modelling</tspan></text>
</g><g
           transform="scale(2.9969697)"
           id="g180"><path
             id="path182"
             style="fill:#ffffff;fill-opacity:1;fill-rule:nonzero;stroke:none"
             d="m 177,318 c 2e-5,2.2926 -0.11234,4.57968 -0.33705,6.86121 -0.22472,2.28152 -0.56072,4.54657 -1.008,6.7951 -0.44726,2.24854 -1.00364,4.46976 -1.66916,6.66364 -0.66549,2.19387 -1.43692,4.34982 -2.31425,6.46786 -0.87734,2.11807 -1.85635,4.18805 -2.93706,6.20993 -1.08073,2.02188 -2.25793,3.98593 -3.53163,5.89215 -1.27368,1.90622 -2.63773,3.74542 -4.09213,5.51761 -1.45439,1.77219 -2.99214,3.46884 -4.61325,5.08994 -1.62111,1.62112 -3.31775,3.15887 -5.08995,4.61328 -1.77221,1.45437 -3.61141,2.81842 -5.51763,4.0921 -1.9062,1.27371 -3.87025,2.4509 -5.89215,3.53162 -2.02186,1.08072 -4.09184,2.05975 -6.20993,2.9371 -2.11807,0.87735 -4.27403,1.64877 -6.46789,2.31427 -2.19388,0.6655 -4.41508,1.22189 -6.66362,1.66913 -2.24852,0.44729 -4.51355,0.78329 -6.79509,1.00802 C 111.57966,387.88766 109.2926,388 107,388 c -2.29258,0 -4.57965,-0.11234 -6.8612,-0.33704 -2.281546,-0.22473 -4.546591,-0.56073 -6.795134,-1.00802 -2.248535,-0.44724 -4.469734,-1.00363 -6.663597,-1.66913 -2.193871,-0.6655 -4.349838,-1.43695 -6.467918,-2.3143 -2.118073,-0.87735 -4.18805,-1.85635 -6.209931,-2.93704 -2.021881,-1.08072 -3.985931,-2.25794 -5.892143,-3.53165 -1.906212,-1.27368 -3.745422,-2.63773 -5.517613,-4.09213 -1.77219,-1.45438 -3.468837,-2.99213 -5.089942,-4.61325 -1.621098,-1.6211 -3.158852,-3.31775 -4.613255,-5.08994 -1.454399,-1.77219 -2.818447,-3.61139 -4.092144,-5.51761 -1.273693,-1.90622 -2.450897,-3.87027 -3.531612,-5.89215 -1.080716,-2.02188 -2.059746,-4.09186 -2.937085,-6.20993 -0.87733,-2.11804 -1.64875,-4.27399 -2.314251,-6.46786 -0.665504,-2.19388 -1.221889,-4.4151 -1.669151,-6.66364 -0.447258,-2.24853 -0.783245,-4.51358 -1.007957,-6.7951 C 37.112354,322.57968 37,320.2926 37,318 c 0,-2.29257 0.112354,-4.57965 0.337067,-6.86121 0.224712,-2.28155 0.560699,-4.5466 1.007957,-6.79516 0.447262,-2.24851 1.003647,-4.4697 1.669151,-6.66358 0.665501,-2.19387 1.436921,-4.34985 2.314251,-6.46792 0.877339,-2.11804 1.856369,-4.18802 2.937085,-6.2099 1.080715,-2.02188 2.257919,-3.98596 3.531612,-5.89218 1.273697,-1.90619 2.637745,-3.7454 4.092144,-5.51758 1.454403,-1.77219 2.992157,-3.46884 4.613255,-5.08997 1.621105,-1.62109 3.317752,-3.15884 5.089946,-4.61325 1.772194,-1.45441 3.611397,-2.81845 5.517609,-4.09216 1.906212,-1.27368 3.870262,-2.45087 5.892143,-3.53159 2.021881,-1.08072 4.091858,-2.05975 6.209931,-2.93709 2.11808,-0.87731 4.274047,-1.64872 6.467918,-2.31422 2.193863,-0.66551 4.415062,-1.22189 6.663597,-1.66917 2.248543,-0.44725 4.513588,-0.78322 6.795134,-1.00794 2.28155,-0.22471 4.56862,-0.33706 6.8612,-0.33708 2.2926,2e-5 4.57966,0.11237 6.86121,0.33708 2.28154,0.22472 4.54657,0.56069 6.7951,1.00794 2.24854,0.44728 4.46973,1.00366 6.66361,1.66917 2.19386,0.6655 4.34982,1.43691 6.46789,2.31422 2.11809,0.87734 4.18807,1.85637 6.20993,2.93709 2.0219,1.08072 3.98595,2.25794 5.89215,3.53162 1.90622,1.27371 3.74542,2.63776 5.51763,4.09216 1.7722,1.45438 3.46884,2.99213 5.08995,4.61322 1.62111,1.62113 3.15886,3.31778 4.61325,5.08997 1.4544,1.77218 2.81845,3.61139 4.09213,5.51761 1.2737,1.90622 2.4509,3.87027 3.53163,5.89215 1.08071,2.02188 2.05972,4.09186 2.93706,6.2099 0.87733,2.11807 1.64876,4.27405 2.31427,6.46792 0.6655,2.19388 1.22188,4.41507 1.66914,6.66358 0.44728,2.24856 0.78327,4.51361 1.00798,6.79516 0.22472,2.28156 0.33709,4.56864 0.33707,6.86121 z" /><path
             id="path184"
             style="fill:none;stroke:#d79b00;stroke-width:1;stroke-linecap:butt;stroke-linejoin:miter;stroke-miterlimit:10;stroke-dasharray:none;stroke-opacity:1"
             d="m 177,318 c 2e-5,2.2926 -0.11234,4.57968 -0.33705,6.86121 -0.22472,2.28152 -0.56072,4.54657 -1.008,6.7951 -0.44726,2.24854 -1.00364,4.46976 -1.66916,6.66364 -0.66549,2.19387 -1.43692,4.34982 -2.31425,6.46786 -0.87734,2.11807 -1.85635,4.18805 -2.93706,6.20993 -1.08073,2.02188 -2.25793,3.98593 -3.53163,5.89215 -1.27368,1.90622 -2.63773,3.74542 -4.09213,5.51761 -1.45439,1.77219 -2.99214,3.46884 -4.61325,5.08994 -1.62111,1.62112 -3.31775,3.15887 -5.08995,4.61328 -1.77221,1.45437 -3.61141,2.81842 -5.51763,4.0921 -1.9062,1.27371 -3.87025,2.4509 -5.89215,3.53162 -2.02186,1.08072 -4.09184,2.05975 -6.20993,2.9371 -2.11807,0.87735 -4.27403,1.64877 -6.46789,2.31427 -2.19388,0.6655 -4.41508,1.22189 -6.66362,1.66913 -2.24852,0.44729 -4.51355,0.78329 -6.79509,1.00802 C 111.57966,387.88766 109.2926,388 107,388 c -2.29258,0 -4.57965,-0.11234 -6.8612,-0.33704 -2.281546,-0.22473 -4.546591,-0.56073 -6.795134,-1.00802 -2.248535,-0.44724 -4.469734,-1.00363 -6.663597,-1.66913 -2.193871,-0.6655 -4.349838,-1.43695 -6.467918,-2.3143 -2.118073,-0.87735 -4.18805,-1.85635 -6.209931,-2.93704 -2.021881,-1.08072 -3.985931,-2.25794 -5.892143,-3.53165 -1.906212,-1.27368 -3.745422,-2.63773 -5.517613,-4.09213 -1.77219,-1.45438 -3.468837,-2.99213 -5.089942,-4.61325 -1.621098,-1.6211 -3.158852,-3.31775 -4.613255,-5.08994 -1.454399,-1.77219 -2.818447,-3.61139 -4.092144,-5.51761 -1.273693,-1.90622 -2.450897,-3.87027 -3.531612,-5.89215 -1.080716,-2.02188 -2.059746,-4.09186 -2.937085,-6.20993 -0.87733,-2.11804 -1.64875,-4.27399 -2.314251,-6.46786 -0.665504,-2.19388 -1.221889,-4.4151 -1.669151,-6.66364 -0.447258,-2.24853 -0.783245,-4.51358 -1.007957,-6.7951 C 37.112354,322.57968 37,320.2926 37,318 c 0,-2.29257 0.112354,-4.57965 0.337067,-6.86121 0.224712,-2.28155 0.560699,-4.5466 1.007957,-6.79516 0.447262,-2.24851 1.003647,-4.4697 1.669151,-6.66358 0.665501,-2.19387 1.436921,-4.34985 2.314251,-6.46792 0.877339,-2.11804 1.856369,-4.18802 2.937085,-6.2099 1.080715,-2.02188 2.257919,-3.98596 3.531612,-5.89218 1.273697,-1.90619 2.637745,-3.7454 4.092144,-5.51758 1.454403,-1.77219 2.992157,-3.46884 4.613255,-5.08997 1.621105,-1.62109 3.317752,-3.15884 5.089946,-4.61325 1.772194,-1.45441 3.611397,-2.81845 5.517609,-4.09216 1.906212,-1.27368 3.870262,-2.45087 5.892143,-3.53159 2.021881,-1.08072 4.091858,-2.05975 6.209931,-2.93709 2.11808,-0.87731 4.274047,-1.64872 6.467918,-2.31422 2.193863,-0.66551 4.415062,-1.22189 6.663597,-1.66917 2.248543,-0.44725 4.513588,-0.78322 6.795134,-1.00794 2.28155,-0.22471 4.56862,-0.33706 6.8612,-0.33708 2.2926,2e-5 4.57966,0.11237 6.86121,0.33708 2.28154,0.22472 4.54657,0.56069 6.7951,1.00794 2.24854,0.44728 4.46973,1.00366 6.66361,1.66917 2.19386,0.6655 4.34982,1.43691 6.46789,2.31422 2.11809,0.87734 4.18807,1.85637 6.20993,2.93709 2.0219,1.08072 3.98595,2.25794 5.89215,3.53162 1.90622,1.27371 3.74542,2.63776 5.51763,4.09216 1.7722,1.45438 3.46884,2.99213 5.08995,4.61322 1.62111,1.62113 3.15886,3.31778 4.61325,5.08997 1.4544,1.77218 2.81845,3.61139 4.09213,5.51761 1.2737,1.90622 2.4509,3.87027 3.53163,5.89215 1.08071,2.02188 2.05972,4.09186 2.93706,6.2099 0.87733,2.11807 1.64876,4.27405 2.31427,6.46792 0.6655,2.19388 1.22188,4.41507 1.66914,6.66358 0.44728,2.24856 0.78327,4.51361 1.00798,6.79516 0.22472,2.28156 0.33709,4.56864 0.33707,6.86121 z" /></g><g
           transform="matrix(2.9969697,0,0,2.9969697,116.88182,884.10608)"
           id="g186"><text
             id="text190"
             style="font-variant:normal;font-weight:bold;font-size:20px;font-family:Helvetica;-inkscape-font-specification:Helvetica-Bold;writing-mode:lr-tb;fill:#000000;fill-opacity:1;fill-rule:nonzero;stroke:none"
             transform="translate(45.265625,18)"><tspan
               id="tspan188"
               y="0"
               x="0 15.556641 27.773438 38.896484">Goal</tspan></text>
<text
             id="text194"
             style="font-variant:normal;font-weight:bold;font-size:20px;font-family:Helvetica;-inkscape-font-specification:Helvetica-Bold;writing-mode:lr-tb;fill:#000000;fill-opacity:1;fill-rule:nonzero;stroke:none"
             transform="translate(12.5,42)"><tspan
               id="tspan192"
               y="0"
               x="0 13.339844 24.462891 36.679688 42.236328 54.453125 62.236328 73.359375 80.019531 85.576172 97.792969">Exploration</tspan></text>
</g><g
           transform="scale(2.9969697)"
           id="g196"><path
             id="path198"
             style="fill:#ffffff;fill-opacity:1;fill-rule:nonzero;stroke:none"
             d="m 337,184 c 3e-5,2.29259 -0.11234,4.57965 -0.33707,6.86119 -0.2247,2.28154 -0.56067,4.54659 -1.00796,6.79511 -0.44724,2.24853 -1.00363,4.46974 -1.66916,6.6636 -0.6655,2.19386 -1.43692,4.34984 -2.31427,6.4679 -0.87732,2.11808 -1.85632,4.18808 -2.93704,6.20994 -1.08072,2.02188 -2.25797,3.98593 -3.53168,5.89214 -1.27368,1.90623 -2.63773,3.74543 -4.0921,5.51764 -1.45438,1.7722 -2.99213,3.46884 -4.61325,5.08993 -1.6211,1.62113 -3.31772,3.15888 -5.08991,4.61327 -1.77221,1.45439 -3.61145,2.81843 -5.51767,4.0921 -1.90622,1.27371 -3.87027,2.45093 -5.89215,3.53163 -2.02188,1.08072 -4.09186,2.05974 -6.20993,2.93707 -2.11807,0.87735 -4.27402,1.64878 -6.46786,2.31427 -2.19388,0.66552 -4.41507,1.2219 -6.66364,1.66915 -2.24853,0.44728 -4.51358,0.78328 -6.7951,1.00799 C 271.57968,253.88765 269.2926,254 267,254 c -2.29257,0 -4.57962,-0.11235 -6.86118,-0.33707 -2.28155,-0.22471 -4.54661,-0.56071 -6.79516,-1.00799 -2.24852,-0.44725 -4.46973,-1.00363 -6.66359,-1.66915 -2.19386,-0.66549 -4.34984,-1.43692 -6.46793,-2.31427 -2.11805,-0.87733 -4.18803,-1.85635 -6.20993,-2.93705 -2.02186,-1.08072 -3.98591,-2.25794 -5.89215,-3.53165 -1.9062,-1.27367 -3.74541,-2.63771 -5.51761,-4.0921 -1.77218,-1.45439 -3.46882,-2.99214 -5.08993,-4.61327 -1.62111,-1.62109 -3.15886,-3.31773 -4.61325,-5.08992 -1.45439,-1.7722 -2.81845,-3.61142 -4.09217,-5.51765 -1.27368,-1.90621 -2.45088,-3.87026 -3.5316,-5.89214 -1.08072,-2.02186 -2.05975,-4.09186 -2.93709,-6.20994 -0.87733,-2.11806 -1.64874,-4.27404 -2.31425,-6.4679 -0.6655,-2.19386 -1.22188,-4.41507 -1.66914,-6.6636 -0.44725,-2.24852 -0.78324,-4.51357 -1.00795,-6.79511 -0.2247,-2.28154 -0.33705,-4.5686 -0.33707,-6.86119 2e-5,-2.29259 0.11237,-4.57965 0.33708,-6.86119 0.2247,-2.28156 0.56069,-4.5466 1.00794,-6.79514 0.44726,-2.24852 1.00364,-4.46972 1.66914,-6.6636 0.66551,-2.19386 1.43692,-4.34984 2.31425,-6.46793 0.87734,-2.11809 1.85637,-4.18806 2.93709,-6.20993 1.08072,-2.02188 2.25792,-3.98593 3.5316,-5.89215 1.27372,-1.9062 2.63778,-3.74541 4.09217,-5.51761 1.45439,-1.77217 2.99214,-3.46882 4.61325,-5.08993 1.62111,-1.6211 3.31775,-3.15885 5.08993,-4.61325 1.7722,-1.45441 3.61141,-2.81845 5.51761,-4.09215 1.90624,-1.27369 3.87029,-2.4509 5.89217,-3.53161 2.02188,-1.08072 4.09186,-2.05974 6.20991,-2.93709 2.11809,-0.87732 4.27405,-1.64874 6.46791,-2.31424 2.19388,-0.66551 4.41509,-1.22189 6.66361,-1.66915 2.24855,-0.44726 4.51361,-0.78325 6.79516,-1.00796 C 262.42038,114.11236 264.70743,114 267,114 c 2.2926,0 4.57968,0.11236 6.86121,0.33707 2.28152,0.22471 4.54657,0.5607 6.7951,1.00795 2.24857,0.44727 4.46976,1.00365 6.66361,1.66916 2.19387,0.6655 4.34982,1.43691 6.46789,2.31423 2.11807,0.87735 4.18805,1.85637 6.20993,2.9371 2.02188,1.08071 3.98593,2.25792 5.89215,3.53161 1.90622,1.2737 3.74546,2.63774 5.51767,4.09215 1.77219,1.4544 3.46881,2.99215 5.08991,4.61325 1.62112,1.62111 3.15887,3.31776 4.61325,5.08993 1.45437,1.7722 2.81842,3.61141 4.0921,5.51761 1.27371,1.90622 2.45093,3.87027 3.53165,5.89215 1.08072,2.02187 2.05975,4.09184 2.93707,6.20993 0.87735,2.11809 1.64877,4.27407 2.3143,6.46793 0.6655,2.19388 1.22189,4.41508 1.66913,6.6636 0.44729,2.24854 0.78326,4.51358 1.00796,6.79514 0.22473,2.28154 0.3371,4.5686 0.33707,6.86119 z" /><path
             id="path200"
             style="fill:none;stroke:#d79b00;stroke-width:1;stroke-linecap:butt;stroke-linejoin:miter;stroke-miterlimit:10;stroke-dasharray:none;stroke-opacity:1"
             d="m 337,184 c 3e-5,2.29259 -0.11234,4.57965 -0.33707,6.86119 -0.2247,2.28154 -0.56067,4.54659 -1.00796,6.79511 -0.44724,2.24853 -1.00363,4.46974 -1.66916,6.6636 -0.6655,2.19386 -1.43692,4.34984 -2.31427,6.4679 -0.87732,2.11808 -1.85632,4.18808 -2.93704,6.20994 -1.08072,2.02188 -2.25797,3.98593 -3.53168,5.89214 -1.27368,1.90623 -2.63773,3.74543 -4.0921,5.51764 -1.45438,1.7722 -2.99213,3.46884 -4.61325,5.08993 -1.6211,1.62113 -3.31772,3.15888 -5.08991,4.61327 -1.77221,1.45439 -3.61145,2.81843 -5.51767,4.0921 -1.90622,1.27371 -3.87027,2.45093 -5.89215,3.53163 -2.02188,1.08072 -4.09186,2.05974 -6.20993,2.93707 -2.11807,0.87735 -4.27402,1.64878 -6.46786,2.31427 -2.19388,0.66552 -4.41507,1.2219 -6.66364,1.66915 -2.24853,0.44728 -4.51358,0.78328 -6.7951,1.00799 C 271.57968,253.88765 269.2926,254 267,254 c -2.29257,0 -4.57962,-0.11235 -6.86118,-0.33707 -2.28155,-0.22471 -4.54661,-0.56071 -6.79516,-1.00799 -2.24852,-0.44725 -4.46973,-1.00363 -6.66359,-1.66915 -2.19386,-0.66549 -4.34984,-1.43692 -6.46793,-2.31427 -2.11805,-0.87733 -4.18803,-1.85635 -6.20993,-2.93705 -2.02186,-1.08072 -3.98591,-2.25794 -5.89215,-3.53165 -1.9062,-1.27367 -3.74541,-2.63771 -5.51761,-4.0921 -1.77218,-1.45439 -3.46882,-2.99214 -5.08993,-4.61327 -1.62111,-1.62109 -3.15886,-3.31773 -4.61325,-5.08992 -1.45439,-1.7722 -2.81845,-3.61142 -4.09217,-5.51765 -1.27368,-1.90621 -2.45088,-3.87026 -3.5316,-5.89214 -1.08072,-2.02186 -2.05975,-4.09186 -2.93709,-6.20994 -0.87733,-2.11806 -1.64874,-4.27404 -2.31425,-6.4679 -0.6655,-2.19386 -1.22188,-4.41507 -1.66914,-6.6636 -0.44725,-2.24852 -0.78324,-4.51357 -1.00795,-6.79511 -0.2247,-2.28154 -0.33705,-4.5686 -0.33707,-6.86119 2e-5,-2.29259 0.11237,-4.57965 0.33708,-6.86119 0.2247,-2.28156 0.56069,-4.5466 1.00794,-6.79514 0.44726,-2.24852 1.00364,-4.46972 1.66914,-6.6636 0.66551,-2.19386 1.43692,-4.34984 2.31425,-6.46793 0.87734,-2.11809 1.85637,-4.18806 2.93709,-6.20993 1.08072,-2.02188 2.25792,-3.98593 3.5316,-5.89215 1.27372,-1.9062 2.63778,-3.74541 4.09217,-5.51761 1.45439,-1.77217 2.99214,-3.46882 4.61325,-5.08993 1.62111,-1.6211 3.31775,-3.15885 5.08993,-4.61325 1.7722,-1.45441 3.61141,-2.81845 5.51761,-4.09215 1.90624,-1.27369 3.87029,-2.4509 5.89217,-3.53161 2.02188,-1.08072 4.09186,-2.05974 6.20991,-2.93709 2.11809,-0.87732 4.27405,-1.64874 6.46791,-2.31424 2.19388,-0.66551 4.41509,-1.22189 6.66361,-1.66915 2.24855,-0.44726 4.51361,-0.78325 6.79516,-1.00796 C 262.42038,114.11236 264.70743,114 267,114 c 2.2926,0 4.57968,0.11236 6.86121,0.33707 2.28152,0.22471 4.54657,0.5607 6.7951,1.00795 2.24857,0.44727 4.46976,1.00365 6.66361,1.66916 2.19387,0.6655 4.34982,1.43691 6.46789,2.31423 2.11807,0.87735 4.18805,1.85637 6.20993,2.9371 2.02188,1.08071 3.98593,2.25792 5.89215,3.53161 1.90622,1.2737 3.74546,2.63774 5.51767,4.09215 1.77219,1.4544 3.46881,2.99215 5.08991,4.61325 1.62112,1.62111 3.15887,3.31776 4.61325,5.08993 1.45437,1.7722 2.81842,3.61141 4.0921,5.51761 1.27371,1.90622 2.45093,3.87027 3.53165,5.89215 1.08072,2.02187 2.05975,4.09184 2.93707,6.20993 0.87735,2.11809 1.64877,4.27407 2.3143,6.46793 0.6655,2.19388 1.22189,4.41508 1.66913,6.6636 0.44729,2.24854 0.78326,4.51358 1.00796,6.79514 0.22473,2.28154 0.3371,4.5686 0.33707,6.86119 z" /></g><g
           transform="matrix(2.9969697,0,0,2.9969697,596.39697,482.51212)"
           id="g202"><text
             id="text206"
             style="font-variant:normal;font-weight:bold;font-size:20px;font-family:Helvetica;-inkscape-font-specification:Helvetica-Bold;writing-mode:lr-tb;fill:#000000;fill-opacity:1;fill-rule:nonzero;stroke:none"
             transform="translate(9.140625,18)"><tspan
               id="tspan204"
               y="0"
               x="0 14.443359 25.566406 32.226562 43.349609 48.90625 62.246094 74.462891 86.679688 94.462891 105.58594">Data Source</tspan></text>
<text
             id="text210"
             style="font-variant:normal;font-weight:bold;font-size:20px;font-family:Helvetica;-inkscape-font-specification:Helvetica-Bold;writing-mode:lr-tb;fill:#000000;fill-opacity:1;fill-rule:nonzero;stroke:none"
             transform="translate(12.5,42)"><tspan
               id="tspan208"
               y="0"
               x="0 13.339844 24.462891 36.679688 42.236328 54.453125 62.236328 73.359375 80.019531 85.576172 97.792969">Exploration</tspan></text>
</g><g
           transform="scale(2.9969697)"
           id="g212"><path
             id="path214"
             style="fill:#ffffff;fill-opacity:1;fill-rule:nonzero;stroke:none"
             d="m 326,462.5 c 0,2.2926 -0.11237,4.57968 -0.3371,6.86121 -0.2247,2.28158 -0.5607,4.5466 -1.00796,6.7951 -0.44727,2.24857 -1.00366,4.46976 -1.66916,6.66364 -0.6655,2.19384 -1.43692,4.34979 -2.31424,6.46786 -0.87735,2.11807 -1.85638,4.18808 -2.9371,6.20999 -1.08072,2.02185 -2.25791,3.98587 -3.53162,5.89206 -1.27371,1.90625 -2.63776,3.74549 -4.09216,5.51767 -1.45438,1.77219 -2.99213,3.46881 -4.61322,5.08991 -1.62107,1.62115 -3.31772,3.15887 -5.08991,4.61328 -1.77218,1.4544 -3.61142,2.81842 -5.51767,4.0921 -1.90619,1.27374 -3.87021,2.45093 -5.89209,3.53168 -2.02191,1.08075 -4.09192,2.05975 -6.20999,2.93701 -2.11804,0.87738 -4.27402,1.6488 -6.46789,2.31427 -2.19385,0.66547 -4.41504,1.22186 -6.66361,1.66913 -2.2485,0.44726 -4.51352,0.78326 -6.79507,1.00799 -2.28153,0.22473 -4.56861,0.3371 -6.86121,0.3371 -2.29259,0 -4.57965,-0.11237 -6.86121,-0.3371 -2.28154,-0.22473 -4.54658,-0.56073 -6.79513,-1.00799 -2.24852,-0.44727 -4.46973,-1.00366 -6.66361,-1.66913 -2.19386,-0.66547 -4.34983,-1.43689 -6.46792,-2.31427 -2.11806,-0.87726 -4.18804,-1.85626 -6.20992,-2.93701 -2.02189,-1.08075 -3.98594,-2.25794 -5.89216,-3.53168 -1.90621,-1.27368 -3.7454,-2.63776 -5.5176,-4.09216 -1.77218,-1.45435 -3.46884,-2.99207 -5.08995,-4.61322 -1.62109,-1.6211 -3.15884,-3.31772 -4.61325,-5.08991 -1.45441,-1.77218 -2.81846,-3.61142 -4.09216,-5.51764 -1.27368,-1.90619 -2.45088,-3.87024 -3.5316,-5.89212 -1.08071,-2.02188 -2.05974,-4.09189 -2.93709,-6.20999 -0.87733,-2.11804 -1.64874,-4.27402 -2.31424,-6.46789 -0.6655,-2.19385 -1.22188,-4.41504 -1.66914,-6.66361 -0.44725,-2.2485 -0.78324,-4.51352 -1.00795,-6.79507 -0.2247,-2.28153 -0.33705,-4.56861 -0.33707,-6.86121 2e-5,-2.29257 0.11237,-4.57962 0.33708,-6.86118 0.22472,-2.28155 0.56069,-4.5466 1.00794,-6.79516 0.44726,-2.24851 1.00364,-4.46973 1.66916,-6.66361 0.66548,-2.19387 1.43689,-4.34985 2.31422,-6.46792 0.87735,-2.11807 1.85638,-4.18805 2.93709,-6.20993 1.08072,-2.02188 2.25792,-3.98593 3.5316,-5.89215 1.2737,-1.90622 2.63775,-3.74543 4.09215,-5.51758 1.45442,-1.77222 2.99217,-3.46887 4.61326,-5.08997 1.62111,-1.62109 3.31777,-3.15884 5.08995,-4.61322 1.7722,-1.45437 3.61139,-2.81845 5.5176,-4.09216 1.90622,-1.27365 3.87028,-2.45087 5.89218,-3.53159 2.02186,-1.08072 4.09184,-2.05975 6.2099,-2.9371 2.11809,-0.87735 4.27406,-1.64877 6.46792,-2.31427 2.19388,-0.6655 4.41509,-1.22186 6.66361,-1.66913 2.24855,-0.44723 4.51361,-0.7832 6.79515,-1.00793 2.28154,-0.22473 4.5686,-0.3371 6.86119,-0.3371 2.2926,0 4.57968,0.11237 6.86121,0.33707 2.28155,0.22476 4.54657,0.56073 6.79507,1.00796 2.24857,0.44727 4.46976,1.00363 6.66361,1.66913 2.19387,0.6655 4.34985,1.43692 6.46789,2.31427 2.11807,0.87735 4.18808,1.85638 6.20996,2.9371 2.02188,1.08072 3.98593,2.25794 5.89212,3.53159 1.90625,1.27371 3.74549,2.63779 5.51767,4.09216 1.77219,1.45438 3.46884,2.99213 5.08991,4.61322 1.62109,1.6211 3.15884,3.31775 4.61322,5.08997 1.4544,1.77215 2.81845,3.61136 4.09216,5.51758 1.27371,1.90622 2.45093,3.87027 3.53165,5.89215 1.08072,2.02188 2.05972,4.09186 2.93707,6.20993 0.87732,2.11807 1.64874,4.27405 2.31424,6.46792 0.6655,2.19388 1.22189,4.4151 1.66916,6.66361 0.44726,2.24856 0.78326,4.51361 1.00796,6.79516 0.22473,2.28156 0.3371,4.56861 0.3371,6.86118 z" /><path
             id="path216"
             style="fill:none;stroke:#d79b00;stroke-width:1;stroke-linecap:butt;stroke-linejoin:miter;stroke-miterlimit:10;stroke-dasharray:none;stroke-opacity:1"
             d="m 326,462.5 c 0,2.2926 -0.11237,4.57968 -0.3371,6.86121 -0.2247,2.28158 -0.5607,4.5466 -1.00796,6.7951 -0.44727,2.24857 -1.00366,4.46976 -1.66916,6.66364 -0.6655,2.19384 -1.43692,4.34979 -2.31424,6.46786 -0.87735,2.11807 -1.85638,4.18808 -2.9371,6.20999 -1.08072,2.02185 -2.25791,3.98587 -3.53162,5.89206 -1.27371,1.90625 -2.63776,3.74549 -4.09216,5.51767 -1.45438,1.77219 -2.99213,3.46881 -4.61322,5.08991 -1.62107,1.62115 -3.31772,3.15887 -5.08991,4.61328 -1.77218,1.4544 -3.61142,2.81842 -5.51767,4.0921 -1.90619,1.27374 -3.87021,2.45093 -5.89209,3.53168 -2.02191,1.08075 -4.09192,2.05975 -6.20999,2.93701 -2.11804,0.87738 -4.27402,1.6488 -6.46789,2.31427 -2.19385,0.66547 -4.41504,1.22186 -6.66361,1.66913 -2.2485,0.44726 -4.51352,0.78326 -6.79507,1.00799 -2.28153,0.22473 -4.56861,0.3371 -6.86121,0.3371 -2.29259,0 -4.57965,-0.11237 -6.86121,-0.3371 -2.28154,-0.22473 -4.54658,-0.56073 -6.79513,-1.00799 -2.24852,-0.44727 -4.46973,-1.00366 -6.66361,-1.66913 -2.19386,-0.66547 -4.34983,-1.43689 -6.46792,-2.31427 -2.11806,-0.87726 -4.18804,-1.85626 -6.20992,-2.93701 -2.02189,-1.08075 -3.98594,-2.25794 -5.89216,-3.53168 -1.90621,-1.27368 -3.7454,-2.63776 -5.5176,-4.09216 -1.77218,-1.45435 -3.46884,-2.99207 -5.08995,-4.61322 -1.62109,-1.6211 -3.15884,-3.31772 -4.61325,-5.08991 -1.45441,-1.77218 -2.81846,-3.61142 -4.09216,-5.51764 -1.27368,-1.90619 -2.45088,-3.87024 -3.5316,-5.89212 -1.08071,-2.02188 -2.05974,-4.09189 -2.93709,-6.20999 -0.87733,-2.11804 -1.64874,-4.27402 -2.31424,-6.46789 -0.6655,-2.19385 -1.22188,-4.41504 -1.66914,-6.66361 -0.44725,-2.2485 -0.78324,-4.51352 -1.00795,-6.79507 -0.2247,-2.28153 -0.33705,-4.56861 -0.33707,-6.86121 2e-5,-2.29257 0.11237,-4.57962 0.33708,-6.86118 0.22472,-2.28155 0.56069,-4.5466 1.00794,-6.79516 0.44726,-2.24851 1.00364,-4.46973 1.66916,-6.66361 0.66548,-2.19387 1.43689,-4.34985 2.31422,-6.46792 0.87735,-2.11807 1.85638,-4.18805 2.93709,-6.20993 1.08072,-2.02188 2.25792,-3.98593 3.5316,-5.89215 1.2737,-1.90622 2.63775,-3.74543 4.09215,-5.51758 1.45442,-1.77222 2.99217,-3.46887 4.61326,-5.08997 1.62111,-1.62109 3.31777,-3.15884 5.08995,-4.61322 1.7722,-1.45437 3.61139,-2.81845 5.5176,-4.09216 1.90622,-1.27365 3.87028,-2.45087 5.89218,-3.53159 2.02186,-1.08072 4.09184,-2.05975 6.2099,-2.9371 2.11809,-0.87735 4.27406,-1.64877 6.46792,-2.31427 2.19388,-0.6655 4.41509,-1.22186 6.66361,-1.66913 2.24855,-0.44723 4.51361,-0.7832 6.79515,-1.00793 2.28154,-0.22473 4.5686,-0.3371 6.86119,-0.3371 2.2926,0 4.57968,0.11237 6.86121,0.33707 2.28155,0.22476 4.54657,0.56073 6.79507,1.00796 2.24857,0.44727 4.46976,1.00363 6.66361,1.66913 2.19387,0.6655 4.34985,1.43692 6.46789,2.31427 2.11807,0.87735 4.18808,1.85638 6.20996,2.9371 2.02188,1.08072 3.98593,2.25794 5.89212,3.53159 1.90625,1.27371 3.74549,2.63779 5.51767,4.09216 1.77219,1.45438 3.46884,2.99213 5.08991,4.61322 1.62109,1.6211 3.15884,3.31775 4.61322,5.08997 1.4544,1.77215 2.81845,3.61136 4.09216,5.51758 1.27371,1.90622 2.45093,3.87027 3.53165,5.89215 1.08072,2.02188 2.05972,4.09186 2.93707,6.20993 0.87732,2.11807 1.64874,4.27405 2.31424,6.46792 0.6655,2.19388 1.22189,4.4151 1.66916,6.66361 0.44726,2.24856 0.78326,4.51361 1.00796,6.79516 0.22473,2.28156 0.3371,4.56861 0.3371,6.86118 z" /></g><g
           transform="matrix(2.9969697,0,0,2.9969697,599.39392,1315.6697)"
           id="g218"><text
             id="text222"
             style="font-variant:normal;font-weight:bold;font-size:20px;font-family:Helvetica;-inkscape-font-specification:Helvetica-Bold;writing-mode:lr-tb;fill:#000000;fill-opacity:1;fill-rule:nonzero;stroke:none"
             transform="translate(17.71875,18)"><tspan
               id="tspan220"
               y="0"
               x="0 13.339844 21.123047 33.339844 45.556641 57.773438 68.896484">Product</tspan></text>
<text
             id="text226"
             style="font-variant:normal;font-weight:bold;font-size:20px;font-family:Helvetica;-inkscape-font-specification:Helvetica-Bold;writing-mode:lr-tb;fill:#000000;fill-opacity:1;fill-rule:nonzero;stroke:none"
             transform="translate(0.484375,42)"><tspan
               id="tspan224"
               y="0"
               x="0 13.339844 24.462891 36.679688 42.236328 54.453125 62.236328 73.359375 80.019531 85.576172 97.792969">Exploration</tspan></text>
</g><g
           transform="scale(2.9969697)"
           id="g228"><path
             id="path230"
             style="fill:#ffffff;fill-opacity:1;fill-rule:nonzero;stroke:none"
             d="m 1181,185 c 0,2.29259 -0.1124,4.57967 -0.3372,6.86121 -0.2247,2.28154 -0.5606,4.54657 -1.0079,6.79509 -0.4474,2.24855 -1.0038,4.46975 -1.6693,6.66362 -0.6654,2.19386 -1.4369,4.34983 -2.3142,6.46789 -0.8772,2.11809 -1.8562,4.18807 -2.9369,6.20995 -1.0807,2.02188 -2.2581,3.98591 -3.5319,5.89212 -1.2735,1.90623 -2.6375,3.74543 -4.0919,5.51762 -1.4544,1.7722 -2.9922,3.46884 -4.6134,5.08995 -1.6211,1.62111 -3.3177,3.15886 -5.0899,4.61327 -1.7721,1.45439 -3.6114,2.81843 -5.5176,4.09212 -1.9062,1.27369 -3.8703,2.45091 -5.8921,3.53163 -2.0219,1.08072 -4.0919,2.05973 -6.21,2.93707 -2.118,0.87735 -4.2739,1.64877 -6.4679,2.31427 -2.1938,0.66551 -4.415,1.22189 -6.6635,1.66914 -2.2486,0.44728 -4.5136,0.78328 -6.7951,1.008 -2.2816,0.2247 -4.5686,0.33705 -6.8612,0.33705 -2.2926,0 -4.5796,-0.11235 -6.8611,-0.33707 -2.2816,-0.22471 -4.5466,-0.56071 -6.7953,-1.00799 -2.2485,-0.44725 -4.4697,-1.00363 -6.6637,-1.66915 -2.1938,-0.66548 -4.3498,-1.4369 -6.4679,-2.31425 -2.118,-0.87734 -4.1879,-1.85635 -6.2098,-2.93709 -2.0218,-1.0807 -3.9858,-2.25792 -5.8922,-3.53161 -1.9061,-1.27369 -3.7454,-2.63773 -5.5176,-4.09212 -1.7721,-1.45441 -3.4687,-2.99216 -5.09,-4.61327 -1.6211,-1.62111 -3.1588,-3.31775 -4.6132,-5.08995 -1.4544,-1.77219 -2.8184,-3.61139 -4.0922,-5.51762 -1.2736,-1.90621 -2.4508,-3.87024 -3.5315,-5.89214 -1.0807,-2.02186 -2.0598,-4.09184 -2.9372,-6.20993 -0.8772,-2.11806 -1.6486,-4.27402 -2.3141,-6.46788 -0.6656,-2.19388 -1.222,-4.41508 -1.6692,-6.66363 -0.4473,-2.24852 -0.7832,-4.51355 -1.008,-6.79509 -0.2246,-2.28154 -0.3369,-4.56862 -0.337,-6.86121 10e-5,-2.29259 0.1124,-4.57965 0.337,-6.86119 0.2248,-2.28156 0.5607,-4.5466 1.0079,-6.79514 0.4473,-2.24853 1.0037,-4.46974 1.6691,-6.6636 0.6657,-2.19386 1.4371,-4.34984 2.3143,-6.46793 0.8774,-2.11807 1.8565,-4.18805 2.9372,-6.20993 1.0807,-2.02188 2.2579,-3.98593 3.5315,-5.89215 1.2738,-1.9062 2.6378,-3.74541 4.0922,-5.51761 1.4544,-1.77218 2.9921,-3.46882 4.6132,-5.08993 1.6213,-1.62111 3.3179,-3.15886 5.09,-4.61325 1.7722,-1.45441 3.6115,-2.81845 5.5176,-4.09215 1.9064,-1.27369 3.8704,-2.4509 5.8922,-3.53162 2.0219,-1.08071 4.0918,-2.05973 6.2098,-2.93708 2.1181,-0.87732 4.2741,-1.64873 6.4679,-2.31424 2.194,-0.6655 4.4152,-1.22188 6.6637,-1.66915 2.2487,-0.44726 4.5137,-0.78324 6.7953,-1.00796 2.2815,-0.2247 4.5685,-0.33706 6.8611,-0.33707 2.2926,1e-5 4.5796,0.11237 6.8612,0.33707 2.2815,0.22472 4.5465,0.5607 6.7951,1.00796 2.2485,0.44727 4.4697,1.00365 6.6635,1.66915 2.194,0.66551 4.3499,1.43692 6.4679,2.31424 2.1181,0.87735 4.1881,1.85637 6.21,2.93708 2.0218,1.08072 3.9858,2.25793 5.892,3.53162 1.9063,1.2737 3.7456,2.63774 5.5177,4.09215 1.7722,1.45439 3.4688,2.99214 5.0899,4.61325 1.6212,1.62111 3.159,3.31775 4.6134,5.08995 1.4544,1.7722 2.8184,3.6114 4.0919,5.51761 1.2738,1.9062 2.4512,3.87025 3.5319,5.89215 1.0807,2.02186 2.0597,4.09184 2.9369,6.20991 0.8773,2.11809 1.6488,4.27407 2.3142,6.46793 0.6655,2.19386 1.2219,4.41507 1.6693,6.6636 0.4473,2.24854 0.7832,4.51358 1.0079,6.79514 0.2248,2.28154 0.3372,4.5686 0.3372,6.86119 z" /><path
             id="path232"
             style="fill:none;stroke:#d79b00;stroke-width:1;stroke-linecap:butt;stroke-linejoin:miter;stroke-miterlimit:10;stroke-dasharray:none;stroke-opacity:1"
             d="m 1181,185 c 0,2.29259 -0.1124,4.57967 -0.3372,6.86121 -0.2247,2.28154 -0.5606,4.54657 -1.0079,6.79509 -0.4474,2.24855 -1.0038,4.46975 -1.6693,6.66362 -0.6654,2.19386 -1.4369,4.34983 -2.3142,6.46789 -0.8772,2.11809 -1.8562,4.18807 -2.9369,6.20995 -1.0807,2.02188 -2.2581,3.98591 -3.5319,5.89212 -1.2735,1.90623 -2.6375,3.74543 -4.0919,5.51762 -1.4544,1.7722 -2.9922,3.46884 -4.6134,5.08995 -1.6211,1.62111 -3.3177,3.15886 -5.0899,4.61327 -1.7721,1.45439 -3.6114,2.81843 -5.5176,4.09212 -1.9062,1.27369 -3.8703,2.45091 -5.8921,3.53163 -2.0219,1.08072 -4.0919,2.05973 -6.21,2.93707 -2.118,0.87735 -4.2739,1.64877 -6.4679,2.31427 -2.1938,0.66551 -4.415,1.22189 -6.6635,1.66914 -2.2486,0.44728 -4.5136,0.78328 -6.7951,1.008 -2.2816,0.2247 -4.5686,0.33705 -6.8612,0.33705 -2.2926,0 -4.5796,-0.11235 -6.8611,-0.33707 -2.2816,-0.22471 -4.5466,-0.56071 -6.7953,-1.00799 -2.2485,-0.44725 -4.4697,-1.00363 -6.6637,-1.66915 -2.1938,-0.66548 -4.3498,-1.4369 -6.4679,-2.31425 -2.118,-0.87734 -4.1879,-1.85635 -6.2098,-2.93709 -2.0218,-1.0807 -3.9858,-2.25792 -5.8922,-3.53161 -1.9061,-1.27369 -3.7454,-2.63773 -5.5176,-4.09212 -1.7721,-1.45441 -3.4687,-2.99216 -5.09,-4.61327 -1.6211,-1.62111 -3.1588,-3.31775 -4.6132,-5.08995 -1.4544,-1.77219 -2.8184,-3.61139 -4.0922,-5.51762 -1.2736,-1.90621 -2.4508,-3.87024 -3.5315,-5.89214 -1.0807,-2.02186 -2.0598,-4.09184 -2.9372,-6.20993 -0.8772,-2.11806 -1.6486,-4.27402 -2.3141,-6.46788 -0.6656,-2.19388 -1.222,-4.41508 -1.6692,-6.66363 -0.4473,-2.24852 -0.7832,-4.51355 -1.008,-6.79509 -0.2246,-2.28154 -0.3369,-4.56862 -0.337,-6.86121 10e-5,-2.29259 0.1124,-4.57965 0.337,-6.86119 0.2248,-2.28156 0.5607,-4.5466 1.0079,-6.79514 0.4473,-2.24853 1.0037,-4.46974 1.6691,-6.6636 0.6657,-2.19386 1.4371,-4.34984 2.3143,-6.46793 0.8774,-2.11807 1.8565,-4.18805 2.9372,-6.20993 1.0807,-2.02188 2.2579,-3.98593 3.5315,-5.89215 1.2738,-1.9062 2.6378,-3.74541 4.0922,-5.51761 1.4544,-1.77218 2.9921,-3.46882 4.6132,-5.08993 1.6213,-1.62111 3.3179,-3.15886 5.09,-4.61325 1.7722,-1.45441 3.6115,-2.81845 5.5176,-4.09215 1.9064,-1.27369 3.8704,-2.4509 5.8922,-3.53162 2.0219,-1.08071 4.0918,-2.05973 6.2098,-2.93708 2.1181,-0.87732 4.2741,-1.64873 6.4679,-2.31424 2.194,-0.6655 4.4152,-1.22188 6.6637,-1.66915 2.2487,-0.44726 4.5137,-0.78324 6.7953,-1.00796 2.2815,-0.2247 4.5685,-0.33706 6.8611,-0.33707 2.2926,1e-5 4.5796,0.11237 6.8612,0.33707 2.2815,0.22472 4.5465,0.5607 6.7951,1.00796 2.2485,0.44727 4.4697,1.00365 6.6635,1.66915 2.194,0.66551 4.3499,1.43692 6.4679,2.31424 2.1181,0.87735 4.1881,1.85637 6.21,2.93708 2.0218,1.08072 3.9858,2.25793 5.892,3.53162 1.9063,1.2737 3.7456,2.63774 5.5177,4.09215 1.7722,1.45439 3.4688,2.99214 5.0899,4.61325 1.6212,1.62111 3.159,3.31775 4.6134,5.08995 1.4544,1.7722 2.8184,3.6114 4.0919,5.51761 1.2738,1.9062 2.4512,3.87025 3.5319,5.89215 1.0807,2.02186 2.0597,4.09184 2.9369,6.20991 0.8773,2.11809 1.6488,4.27407 2.3142,6.46793 0.6655,2.19386 1.2219,4.41507 1.6693,6.6636 0.4473,2.24854 0.7832,4.51358 1.0079,6.79514 0.2248,2.28154 0.3372,4.5686 0.3372,6.86119 z" /></g><g
           transform="matrix(2.9969697,0,0,2.9969697,3125.8394,485.50909)"
           id="g234"><text
             id="text238"
             style="font-variant:normal;font-weight:bold;font-size:20px;font-family:Helvetica;-inkscape-font-specification:Helvetica-Bold;writing-mode:lr-tb;fill:#000000;fill-opacity:1;fill-rule:nonzero;stroke:none"
             transform="translate(16.90625,18)"><tspan
               id="tspan236"
               y="0"
               x="0 14.443359 25.566406 32.226562 43.349609 48.90625 61.152344 72.275391 77.832031 90.048828">Data Value</tspan></text>
<text
             id="text242"
             style="font-variant:normal;font-weight:bold;font-size:20px;font-family:Helvetica;-inkscape-font-specification:Helvetica-Bold;writing-mode:lr-tb;fill:#000000;fill-opacity:1;fill-rule:nonzero;stroke:none"
             transform="translate(12.5,42)"><tspan
               id="tspan240"
               y="0"
               x="0 13.339844 24.462891 36.679688 42.236328 54.453125 62.236328 73.359375 80.019531 85.576172 97.792969">Exploration</tspan></text>
</g><g
           transform="scale(2.9969697)"
           id="g244"><path
             id="path246"
             style="fill:#ffffff;fill-opacity:1;fill-rule:nonzero;stroke:none"
             d="m 1336,328 c 10e-5,2.29257 -0.1123,4.57965 -0.337,6.86121 -0.2248,2.28152 -0.5607,4.54657 -1.0081,6.79507 -0.4473,2.24854 -1.0037,4.46973 -1.6691,6.66361 -0.6655,2.19387 -1.437,4.34982 -2.3144,6.46786 -0.8773,2.1181 -1.8563,4.18811 -2.937,6.20999 -1.0807,2.02188 -2.258,3.9859 -3.5318,5.89212 -1.2735,1.90622 -2.6375,3.74545 -4.092,5.51764 -1.4543,1.77219 -2.9921,3.46884 -4.6133,5.08994 -1.6211,1.62112 -3.3177,3.15887 -5.0901,4.61331 -1.7721,1.45437 -3.6113,2.81842 -5.5175,4.09207 -1.9062,1.27371 -3.8703,2.45093 -5.8921,3.53165 -2.0219,1.08072 -4.0918,2.05972 -6.2099,2.93704 -2.118,0.87735 -4.274,1.6488 -6.4679,2.3143 -2.1938,0.6655 -4.415,1.22186 -6.6635,1.6691 -2.2485,0.44729 -4.5135,0.78329 -6.795,1.00805 -2.2816,0.2247 -4.5687,0.33704 -6.8613,0.33704 -2.2926,0 -4.5796,-0.11237 -6.8612,-0.33707 -2.2815,-0.2247 -4.5465,-0.5607 -6.7952,-1.00799 -2.2485,-0.44727 -4.4697,-1.00363 -6.6635,-1.66913 -2.194,-0.6655 -4.35,-1.43695 -6.4682,-2.3143 -2.118,-0.87732 -4.188,-1.85635 -6.2097,-2.93707 -2.0218,-1.08072 -3.9858,-2.25791 -5.8921,-3.53162 -1.9061,-1.27365 -3.7453,-2.6377 -5.5176,-4.0921 -1.7723,-1.45441 -3.469,-2.99216 -5.0901,-4.61328 -1.6211,-1.6211 -3.1588,-3.31775 -4.6132,-5.08994 -1.4545,-1.77219 -2.8185,-3.61142 -4.0922,-5.51764 -1.2737,-1.90622 -2.4509,-3.87027 -3.5316,-5.89215 -1.0807,-2.02188 -2.0598,-4.09186 -2.9371,-6.20996 -0.8774,-2.11804 -1.6487,-4.27399 -2.3143,-6.46786 -0.6654,-2.19388 -1.2216,-4.41507 -1.669,-6.66361 -0.4472,-2.2485 -0.7832,-4.51355 -1.008,-6.79507 C 1196.1123,332.57965 1196,330.29257 1196,328 c 0,-2.29257 0.1123,-4.57965 0.337,-6.86121 0.2248,-2.28152 0.5608,-4.54657 1.008,-6.79513 0.4474,-2.24854 1.0038,-4.46973 1.6692,-6.66358 0.6654,-2.19387 1.4367,-4.34988 2.3141,-6.46798 0.8773,-2.11804 1.8564,-4.18802 2.9371,-6.2099 1.0807,-2.02188 2.2579,-3.98593 3.5316,-5.89215 1.2737,-1.90622 2.6377,-3.7454 4.0922,-5.51758 1.4544,-1.77222 2.9921,-3.46887 4.6132,-5.08997 1.6211,-1.62106 3.3178,-3.15881 5.0901,-4.61322 1.7723,-1.4544 3.6115,-2.81848 5.5176,-4.09219 1.9063,-1.27368 3.8703,-2.4509 5.8921,-3.53162 2.0217,-1.08072 4.0917,-2.05972 6.2097,-2.93707 2.1182,-0.87732 4.2742,-1.64874 6.4682,-2.31424 2.1938,-0.6655 4.415,-1.22189 6.6635,-1.66916 2.2487,-0.44723 4.5137,-0.7832 6.7952,-1.0079 2.2816,-0.2247 4.5686,-0.33707 6.8612,-0.3371 2.2926,3e-5 4.5797,0.1124 6.8613,0.3371 2.2815,0.2247 4.5465,0.56067 6.795,1.0079 2.2485,0.44727 4.4697,1.00366 6.6635,1.66916 2.1939,0.6655 4.3499,1.43692 6.4679,2.31424 2.1181,0.87735 4.188,1.85638 6.2099,2.9371 2.0218,1.08072 3.9859,2.25791 5.8922,3.53162 1.9061,1.27371 3.7453,2.63776 5.5174,4.09216 1.7724,1.45441 3.469,2.99216 5.0901,4.61322 1.6212,1.6211 3.159,3.31775 4.6133,5.08997 1.4545,1.77218 2.8185,3.61136 4.092,5.51758 1.2738,1.90622 2.4511,3.87027 3.5318,5.89215 1.0807,2.02188 2.0597,4.09186 2.937,6.2099 0.8774,2.1181 1.6489,4.27408 2.3144,6.46795 0.6654,2.19388 1.2218,4.41507 1.6691,6.66361 0.4474,2.24856 0.7833,4.51361 1.0081,6.79513 0.2247,2.28156 0.3371,4.56864 0.337,6.86121 z" /><path
             id="path248"
             style="fill:none;stroke:#d79b00;stroke-width:1;stroke-linecap:butt;stroke-linejoin:miter;stroke-miterlimit:10;stroke-dasharray:none;stroke-opacity:1"
             d="m 1336,328 c 10e-5,2.29257 -0.1123,4.57965 -0.337,6.86121 -0.2248,2.28152 -0.5607,4.54657 -1.0081,6.79507 -0.4473,2.24854 -1.0037,4.46973 -1.6691,6.66361 -0.6655,2.19387 -1.437,4.34982 -2.3144,6.46786 -0.8773,2.1181 -1.8563,4.18811 -2.937,6.20999 -1.0807,2.02188 -2.258,3.9859 -3.5318,5.89212 -1.2735,1.90622 -2.6375,3.74545 -4.092,5.51764 -1.4543,1.77219 -2.9921,3.46884 -4.6133,5.08994 -1.6211,1.62112 -3.3177,3.15887 -5.0901,4.61331 -1.7721,1.45437 -3.6113,2.81842 -5.5175,4.09207 -1.9062,1.27371 -3.8703,2.45093 -5.8921,3.53165 -2.0219,1.08072 -4.0918,2.05972 -6.2099,2.93704 -2.118,0.87735 -4.274,1.6488 -6.4679,2.3143 -2.1938,0.6655 -4.415,1.22186 -6.6635,1.6691 -2.2485,0.44729 -4.5135,0.78329 -6.795,1.00805 -2.2816,0.2247 -4.5687,0.33704 -6.8613,0.33704 -2.2926,0 -4.5796,-0.11237 -6.8612,-0.33707 -2.2815,-0.2247 -4.5465,-0.5607 -6.7952,-1.00799 -2.2485,-0.44727 -4.4697,-1.00363 -6.6635,-1.66913 -2.194,-0.6655 -4.35,-1.43695 -6.4682,-2.3143 -2.118,-0.87732 -4.188,-1.85635 -6.2097,-2.93707 -2.0218,-1.08072 -3.9858,-2.25791 -5.8921,-3.53162 -1.9061,-1.27365 -3.7453,-2.6377 -5.5176,-4.0921 -1.7723,-1.45441 -3.469,-2.99216 -5.0901,-4.61328 -1.6211,-1.6211 -3.1588,-3.31775 -4.6132,-5.08994 -1.4545,-1.77219 -2.8185,-3.61142 -4.0922,-5.51764 -1.2737,-1.90622 -2.4509,-3.87027 -3.5316,-5.89215 -1.0807,-2.02188 -2.0598,-4.09186 -2.9371,-6.20996 -0.8774,-2.11804 -1.6487,-4.27399 -2.3143,-6.46786 -0.6654,-2.19388 -1.2216,-4.41507 -1.669,-6.66361 -0.4472,-2.2485 -0.7832,-4.51355 -1.008,-6.79507 C 1196.1123,332.57965 1196,330.29257 1196,328 c 0,-2.29257 0.1123,-4.57965 0.337,-6.86121 0.2248,-2.28152 0.5608,-4.54657 1.008,-6.79513 0.4474,-2.24854 1.0038,-4.46973 1.6692,-6.66358 0.6654,-2.19387 1.4367,-4.34988 2.3141,-6.46798 0.8773,-2.11804 1.8564,-4.18802 2.9371,-6.2099 1.0807,-2.02188 2.2579,-3.98593 3.5316,-5.89215 1.2737,-1.90622 2.6377,-3.7454 4.0922,-5.51758 1.4544,-1.77222 2.9921,-3.46887 4.6132,-5.08997 1.6211,-1.62106 3.3178,-3.15881 5.0901,-4.61322 1.7723,-1.4544 3.6115,-2.81848 5.5176,-4.09219 1.9063,-1.27368 3.8703,-2.4509 5.8921,-3.53162 2.0217,-1.08072 4.0917,-2.05972 6.2097,-2.93707 2.1182,-0.87732 4.2742,-1.64874 6.4682,-2.31424 2.1938,-0.6655 4.415,-1.22189 6.6635,-1.66916 2.2487,-0.44723 4.5137,-0.7832 6.7952,-1.0079 2.2816,-0.2247 4.5686,-0.33707 6.8612,-0.3371 2.2926,3e-5 4.5797,0.1124 6.8613,0.3371 2.2815,0.2247 4.5465,0.56067 6.795,1.0079 2.2485,0.44727 4.4697,1.00366 6.6635,1.66916 2.1939,0.6655 4.3499,1.43692 6.4679,2.31424 2.1181,0.87735 4.188,1.85638 6.2099,2.9371 2.0218,1.08072 3.9859,2.25791 5.8922,3.53162 1.9061,1.27371 3.7453,2.63776 5.5174,4.09216 1.7724,1.45441 3.469,2.99216 5.0901,4.61322 1.6212,1.6211 3.159,3.31775 4.6133,5.08997 1.4545,1.77218 2.8185,3.61136 4.092,5.51758 1.2738,1.90622 2.4511,3.87027 3.5318,5.89215 1.0807,2.02188 2.0597,4.09186 2.937,6.2099 0.8774,2.1181 1.6489,4.27408 2.3144,6.46795 0.6654,2.19388 1.2218,4.41507 1.6691,6.66361 0.4474,2.24856 0.7833,4.51361 1.0081,6.79513 0.2247,2.28156 0.3371,4.56864 0.337,6.86121 z" /></g><g
           transform="matrix(2.9969697,0,0,2.9969697,3626.3333,914.07574)"
           id="g250"><text
             id="text254"
             style="font-variant:normal;font-weight:bold;font-size:20px;font-family:Helvetica;-inkscape-font-specification:Helvetica-Bold;writing-mode:lr-tb;fill:#000000;fill-opacity:1;fill-rule:nonzero;stroke:none"
             transform="translate(24.9375,18)"><tspan
               id="tspan252"
               y="0"
               x="0 14.443359 25.566406 36.689453 48.90625 54.462891">Result</tspan></text>
<text
             id="text258"
             style="font-variant:normal;font-weight:bold;font-size:20px;font-family:Helvetica;-inkscape-font-specification:Helvetica-Bold;writing-mode:lr-tb;fill:#000000;fill-opacity:1;fill-rule:nonzero;stroke:none"
             transform="translate(0.484375,42)"><tspan
               id="tspan256"
               y="0"
               x="0 13.339844 24.462891 36.679688 42.236328 54.453125 62.236328 73.359375 80.019531 85.576172 97.792969">Exploration</tspan></text>
</g><g
           transform="scale(2.9969697)"
           id="g260"><path
             id="path262"
             style="fill:#ffffff;fill-opacity:1;fill-rule:nonzero;stroke:none"
             d="m 1179,468 c 0,2.2926 -0.1124,4.57968 -0.3372,6.86121 -0.2247,2.28152 -0.5606,4.54657 -1.008,6.7951 -0.4472,2.24857 -1.0036,4.46976 -1.6691,6.66364 -0.6655,2.19384 -1.4369,4.34979 -2.3142,6.46783 -0.8773,2.1181 -1.8563,4.18808 -2.937,6.20996 -1.0807,2.02188 -2.2579,3.98593 -3.5316,5.89212 -1.2737,1.90622 -2.6377,3.74542 -4.0922,5.51761 -1.4543,1.77222 -2.992,3.46887 -4.6133,5.08997 -1.6211,1.62109 -3.3177,3.15887 -5.0899,4.61328 -1.7722,1.4544 -3.6115,2.81842 -5.5177,4.0921 -1.9062,1.27374 -3.8701,2.45093 -5.892,3.53162 -2.0218,1.08075 -4.0919,2.05975 -6.2101,2.93707 -2.118,0.87738 -4.274,1.64886 -6.4677,2.31433 -2.194,0.66547 -4.4152,1.22186 -6.6637,1.66913 -2.2485,0.44726 -4.5135,0.78326 -6.7951,1.00799 C 1113.5797,537.88763 1111.2926,538 1109,538 c -2.2926,0 -4.5797,-0.11237 -6.8613,-0.33704 -2.2815,-0.22473 -4.5465,-0.56073 -6.7951,-1.00799 -2.2484,-0.44727 -4.4696,-1.00366 -6.6635,-1.66913 -2.1939,-0.66547 -4.3499,-1.43695 -6.4679,-2.31433 -2.1181,-0.87732 -4.1881,-1.85632 -6.21,-2.93701 -2.0218,-1.08075 -3.986,-2.25794 -5.8922,-3.53168 -1.9061,-1.27368 -3.7454,-2.6377 -5.5176,-4.0921 -1.7722,-1.45441 -3.4689,-2.99219 -5.09,-4.61328 -1.6211,-1.6211 -3.1588,-3.31775 -4.6131,-5.08997 -1.4545,-1.77216 -2.8186,-3.61136 -4.0923,-5.51758 -1.2736,-1.90622 -2.4507,-3.87027 -3.5314,-5.89215 -1.0807,-2.02188 -2.0598,-4.09186 -2.9372,-6.20996 -0.8773,-2.11804 -1.6487,-4.27402 -2.3141,-6.46789 -0.6655,-2.19382 -1.2219,-4.41501 -1.6693,-6.66358 -0.4473,-2.24853 -0.7832,-4.51358 -1.0078,-6.7951 -0.2248,-2.28153 -0.3371,-4.56861 -0.3372,-6.86121 10e-5,-2.29257 0.1124,-4.57965 0.3372,-6.86121 0.2247,-2.28158 0.5606,-4.54663 1.0079,-6.79519 0.4473,-2.24851 1.0037,-4.4697 1.6692,-6.66355 0.6654,-2.19387 1.4368,-4.34988 2.3141,-6.46795 0.8774,-2.11808 1.8564,-4.18805 2.9371,-6.20993 1.0807,-2.02188 2.2579,-3.98593 3.5315,-5.89215 1.2737,-1.90622 2.6378,-3.7454 4.0923,-5.51758 1.4543,-1.77219 2.992,-3.46884 4.6131,-5.08997 1.6211,-1.62109 3.3178,-3.15884 5.09,-4.61322 1.7722,-1.45441 3.6115,-2.81845 5.5176,-4.09216 1.9062,-1.27368 3.8702,-2.45087 5.8921,-3.53159 2.022,-1.08072 4.092,-2.05975 6.2101,-2.9371 2.118,-0.87732 4.274,-1.64874 6.4679,-2.31424 2.1939,-0.6655 4.4151,-1.22189 6.6635,-1.66916 2.2486,-0.44723 4.5136,-0.7832 6.7951,-1.0079 2.2816,-0.22473 4.5687,-0.3371 6.8613,-0.3371 2.2926,0 4.5797,0.11237 6.8612,0.33707 2.2816,0.22473 4.5466,0.5607 6.7951,1.00793 2.2485,0.44727 4.4697,1.00366 6.6637,1.66916 2.1937,0.6655 4.3497,1.43692 6.4677,2.31424 2.1182,0.87735 4.1883,1.85641 6.2102,2.93713 2.0218,1.08069 3.9857,2.25788 5.892,3.53156 1.9061,1.27371 3.7454,2.63775 5.5177,4.09213 1.7721,1.45441 3.4687,2.99216 5.0898,4.61325 1.6213,1.62113 3.159,3.31778 4.6133,5.09 1.4544,1.77215 2.8184,3.61136 4.0921,5.51758 1.2738,1.90622 2.4509,3.87027 3.5316,5.89215 1.0808,2.02188 2.0598,4.09182 2.9371,6.2099 0.8773,2.11807 1.6487,4.27405 2.3142,6.46792 0.6655,2.19388 1.2219,4.41507 1.6691,6.66358 0.4474,2.24856 0.7833,4.51361 1.008,6.79519 0.2248,2.28156 0.3372,4.56864 0.3372,6.86121 z" /><path
             id="path264"
             style="fill:none;stroke:#d79b00;stroke-width:1;stroke-linecap:butt;stroke-linejoin:miter;stroke-miterlimit:10;stroke-dasharray:none;stroke-opacity:1"
             d="m 1179,468 c 0,2.2926 -0.1124,4.57968 -0.3372,6.86121 -0.2247,2.28152 -0.5606,4.54657 -1.008,6.7951 -0.4472,2.24857 -1.0036,4.46976 -1.6691,6.66364 -0.6655,2.19384 -1.4369,4.34979 -2.3142,6.46783 -0.8773,2.1181 -1.8563,4.18808 -2.937,6.20996 -1.0807,2.02188 -2.2579,3.98593 -3.5316,5.89212 -1.2737,1.90622 -2.6377,3.74542 -4.0922,5.51761 -1.4543,1.77222 -2.992,3.46887 -4.6133,5.08997 -1.6211,1.62109 -3.3177,3.15887 -5.0899,4.61328 -1.7722,1.4544 -3.6115,2.81842 -5.5177,4.0921 -1.9062,1.27374 -3.8701,2.45093 -5.892,3.53162 -2.0218,1.08075 -4.0919,2.05975 -6.2101,2.93707 -2.118,0.87738 -4.274,1.64886 -6.4677,2.31433 -2.194,0.66547 -4.4152,1.22186 -6.6637,1.66913 -2.2485,0.44726 -4.5135,0.78326 -6.7951,1.00799 C 1113.5797,537.88763 1111.2926,538 1109,538 c -2.2926,0 -4.5797,-0.11237 -6.8613,-0.33704 -2.2815,-0.22473 -4.5465,-0.56073 -6.7951,-1.00799 -2.2484,-0.44727 -4.4696,-1.00366 -6.6635,-1.66913 -2.1939,-0.66547 -4.3499,-1.43695 -6.4679,-2.31433 -2.1181,-0.87732 -4.1881,-1.85632 -6.21,-2.93701 -2.0218,-1.08075 -3.986,-2.25794 -5.8922,-3.53168 -1.9061,-1.27368 -3.7454,-2.6377 -5.5176,-4.0921 -1.7722,-1.45441 -3.4689,-2.99219 -5.09,-4.61328 -1.6211,-1.6211 -3.1588,-3.31775 -4.6131,-5.08997 -1.4545,-1.77216 -2.8186,-3.61136 -4.0923,-5.51758 -1.2736,-1.90622 -2.4507,-3.87027 -3.5314,-5.89215 -1.0807,-2.02188 -2.0598,-4.09186 -2.9372,-6.20996 -0.8773,-2.11804 -1.6487,-4.27402 -2.3141,-6.46789 -0.6655,-2.19382 -1.2219,-4.41501 -1.6693,-6.66358 -0.4473,-2.24853 -0.7832,-4.51358 -1.0078,-6.7951 -0.2248,-2.28153 -0.3371,-4.56861 -0.3372,-6.86121 10e-5,-2.29257 0.1124,-4.57965 0.3372,-6.86121 0.2247,-2.28158 0.5606,-4.54663 1.0079,-6.79519 0.4473,-2.24851 1.0037,-4.4697 1.6692,-6.66355 0.6654,-2.19387 1.4368,-4.34988 2.3141,-6.46795 0.8774,-2.11808 1.8564,-4.18805 2.9371,-6.20993 1.0807,-2.02188 2.2579,-3.98593 3.5315,-5.89215 1.2737,-1.90622 2.6378,-3.7454 4.0923,-5.51758 1.4543,-1.77219 2.992,-3.46884 4.6131,-5.08997 1.6211,-1.62109 3.3178,-3.15884 5.09,-4.61322 1.7722,-1.45441 3.6115,-2.81845 5.5176,-4.09216 1.9062,-1.27368 3.8702,-2.45087 5.8921,-3.53159 2.022,-1.08072 4.092,-2.05975 6.2101,-2.9371 2.118,-0.87732 4.274,-1.64874 6.4679,-2.31424 2.1939,-0.6655 4.4151,-1.22189 6.6635,-1.66916 2.2486,-0.44723 4.5136,-0.7832 6.7951,-1.0079 2.2816,-0.22473 4.5687,-0.3371 6.8613,-0.3371 2.2926,0 4.5797,0.11237 6.8612,0.33707 2.2816,0.22473 4.5466,0.5607 6.7951,1.00793 2.2485,0.44727 4.4697,1.00366 6.6637,1.66916 2.1937,0.6655 4.3497,1.43692 6.4677,2.31424 2.1182,0.87735 4.1883,1.85641 6.2102,2.93713 2.0218,1.08069 3.9857,2.25788 5.892,3.53156 1.9061,1.27371 3.7454,2.63775 5.5177,4.09213 1.7721,1.45441 3.4687,2.99216 5.0898,4.61325 1.6213,1.62113 3.159,3.31778 4.6133,5.09 1.4544,1.77215 2.8184,3.61136 4.0921,5.51758 1.2738,1.90622 2.4509,3.87027 3.5316,5.89215 1.0808,2.02188 2.0598,4.09182 2.9371,6.2099 0.8773,2.11807 1.6487,4.27405 2.3142,6.46792 0.6655,2.19388 1.2219,4.41507 1.6691,6.66358 0.4474,2.24856 0.7833,4.51361 1.008,6.79519 0.2248,2.28156 0.3372,4.56864 0.3372,6.86121 z" /></g><g
           transform="matrix(2.9969697,0,0,2.9969697,3155.8091,1333.6515)"
           id="g266"><text
             id="text270"
             style="font-variant:normal;font-weight:bold;font-size:20px;font-family:Helvetica;-inkscape-font-specification:Helvetica-Bold;writing-mode:lr-tb;fill:#000000;fill-opacity:1;fill-rule:nonzero;stroke:none"
             transform="translate(12.125,18)"><tspan
               id="tspan268"
               y="0"
               x="0 14.443359 25.566406 33.349609 41.132812 52.255859 58.916016 64.472656 75.595703">Narrative</tspan></text>
<text
             id="text274"
             style="font-variant:normal;font-weight:bold;font-size:20px;font-family:Helvetica;-inkscape-font-specification:Helvetica-Bold;writing-mode:lr-tb;fill:#000000;fill-opacity:1;fill-rule:nonzero;stroke:none"
             transform="translate(0.484375,42)"><tspan
               id="tspan272"
               y="0"
               x="0 13.339844 24.462891 36.679688 42.236328 54.453125 62.236328 73.359375 80.019531 85.576172 97.792969">Exploration</tspan></text>
</g></g></g></g></svg>