<?xml version="1.0" encoding="UTF-8" standalone="no"?>
<svg
   xmlns:dc="http://purl.org/dc/elements/1.1/"
   xmlns:cc="http://creativecommons.org/ns#"
   xmlns:rdf="http://www.w3.org/1999/02/22-rdf-syntax-ns#"
   xmlns:svg="http://www.w3.org/2000/svg"
   xmlns="http://www.w3.org/2000/svg"
   viewBox="0 0 738.56 100.15999"
   height="100.15999"
   width="738.56"
   xml:space="preserve"
   id="svg2"
   version="1.1"><metadata
     id="metadata8"><rdf:RDF><cc:Work
         rdf:about=""><dc:format>image/svg+xml</dc:format><dc:type
           rdf:resource="http://purl.org/dc/dcmitype/StillImage" /></cc:Work></rdf:RDF></metadata><defs
     id="defs6"><clipPath
       id="clipPath18"
       clipPathUnits="userSpaceOnUse"><path
         style="clip-rule:evenodd"
         id="path16"
         d="M 0,0 H 2308.3333 V 311.77487 H 0 Z" /></clipPath><clipPath
       id="clipPath30"
       clipPathUnits="userSpaceOnUse"><path
         style="clip-rule:evenodd"
         id="path28"
         d="M 0,0 H 2308.3333 V 311.77487 H 0 Z" /></clipPath></defs><g
     transform="scale(0.31999998)"
     id="g10"><g
       id="g12"><g
         clip-path="url(#clipPath18)"
         id="g14"><g
           transform="scale(2.9978354)"
           id="g20"><path
             id="path22"
             style="fill:#ffffff;fill-opacity:1;fill-rule:nonzero;stroke:none"
             d="M 0,0 H 770 V 104 H 0 Z" /></g></g></g><g
       id="g24"><g
         clip-path="url(#clipPath30)"
         id="g26"><g
           transform="scale(2.9978354)"
           id="g32"><path
             id="path34"
             style="fill:none;stroke:#000000;stroke-width:1;stroke-linecap:butt;stroke-linejoin:miter;stroke-miterlimit:10;stroke-dasharray:none;stroke-opacity:1"
             d="m 446,52 h 20 -2 11.76999" /><path
             id="path36"
             style="fill:#000000;fill-opacity:1;fill-rule:nonzero;stroke:none"
             d="m 481.76999,52 -8,4 2,-4 -2,-4 z" /><path
             id="path38"
             style="fill:none;stroke:#000000;stroke-width:1;stroke-linecap:butt;stroke-linejoin:miter;stroke-miterlimit:10;stroke-dasharray:none;stroke-opacity:1"
             d="m 481.76999,52 -8,4 2,-4 -2,-4 z" /><path
             id="path40"
             style="fill:#ffffff;fill-opacity:1;fill-rule:nonzero;stroke:none"
             d="m 338.14999,11 h 95.70002 c 0.79776,0 1.58786,0.07782 2.3703,0.233458 0.78244,0.155639 1.54217,0.386108 2.27923,0.691405 0.73706,0.305297 1.43726,0.679557 2.10059,1.12278 0.66333,0.443223 1.27707,0.946892 1.84118,1.511009 0.56412,0.564116 1.06778,1.177839 1.51099,1.841168 0.44321,0.66333 0.81748,1.363522 1.1228,2.100575 0.3053,0.737053 0.53577,1.496805 0.69141,2.279255 0.15564,0.782451 0.23346,1.572569 0.23349,2.37035 v 56.699998 c -3e-5,0.797776 -0.0779,1.587891 -0.23352,2.370347 -0.15561,0.782447 -0.38608,1.542198 -0.69138,2.279251 -0.30532,0.737053 -0.67959,1.437248 -1.1228,2.100578 -0.44321,0.66333 -0.94687,1.277054 -1.51099,1.841164 -0.56411,0.564117 -1.17785,1.067787 -1.84118,1.511009 -0.66333,0.443222 -1.36353,0.817482 -2.10059,1.12278 -0.73706,0.305297 -1.49679,0.535766 -2.27923,0.691406 -0.78244,0.15564 -1.57254,0.233459 -2.3703,0.233467 h -95.70002 c -0.79782,-8e-6 -1.58792,-0.07783 -2.37036,-0.233467 -0.78247,-0.15564 -1.54223,-0.386109 -2.27926,-0.691406 -0.73706,-0.305298 -1.43726,-0.679558 -2.10059,-1.12278 -0.66333,-0.443222 -1.27704,-0.946892 -1.84116,-1.511009 -0.56411,-0.56411 -1.06781,-1.177834 -1.51101,-1.841164 -0.44324,-0.66333 -0.81751,-1.363525 -1.12277,-2.100578 -0.30533,-0.737053 -0.5358,-1.496804 -0.69141,-2.279251 C 326.07779,81.437889 325.99997,80.647774 326,79.849998 V 23.15 c -3e-5,-0.797781 0.0778,-1.587899 0.23343,-2.37035 0.15561,-0.78245 0.38608,-1.542202 0.69141,-2.279255 0.30526,-0.737053 0.67953,-1.437245 1.12277,-2.100575 0.4432,-0.663329 0.9469,-1.277052 1.51101,-1.841168 0.56412,-0.564117 1.17783,-1.067786 1.84116,-1.511009 0.66333,-0.443223 1.36353,-0.817483 2.10059,-1.12278 0.73703,-0.305297 1.49679,-0.535766 2.27926,-0.691405 C 336.56207,11.07782 337.35217,11 338.14999,11 Z" /><path
             id="path42"
             style="fill:none;stroke:#000000;stroke-width:1;stroke-linecap:butt;stroke-linejoin:miter;stroke-miterlimit:10;stroke-dasharray:none;stroke-opacity:1"
             d="m 338.14999,11 h 95.70002 c 0.79776,0 1.58786,0.07782 2.3703,0.233458 0.78244,0.155639 1.54217,0.386108 2.27923,0.691405 0.73706,0.305297 1.43726,0.679557 2.10059,1.12278 0.66333,0.443223 1.27707,0.946892 1.84118,1.511009 0.56412,0.564116 1.06778,1.177839 1.51099,1.841168 0.44321,0.66333 0.81748,1.363522 1.1228,2.100575 0.3053,0.737053 0.53577,1.496805 0.69141,2.279255 0.15564,0.782451 0.23346,1.572569 0.23349,2.37035 v 56.699998 c -3e-5,0.797776 -0.0779,1.587891 -0.23352,2.370347 -0.15561,0.782447 -0.38608,1.542198 -0.69138,2.279251 -0.30532,0.737053 -0.67959,1.437248 -1.1228,2.100578 -0.44321,0.66333 -0.94687,1.277054 -1.51099,1.841164 -0.56411,0.564117 -1.17785,1.067787 -1.84118,1.511009 -0.66333,0.443222 -1.36353,0.817482 -2.10059,1.12278 -0.73706,0.305297 -1.49679,0.535766 -2.27923,0.691406 -0.78244,0.15564 -1.57254,0.233459 -2.3703,0.233467 h -95.70002 c -0.79782,-8e-6 -1.58792,-0.07783 -2.37036,-0.233467 -0.78247,-0.15564 -1.54223,-0.386109 -2.27926,-0.691406 -0.73706,-0.305298 -1.43726,-0.679558 -2.10059,-1.12278 -0.66333,-0.443222 -1.27704,-0.946892 -1.84116,-1.511009 -0.56411,-0.56411 -1.06781,-1.177834 -1.51101,-1.841164 -0.44324,-0.66333 -0.81751,-1.363525 -1.12277,-2.100578 -0.30533,-0.737053 -0.5358,-1.496804 -0.69141,-2.279251 C 326.07779,81.437889 325.99997,80.647774 326,79.849998 V 23.15 c -3e-5,-0.797781 0.0778,-1.587899 0.23343,-2.37035 0.15561,-0.78245 0.38608,-1.542202 0.69141,-2.279255 0.30526,-0.737053 0.67953,-1.437245 1.12277,-2.100575 0.4432,-0.663329 0.9469,-1.277052 1.51101,-1.841168 0.56412,-0.564117 1.17783,-1.067786 1.84116,-1.511009 0.66333,-0.443223 1.36353,-0.817483 2.10059,-1.12278 0.73703,-0.305297 1.49679,-0.535766 2.27926,-0.691405 C 336.56207,11.07782 337.35217,11 338.14999,11 Z" /></g><g
           transform="matrix(2.9978354,0,0,2.9978354,983.29004,98.928566)"
           id="g44"><text
             id="text48"
             style="font-variant:normal;font-weight:normal;font-size:16px;font-family:Helvetica;-inkscape-font-specification:Helvetica;writing-mode:lr-tb;fill:#000000;fill-opacity:1;fill-rule:nonzero;stroke:none"
             transform="translate(40.59375,14)"><tspan
               id="tspan46"
               y="0"
               x="0 11.554688 20.453125 24.898438">Data</tspan></text>
<text
             id="text52"
             style="font-variant:normal;font-weight:normal;font-size:16px;font-family:Helvetica;-inkscape-font-specification:Helvetica;writing-mode:lr-tb;fill:#000000;fill-opacity:1;fill-rule:nonzero;stroke:none"
             transform="translate(16.140625,33)"><tspan
               id="tspan50"
               y="0"
               x="0 10.671875 16 24.898438 33.796875 42.695312 48.023438 56.921875 61.367188 64.921875 73.820312">Preparation</tspan></text>
</g><g
           transform="scale(2.9978354)"
           id="g54"><path
             id="path56"
             style="fill:none;stroke:#000000;stroke-width:1;stroke-linecap:butt;stroke-linejoin:miter;stroke-miterlimit:10;stroke-dasharray:none;stroke-opacity:1"
             d="m 584,52 h 20 -3 11.77002" /><path
             id="path58"
             style="fill:#000000;fill-opacity:1;fill-rule:nonzero;stroke:none"
             d="m 618.77002,52 -8,4 2,-4 -2,-4 z" /><path
             id="path60"
             style="fill:none;stroke:#000000;stroke-width:1;stroke-linecap:butt;stroke-linejoin:miter;stroke-miterlimit:10;stroke-dasharray:none;stroke-opacity:1"
             d="m 618.77002,52 -8,4 2,-4 -2,-4 z" /><path
             id="path62"
             style="fill:#ffffff;fill-opacity:1;fill-rule:nonzero;stroke:none"
             d="m 584,52 c -6e-5,1.637562 -0.0803,3.271183 -0.24078,4.90086 -0.16053,1.629673 -0.40052,3.247558 -0.72004,4.853653 -0.31945,1.606098 -0.71685,3.192669 -1.1922,4.759723 -0.4754,1.56704 -1.02642,3.107018 -1.65307,4.619927 -0.62665,1.512916 -1.32599,2.99147 -2.0979,4.435669 -0.77197,1.444206 -1.61286,2.847099 -2.52265,4.208679 -0.90979,1.36158 -1.88409,2.675301 -2.92291,3.941155 -1.03888,1.265853 -2.13727,2.477745 -3.29516,3.635665 -1.15796,1.157929 -2.36988,2.256325 -3.63569,3.295182 -1.26586,1.038856 -2.57959,2.013176 -3.94116,2.922958 -1.36157,0.909782 -2.76446,1.750649 -4.20868,2.522583 -1.44421,0.771942 -2.92279,1.471245 -4.43567,2.097908 -1.51287,0.626671 -3.05285,1.177689 -4.61981,1.653046 -1.56708,0.475362 -3.15368,0.872782 -4.75976,1.192242 -1.60608,0.31948 -3.22394,0.55947 -4.85364,0.71999 C 537.27118,101.91975 535.63757,102 534,102 c -1.63751,0 -3.27112,-0.0803 -4.90082,-0.24076 -1.6297,-0.16052 -3.24762,-0.40051 -4.8537,-0.71998 -1.60614,-0.31946 -3.19268,-0.71688 -4.7597,-1.192245 -1.56708,-0.475357 -3.10712,-1.026374 -4.62,-1.653045 -1.51287,-0.626663 -2.99145,-1.325966 -4.43563,-2.097908 -1.44419,-0.771942 -2.84711,-1.612801 -4.20871,-2.522583 -1.36158,-0.909783 -2.67527,-1.88411 -3.94111,-2.922966 -1.26586,-1.038857 -2.47778,-2.137253 -3.63571,-3.295182 -1.1579,-1.15792 -2.25628,-2.369812 -3.29516,-3.635665 -1.03885,-1.265854 -2.01319,-2.579575 -2.92301,-3.941163 -0.90976,-1.361579 -1.75061,-2.764473 -2.52255,-4.208671 -0.77194,-1.444199 -1.47125,-2.922753 -2.09793,-4.435669 -0.62662,-1.512909 -1.17761,-3.052887 -1.65299,-4.619927 -0.47537,-1.567054 -0.8728,-3.153625 -1.19229,-4.759723 -0.31942,-1.606095 -0.55941,-3.22398 -0.71991,-4.853653 C 484.08029,55.271183 484.00003,53.637562 484,52 c 3e-5,-1.637562 0.0803,-3.271179 0.24078,-4.900856 0.1605,-1.629677 0.40049,-3.247562 0.71994,-4.853661 0.31949,-1.606098 0.71692,-3.192669 1.1923,-4.759719 0.47537,-1.567051 1.02636,-3.107029 1.65298,-4.619938 0.62668,-1.512907 1.32599,-2.991463 2.0979,-4.435664 0.77194,-1.4442 1.61279,-2.847091 2.52255,-4.208675 0.90982,-1.361582 1.88416,-2.675301 2.92304,-3.941153 1.03885,-1.265852 2.13723,-2.477743 3.29513,-3.635675 1.15793,-1.15793 2.36985,-2.256325 3.63571,-3.295183 1.26581,-1.038858 2.5795,-2.013176 3.94108,-2.922958 1.3616,-0.9097801 2.76452,-1.7506414 4.20874,-2.5225821 1.44418,-0.7719407 2.92276,-1.4712453 4.43563,-2.0979133 1.51288,-0.6266675 3.05292,-1.1776804 4.62,-1.6530394 1.56702,-0.4753592 3.15356,-0.8727749 4.7597,-1.1922474 1.60608,-0.3194723 3.224,-0.559463 4.8537,-0.7199719 C 530.72888,2.0802546 532.36249,2 534,2 c 1.63757,0 3.27118,0.080255 4.90088,0.2407639 1.6297,0.1605089 3.24756,0.4004996 4.85364,0.7199719 1.60608,0.3194725 3.19262,0.7168882 4.7597,1.1922474 1.56702,0.475359 3.107,1.0263719 4.61987,1.6530394 1.51288,0.626668 2.99146,1.3259726 4.43567,2.0979133 1.44422,0.7719407 2.84711,1.612802 4.20868,2.5225821 1.36157,0.909782 2.6753,1.884101 3.94116,2.922959 1.26581,1.038857 2.47773,2.137252 3.63569,3.295182 1.15789,1.157932 2.25634,2.369823 3.29522,3.635675 1.03876,1.265852 2.01306,2.579569 2.92285,3.941151 0.90979,1.361586 1.75068,2.764477 2.52265,4.208676 0.77191,1.444202 1.47125,2.922758 2.0979,4.435665 0.62665,1.512909 1.17767,3.052887 1.65307,4.619938 0.47535,1.56705 0.87275,3.153621 1.1922,4.759719 0.31952,1.606099 0.55951,3.223984 0.72004,4.853661 C 583.91968,48.728821 583.99994,50.362438 584,52 Z" /><path
             id="path64"
             style="fill:none;stroke:#000000;stroke-width:1;stroke-linecap:butt;stroke-linejoin:miter;stroke-miterlimit:10;stroke-dasharray:none;stroke-opacity:1"
             d="m 584,52 c -6e-5,1.637562 -0.0803,3.271183 -0.24078,4.90086 -0.16053,1.629673 -0.40052,3.247558 -0.72004,4.853653 -0.31945,1.606098 -0.71685,3.192669 -1.1922,4.759723 -0.4754,1.56704 -1.02642,3.107018 -1.65307,4.619927 -0.62665,1.512916 -1.32599,2.99147 -2.0979,4.435669 -0.77197,1.444206 -1.61286,2.847099 -2.52265,4.208679 -0.90979,1.36158 -1.88409,2.675301 -2.92291,3.941155 -1.03888,1.265853 -2.13727,2.477745 -3.29516,3.635665 -1.15796,1.157929 -2.36988,2.256325 -3.63569,3.295182 -1.26586,1.038856 -2.57959,2.013176 -3.94116,2.922958 -1.36157,0.909782 -2.76446,1.750649 -4.20868,2.522583 -1.44421,0.771942 -2.92279,1.471245 -4.43567,2.097908 -1.51287,0.626671 -3.05285,1.177689 -4.61981,1.653046 -1.56708,0.475362 -3.15368,0.872782 -4.75976,1.192242 -1.60608,0.31948 -3.22394,0.55947 -4.85364,0.71999 C 537.27118,101.91975 535.63757,102 534,102 c -1.63751,0 -3.27112,-0.0803 -4.90082,-0.24076 -1.6297,-0.16052 -3.24762,-0.40051 -4.8537,-0.71998 -1.60614,-0.31946 -3.19268,-0.71688 -4.7597,-1.192245 -1.56708,-0.475357 -3.10712,-1.026374 -4.62,-1.653045 -1.51287,-0.626663 -2.99145,-1.325966 -4.43563,-2.097908 -1.44419,-0.771942 -2.84711,-1.612801 -4.20871,-2.522583 -1.36158,-0.909783 -2.67527,-1.88411 -3.94111,-2.922966 -1.26586,-1.038857 -2.47778,-2.137253 -3.63571,-3.295182 -1.1579,-1.15792 -2.25628,-2.369812 -3.29516,-3.635665 -1.03885,-1.265854 -2.01319,-2.579575 -2.92301,-3.941163 -0.90976,-1.361579 -1.75061,-2.764473 -2.52255,-4.208671 -0.77194,-1.444199 -1.47125,-2.922753 -2.09793,-4.435669 -0.62662,-1.512909 -1.17761,-3.052887 -1.65299,-4.619927 -0.47537,-1.567054 -0.8728,-3.153625 -1.19229,-4.759723 -0.31942,-1.606095 -0.55941,-3.22398 -0.71991,-4.853653 C 484.08029,55.271183 484.00003,53.637562 484,52 c 3e-5,-1.637562 0.0803,-3.271179 0.24078,-4.900856 0.1605,-1.629677 0.40049,-3.247562 0.71994,-4.853661 0.31949,-1.606098 0.71692,-3.192669 1.1923,-4.759719 0.47537,-1.567051 1.02636,-3.107029 1.65298,-4.619938 0.62668,-1.512907 1.32599,-2.991463 2.0979,-4.435664 0.77194,-1.4442 1.61279,-2.847091 2.52255,-4.208675 0.90982,-1.361582 1.88416,-2.675301 2.92304,-3.941153 1.03885,-1.265852 2.13723,-2.477743 3.29513,-3.635675 1.15793,-1.15793 2.36985,-2.256325 3.63571,-3.295183 1.26581,-1.038858 2.5795,-2.013176 3.94108,-2.922958 1.3616,-0.9097801 2.76452,-1.7506414 4.20874,-2.5225821 1.44418,-0.7719407 2.92276,-1.4712453 4.43563,-2.0979133 1.51288,-0.6266675 3.05292,-1.1776804 4.62,-1.6530394 1.56702,-0.4753592 3.15356,-0.8727749 4.7597,-1.1922474 1.60608,-0.3194723 3.224,-0.559463 4.8537,-0.7199719 C 530.72888,2.0802546 532.36249,2 534,2 c 1.63757,0 3.27118,0.080255 4.90088,0.2407639 1.6297,0.1605089 3.24756,0.4004996 4.85364,0.7199719 1.60608,0.3194725 3.19262,0.7168882 4.7597,1.1922474 1.56702,0.475359 3.107,1.0263719 4.61987,1.6530394 1.51288,0.626668 2.99146,1.3259726 4.43567,2.0979133 1.44422,0.7719407 2.84711,1.612802 4.20868,2.5225821 1.36157,0.909782 2.6753,1.884101 3.94116,2.922959 1.26581,1.038857 2.47773,2.137252 3.63569,3.295182 1.15789,1.157932 2.25634,2.369823 3.29522,3.635675 1.03876,1.265852 2.01306,2.579569 2.92285,3.941151 0.90979,1.361586 1.75068,2.764477 2.52265,4.208676 0.77191,1.444202 1.47125,2.922758 2.0979,4.435665 0.62665,1.512909 1.17767,3.052887 1.65307,4.619938 0.47535,1.56705 0.87275,3.153621 1.1922,4.759719 0.31952,1.606099 0.55951,3.223984 0.72004,4.853661 C 583.91968,48.728821 583.99994,50.362438 584,52 Z" /></g><g
           transform="matrix(2.9978354,0,0,2.9978354,1456.948,98.928566)"
           id="g66"><text
             id="text70"
             style="font-variant:normal;font-weight:normal;font-size:16px;font-family:Helvetica;-inkscape-font-specification:Helvetica;writing-mode:lr-tb;fill:#000000;fill-opacity:1;fill-rule:nonzero;stroke:none"
             transform="translate(24.828125,14)"><tspan
               id="tspan68"
               y="0"
               x="0 11.554688 20.453125 28.453125 37.351562 40.90625">Result</tspan></text>
<text
             id="text74"
             style="font-variant:normal;font-weight:normal;font-size:16px;font-family:Helvetica;-inkscape-font-specification:Helvetica;writing-mode:lr-tb;fill:#000000;fill-opacity:1;fill-rule:nonzero;stroke:none"
             transform="translate(7.46875,33)"><tspan
               id="tspan72"
               y="0"
               x="0 10.671875 18.671875 27.570312 31.125 40.023438 45.351562 54.25 58.695312 62.25 71.148438">Exploration</tspan></text>
</g><g
           transform="scale(2.9978354)"
           id="g76"><path
             id="path78"
             style="fill:none;stroke:#000000;stroke-width:1;stroke-linecap:butt;stroke-linejoin:miter;stroke-miterlimit:10;stroke-dasharray:none;stroke-opacity:1"
             d="m 721,52 h 20 -1 l 11.77002,-0.290001" /><path
             id="path80"
             style="fill:#000000;fill-opacity:1;fill-rule:nonzero;stroke:none"
             d="M 757.76001,51.560001 749.87,55.75 l 1.90002,-4.040001 -2.10004,-3.950001 z" /><path
             id="path82"
             style="fill:none;stroke:#000000;stroke-width:1;stroke-linecap:butt;stroke-linejoin:miter;stroke-miterlimit:10;stroke-dasharray:none;stroke-opacity:1"
             d="M 757.76001,51.560001 749.87,55.75 l 1.90002,-4.040001 -2.10004,-3.950001 z" /><path
             id="path84"
             style="fill:#ffffff;fill-opacity:1;fill-rule:nonzero;stroke:none"
             d="m 721,52 c 6e-5,1.588436 -0.0802,3.173046 -0.24072,4.753834 -0.16053,1.580784 -0.40052,3.150131 -0.72003,4.708042 -0.31946,1.557915 -0.71686,3.096893 -1.19227,4.616928 -0.47534,1.520042 -1.02636,3.013817 -1.65307,4.481339 -0.62665,1.467521 -1.32593,2.901725 -2.09784,4.302597 -0.77197,1.400871 -1.61285,2.76168 -2.52264,4.082412 -0.90973,1.32074 -1.8841,2.595047 -2.92298,3.822922 -1.03882,1.227875 -2.13721,2.403412 -3.29516,3.526604 -1.1579,1.123192 -2.36976,2.188637 -3.63562,3.196335 -1.26587,1.007698 -2.57966,1.952781 -3.94129,2.835266 -1.36151,0.882484 -2.76434,1.69812 -4.20862,2.446907 -1.44415,0.748779 -2.92267,1.427101 -4.43567,2.034965 -1.51287,0.607872 -3.05279,1.142357 -4.61987,1.603455 -1.56708,0.461098 -3.15362,0.846588 -4.75976,1.156471 -1.60608,0.309898 -3.22394,0.542683 -4.85358,0.698383 -1.6297,0.15569 -3.26337,0.23354 -4.90088,0.23354 -1.63751,0 -3.27118,-0.0778 -4.90088,-0.23354 -1.6297,-0.1557 -3.24762,-0.388485 -4.85376,-0.698383 -1.60602,-0.309883 -3.19263,-0.695373 -4.7597,-1.156464 -1.56702,-0.461097 -3.107,-0.99559 -4.61994,-1.603462 -1.51288,-0.607864 -2.99145,-1.286186 -4.43561,-2.034973 -1.44421,-0.748787 -2.8471,-1.564423 -4.20874,-2.446907 -1.36157,-0.882484 -2.67529,-1.827568 -3.9411,-2.835258 -1.2658,-1.007698 -2.47772,-2.073143 -3.63568,-3.196335 -1.1579,-1.123192 -2.25628,-2.298729 -3.29516,-3.526604 -1.03888,-1.227875 -2.01325,-2.502182 -2.92304,-3.822922 -0.90973,-1.320732 -1.75061,-2.681541 -2.52258,-4.082412 -0.77191,-1.400872 -1.47125,-2.835076 -2.0979,-4.302597 -0.62665,-1.467522 -1.17761,-2.961297 -1.65296,-4.481339 -0.47534,-1.520035 -0.87274,-3.059013 -1.19226,-4.616928 -0.31939,-1.557911 -0.55938,-3.127258 -0.71991,-4.708042 C 621.08032,55.173046 621.00006,53.588436 621,52 c 6e-5,-1.588432 0.0803,-3.173042 0.24078,-4.75383 0.16053,-1.580788 0.40052,-3.150139 0.71991,-4.708054 0.31952,-1.55791 0.71692,-3.096889 1.19226,-4.616931 0.47535,-1.520039 1.02631,-3.013817 1.65296,-4.481339 0.62665,-1.46752 1.32599,-2.901718 2.0979,-4.302591 0.77197,-1.400873 1.61285,-2.761679 2.52258,-4.082415 0.90979,-1.320734 1.88416,-2.595037 2.92304,-3.822914 1.03888,-1.227877 2.13726,-2.403412 3.29516,-3.526606 1.15796,-1.123192 2.36988,-2.188634 3.63568,-3.196327 1.26581,-1.007693 2.57953,-1.952783 3.9411,-2.835271 1.36164,-0.882486 2.76453,-1.6981208 4.20874,-2.4469039 1.44416,-0.7487822 2.92273,-1.4271078 4.43561,-2.034976 1.51294,-0.6078673 3.05292,-1.1423502 4.61994,-1.6034484 1.56707,-0.4610982 3.15368,-0.846592 4.7597,-1.1564803 1.60614,-0.3098879 3.22406,-0.5426786 4.85376,-0.6983724 C 667.72882,3.5778472 669.36249,3.5000002 671,3.5 c 1.63751,2e-7 3.27118,0.077847 4.90088,0.233541 1.62964,0.1556938 3.2475,0.3884845 4.85358,0.6983724 1.60614,0.3098883 3.19268,0.6953821 4.75976,1.1564803 1.56708,0.4610982 3.107,0.9955807 4.61987,1.6034479 1.513,0.6078677 2.99152,1.2861934 4.43567,2.0349755 1.44428,0.7487822 2.84711,1.5644169 4.20862,2.4469029 1.36163,0.882488 2.67542,1.827578 3.94129,2.83527 1.26586,1.007693 2.47772,2.073135 3.63562,3.196328 1.15795,1.123194 2.25634,2.298731 3.29522,3.526608 1.03888,1.227877 2.01319,2.50218 2.92292,3.822914 0.90979,1.320736 1.75067,2.681542 2.52258,4.082415 0.77197,1.400873 1.47125,2.835071 2.0979,4.302591 0.62671,1.467522 1.17773,2.9613 1.65314,4.481339 0.47534,1.520042 0.87274,3.059021 1.1922,4.616931 0.31951,1.557915 0.5595,3.127266 0.72003,4.708054 C 720.9198,48.826958 721.00006,50.411568 721,52 Z" /><path
             id="path86"
             style="fill:none;stroke:#000000;stroke-width:1;stroke-linecap:butt;stroke-linejoin:miter;stroke-miterlimit:10;stroke-dasharray:none;stroke-opacity:1"
             d="m 721,52 c 6e-5,1.588436 -0.0802,3.173046 -0.24072,4.753834 -0.16053,1.580784 -0.40052,3.150131 -0.72003,4.708042 -0.31946,1.557915 -0.71686,3.096893 -1.19227,4.616928 -0.47534,1.520042 -1.02636,3.013817 -1.65307,4.481339 -0.62665,1.467521 -1.32593,2.901725 -2.09784,4.302597 -0.77197,1.400871 -1.61285,2.76168 -2.52264,4.082412 -0.90973,1.32074 -1.8841,2.595047 -2.92298,3.822922 -1.03882,1.227875 -2.13721,2.403412 -3.29516,3.526604 -1.1579,1.123192 -2.36976,2.188637 -3.63562,3.196335 -1.26587,1.007698 -2.57966,1.952781 -3.94129,2.835266 -1.36151,0.882484 -2.76434,1.69812 -4.20862,2.446907 -1.44415,0.748779 -2.92267,1.427101 -4.43567,2.034965 -1.51287,0.607872 -3.05279,1.142357 -4.61987,1.603455 -1.56708,0.461098 -3.15362,0.846588 -4.75976,1.156471 -1.60608,0.309898 -3.22394,0.542683 -4.85358,0.698383 -1.6297,0.15569 -3.26337,0.23354 -4.90088,0.23354 -1.63751,0 -3.27118,-0.0778 -4.90088,-0.23354 -1.6297,-0.1557 -3.24762,-0.388485 -4.85376,-0.698383 -1.60602,-0.309883 -3.19263,-0.695373 -4.7597,-1.156464 -1.56702,-0.461097 -3.107,-0.99559 -4.61994,-1.603462 -1.51288,-0.607864 -2.99145,-1.286186 -4.43561,-2.034973 -1.44421,-0.748787 -2.8471,-1.564423 -4.20874,-2.446907 -1.36157,-0.882484 -2.67529,-1.827568 -3.9411,-2.835258 -1.2658,-1.007698 -2.47772,-2.073143 -3.63568,-3.196335 -1.1579,-1.123192 -2.25628,-2.298729 -3.29516,-3.526604 -1.03888,-1.227875 -2.01325,-2.502182 -2.92304,-3.822922 -0.90973,-1.320732 -1.75061,-2.681541 -2.52258,-4.082412 -0.77191,-1.400872 -1.47125,-2.835076 -2.0979,-4.302597 -0.62665,-1.467522 -1.17761,-2.961297 -1.65296,-4.481339 -0.47534,-1.520035 -0.87274,-3.059013 -1.19226,-4.616928 -0.31939,-1.557911 -0.55938,-3.127258 -0.71991,-4.708042 C 621.08032,55.173046 621.00006,53.588436 621,52 c 6e-5,-1.588432 0.0803,-3.173042 0.24078,-4.75383 0.16053,-1.580788 0.40052,-3.150139 0.71991,-4.708054 0.31952,-1.55791 0.71692,-3.096889 1.19226,-4.616931 0.47535,-1.520039 1.02631,-3.013817 1.65296,-4.481339 0.62665,-1.46752 1.32599,-2.901718 2.0979,-4.302591 0.77197,-1.400873 1.61285,-2.761679 2.52258,-4.082415 0.90979,-1.320734 1.88416,-2.595037 2.92304,-3.822914 1.03888,-1.227877 2.13726,-2.403412 3.29516,-3.526606 1.15796,-1.123192 2.36988,-2.188634 3.63568,-3.196327 1.26581,-1.007693 2.57953,-1.952783 3.9411,-2.835271 1.36164,-0.882486 2.76453,-1.6981208 4.20874,-2.4469039 1.44416,-0.7487822 2.92273,-1.4271078 4.43561,-2.034976 1.51294,-0.6078673 3.05292,-1.1423502 4.61994,-1.6034484 1.56707,-0.4610982 3.15368,-0.846592 4.7597,-1.1564803 1.60614,-0.3098879 3.22406,-0.5426786 4.85376,-0.6983724 C 667.72882,3.5778472 669.36249,3.5000002 671,3.5 c 1.63751,2e-7 3.27118,0.077847 4.90088,0.233541 1.62964,0.1556938 3.2475,0.3884845 4.85358,0.6983724 1.60614,0.3098883 3.19268,0.6953821 4.75976,1.1564803 1.56708,0.4610982 3.107,0.9955807 4.61987,1.6034479 1.513,0.6078677 2.99152,1.2861934 4.43567,2.0349755 1.44428,0.7487822 2.84711,1.5644169 4.20862,2.4469029 1.36163,0.882488 2.67542,1.827578 3.94129,2.83527 1.26586,1.007693 2.47772,2.073135 3.63562,3.196328 1.15795,1.123194 2.25634,2.298731 3.29522,3.526608 1.03888,1.227877 2.01319,2.50218 2.92292,3.822914 0.90979,1.320736 1.75067,2.681542 2.52258,4.082415 0.77197,1.400873 1.47125,2.835071 2.0979,4.302591 0.62671,1.467522 1.17773,2.9613 1.65314,4.481339 0.47534,1.520042 0.87274,3.059021 1.1922,4.616931 0.31951,1.557915 0.5595,3.127266 0.72003,4.708054 C 720.9198,48.826958 721.00006,50.411568 721,52 Z" /></g><g
           transform="matrix(2.9978354,0,0,2.9978354,1867.6515,98.928566)"
           id="g88"><text
             id="text92"
             style="font-variant:normal;font-weight:normal;font-size:16px;font-family:Helvetica;-inkscape-font-specification:Helvetica;writing-mode:lr-tb;fill:#000000;fill-opacity:1;fill-rule:nonzero;stroke:none"
             transform="translate(15.046875,14)"><tspan
               id="tspan90"
               y="0"
               x="0 11.554688 20.453125 25.78125 31.109375 40.007812 44.453125 48.007812 56.007812">Narrative</tspan></text>
<text
             id="text96"
             style="font-variant:normal;font-weight:normal;font-size:16px;font-family:Helvetica;-inkscape-font-specification:Helvetica;writing-mode:lr-tb;fill:#000000;fill-opacity:1;fill-rule:nonzero;stroke:none"
             transform="translate(7.46875,33)"><tspan
               id="tspan94"
               y="0"
               x="0 10.671875 18.671875 27.570312 31.125 40.023438 45.351562 54.25 58.695312 62.25 71.148438">Exploration</tspan></text>
</g><g
           transform="scale(2.9978354)"
           id="g98"><path
             id="path100"
             style="fill:none;stroke:#000000;stroke-width:1;stroke-linecap:butt;stroke-linejoin:miter;stroke-miterlimit:10;stroke-dasharray:none;stroke-opacity:1"
             d="m 289,52 h 20 -4 11.76001" /><path
             id="path102"
             style="fill:#000000;fill-opacity:1;fill-rule:nonzero;stroke:none"
             d="m 322.76001,52 -8,4 2,-4 -2,-4 z" /><path
             id="path104"
             style="fill:none;stroke:#000000;stroke-width:1;stroke-linecap:butt;stroke-linejoin:miter;stroke-miterlimit:10;stroke-dasharray:none;stroke-opacity:1"
             d="m 322.76001,52 -8,4 2,-4 -2,-4 z" /><path
             id="path106"
             style="fill:#ffffff;fill-opacity:1;fill-rule:nonzero;stroke:none"
             d="m 289,52 c 3e-5,1.637562 -0.0802,3.271183 -0.24075,4.90086 -0.16053,1.629673 -0.40052,3.247558 -0.72,4.853653 -0.31949,1.606098 -0.71689,3.192669 -1.19223,4.759723 -0.47538,1.56704 -1.0264,3.107018 -1.65308,4.619927 -0.62668,1.512916 -1.32596,2.99147 -2.0979,4.435669 -0.77194,1.444206 -1.61282,2.847099 -2.52261,4.208679 -0.90976,1.36158 -1.8841,2.675301 -2.92295,3.941155 -1.03885,1.265853 -2.13724,2.477745 -3.29516,3.635665 -1.15793,1.157929 -2.36982,2.256325 -3.63565,3.295182 -1.26584,1.038856 -2.57959,2.013176 -3.9412,2.922958 -1.3616,0.909782 -2.76446,1.750649 -4.20865,2.522583 -1.44418,0.771942 -2.92276,1.471245 -4.4357,2.097908 -1.5129,0.626671 -3.05287,1.177689 -4.6199,1.653046 -1.56706,0.475362 -3.15364,0.872782 -4.75973,1.192242 -1.6061,0.31948 -3.22397,0.55947 -4.85364,0.71999 C 242.27119,101.91975 240.63757,102 239,102 c -1.63756,0 -3.27118,-0.0803 -4.90086,-0.24076 -1.62969,-0.16052 -3.24758,-0.40051 -4.85369,-0.71998 -1.60609,-0.31946 -3.19265,-0.71688 -4.7597,-1.192245 -1.56705,-0.475357 -3.10703,-1.026374 -4.61995,-1.653045 -1.51289,-0.626663 -2.99144,-1.325966 -4.43564,-2.097908 -1.44421,-0.771942 -2.84711,-1.612801 -4.20869,-2.522583 -1.36156,-0.909783 -2.67528,-1.88411 -3.94114,-2.922966 -1.26585,-1.038857 -2.47775,-2.137253 -3.63568,-3.295182 -1.15793,-1.15792 -2.25631,-2.369812 -3.29518,-3.635665 -1.03886,-1.265854 -2.01318,-2.579575 -2.92297,-3.941163 -0.90978,-1.361579 -1.75063,-2.764473 -2.52257,-4.208671 -0.77194,-1.444199 -1.47125,-2.922753 -2.09793,-4.435669 -0.62666,-1.512909 -1.17767,-3.052887 -1.65305,-4.619927 -0.47534,-1.567054 -0.87275,-3.153625 -1.19223,-4.759723 -0.31947,-1.606095 -0.55946,-3.22398 -0.71997,-4.853653 C 189.08026,55.271183 189.00002,53.637562 189,52 c 2e-5,-1.637562 0.0803,-3.271179 0.24075,-4.900856 0.16051,-1.629677 0.4005,-3.247562 0.71997,-4.853661 0.31948,-1.606098 0.71691,-3.192669 1.19226,-4.759719 0.47536,-1.567051 1.02636,-3.107029 1.65302,-4.619938 0.62668,-1.512907 1.32599,-2.991463 2.09793,-4.435664 0.77194,-1.4442 1.61279,-2.847091 2.52257,-4.208675 0.90979,-1.361582 1.88411,-2.675301 2.92297,-3.941153 1.03887,-1.265852 2.13725,-2.477743 3.29518,-3.635675 1.15793,-1.15793 2.36982,-2.256325 3.63567,-3.295183 1.26587,-1.038858 2.57959,-2.013176 3.94115,-2.922958 1.36158,-0.9097801 2.76448,-1.7506414 4.20868,-2.5225821 1.44419,-0.7719407 2.92276,-1.4712453 4.43565,-2.0979133 1.51292,-0.6266675 3.0529,-1.1776804 4.61996,-1.6530394 1.56705,-0.4753592 3.15361,-0.8727749 4.75971,-1.1922474 1.60609,-0.3194723 3.224,-0.559463 4.85368,-0.7199719 C 235.72882,2.0802546 237.36244,2 239,2 c 1.63757,0 3.27119,0.080255 4.90086,0.2407639 1.62966,0.1605089 3.24753,0.4004996 4.85363,0.7199719 1.60609,0.3194725 3.19267,0.7168882 4.75973,1.1922474 1.56703,0.475359 3.107,1.0263719 4.6199,1.6530394 1.51294,0.626668 2.99152,1.3259726 4.4357,2.0979133 1.44419,0.7719407 2.84705,1.612802 4.20865,2.5225821 1.36161,0.909782 2.67536,1.884101 3.9412,2.922959 1.26583,1.038857 2.47772,2.137252 3.63565,3.295182 1.15792,1.157932 2.25631,2.369823 3.29516,3.635675 1.03885,1.265852 2.01319,2.579569 2.92295,3.941151 0.90979,1.361586 1.75067,2.764477 2.52261,4.208676 0.77194,1.444202 1.47122,2.922758 2.0979,4.435665 0.62668,1.512909 1.1777,3.052887 1.65308,4.619938 0.47534,1.56705 0.87274,3.153621 1.19223,4.759719 0.31948,1.606099 0.55947,3.223984 0.72,4.853661 C 288.91977,48.728821 289.00003,50.362438 289,52 Z" /><path
             id="path108"
             style="fill:none;stroke:#000000;stroke-width:1;stroke-linecap:butt;stroke-linejoin:miter;stroke-miterlimit:10;stroke-dasharray:none;stroke-opacity:1"
             d="m 289,52 c 3e-5,1.637562 -0.0802,3.271183 -0.24075,4.90086 -0.16053,1.629673 -0.40052,3.247558 -0.72,4.853653 -0.31949,1.606098 -0.71689,3.192669 -1.19223,4.759723 -0.47538,1.56704 -1.0264,3.107018 -1.65308,4.619927 -0.62668,1.512916 -1.32596,2.99147 -2.0979,4.435669 -0.77194,1.444206 -1.61282,2.847099 -2.52261,4.208679 -0.90976,1.36158 -1.8841,2.675301 -2.92295,3.941155 -1.03885,1.265853 -2.13724,2.477745 -3.29516,3.635665 -1.15793,1.157929 -2.36982,2.256325 -3.63565,3.295182 -1.26584,1.038856 -2.57959,2.013176 -3.9412,2.922958 -1.3616,0.909782 -2.76446,1.750649 -4.20865,2.522583 -1.44418,0.771942 -2.92276,1.471245 -4.4357,2.097908 -1.5129,0.626671 -3.05287,1.177689 -4.6199,1.653046 -1.56706,0.475362 -3.15364,0.872782 -4.75973,1.192242 -1.6061,0.31948 -3.22397,0.55947 -4.85364,0.71999 C 242.27119,101.91975 240.63757,102 239,102 c -1.63756,0 -3.27118,-0.0803 -4.90086,-0.24076 -1.62969,-0.16052 -3.24758,-0.40051 -4.85369,-0.71998 -1.60609,-0.31946 -3.19265,-0.71688 -4.7597,-1.192245 -1.56705,-0.475357 -3.10703,-1.026374 -4.61995,-1.653045 -1.51289,-0.626663 -2.99144,-1.325966 -4.43564,-2.097908 -1.44421,-0.771942 -2.84711,-1.612801 -4.20869,-2.522583 -1.36156,-0.909783 -2.67528,-1.88411 -3.94114,-2.922966 -1.26585,-1.038857 -2.47775,-2.137253 -3.63568,-3.295182 -1.15793,-1.15792 -2.25631,-2.369812 -3.29518,-3.635665 -1.03886,-1.265854 -2.01318,-2.579575 -2.92297,-3.941163 -0.90978,-1.361579 -1.75063,-2.764473 -2.52257,-4.208671 -0.77194,-1.444199 -1.47125,-2.922753 -2.09793,-4.435669 -0.62666,-1.512909 -1.17767,-3.052887 -1.65305,-4.619927 -0.47534,-1.567054 -0.87275,-3.153625 -1.19223,-4.759723 -0.31947,-1.606095 -0.55946,-3.22398 -0.71997,-4.853653 C 189.08026,55.271183 189.00002,53.637562 189,52 c 2e-5,-1.637562 0.0803,-3.271179 0.24075,-4.900856 0.16051,-1.629677 0.4005,-3.247562 0.71997,-4.853661 0.31948,-1.606098 0.71691,-3.192669 1.19226,-4.759719 0.47536,-1.567051 1.02636,-3.107029 1.65302,-4.619938 0.62668,-1.512907 1.32599,-2.991463 2.09793,-4.435664 0.77194,-1.4442 1.61279,-2.847091 2.52257,-4.208675 0.90979,-1.361582 1.88411,-2.675301 2.92297,-3.941153 1.03887,-1.265852 2.13725,-2.477743 3.29518,-3.635675 1.15793,-1.15793 2.36982,-2.256325 3.63567,-3.295183 1.26587,-1.038858 2.57959,-2.013176 3.94115,-2.922958 1.36158,-0.9097801 2.76448,-1.7506414 4.20868,-2.5225821 1.44419,-0.7719407 2.92276,-1.4712453 4.43565,-2.0979133 1.51292,-0.6266675 3.0529,-1.1776804 4.61996,-1.6530394 1.56705,-0.4753592 3.15361,-0.8727749 4.75971,-1.1922474 1.60609,-0.3194723 3.224,-0.559463 4.85368,-0.7199719 C 235.72882,2.0802546 237.36244,2 239,2 c 1.63757,0 3.27119,0.080255 4.90086,0.2407639 1.62966,0.1605089 3.24753,0.4004996 4.85363,0.7199719 1.60609,0.3194725 3.19267,0.7168882 4.75973,1.1922474 1.56703,0.475359 3.107,1.0263719 4.6199,1.6530394 1.51294,0.626668 2.99152,1.3259726 4.4357,2.0979133 1.44419,0.7719407 2.84705,1.612802 4.20865,2.5225821 1.36161,0.909782 2.67536,1.884101 3.9412,2.922959 1.26583,1.038857 2.47772,2.137252 3.63565,3.295182 1.15792,1.157932 2.25631,2.369823 3.29516,3.635675 1.03885,1.265852 2.01319,2.579569 2.92295,3.941151 0.90979,1.361586 1.75067,2.764477 2.52261,4.208676 0.77194,1.444202 1.47122,2.922758 2.0979,4.435665 0.62668,1.512909 1.1777,3.052887 1.65308,4.619938 0.47534,1.56705 0.87274,3.153621 1.19223,4.759719 0.31948,1.606099 0.55947,3.223984 0.72,4.853661 C 288.91977,48.728821 289.00003,50.362438 289,52 Z" /></g><g
           transform="matrix(2.9978354,0,0,2.9978354,572.58655,101.92641)"
           id="g110"><text
             id="text114"
             style="font-variant:normal;font-weight:normal;font-size:16px;font-family:Helvetica;-inkscape-font-specification:Helvetica;writing-mode:lr-tb;fill:#000000;fill-opacity:1;fill-rule:nonzero;stroke:none"
             transform="translate(30.59375,14)"><tspan
               id="tspan112"
               y="0"
               x="0 12.445312 21.34375 30.242188">Goal</tspan></text>
<text
             id="text118"
             style="font-variant:normal;font-weight:normal;font-size:16px;font-family:Helvetica;-inkscape-font-specification:Helvetica;writing-mode:lr-tb;fill:#000000;fill-opacity:1;fill-rule:nonzero;stroke:none"
             transform="translate(7.46875,33)"><tspan
               id="tspan116"
               y="0"
               x="0 10.671875 18.671875 27.570312 31.125 40.023438 45.351562 54.25 58.695312 62.25 71.148438">Exploration</tspan></text>
</g><g
           transform="scale(2.9978354)"
           id="g120"><path
             id="path122"
             style="fill:none;stroke:#000000;stroke-width:1;stroke-linecap:butt;stroke-linejoin:miter;stroke-miterlimit:10;stroke-dasharray:none;stroke-opacity:1"
             d="m 148,52 h 20 12.75999" /><path
             id="path124"
             style="fill:#000000;fill-opacity:1;fill-rule:nonzero;stroke:none"
             d="m 186.75999,52 -8,4 2,-4 -2,-4 z" /><path
             id="path126"
             style="fill:none;stroke:#000000;stroke-width:1;stroke-linecap:butt;stroke-linejoin:miter;stroke-miterlimit:10;stroke-dasharray:none;stroke-opacity:1"
             d="m 186.75999,52 -8,4 2,-4 -2,-4 z" /><path
             id="path128"
             style="fill:#ffffff;fill-opacity:1;fill-rule:nonzero;stroke:none"
             d="m 148,52 c 0,1.637562 -0.0803,3.271183 -0.24077,4.90086 -0.16051,1.629673 -0.40051,3.247558 -0.71998,4.853653 -0.31948,1.606098 -0.71689,3.192669 -1.19225,4.759723 -0.47536,1.56704 -1.02638,3.107018 -1.65305,4.619927 -0.62666,1.512916 -1.32595,2.99147 -2.0979,4.435669 -0.77194,1.444206 -1.6128,2.847099 -2.52259,4.208679 -0.90978,1.36158 -1.88408,2.675301 -2.92295,3.941155 -1.03886,1.265853 -2.13725,2.477745 -3.29518,3.635665 -1.15793,1.157929 -2.36981,2.256325 -3.63566,3.295182 -1.26586,1.038856 -2.57959,2.013176 -3.94117,2.922958 -1.36158,0.909782 -2.76448,1.750649 -4.20868,2.522583 -1.44419,0.771942 -2.92275,1.471245 -4.43566,2.097908 -1.51291,0.626671 -3.05288,1.177689 -4.61993,1.653046 -1.56706,0.475362 -3.15363,0.872782 -4.75973,1.192242 -1.60609,0.31948 -3.22397,0.55947 -4.85364,0.71999 C 101.27118,101.91975 99.637566,102 98,102 c -1.63755,0 -3.271172,-0.0803 -4.900848,-0.24076 -1.629677,-0.16052 -3.247574,-0.40051 -4.853676,-0.71998 -1.606095,-0.31946 -3.192665,-0.71688 -4.759705,-1.192245 C 81.918724,99.371658 80.378746,98.820641 78.865829,98.19397 77.352921,97.567307 75.874367,96.868004 74.430168,96.096062 72.985962,95.32412 71.583069,94.483261 70.221489,93.573479 68.859901,92.663696 67.546181,91.689369 66.280334,90.650513 65.014481,89.611656 63.802589,88.51326 62.644657,87.355331 61.486729,86.197411 60.388332,84.985519 59.349472,83.719666 58.310616,82.453812 57.336296,81.140091 56.426514,79.778503 55.516735,78.416924 54.675877,77.01403 53.903934,75.569832 53.131992,74.125633 52.432686,72.647079 51.806015,71.134163 51.179348,69.621254 50.628338,68.081276 50.152981,66.514236 49.67762,64.947182 49.280205,63.360611 48.960732,61.754513 48.641262,60.148418 48.401272,58.530533 48.240761,56.90086 48.080254,55.271183 48,53.637562 48,52 c 0,-1.637562 0.08025,-3.271179 0.240761,-4.900856 0.160507,-1.629677 0.400497,-3.247562 0.719967,-4.853661 0.319473,-1.606098 0.716888,-3.192669 1.192249,-4.759719 0.475361,-1.567051 1.026371,-3.107029 1.653038,-4.619938 0.626671,-1.512907 1.325977,-2.991463 2.097916,-4.435664 0.771946,-1.4442 1.612804,-2.847091 2.522583,-4.208675 0.909782,-1.361582 1.884102,-2.675301 2.922958,-3.941153 1.03886,-1.265852 2.137257,-2.477743 3.295185,-3.635675 1.157932,-1.15793 2.369824,-2.256325 3.635677,-3.295183 1.265847,-1.038858 2.579567,-2.013176 3.941155,-2.922958 1.36158,-0.9097801 2.764473,-1.7506414 4.208679,-2.5225821 1.444199,-0.7719407 2.922753,-1.4712453 4.435661,-2.0979133 1.512917,-0.6266675 3.052895,-1.1776804 4.619942,-1.6530394 1.56704,-0.4753592 3.15361,-0.8727749 4.759705,-1.1922474 1.606102,-0.3194723 3.223991,-0.559463 4.853668,-0.7199719 C 94.728828,2.0802546 96.36245,2 98,2 c 1.637566,0 3.27119,0.080255 4.90086,0.2407639 1.62967,0.1605089 3.24755,0.4004996 4.85364,0.7199719 1.6061,0.3194725 3.19267,0.7168882 4.75972,1.1922474 1.56706,0.475359 3.10703,1.0263719 4.61994,1.6530394 1.51291,0.626668 2.99147,1.3259726 4.43566,2.0979133 1.4442,0.7719407 2.8471,1.612802 4.20868,2.5225821 1.36158,0.909782 2.67531,1.884101 3.94117,2.922959 1.26585,1.038857 2.47773,2.137252 3.63566,3.295182 1.15793,1.157932 2.25632,2.369823 3.29518,3.635675 1.03887,1.265852 2.01317,2.579569 2.92295,3.941151 0.90979,1.361586 1.75065,2.764477 2.52258,4.208676 0.77196,1.444202 1.47125,2.922758 2.09791,4.435665 0.62667,1.512909 1.17769,3.052887 1.65305,4.619938 0.47536,1.56705 0.87277,3.153621 1.19225,4.759719 0.31947,1.606099 0.55947,3.223984 0.71998,4.853661 C 147.91974,48.728821 148,50.362438 148,52 Z" /><path
             id="path130"
             style="fill:none;stroke:#000000;stroke-width:1;stroke-linecap:butt;stroke-linejoin:miter;stroke-miterlimit:10;stroke-dasharray:none;stroke-opacity:1"
             d="m 148,52 c 0,1.637562 -0.0803,3.271183 -0.24077,4.90086 -0.16051,1.629673 -0.40051,3.247558 -0.71998,4.853653 -0.31948,1.606098 -0.71689,3.192669 -1.19225,4.759723 -0.47536,1.56704 -1.02638,3.107018 -1.65305,4.619927 -0.62666,1.512916 -1.32595,2.99147 -2.0979,4.435669 -0.77194,1.444206 -1.6128,2.847099 -2.52259,4.208679 -0.90978,1.36158 -1.88408,2.675301 -2.92295,3.941155 -1.03886,1.265853 -2.13725,2.477745 -3.29518,3.635665 -1.15793,1.157929 -2.36981,2.256325 -3.63566,3.295182 -1.26586,1.038856 -2.57959,2.013176 -3.94117,2.922958 -1.36158,0.909782 -2.76448,1.750649 -4.20868,2.522583 -1.44419,0.771942 -2.92275,1.471245 -4.43566,2.097908 -1.51291,0.626671 -3.05288,1.177689 -4.61993,1.653046 -1.56706,0.475362 -3.15363,0.872782 -4.75973,1.192242 -1.60609,0.31948 -3.22397,0.55947 -4.85364,0.71999 C 101.27118,101.91975 99.637566,102 98,102 c -1.63755,0 -3.271172,-0.0803 -4.900848,-0.24076 -1.629677,-0.16052 -3.247574,-0.40051 -4.853676,-0.71998 -1.606095,-0.31946 -3.192665,-0.71688 -4.759705,-1.192245 C 81.918724,99.371658 80.378746,98.820641 78.865829,98.19397 77.352921,97.567307 75.874367,96.868004 74.430168,96.096062 72.985962,95.32412 71.583069,94.483261 70.221489,93.573479 68.859901,92.663696 67.546181,91.689369 66.280334,90.650513 65.014481,89.611656 63.802589,88.51326 62.644657,87.355331 61.486729,86.197411 60.388332,84.985519 59.349472,83.719666 58.310616,82.453812 57.336296,81.140091 56.426514,79.778503 55.516735,78.416924 54.675877,77.01403 53.903934,75.569832 53.131992,74.125633 52.432686,72.647079 51.806015,71.134163 51.179348,69.621254 50.628338,68.081276 50.152981,66.514236 49.67762,64.947182 49.280205,63.360611 48.960732,61.754513 48.641262,60.148418 48.401272,58.530533 48.240761,56.90086 48.080254,55.271183 48,53.637562 48,52 c 0,-1.637562 0.08025,-3.271179 0.240761,-4.900856 0.160507,-1.629677 0.400497,-3.247562 0.719967,-4.853661 0.319473,-1.606098 0.716888,-3.192669 1.192249,-4.759719 0.475361,-1.567051 1.026371,-3.107029 1.653038,-4.619938 0.626671,-1.512907 1.325977,-2.991463 2.097916,-4.435664 0.771946,-1.4442 1.612804,-2.847091 2.522583,-4.208675 0.909782,-1.361582 1.884102,-2.675301 2.922958,-3.941153 1.03886,-1.265852 2.137257,-2.477743 3.295185,-3.635675 1.157932,-1.15793 2.369824,-2.256325 3.635677,-3.295183 1.265847,-1.038858 2.579567,-2.013176 3.941155,-2.922958 1.36158,-0.9097801 2.764473,-1.7506414 4.208679,-2.5225821 1.444199,-0.7719407 2.922753,-1.4712453 4.435661,-2.0979133 1.512917,-0.6266675 3.052895,-1.1776804 4.619942,-1.6530394 1.56704,-0.4753592 3.15361,-0.8727749 4.759705,-1.1922474 1.606102,-0.3194723 3.223991,-0.559463 4.853668,-0.7199719 C 94.728828,2.0802546 96.36245,2 98,2 c 1.637566,0 3.27119,0.080255 4.90086,0.2407639 1.62967,0.1605089 3.24755,0.4004996 4.85364,0.7199719 1.6061,0.3194725 3.19267,0.7168882 4.75972,1.1922474 1.56706,0.475359 3.10703,1.0263719 4.61994,1.6530394 1.51291,0.626668 2.99147,1.3259726 4.43566,2.0979133 1.4442,0.7719407 2.8471,1.612802 4.20868,2.5225821 1.36158,0.909782 2.67531,1.884101 3.94117,2.922959 1.26585,1.038857 2.47773,2.137252 3.63566,3.295182 1.15793,1.157932 2.25632,2.369823 3.29518,3.635675 1.03887,1.265852 2.01317,2.579569 2.92295,3.941151 0.90979,1.361586 1.75065,2.764477 2.52258,4.208676 0.77196,1.444202 1.47125,2.922758 2.09791,4.435665 0.62667,1.512909 1.17769,3.052887 1.65305,4.619938 0.47536,1.56705 0.87277,3.153621 1.19225,4.759719 0.31947,1.606099 0.55947,3.223984 0.71998,4.853661 C 147.91974,48.728821 148,50.362438 148,52 Z" /></g><g
           transform="matrix(2.9978354,0,0,2.9978354,149.89177,101.92641)"
           id="g132"><text
             id="text136"
             style="font-variant:normal;font-weight:normal;font-size:16px;font-family:Helvetica;-inkscape-font-specification:Helvetica;writing-mode:lr-tb;fill:#000000;fill-opacity:1;fill-rule:nonzero;stroke:none"
             transform="translate(8.5,14)"><tspan
               id="tspan134"
               y="0"
               x="0 11.554688 20.453125 24.898438 33.796875 38.242188 47.734375 56.632812 60.1875 69.085938">Data Value</tspan></text>
<text
             id="text140"
             style="font-variant:normal;font-weight:normal;font-size:16px;font-family:Helvetica;-inkscape-font-specification:Helvetica;writing-mode:lr-tb;fill:#000000;fill-opacity:1;fill-rule:nonzero;stroke:none"
             transform="translate(7.46875,33)"><tspan
               id="tspan138"
               y="0"
               x="0 10.671875 18.671875 27.570312 31.125 40.023438 45.351562 54.25 58.695312 62.25 71.148438">Exploration</tspan></text>
</g><g
           transform="matrix(2.9978354,0,0,2.9978354,479.65366,95.930733)"
           id="g142"><text
             id="text146"
             style="font-variant:normal;font-weight:bold;font-size:16px;font-family:Helvetica;-inkscape-font-specification:Helvetica-Bold;writing-mode:lr-tb;fill:#000000;fill-opacity:1;fill-rule:nonzero;stroke:none"
             transform="translate(0,14)"><tspan
               id="tspan144"
               y="0"
               x="0">1</tspan></text>
</g><g
           transform="matrix(2.9978354,0,0,2.9978354,890.35712,92.932899)"
           id="g148"><text
             id="text152"
             style="font-variant:normal;font-weight:bold;font-size:16px;font-family:Helvetica;-inkscape-font-specification:Helvetica-Bold;writing-mode:lr-tb;fill:#000000;fill-opacity:1;fill-rule:nonzero;stroke:none"
             transform="translate(0,14)"><tspan
               id="tspan150"
               y="0"
               x="0">2</tspan></text>
</g><g
           transform="matrix(2.9978354,0,0,2.9978354,1370.0107,92.932899)"
           id="g154"><text
             id="text158"
             style="font-variant:normal;font-weight:bold;font-size:16px;font-family:Helvetica;-inkscape-font-specification:Helvetica-Bold;writing-mode:lr-tb;fill:#000000;fill-opacity:1;fill-rule:nonzero;stroke:none"
             transform="translate(0,14)"><tspan
               id="tspan156"
               y="0"
               x="0">3</tspan></text>
</g><g
           transform="matrix(2.9978354,0,0,2.9978354,1780.7142,92.932899)"
           id="g160"><text
             id="text164"
             style="font-variant:normal;font-weight:bold;font-size:16px;font-family:Helvetica;-inkscape-font-specification:Helvetica-Bold;writing-mode:lr-tb;fill:#000000;fill-opacity:1;fill-rule:nonzero;stroke:none"
             transform="translate(0,14)"><tspan
               id="tspan162"
               y="0"
               x="0">4</tspan></text>
</g><g
           transform="scale(2.9978354)"
           id="g166"><path
             id="path168"
             style="fill:none;stroke:#000000;stroke-width:1;stroke-linecap:butt;stroke-linejoin:miter;stroke-miterlimit:10;stroke-dasharray:none;stroke-opacity:1"
             d="M 8,52 H 39.759998" /><path
             id="path170"
             style="fill:#000000;fill-opacity:1;fill-rule:nonzero;stroke:none"
             d="m 45.759998,52 -8,4 2,-4 -2,-4 z" /><path
             id="path172"
             style="fill:none;stroke:#000000;stroke-width:1;stroke-linecap:butt;stroke-linejoin:miter;stroke-miterlimit:10;stroke-dasharray:none;stroke-opacity:1"
             d="m 45.759998,52 -8,4 2,-4 -2,-4 z" /></g><g
           transform="matrix(2.9978354,0,0,2.9978354,56.958874,95.930733)"
           id="g174"><text
             id="text178"
             style="font-variant:normal;font-weight:bold;font-size:16px;font-family:Helvetica;-inkscape-font-specification:Helvetica-Bold;writing-mode:lr-tb;fill:#000000;fill-opacity:1;fill-rule:nonzero;stroke:none"
             transform="translate(0,14)"><tspan
               id="tspan176"
               y="0"
               x="0">0</tspan></text>
</g><g
           transform="matrix(2.9978354,0,0,2.9978354,2194.4155,92.932899)"
           id="g180"><text
             id="text184"
             style="font-variant:normal;font-weight:bold;font-size:16px;font-family:Helvetica;-inkscape-font-specification:Helvetica-Bold;writing-mode:lr-tb;fill:#000000;fill-opacity:1;fill-rule:nonzero;stroke:none"
             transform="translate(0,14)"><tspan
               id="tspan182"
               y="0"
               x="0">5</tspan></text>
</g></g></g></g></svg>