<?xml version="1.0" encoding="UTF-8" standalone="no"?>
<svg
   xmlns:dc="http://purl.org/dc/elements/1.1/"
   xmlns:cc="http://creativecommons.org/ns#"
   xmlns:rdf="http://www.w3.org/1999/02/22-rdf-syntax-ns#"
   xmlns:svg="http://www.w3.org/2000/svg"
   xmlns="http://www.w3.org/2000/svg"
   viewBox="0 0 920 98.559998"
   height="98.559998"
   width="920"
   xml:space="preserve"
   id="svg2"
   version="1.1"><metadata
     id="metadata8"><rdf:RDF><cc:Work
         rdf:about=""><dc:format>image/svg+xml</dc:format><dc:type
           rdf:resource="http://purl.org/dc/dcmitype/StillImage" /></cc:Work></rdf:RDF></metadata><defs
     id="defs6"><clipPath
       id="clipPath18"
       clipPathUnits="userSpaceOnUse"><path
         style="clip-rule:evenodd"
         id="path16"
         d="M 0,0 H 2874.9998 V 308.14255 H 0 Z" /></clipPath><clipPath
       id="clipPath30"
       clipPathUnits="userSpaceOnUse"><path
         style="clip-rule:evenodd"
         id="path28"
         d="M 0,0 H 2874.9998 V 305.15088 H 0 Z" /></clipPath></defs><g
     transform="matrix(0.31999998,0,0,0.31999998,0,2.1306666e-6)"
     id="g10"><g
       id="g12"><g
         clip-path="url(#clipPath18)"
         id="g14"><g
           transform="scale(2.9916751)"
           id="g20"><path
             id="path22"
             style="fill:#ffffff;fill-opacity:1;fill-rule:nonzero;stroke:none"
             d="M 0,0 H 961 V 103 H 0 Z" /></g></g></g><g
       id="g24"><g
         clip-path="url(#clipPath30)"
         id="g26"><g
           transform="scale(2.9916751)"
           id="g32"><path
             id="path34"
             style="fill:none;stroke:#000000;stroke-width:1;stroke-linecap:butt;stroke-linejoin:miter;stroke-miterlimit:10;stroke-dasharray:none;stroke-opacity:1"
             d="m 710,51 h 31.76001" /><path
             id="path36"
             style="fill:#000000;fill-opacity:1;fill-rule:nonzero;stroke:none"
             d="m 747.76001,51 -8,4 2,-4 -2,-4 z" /><path
             id="path38"
             style="fill:none;stroke:#000000;stroke-width:1;stroke-linecap:butt;stroke-linejoin:miter;stroke-miterlimit:10;stroke-dasharray:none;stroke-opacity:1"
             d="m 747.76001,51 -8,4 2,-4 -2,-4 z" /><path
             id="path40"
             style="fill:none;stroke:#000000;stroke-width:1;stroke-linecap:butt;stroke-linejoin:miter;stroke-miterlimit:10;stroke-dasharray:none;stroke-opacity:1"
             d="m 510,51 h 32.76001" /><path
             id="path42"
             style="fill:#000000;fill-opacity:1;fill-rule:nonzero;stroke:none"
             d="m 548.76001,51 -8,4 2,-4 -2,-4 z" /><path
             id="path44"
             style="fill:none;stroke:#000000;stroke-width:1;stroke-linecap:butt;stroke-linejoin:miter;stroke-miterlimit:10;stroke-dasharray:none;stroke-opacity:1"
             d="m 548.76001,51 -8,4 2,-4 -2,-4 z" /><path
             id="path46"
             style="fill:#ffffff;fill-opacity:1;fill-rule:nonzero;stroke:none"
             d="m 403,11 h 95 c 0.7879,0 1.56824,0.07686 2.34103,0.230577 0.7728,0.153718 1.52317,0.38134 2.2511,0.682868 0.72794,0.301527 1.4195,0.671168 2.07465,1.108919 0.65515,0.437751 1.26132,0.935202 1.81848,1.492354 0.55713,0.557151 1.05457,1.163296 1.49234,1.818437 0.43777,0.65514 0.8074,1.346687 1.10892,2.074642 0.30154,0.727953 0.52914,1.478325 0.68286,2.251118 C 509.9231,21.431705 509.99997,22.212069 510,23 v 56 c -3e-5,0.787926 -0.0769,1.568283 -0.23062,2.341072 -0.15372,0.772797 -0.38132,1.523171 -0.68286,2.251122 -0.30152,0.727951 -0.67115,1.419494 -1.10892,2.07463 -0.43777,0.655144 -0.93521,1.261299 -1.49234,1.818451 -0.55716,0.557152 -1.16333,1.054604 -1.81845,1.492348 -0.65518,0.437752 -1.34674,0.807396 -2.07468,1.108925 -0.72793,0.301521 -1.4783,0.529144 -2.2511,0.682869 C 499.56824,90.923134 498.7879,90.999992 498,91 h -95 c -0.78793,-8e-6 -1.56833,-0.07687 -2.34113,-0.230583 -0.77279,-0.153725 -1.52319,-0.381348 -2.25116,-0.682869 -0.72793,-0.301529 -1.41949,-0.671173 -2.07461,-1.108925 -0.65512,-0.437744 -1.26123,-0.935196 -1.81839,-1.492348 -0.55716,-0.557152 -1.05463,-1.163307 -1.49237,-1.818451 -0.43775,-0.655136 -0.80737,-1.346679 -1.10892,-2.07463 -0.30154,-0.727951 -0.52914,-1.478325 -0.68286,-2.251122 C 391.07684,80.568283 391,79.787926 391,79 V 23 c 0,-0.787931 0.0769,-1.568295 0.23059,-2.341085 0.15369,-0.772793 0.38129,-1.523165 0.68283,-2.251118 0.30155,-0.727955 0.67117,-1.419502 1.10895,-2.074642 0.43771,-0.655141 0.93518,-1.261286 1.49234,-1.818437 0.55716,-0.557152 1.16327,-1.054603 1.81839,-1.492354 0.65512,-0.437751 1.34668,-0.807392 2.07465,-1.108919 0.72796,-0.301528 1.47833,-0.52915 2.25112,-0.682868 C 401.43167,11.076859 402.21207,11 403,11 Z" /><path
             id="path48"
             style="fill:none;stroke:#000000;stroke-width:1;stroke-linecap:butt;stroke-linejoin:miter;stroke-miterlimit:10;stroke-dasharray:none;stroke-opacity:1"
             d="m 403,11 h 95 c 0.7879,0 1.56824,0.07686 2.34103,0.230577 0.7728,0.153718 1.52317,0.38134 2.2511,0.682868 0.72794,0.301527 1.4195,0.671168 2.07465,1.108919 0.65515,0.437751 1.26132,0.935202 1.81848,1.492354 0.55713,0.557151 1.05457,1.163296 1.49234,1.818437 0.43777,0.65514 0.8074,1.346687 1.10892,2.074642 0.30154,0.727953 0.52914,1.478325 0.68286,2.251118 C 509.9231,21.431705 509.99997,22.212069 510,23 v 56 c -3e-5,0.787926 -0.0769,1.568283 -0.23062,2.341072 -0.15372,0.772797 -0.38132,1.523171 -0.68286,2.251122 -0.30152,0.727951 -0.67115,1.419494 -1.10892,2.07463 -0.43777,0.655144 -0.93521,1.261299 -1.49234,1.818451 -0.55716,0.557152 -1.16333,1.054604 -1.81845,1.492348 -0.65518,0.437752 -1.34674,0.807396 -2.07468,1.108925 -0.72793,0.301521 -1.4783,0.529144 -2.2511,0.682869 C 499.56824,90.923134 498.7879,90.999992 498,91 h -95 c -0.78793,-8e-6 -1.56833,-0.07687 -2.34113,-0.230583 -0.77279,-0.153725 -1.52319,-0.381348 -2.25116,-0.682869 -0.72793,-0.301529 -1.41949,-0.671173 -2.07461,-1.108925 -0.65512,-0.437744 -1.26123,-0.935196 -1.81839,-1.492348 -0.55716,-0.557152 -1.05463,-1.163307 -1.49237,-1.818451 -0.43775,-0.655136 -0.80737,-1.346679 -1.10892,-2.07463 -0.30154,-0.727951 -0.52914,-1.478325 -0.68286,-2.251122 C 391.07684,80.568283 391,79.787926 391,79 V 23 c 0,-0.787931 0.0769,-1.568295 0.23059,-2.341085 0.15369,-0.772793 0.38129,-1.523165 0.68283,-2.251118 0.30155,-0.727955 0.67117,-1.419502 1.10895,-2.074642 0.43771,-0.655141 0.93518,-1.261286 1.49234,-1.818437 0.55716,-0.557152 1.16327,-1.054603 1.81839,-1.492354 0.65512,-0.437751 1.34668,-0.807392 2.07465,-1.108919 0.72796,-0.301528 1.47833,-0.52915 2.25112,-0.682868 C 401.43167,11.076859 402.21207,11 403,11 Z" /></g><g
           transform="matrix(2.9916751,0,0,2.9916751,1175.7283,98.725281)"
           id="g50"><text
             id="text54"
             style="font-variant:normal;font-weight:normal;font-size:16px;font-family:Helvetica;-inkscape-font-specification:Helvetica;writing-mode:lr-tb;fill:#000000;fill-opacity:1;fill-rule:nonzero;stroke:none"
             transform="translate(40.09375,14)"><tspan
               id="tspan52"
               y="0"
               x="0 11.554688 20.453125 24.898438">Data</tspan></text>
<text
             id="text58"
             style="font-variant:normal;font-weight:normal;font-size:16px;font-family:Helvetica;-inkscape-font-specification:Helvetica;writing-mode:lr-tb;fill:#000000;fill-opacity:1;fill-rule:nonzero;stroke:none"
             transform="translate(15.640625,33)"><tspan
               id="tspan56"
               y="0"
               x="0 10.671875 16 24.898438 33.796875 42.695312 48.023438 56.921875 61.367188 64.921875 73.820312">Preparation</tspan></text>
</g><g
           transform="scale(2.9916751)"
           id="g60"><path
             id="path62"
             style="fill:none;stroke:#000000;stroke-width:1;stroke-linecap:butt;stroke-linejoin:miter;stroke-miterlimit:10;stroke-dasharray:none;stroke-opacity:1"
             d="m 350,51 c 0,0 10.92001,0 32.76001,0" /><path
             id="path64"
             style="fill:#000000;fill-opacity:1;fill-rule:nonzero;stroke:none"
             d="m 388.76001,51 -8,4 2,-4 -2,-4 z" /><path
             id="path66"
             style="fill:none;stroke:#000000;stroke-width:1;stroke-linecap:butt;stroke-linejoin:miter;stroke-miterlimit:10;stroke-dasharray:none;stroke-opacity:1"
             d="m 388.76001,51 -8,4 2,-4 -2,-4 z" /><path
             id="path68"
             style="fill:#ffffff;fill-opacity:1;fill-rule:nonzero;stroke:none"
             d="m 190,33 c 0,-16 160,-16 160,0 v 36 c 0,16 -160,16 -160,0 z" /><path
             id="path70"
             style="fill:none;stroke:#000000;stroke-width:1;stroke-linecap:butt;stroke-linejoin:miter;stroke-miterlimit:10;stroke-dasharray:none;stroke-opacity:1"
             d="m 190,33 c 0,-16 160,-16 160,0 v 36 c 0,16 -160,16 -160,0 z" /><path
             id="path72"
             style="fill:none;stroke:#000000;stroke-width:1;stroke-linecap:butt;stroke-linejoin:miter;stroke-miterlimit:10;stroke-dasharray:none;stroke-opacity:1"
             d="m 190,33 c 0,12 160,12 160,0" /></g><g
           transform="matrix(2.9916751,0,0,2.9916751,634.23511,152.57544)"
           id="g74"><text
             id="text78"
             style="font-variant:normal;font-weight:normal;font-size:16px;font-family:Helvetica;-inkscape-font-specification:Helvetica;writing-mode:lr-tb;fill:#000000;fill-opacity:1;fill-rule:nonzero;stroke:none"
             transform="translate(0.6875,14)"><tspan
               id="tspan76"
               y="0"
               x="0 11.554688 20.453125 24.898438 33.796875 38.242188 48.914062 56.914062 65.8125 74.710938 78.265625 86.265625 89.820312 94.265625 97.820312 106.71875">Data Acquisition</tspan></text>
</g><g
           transform="matrix(2.9916751,0,0,2.9916751,484.65137,89.750252)"
           id="g80"><text
             id="text84"
             style="font-variant:normal;font-weight:bold;font-size:16px;font-family:Helvetica;-inkscape-font-specification:Helvetica-Bold;writing-mode:lr-tb;fill:#000000;fill-opacity:1;fill-rule:nonzero;stroke:none"
             transform="translate(0,14)"><tspan
               id="tspan82"
               y="0"
               x="0">1</tspan></text>
</g><g
           transform="matrix(2.9916751,0,0,2.9916751,1085.978,89.750252)"
           id="g86"><text
             id="text90"
             style="font-variant:normal;font-weight:bold;font-size:16px;font-family:Helvetica;-inkscape-font-specification:Helvetica-Bold;writing-mode:lr-tb;fill:#000000;fill-opacity:1;fill-rule:nonzero;stroke:none"
             transform="translate(0,14)"><tspan
               id="tspan88"
               y="0"
               x="0">2</tspan></text>
</g><g
           transform="matrix(2.9916751,0,0,2.9916751,1561.6544,92.741928)"
           id="g92"><text
             id="text96"
             style="font-variant:normal;font-weight:bold;font-size:16px;font-family:Helvetica;-inkscape-font-specification:Helvetica-Bold;writing-mode:lr-tb;fill:#000000;fill-opacity:1;fill-rule:nonzero;stroke:none"
             transform="translate(0,14)"><tspan
               id="tspan94"
               y="0"
               x="0">3</tspan></text>
</g><g
           transform="matrix(2.9916751,0,0,2.9916751,2159.9895,89.750252)"
           id="g98"><text
             id="text102"
             style="font-variant:normal;font-weight:bold;font-size:16px;font-family:Helvetica;-inkscape-font-specification:Helvetica-Bold;writing-mode:lr-tb;fill:#000000;fill-opacity:1;fill-rule:nonzero;stroke:none"
             transform="translate(0,14)"><tspan
               id="tspan100"
               y="0"
               x="0">4</tspan></text>
</g><g
           transform="matrix(2.9916751,0,0,2.9916751,65.816856,86.758575)"
           id="g104"><text
             id="text108"
             style="font-variant:normal;font-weight:bold;font-size:16px;font-family:Helvetica;-inkscape-font-specification:Helvetica-Bold;writing-mode:lr-tb;fill:#000000;fill-opacity:1;fill-rule:nonzero;stroke:none"
             transform="translate(0,14)"><tspan
               id="tspan106"
               y="0"
               x="0">0</tspan></text>
</g><g
           transform="scale(2.9916751)"
           id="g110"><path
             id="path112"
             style="fill:none;stroke:#000000;stroke-width:1;stroke-linecap:butt;stroke-linejoin:miter;stroke-miterlimit:10;stroke-dasharray:none;stroke-opacity:1"
             d="m 150,51 c 0,0 10.58667,0 31.75999,0" /><path
             id="path114"
             style="fill:#000000;fill-opacity:1;fill-rule:nonzero;stroke:none"
             d="m 187.75999,51 -8,4 2,-4 -2,-4 z" /><path
             id="path116"
             style="fill:none;stroke:#000000;stroke-width:1;stroke-linecap:butt;stroke-linejoin:miter;stroke-miterlimit:10;stroke-dasharray:none;stroke-opacity:1"
             d="m 187.75999,51 -8,4 2,-4 -2,-4 z" /><path
             id="path118"
             style="fill:#ffffff;fill-opacity:1;fill-rule:nonzero;stroke:none"
             d="m 150,51 c 1e-5,1.637562 -0.0803,3.271183 -0.24077,4.90086 -0.16051,1.629677 -0.4005,3.247562 -0.71998,4.853653 -0.31948,1.606094 -0.71689,3.192665 -1.19225,4.759716 -0.47537,1.567047 -1.02638,3.107025 -1.65305,4.619934 -0.62666,1.512909 -1.32595,2.991463 -2.0979,4.435669 -0.77194,1.444206 -1.6128,2.847092 -2.52259,4.208671 -0.90978,1.361588 -1.88408,2.675309 -2.92295,3.941155 -1.03886,1.265854 -2.13725,2.477745 -3.29518,3.635673 -1.15793,1.157929 -2.36983,2.256325 -3.63568,3.295182 -1.26585,1.038856 -2.57957,2.013176 -3.94115,2.92295 -1.36158,0.90979 -2.76447,1.750657 -4.20868,2.522599 -1.44419,0.771942 -2.92275,1.471245 -4.43566,2.097908 -1.51291,0.626671 -3.05289,1.177688 -4.61993,1.653045 -1.56705,0.475357 -3.15362,0.872773 -4.75972,1.192245 -1.60609,0.31948 -3.22398,0.55947 -4.85365,0.71999 C 103.27119,100.91975 101.63757,101 100,101 c -1.637558,0 -3.271172,-0.0803 -4.900848,-0.24075 -1.629685,-0.16052 -3.247574,-0.40051 -4.853676,-0.71999 -1.606095,-0.319472 -3.192665,-0.716888 -4.759712,-1.192245 -1.567048,-0.475357 -3.107026,-1.026374 -4.619942,-1.653045 -1.512901,-0.626663 -2.991455,-1.325966 -4.435661,-2.097908 -1.444207,-0.771942 -2.8471,-1.612809 -4.20868,-2.522599 -1.36158,-0.909774 -2.675293,-1.884094 -3.941147,-2.92295 -1.265853,-1.038857 -2.477745,-2.137253 -3.635681,-3.295182 -1.157932,-1.157928 -2.256324,-2.369819 -3.295181,-3.635673 -1.03886,-1.265846 -2.01318,-2.579567 -2.922962,-3.941155 -0.909779,-1.361579 -1.750641,-2.764465 -2.522579,-4.208671 -0.771942,-1.444206 -1.471249,-2.92276 -2.097916,-4.435669 C 53.179348,68.621254 52.628338,67.081276 52.152981,65.514229 51.67762,63.947178 51.280205,62.360607 50.960728,60.754513 50.641258,59.148422 50.401268,57.530537 50.240761,55.90086 50.080254,54.271183 50,52.637562 50,51 c 0,-1.637562 0.08025,-3.271179 0.240761,-4.900856 0.160511,-1.629677 0.400501,-3.247562 0.719971,-4.853661 0.319477,-1.606094 0.716892,-3.192665 1.192249,-4.759716 0.475357,-1.567051 1.026367,-3.107029 1.653034,-4.619941 0.626667,-1.512909 1.325974,-2.991465 2.097919,-4.435665 0.771939,-1.444201 1.612797,-2.847092 2.522576,-4.208676 0.909782,-1.361582 1.884102,-2.675299 2.922962,-3.941151 1.038857,-1.265852 2.137249,-2.477745 3.295181,-3.635674 1.157936,-1.15793 2.369828,-2.256325 3.635681,-3.295183 1.265854,-1.038859 2.579567,-2.013178 3.941147,-2.9229586 1.36158,-0.9097805 2.764473,-1.7506413 4.20868,-2.522582 1.444206,-0.7719417 2.92276,-1.4712463 4.435661,-2.0979138 C 82.378738,4.1793551 83.918716,3.6283422 85.485764,3.152983 87.052811,2.677624 88.639381,2.2802083 90.245476,1.9607358 91.851578,1.6412635 93.469467,1.4012728 95.099144,1.2407637 96.728821,1.0802545 98.362442,1 100,1 c 1.63757,0 3.27119,0.080254 4.90086,0.2407637 1.62967,0.1605092 3.24756,0.4004999 4.85365,0.7199722 1.6061,0.3194727 3.19267,0.7168883 4.75972,1.1922475 1.56705,0.4753592 3.10702,1.0263722 4.61993,1.6530397 1.51291,0.6266675 2.99147,1.3259721 4.43566,2.0979133 1.44421,0.7719407 2.8471,1.6128015 4.20868,2.522582 1.36158,0.9097806 2.6753,1.8840996 3.94115,2.9229586 1.26585,1.038858 2.47775,2.137253 3.63568,3.295183 1.15793,1.157929 2.25632,2.369822 3.29518,3.635674 1.03887,1.265852 2.01317,2.579571 2.92295,3.941153 0.90979,1.361582 1.75065,2.764475 2.52259,4.208677 0.77195,1.444199 1.47124,2.922753 2.0979,4.435662 0.62667,1.512912 1.17768,3.05289 1.65305,4.619941 0.47536,1.567047 0.87277,3.153618 1.19225,4.759713 0.31948,1.606098 0.55947,3.223987 0.71998,4.853664 C 149.91975,47.728821 150.00001,49.362438 150,51 Z" /><path
             id="path120"
             style="fill:none;stroke:#000000;stroke-width:1;stroke-linecap:butt;stroke-linejoin:miter;stroke-miterlimit:10;stroke-dasharray:none;stroke-opacity:1"
             d="m 150,51 c 1e-5,1.637562 -0.0803,3.271183 -0.24077,4.90086 -0.16051,1.629677 -0.4005,3.247562 -0.71998,4.853653 -0.31948,1.606094 -0.71689,3.192665 -1.19225,4.759716 -0.47537,1.567047 -1.02638,3.107025 -1.65305,4.619934 -0.62666,1.512909 -1.32595,2.991463 -2.0979,4.435669 -0.77194,1.444206 -1.6128,2.847092 -2.52259,4.208671 -0.90978,1.361588 -1.88408,2.675309 -2.92295,3.941155 -1.03886,1.265854 -2.13725,2.477745 -3.29518,3.635673 -1.15793,1.157929 -2.36983,2.256325 -3.63568,3.295182 -1.26585,1.038856 -2.57957,2.013176 -3.94115,2.92295 -1.36158,0.90979 -2.76447,1.750657 -4.20868,2.522599 -1.44419,0.771942 -2.92275,1.471245 -4.43566,2.097908 -1.51291,0.626671 -3.05289,1.177688 -4.61993,1.653045 -1.56705,0.475357 -3.15362,0.872773 -4.75972,1.192245 -1.60609,0.31948 -3.22398,0.55947 -4.85365,0.71999 C 103.27119,100.91975 101.63757,101 100,101 c -1.637558,0 -3.271172,-0.0803 -4.900848,-0.24075 -1.629685,-0.16052 -3.247574,-0.40051 -4.853676,-0.71999 -1.606095,-0.319472 -3.192665,-0.716888 -4.759712,-1.192245 -1.567048,-0.475357 -3.107026,-1.026374 -4.619942,-1.653045 -1.512901,-0.626663 -2.991455,-1.325966 -4.435661,-2.097908 -1.444207,-0.771942 -2.8471,-1.612809 -4.20868,-2.522599 -1.36158,-0.909774 -2.675293,-1.884094 -3.941147,-2.92295 -1.265853,-1.038857 -2.477745,-2.137253 -3.635681,-3.295182 -1.157932,-1.157928 -2.256324,-2.369819 -3.295181,-3.635673 -1.03886,-1.265846 -2.01318,-2.579567 -2.922962,-3.941155 -0.909779,-1.361579 -1.750641,-2.764465 -2.522579,-4.208671 -0.771942,-1.444206 -1.471249,-2.92276 -2.097916,-4.435669 C 53.179348,68.621254 52.628338,67.081276 52.152981,65.514229 51.67762,63.947178 51.280205,62.360607 50.960728,60.754513 50.641258,59.148422 50.401268,57.530537 50.240761,55.90086 50.080254,54.271183 50,52.637562 50,51 c 0,-1.637562 0.08025,-3.271179 0.240761,-4.900856 0.160511,-1.629677 0.400501,-3.247562 0.719971,-4.853661 0.319477,-1.606094 0.716892,-3.192665 1.192249,-4.759716 0.475357,-1.567051 1.026367,-3.107029 1.653034,-4.619941 0.626667,-1.512909 1.325974,-2.991465 2.097919,-4.435665 0.771939,-1.444201 1.612797,-2.847092 2.522576,-4.208676 0.909782,-1.361582 1.884102,-2.675299 2.922962,-3.941151 1.038857,-1.265852 2.137249,-2.477745 3.295181,-3.635674 1.157936,-1.15793 2.369828,-2.256325 3.635681,-3.295183 1.265854,-1.038859 2.579567,-2.013178 3.941147,-2.9229586 1.36158,-0.9097805 2.764473,-1.7506413 4.20868,-2.522582 1.444206,-0.7719417 2.92276,-1.4712463 4.435661,-2.0979138 C 82.378738,4.1793551 83.918716,3.6283422 85.485764,3.152983 87.052811,2.677624 88.639381,2.2802083 90.245476,1.9607358 91.851578,1.6412635 93.469467,1.4012728 95.099144,1.2407637 96.728821,1.0802545 98.362442,1 100,1 c 1.63757,0 3.27119,0.080254 4.90086,0.2407637 1.62967,0.1605092 3.24756,0.4004999 4.85365,0.7199722 1.6061,0.3194727 3.19267,0.7168883 4.75972,1.1922475 1.56705,0.4753592 3.10702,1.0263722 4.61993,1.6530397 1.51291,0.6266675 2.99147,1.3259721 4.43566,2.0979133 1.44421,0.7719407 2.8471,1.6128015 4.20868,2.522582 1.36158,0.9097806 2.6753,1.8840996 3.94115,2.9229586 1.26585,1.038858 2.47775,2.137253 3.63568,3.295183 1.15793,1.157929 2.25632,2.369822 3.29518,3.635674 1.03887,1.265852 2.01317,2.579571 2.92295,3.941153 0.90979,1.361582 1.75065,2.764475 2.52259,4.208677 0.77195,1.444199 1.47124,2.922753 2.0979,4.435662 0.62667,1.512912 1.17768,3.05289 1.65305,4.619941 0.47536,1.567047 0.87277,3.153618 1.19225,4.759713 0.31948,1.606098 0.55947,3.223987 0.71998,4.853664 C 149.91975,47.728821 150.00001,49.362438 150,51 Z" /></g><g
           transform="matrix(2.9916751,0,0,2.9916751,155.56711,98.725281)"
           id="g122"><text
             id="text126"
             style="font-variant:normal;font-weight:normal;font-size:16px;font-family:Helvetica;-inkscape-font-specification:Helvetica;writing-mode:lr-tb;fill:#000000;fill-opacity:1;fill-rule:nonzero;stroke:none"
             transform="translate(3.03125,14)"><tspan
               id="tspan124"
               y="0"
               x="0 11.554688 20.453125 24.898438 33.796875 38.242188 48.914062 57.8125 66.710938 72.039062 80.039062">Data Source</tspan></text>
<text
             id="text130"
             style="font-variant:normal;font-weight:normal;font-size:16px;font-family:Helvetica;-inkscape-font-specification:Helvetica;writing-mode:lr-tb;fill:#000000;fill-opacity:1;fill-rule:nonzero;stroke:none"
             transform="translate(7.46875,33)"><tspan
               id="tspan128"
               y="0"
               x="0 10.671875 18.671875 27.570312 31.125 40.023438 45.351562 54.25 58.695312 62.25 71.148438">Exploration</tspan></text>
</g><g
           transform="scale(2.9916751)"
           id="g132"><path
             id="path134"
             style="fill:none;stroke:#000000;stroke-width:1;stroke-linecap:butt;stroke-linejoin:miter;stroke-miterlimit:10;stroke-dasharray:none;stroke-opacity:1"
             d="M 8.6000004,50.790001 H 41.369999" /><path
             id="path136"
             style="fill:#000000;fill-opacity:1;fill-rule:nonzero;stroke:none"
             d="m 47.369999,50.790001 -8,4 2,-4 -2,-4 z" /><path
             id="path138"
             style="fill:none;stroke:#000000;stroke-width:1;stroke-linecap:butt;stroke-linejoin:miter;stroke-miterlimit:10;stroke-dasharray:none;stroke-opacity:1"
             d="m 47.369999,50.790001 -8,4 2,-4 -2,-4 z" /></g><g
           transform="matrix(2.9916751,0,0,2.9916751,2040.3224,92.741928)"
           id="g140"><text
             id="text144"
             style="font-variant:normal;font-weight:bold;font-size:16px;font-family:Helvetica;-inkscape-font-specification:Helvetica-Bold;writing-mode:lr-tb;fill:#000000;fill-opacity:1;fill-rule:nonzero;stroke:none"
             transform="translate(0,14)"><tspan
               id="tspan142"
               y="0"
               x="0">5</tspan></text>
</g><g
           transform="scale(2.9916751)"
           id="g146"><path
             id="path148"
             style="fill:#ffffff;fill-opacity:1;fill-rule:nonzero;stroke:none"
             d="m 550,33 c 0,-16 160,-16 160,0 v 36 c 0,16 -160,16 -160,0 z" /><path
             id="path150"
             style="fill:none;stroke:#000000;stroke-width:1;stroke-linecap:butt;stroke-linejoin:miter;stroke-miterlimit:10;stroke-dasharray:none;stroke-opacity:1"
             d="m 550,33 c 0,-16 160,-16 160,0 v 36 c 0,16 -160,16 -160,0 z" /><path
             id="path152"
             style="fill:none;stroke:#000000;stroke-width:1;stroke-linecap:butt;stroke-linejoin:miter;stroke-miterlimit:10;stroke-dasharray:none;stroke-opacity:1"
             d="m 550,33 c 0,12 160,12 160,0" /></g><g
           transform="matrix(2.9916751,0,0,2.9916751,1702.2632,152.57544)"
           id="g154"><text
             id="text158"
             style="font-variant:normal;font-weight:normal;font-size:16px;font-family:Helvetica;-inkscape-font-specification:Helvetica;writing-mode:lr-tb;fill:#000000;fill-opacity:1;fill-rule:nonzero;stroke:none"
             transform="translate(0.578125,14)"><tspan
               id="tspan156"
               y="0"
               x="0 11.554688 20.453125 24.898438 33.796875 38.242188 48.914062 54.242188 62.242188 71.140625 74.695312 79.140625 88.039062 96.039062 100.48438 104.03906 112.9375">Data Architecting</tspan></text>
</g><g
           transform="scale(2.9916751)"
           id="g160"><path
             id="path162"
             style="fill:none;stroke:#000000;stroke-width:1;stroke-linecap:butt;stroke-linejoin:miter;stroke-miterlimit:10;stroke-dasharray:none;stroke-opacity:1"
             d="m 910,51 h 31.76001" /><path
             id="path164"
             style="fill:#000000;fill-opacity:1;fill-rule:nonzero;stroke:none"
             d="m 947.76001,51 -8,4 2,-4 -2,-4 z" /><path
             id="path166"
             style="fill:none;stroke:#000000;stroke-width:1;stroke-linecap:butt;stroke-linejoin:miter;stroke-miterlimit:10;stroke-dasharray:none;stroke-opacity:1"
             d="m 947.76001,51 -8,4 2,-4 -2,-4 z" /><path
             id="path168"
             style="fill:#ffffff;fill-opacity:1;fill-rule:nonzero;stroke:none"
             d="m 750,33 c 0,-16 160,-16 160,0 v 36 c 0,16 -160,16 -160,0 z" /><path
             id="path170"
             style="fill:none;stroke:#000000;stroke-width:1;stroke-linecap:butt;stroke-linejoin:miter;stroke-miterlimit:10;stroke-dasharray:none;stroke-opacity:1"
             d="m 750,33 c 0,-16 160,-16 160,0 v 36 c 0,16 -160,16 -160,0 z" /><path
             id="path172"
             style="fill:none;stroke:#000000;stroke-width:1;stroke-linecap:butt;stroke-linejoin:miter;stroke-miterlimit:10;stroke-dasharray:none;stroke-opacity:1"
             d="m 750,33 c 0,12 160,12 160,0" /></g><g
           transform="matrix(2.9916751,0,0,2.9916751,2336.4983,152.57544)"
           id="g174"><text
             id="text178"
             style="font-variant:normal;font-weight:normal;font-size:16px;font-family:Helvetica;-inkscape-font-specification:Helvetica;writing-mode:lr-tb;fill:#000000;fill-opacity:1;fill-rule:nonzero;stroke:none"
             transform="translate(0.015625,14)"><tspan
               id="tspan176"
               y="0"
               x="0 11.554688 20.453125 24.898438 33.796875 38.242188 49.796875 58.695312 62.25 71.148438 80.046875 88.046875">Data Release</tspan></text>
</g><g
           transform="matrix(2.9916751,0,0,2.9916751,2758.3245,89.750252)"
           id="g180"><text
             id="text184"
             style="font-variant:normal;font-weight:bold;font-size:16px;font-family:Helvetica;-inkscape-font-specification:Helvetica-Bold;writing-mode:lr-tb;fill:#000000;fill-opacity:1;fill-rule:nonzero;stroke:none"
             transform="translate(0,14)"><tspan
               id="tspan182"
               y="0"
               x="0">5</tspan></text>
</g></g></g></g></svg>