<?xml version="1.0" encoding="UTF-8" standalone="no"?>
<svg
   xmlns:dc="http://purl.org/dc/elements/1.1/"
   xmlns:cc="http://creativecommons.org/ns#"
   xmlns:rdf="http://www.w3.org/1999/02/22-rdf-syntax-ns#"
   xmlns:svg="http://www.w3.org/2000/svg"
   xmlns="http://www.w3.org/2000/svg"
   viewBox="0 0 616 314.56"
   height="314.56"
   width="616"
   xml:space="preserve"
   id="svg2"
   version="1.1"><metadata
     id="metadata8"><rdf:RDF><cc:Work
         rdf:about=""><dc:format>image/svg+xml</dc:format><dc:type
           rdf:resource="http://purl.org/dc/dcmitype/StillImage" /></cc:Work></rdf:RDF></metadata><defs
     id="defs6"><clipPath
       id="clipPath18"
       clipPathUnits="userSpaceOnUse"><path
         style="clip-rule:evenodd"
         id="path16"
         d="M 0,0 H 1925 V 980.49066 H 0 Z" /></clipPath><clipPath
       id="clipPath30"
       clipPathUnits="userSpaceOnUse"><path
         style="clip-rule:evenodd"
         id="path28"
         d="M 0,0 H 1925 V 980.49066 H 0 Z" /></clipPath></defs><g
     transform="matrix(0.31999998,0,0,0.31999998,0,7.8639999e-6)"
     id="g10"><g
       id="g12"><g
         clip-path="url(#clipPath18)"
         id="g14"><g
           transform="scale(2.9984424)"
           id="g20"><path
             id="path22"
             style="fill:#ffffff;fill-opacity:1;fill-rule:nonzero;stroke:none"
             d="M 0,0 H 642 V 327 H 0 Z" /></g></g></g><g
       id="g24"><g
         clip-path="url(#clipPath30)"
         id="g26"><g
           transform="scale(2.9984424)"
           id="g32"><path
             id="path34"
             style="fill:none;stroke:#000000;stroke-width:1;stroke-linecap:butt;stroke-linejoin:miter;stroke-miterlimit:10;stroke-dasharray:none;stroke-opacity:1"
             d="m 280.5,41.5 h 32.76001" /><path
             id="path36"
             style="fill:#000000;fill-opacity:1;fill-rule:nonzero;stroke:none"
             d="m 319.26001,41.5 -8,4 2,-4 -2,-4 z" /><path
             id="path38"
             style="fill:none;stroke:#000000;stroke-width:1;stroke-linecap:butt;stroke-linejoin:miter;stroke-miterlimit:10;stroke-dasharray:none;stroke-opacity:1"
             d="m 319.26001,41.5 -8,4 2,-4 -2,-4 z" /><path
             id="path40"
             style="fill:#ffffff;fill-opacity:1;fill-rule:nonzero;stroke:none"
             d="m 176.64999,1 h 91.70002 c 0.79776,0 1.58789,0.07782 2.37033,0.2334588 0.78244,0.1556391 1.54217,0.3861073 2.27923,0.6914045 0.73703,0.3052972 1.43723,0.6795574 2.10056,1.1227804 0.6633,0.443223 1.27704,0.9468922 1.84118,1.5110082 0.56409,0.564116 1.06775,1.1778388 1.51096,1.8411689 0.44324,0.6633296 0.81751,1.3635211 1.1228,2.100574 0.3053,0.7370539 0.5358,1.4968062 0.69147,2.2792582 0.15561,0.78245 0.23343,1.572567 0.23346,2.370347 v 56.699998 c -3e-5,0.797776 -0.0779,1.587891 -0.23346,2.370339 -0.15567,0.782448 -0.38617,1.542198 -0.69147,2.279251 -0.30529,0.737053 -0.67956,1.437241 -1.1228,2.100578 -0.44321,0.66333 -0.94687,1.277054 -1.51096,1.841172 -0.56414,0.564117 -1.17788,1.067787 -1.84118,1.511009 -0.66333,0.443222 -1.36353,0.817482 -2.10056,1.12278 -0.73706,0.305297 -1.49682,0.535766 -2.27926,0.691406 -0.78244,0.15564 -1.57254,0.233459 -2.3703,0.233467 h -91.70002 c -0.79779,-8e-6 -1.5879,-0.07783 -2.37036,-0.233467 -0.78245,-0.15564 -1.5422,-0.386109 -2.27926,-0.691406 -0.73705,-0.305298 -1.43724,-0.679558 -2.10057,-1.12278 -0.66333,-0.443222 -1.27706,-0.946892 -1.84118,-1.511002 -0.56411,-0.564117 -1.06778,-1.177841 -1.511,-1.841179 -0.44322,-0.66333 -0.81749,-1.363525 -1.12277,-2.100578 -0.30528,-0.737053 -0.53575,-1.496803 -0.69139,-2.279251 C 164.57782,71.437889 164.5,70.647774 164.5,69.849998 V 13.15 c 0,-0.79778 0.0778,-1.587897 0.23346,-2.370347 0.15564,-0.782452 0.38611,-1.5422043 0.69139,-2.2792582 0.30528,-0.7370529 0.67955,-1.4372444 1.12277,-2.1005745 0.44322,-0.6633296 0.94689,-1.2770524 1.511,-1.8411684 0.56412,-0.564116 1.17785,-1.0677852 1.84118,-1.5110082 0.66333,-0.443223 1.36352,-0.8174832 2.10057,-1.1227804 0.73706,-0.3052972 1.49682,-0.5357654 2.27928,-0.6914045 C 175.06209,1.0778196 175.8522,1 176.64999,1 Z" /><path
             id="path42"
             style="fill:none;stroke:#000000;stroke-width:1;stroke-linecap:butt;stroke-linejoin:miter;stroke-miterlimit:10;stroke-dasharray:none;stroke-opacity:1"
             d="m 176.64999,1 h 91.70002 c 0.79776,0 1.58789,0.07782 2.37033,0.2334588 0.78244,0.1556391 1.54217,0.3861073 2.27923,0.6914045 0.73703,0.3052972 1.43723,0.6795574 2.10056,1.1227804 0.6633,0.443223 1.27704,0.9468922 1.84118,1.5110082 0.56409,0.564116 1.06775,1.1778388 1.51096,1.8411689 0.44324,0.6633296 0.81751,1.3635211 1.1228,2.100574 0.3053,0.7370539 0.5358,1.4968062 0.69147,2.2792582 0.15561,0.78245 0.23343,1.572567 0.23346,2.370347 v 56.699998 c -3e-5,0.797776 -0.0779,1.587891 -0.23346,2.370339 -0.15567,0.782448 -0.38617,1.542198 -0.69147,2.279251 -0.30529,0.737053 -0.67956,1.437241 -1.1228,2.100578 -0.44321,0.66333 -0.94687,1.277054 -1.51096,1.841172 -0.56414,0.564117 -1.17788,1.067787 -1.84118,1.511009 -0.66333,0.443222 -1.36353,0.817482 -2.10056,1.12278 -0.73706,0.305297 -1.49682,0.535766 -2.27926,0.691406 -0.78244,0.15564 -1.57254,0.233459 -2.3703,0.233467 h -91.70002 c -0.79779,-8e-6 -1.5879,-0.07783 -2.37036,-0.233467 -0.78245,-0.15564 -1.5422,-0.386109 -2.27926,-0.691406 -0.73705,-0.305298 -1.43724,-0.679558 -2.10057,-1.12278 -0.66333,-0.443222 -1.27706,-0.946892 -1.84118,-1.511002 -0.56411,-0.564117 -1.06778,-1.177841 -1.511,-1.841179 -0.44322,-0.66333 -0.81749,-1.363525 -1.12277,-2.100578 -0.30528,-0.737053 -0.53575,-1.496803 -0.69139,-2.279251 C 164.57782,71.437889 164.5,70.647774 164.5,69.849998 V 13.15 c 0,-0.79778 0.0778,-1.587897 0.23346,-2.370347 0.15564,-0.782452 0.38611,-1.5422043 0.69139,-2.2792582 0.30528,-0.7370529 0.67955,-1.4372444 1.12277,-2.1005745 0.44322,-0.6633296 0.94689,-1.2770524 1.511,-1.8411684 0.56412,-0.564116 1.17785,-1.0677852 1.84118,-1.5110082 0.66333,-0.443223 1.36352,-0.8174832 2.10057,-1.1227804 0.73706,-0.3052972 1.49682,-0.5357654 2.27928,-0.6914045 C 175.06209,1.0778196 175.8522,1 176.64999,1 Z" /></g><g
           transform="matrix(2.9984424,0,0,2.9984424,500.73987,68.964172)"
           id="g44"><text
             id="text48"
             style="font-variant:normal;font-weight:normal;font-size:16px;font-family:Helvetica;-inkscape-font-specification:Helvetica;writing-mode:lr-tb;fill:#000000;fill-opacity:1;fill-rule:nonzero;stroke:none"
             transform="translate(23.03125,14)"><tspan
               id="tspan46"
               y="0"
               x="0 10.671875 19.570312 27.570312 31.125 40.023438 48.921875 56.921875">Business</tspan></text>
<text
             id="text52"
             style="font-variant:normal;font-weight:normal;font-size:16px;font-family:Helvetica;-inkscape-font-specification:Helvetica;writing-mode:lr-tb;fill:#000000;fill-opacity:1;fill-rule:nonzero;stroke:none"
             transform="translate(5.6875,33)"><tspan
               id="tspan50"
               y="0"
               x="0 11.554688 20.453125 29.351562 38.25 43.578125 51.578125 60.476562 69.375 78.273438 81.828125 90.726562">Undersanding</tspan></text>
</g><g
           transform="scale(2.9984424)"
           id="g54"><path
             id="path56"
             style="fill:none;stroke:#000000;stroke-width:1;stroke-linecap:butt;stroke-linejoin:miter;stroke-miterlimit:10;stroke-dasharray:none;stroke-opacity:1"
             d="m 382,82 c 0,14.666664 -53.5,22 -160.5,22 -107,0 -160.5,4.92 -160.5,14.76" /><path
             id="path58"
             style="fill:#000000;fill-opacity:1;fill-rule:nonzero;stroke:none"
             d="m 61,124.76 -4,-8 4,2 4,-2 z" /><path
             id="path60"
             style="fill:none;stroke:#000000;stroke-width:1;stroke-linecap:butt;stroke-linejoin:miter;stroke-miterlimit:10;stroke-dasharray:none;stroke-opacity:1"
             d="m 61,124.76 -4,-8 4,2 4,-2 z" /><path
             id="path62"
             style="fill:#ffffff;fill-opacity:1;fill-rule:nonzero;stroke:none"
             d="m 333.64999,1 h 95.70002 c 0.79776,0 1.58789,0.07782 2.37033,0.2334588 0.78244,0.1556391 1.5422,0.3861073 2.27926,0.6914045 0.73703,0.3052972 1.43723,0.6795574 2.10056,1.1227804 0.6633,0.443223 1.27704,0.9468922 1.84119,1.5110082 0.56408,0.564116 1.06771,1.1778388 1.51092,1.8411689 0.44324,0.6633296 0.81751,1.3635211 1.1228,2.100574 0.30533,0.7370539 0.5358,1.4968062 0.69144,2.2792582 C 441.42218,11.562103 441.5,12.35222 441.5,13.15 v 56.699998 c 0,0.797776 -0.0778,1.587891 -0.23346,2.370339 -0.15567,0.782448 -0.38614,1.542198 -0.69147,2.279251 -0.30529,0.737053 -0.67956,1.437241 -1.1228,2.100578 -0.44321,0.66333 -0.94684,1.277054 -1.51096,1.841172 -0.56411,0.564117 -1.17785,1.067787 -1.84121,1.511009 -0.6633,0.443222 -1.3635,0.817482 -2.10053,1.12278 -0.73703,0.305297 -1.49679,0.535766 -2.27926,0.691406 -0.78244,0.15564 -1.57254,0.233459 -2.3703,0.233467 h -95.70002 c -0.79776,-8e-6 -1.58789,-0.07783 -2.37036,-0.233467 -0.78244,-0.15564 -1.5422,-0.386109 -2.27929,-0.691406 -0.73703,-0.305298 -1.43723,-0.679558 -2.10059,-1.12278 -0.66333,-0.443222 -1.27704,-0.946892 -1.84113,-1.511002 -0.56411,-0.564117 -1.06781,-1.177841 -1.51101,-1.841179 -0.44321,-0.66333 -0.81748,-1.363525 -1.12277,-2.100578 -0.3053,-0.737053 -0.53577,-1.496803 -0.69141,-2.279251 -0.15564,-0.782448 -0.23346,-1.572563 -0.23343,-2.370339 V 13.15 c -3e-5,-0.79778 0.0778,-1.587897 0.23346,-2.370347 0.15561,-0.782452 0.38608,-1.5422043 0.69141,-2.2792582 0.30529,-0.7370529 0.67956,-1.4372444 1.12277,-2.1005745 0.4432,-0.6633296 0.9469,-1.2770524 1.51101,-1.8411684 0.56412,-0.564116 1.17783,-1.0677852 1.84113,-1.5110082 0.66333,-0.443223 1.36353,-0.8174832 2.10056,-1.1227804 0.73709,-0.3052972 1.49685,-0.5357654 2.27929,-0.6914045 C 332.0621,1.0778196 332.85223,1 333.64999,1 Z" /><path
             id="path64"
             style="fill:none;stroke:#000000;stroke-width:1;stroke-linecap:butt;stroke-linejoin:miter;stroke-miterlimit:10;stroke-dasharray:none;stroke-opacity:1"
             d="m 333.64999,1 h 95.70002 c 0.79776,0 1.58789,0.07782 2.37033,0.2334588 0.78244,0.1556391 1.5422,0.3861073 2.27926,0.6914045 0.73703,0.3052972 1.43723,0.6795574 2.10056,1.1227804 0.6633,0.443223 1.27704,0.9468922 1.84119,1.5110082 0.56408,0.564116 1.06771,1.1778388 1.51092,1.8411689 0.44324,0.6633296 0.81751,1.3635211 1.1228,2.100574 0.30533,0.7370539 0.5358,1.4968062 0.69144,2.2792582 C 441.42218,11.562103 441.5,12.35222 441.5,13.15 v 56.699998 c 0,0.797776 -0.0778,1.587891 -0.23346,2.370339 -0.15567,0.782448 -0.38614,1.542198 -0.69147,2.279251 -0.30529,0.737053 -0.67956,1.437241 -1.1228,2.100578 -0.44321,0.66333 -0.94684,1.277054 -1.51096,1.841172 -0.56411,0.564117 -1.17785,1.067787 -1.84121,1.511009 -0.6633,0.443222 -1.3635,0.817482 -2.10053,1.12278 -0.73703,0.305297 -1.49679,0.535766 -2.27926,0.691406 -0.78244,0.15564 -1.57254,0.233459 -2.3703,0.233467 h -95.70002 c -0.79776,-8e-6 -1.58789,-0.07783 -2.37036,-0.233467 -0.78244,-0.15564 -1.5422,-0.386109 -2.27929,-0.691406 -0.73703,-0.305298 -1.43723,-0.679558 -2.10059,-1.12278 -0.66333,-0.443222 -1.27704,-0.946892 -1.84113,-1.511002 -0.56411,-0.564117 -1.06781,-1.177841 -1.51101,-1.841179 -0.44321,-0.66333 -0.81748,-1.363525 -1.12277,-2.100578 -0.3053,-0.737053 -0.53577,-1.496803 -0.69141,-2.279251 -0.15564,-0.782448 -0.23346,-1.572563 -0.23343,-2.370339 V 13.15 c -3e-5,-0.79778 0.0778,-1.587897 0.23346,-2.370347 0.15561,-0.782452 0.38608,-1.5422043 0.69141,-2.2792582 0.30529,-0.7370529 0.67956,-1.4372444 1.12277,-2.1005745 0.4432,-0.6633296 0.9469,-1.2770524 1.51101,-1.8411684 0.56412,-0.564116 1.17783,-1.0677852 1.84113,-1.5110082 0.66333,-0.443223 1.36353,-0.8174832 2.10056,-1.1227804 0.73709,-0.3052972 1.49685,-0.5357654 2.27929,-0.6914045 C 332.0621,1.0778196 332.85223,1 333.64999,1 Z" /></g><g
           transform="matrix(2.9984424,0,0,2.9984424,971.49536,68.964172)"
           id="g66"><text
             id="text70"
             style="font-variant:normal;font-weight:normal;font-size:16px;font-family:Helvetica;-inkscape-font-specification:Helvetica;writing-mode:lr-tb;fill:#000000;fill-opacity:1;fill-rule:nonzero;stroke:none"
             transform="translate(40.59375,14)"><tspan
               id="tspan68"
               y="0"
               x="0 11.554688 20.453125 24.898438">Data</tspan></text>
<text
             id="text74"
             style="font-variant:normal;font-weight:normal;font-size:16px;font-family:Helvetica;-inkscape-font-specification:Helvetica;writing-mode:lr-tb;fill:#000000;fill-opacity:1;fill-rule:nonzero;stroke:none"
             transform="translate(5.46875,33)"><tspan
               id="tspan72"
               y="0"
               x="0 11.554688 20.453125 29.351562 38.25 43.578125 51.578125 56.023438 64.921875 73.820312 82.71875 86.273438 95.171875">Understanding</tspan></text>
</g><g
           transform="scale(2.9984424)"
           id="g76"><path
             id="path78"
             style="fill:none;stroke:#000000;stroke-width:1;stroke-linecap:butt;stroke-linejoin:miter;stroke-miterlimit:10;stroke-dasharray:none;stroke-opacity:1"
             d="m 121,167 c 0,0 11.92,0 35.75999,0" /><path
             id="path80"
             style="fill:#000000;fill-opacity:1;fill-rule:nonzero;stroke:none"
             d="m 162.75999,167 -8,4 2,-4 -2,-4 z" /><path
             id="path82"
             style="fill:none;stroke:#000000;stroke-width:1;stroke-linecap:butt;stroke-linejoin:miter;stroke-miterlimit:10;stroke-dasharray:none;stroke-opacity:1"
             d="m 162.75999,167 -8,4 2,-4 -2,-4 z" /><path
             id="path84"
             style="fill:#ffffff;fill-opacity:1;fill-rule:nonzero;stroke:none"
             d="m 13.15,126.5 h 95.7 c 0.79778,0 1.5879,0.0778 2.37034,0.23346 0.78245,0.15564 1.5422,0.3861 2.27925,0.69139 0.73705,0.3053 1.43725,0.67957 2.10058,1.12279 0.66333,0.44322 1.27705,0.94688 1.84118,1.511 0.5641,0.5641 1.06778,1.17782 1.511,1.84117 0.44321,0.66332 0.81747,1.36351 1.12278,2.10056 0.3053,0.73706 0.53577,1.49681 0.69141,2.27926 0.15564,0.78246 0.23346,1.57257 0.23346,2.37036 v 56.70002 c 0,0.79777 -0.0778,1.58787 -0.23346,2.37031 -0.15564,0.78246 -0.38611,1.54221 -0.69141,2.27925 -0.30531,0.73705 -0.67957,1.43724 -1.12278,2.10059 -0.44322,0.66333 -0.9469,1.27705 -1.511,1.84117 -0.56413,0.56412 -1.17785,1.06779 -1.84119,1.51102 -0.66332,0.44322 -1.36352,0.81747 -2.10057,1.12277 -0.73705,0.30531 -1.49681,0.53578 -2.27925,0.69142 -0.78245,0.15564 -1.57256,0.23346 -2.37034,0.23346 h -95.7 c -0.79778,0 -1.587897,-0.0778 -2.370347,-0.23346 -0.782452,-0.15564 -1.5422043,-0.38611 -2.2792582,-0.69142 -0.7370529,-0.3053 -1.4372444,-0.67955 -2.1005745,-1.12277 -0.6633296,-0.44323 -1.2770524,-0.9469 -1.8411684,-1.51102 -0.564116,-0.56412 -1.0677852,-1.17784 -1.5110082,-1.84117 -0.443223,-0.66335 -0.8174832,-1.36353 -1.1227804,-2.10057 C 1.619566,199.26253 1.3890978,198.50278 1.2334586,197.72034 1.0778195,196.93788 0.99999994,196.14778 1,195.35001 v -56.70002 c -6e-8,-0.79779 0.077819,-1.5879 0.2334586,-2.37036 0.1556392,-0.78245 0.3861074,-1.5422 0.6914047,-2.27926 0.3052972,-0.73705 0.6795574,-1.43724 1.1227804,-2.10056 0.443223,-0.66335 0.9468922,-1.27707 1.5110082,-1.84117 0.564116,-0.56412 1.1778388,-1.06778 1.8411689,-1.511 0.6633296,-0.44322 1.3635211,-0.81749 2.100574,-1.12279 0.7370539,-0.30529 1.4968062,-0.53575 2.2792582,-0.69139 C 11.562103,126.57782 12.35222,126.5 13.15,126.5 Z" /><path
             id="path86"
             style="fill:none;stroke:#000000;stroke-width:1;stroke-linecap:butt;stroke-linejoin:miter;stroke-miterlimit:10;stroke-dasharray:none;stroke-opacity:1"
             d="m 13.15,126.5 h 95.7 c 0.79778,0 1.5879,0.0778 2.37034,0.23346 0.78245,0.15564 1.5422,0.3861 2.27925,0.69139 0.73705,0.3053 1.43725,0.67957 2.10058,1.12279 0.66333,0.44322 1.27705,0.94688 1.84118,1.511 0.5641,0.5641 1.06778,1.17782 1.511,1.84117 0.44321,0.66332 0.81747,1.36351 1.12278,2.10056 0.3053,0.73706 0.53577,1.49681 0.69141,2.27926 0.15564,0.78246 0.23346,1.57257 0.23346,2.37036 v 56.70002 c 0,0.79777 -0.0778,1.58787 -0.23346,2.37031 -0.15564,0.78246 -0.38611,1.54221 -0.69141,2.27925 -0.30531,0.73705 -0.67957,1.43724 -1.12278,2.10059 -0.44322,0.66333 -0.9469,1.27705 -1.511,1.84117 -0.56413,0.56412 -1.17785,1.06779 -1.84119,1.51102 -0.66332,0.44322 -1.36352,0.81747 -2.10057,1.12277 -0.73705,0.30531 -1.49681,0.53578 -2.27925,0.69142 -0.78245,0.15564 -1.57256,0.23346 -2.37034,0.23346 h -95.7 c -0.79778,0 -1.587897,-0.0778 -2.370347,-0.23346 -0.782452,-0.15564 -1.5422043,-0.38611 -2.2792582,-0.69142 -0.7370529,-0.3053 -1.4372444,-0.67955 -2.1005745,-1.12277 -0.6633296,-0.44323 -1.2770524,-0.9469 -1.8411684,-1.51102 -0.564116,-0.56412 -1.0677852,-1.17784 -1.5110082,-1.84117 -0.443223,-0.66335 -0.8174832,-1.36353 -1.1227804,-2.10057 C 1.619566,199.26253 1.3890978,198.50278 1.2334586,197.72034 1.0778195,196.93788 0.99999994,196.14778 1,195.35001 v -56.70002 c -6e-8,-0.79779 0.077819,-1.5879 0.2334586,-2.37036 0.1556392,-0.78245 0.3861074,-1.5422 0.6914047,-2.27926 0.3052972,-0.73705 0.6795574,-1.43724 1.1227804,-2.10056 0.443223,-0.66335 0.9468922,-1.27707 1.5110082,-1.84117 0.564116,-0.56412 1.1778388,-1.06778 1.8411689,-1.511 0.6633296,-0.44322 1.3635211,-0.81749 2.100574,-1.12279 0.7370539,-0.30529 1.4968062,-0.53575 2.2792582,-0.69139 C 11.562103,126.57782 12.35222,126.5 13.15,126.5 Z" /></g><g
           transform="matrix(2.9984424,0,0,2.9984424,8.995327,446.76791)"
           id="g88"><text
             id="text92"
             style="font-variant:normal;font-weight:normal;font-size:16px;font-family:Helvetica;-inkscape-font-specification:Helvetica;writing-mode:lr-tb;fill:#000000;fill-opacity:1;fill-rule:nonzero;stroke:none"
             transform="translate(40.59375,14)"><tspan
               id="tspan90"
               y="0"
               x="0 11.554688 20.453125 24.898438">Data</tspan></text>
<text
             id="text96"
             style="font-variant:normal;font-weight:normal;font-size:16px;font-family:Helvetica;-inkscape-font-specification:Helvetica;writing-mode:lr-tb;fill:#000000;fill-opacity:1;fill-rule:nonzero;stroke:none"
             transform="translate(16.140625,33)"><tspan
               id="tspan94"
               y="0"
               x="0 10.671875 16 24.898438 33.796875 42.695312 48.023438 56.921875 61.367188 64.921875 73.820312">Preparation</tspan></text>
</g><g
           transform="scale(2.9984424)"
           id="g98"><path
             id="path100"
             style="fill:none;stroke:#000000;stroke-width:1;stroke-linecap:butt;stroke-linejoin:miter;stroke-miterlimit:10;stroke-dasharray:none;stroke-opacity:1"
             d="m 285,167 c 0,0 10.25333,0 30.76001,0" /><path
             id="path102"
             style="fill:#000000;fill-opacity:1;fill-rule:nonzero;stroke:none"
             d="m 321.76001,167 -8,4 2,-4 -2,-4 z" /><path
             id="path104"
             style="fill:none;stroke:#000000;stroke-width:1;stroke-linecap:butt;stroke-linejoin:miter;stroke-miterlimit:10;stroke-dasharray:none;stroke-opacity:1"
             d="m 321.76001,167 -8,4 2,-4 -2,-4 z" /><path
             id="path106"
             style="fill:none;stroke:#000000;stroke-width:1;stroke-linecap:butt;stroke-linejoin:miter;stroke-miterlimit:10;stroke-dasharray:none;stroke-opacity:1"
             d="m 284.5,167 c 0,0 23.92001,0 71.76001,0" /><path
             id="path108"
             style="fill:#000000;fill-opacity:1;fill-rule:nonzero;stroke:none"
             d="m 362.26001,167 -8,4 2,-4 -2,-4 z" /><path
             id="path110"
             style="fill:none;stroke:#000000;stroke-width:1;stroke-linecap:butt;stroke-linejoin:miter;stroke-miterlimit:10;stroke-dasharray:none;stroke-opacity:1"
             d="m 362.26001,167 -8,4 2,-4 -2,-4 z" /><path
             id="path112"
             style="fill:#ffffff;fill-opacity:1;fill-rule:nonzero;stroke:none"
             d="m 176.64999,126.5 h 95.70002 c 0.79776,0 1.58786,0.0778 2.3703,0.23346 0.78244,0.15564 1.54217,0.3861 2.27923,0.69139 0.73706,0.3053 1.43726,0.67957 2.10056,1.12279 0.66336,0.44322 1.2771,0.94688 1.84121,1.511 0.56412,0.5641 1.06778,1.17782 1.51102,1.84117 0.44321,0.66332 0.81748,1.36351 1.12277,2.10056 0.3053,0.73706 0.53577,1.49681 0.69144,2.27926 0.15564,0.78246 0.23346,1.57257 0.23346,2.37036 v 56.70002 c 0,0.79777 -0.0778,1.58787 -0.23346,2.37031 -0.15567,0.78246 -0.38614,1.54221 -0.69144,2.27925 -0.30529,0.73705 -0.67956,1.43724 -1.12277,2.10059 -0.44324,0.66333 -0.9469,1.27705 -1.51102,1.84117 -0.56411,0.56412 -1.17785,1.06779 -1.84121,1.51102 -0.6633,0.44322 -1.3635,0.81747 -2.10056,1.12277 -0.73706,0.30531 -1.49679,0.53578 -2.27923,0.69142 -0.78244,0.15564 -1.57254,0.23346 -2.3703,0.23346 h -95.70002 c -0.79779,0 -1.5879,-0.0778 -2.37036,-0.23346 -0.78245,-0.15564 -1.5422,-0.38611 -2.27926,-0.69142 -0.73705,-0.3053 -1.43724,-0.67955 -2.10057,-1.12277 -0.66333,-0.44323 -1.27706,-0.9469 -1.84118,-1.51102 -0.56411,-0.56412 -1.06778,-1.17784 -1.511,-1.84117 -0.44322,-0.66335 -0.81749,-1.36353 -1.12277,-2.10057 -0.30528,-0.73706 -0.53575,-1.49681 -0.69139,-2.27925 -0.15564,-0.78246 -0.23346,-1.57256 -0.23346,-2.37033 v -56.70002 c 0,-0.79779 0.0778,-1.5879 0.23346,-2.37036 0.15564,-0.78245 0.38611,-1.5422 0.69139,-2.27926 0.30528,-0.73705 0.67955,-1.43724 1.12277,-2.10056 0.44322,-0.66335 0.94689,-1.27707 1.511,-1.84117 0.56412,-0.56412 1.17785,-1.06778 1.84118,-1.511 0.66333,-0.44322 1.36352,-0.81749 2.10057,-1.12279 0.73706,-0.30529 1.49682,-0.53575 2.27928,-0.69139 0.78244,-0.15564 1.57255,-0.23346 2.37034,-0.23346 z" /><path
             id="path114"
             style="fill:none;stroke:#000000;stroke-width:1;stroke-linecap:butt;stroke-linejoin:miter;stroke-miterlimit:10;stroke-dasharray:none;stroke-opacity:1"
             d="m 176.64999,126.5 h 95.70002 c 0.79776,0 1.58786,0.0778 2.3703,0.23346 0.78244,0.15564 1.54217,0.3861 2.27923,0.69139 0.73706,0.3053 1.43726,0.67957 2.10056,1.12279 0.66336,0.44322 1.2771,0.94688 1.84121,1.511 0.56412,0.5641 1.06778,1.17782 1.51102,1.84117 0.44321,0.66332 0.81748,1.36351 1.12277,2.10056 0.3053,0.73706 0.53577,1.49681 0.69144,2.27926 0.15564,0.78246 0.23346,1.57257 0.23346,2.37036 v 56.70002 c 0,0.79777 -0.0778,1.58787 -0.23346,2.37031 -0.15567,0.78246 -0.38614,1.54221 -0.69144,2.27925 -0.30529,0.73705 -0.67956,1.43724 -1.12277,2.10059 -0.44324,0.66333 -0.9469,1.27705 -1.51102,1.84117 -0.56411,0.56412 -1.17785,1.06779 -1.84121,1.51102 -0.6633,0.44322 -1.3635,0.81747 -2.10056,1.12277 -0.73706,0.30531 -1.49679,0.53578 -2.27923,0.69142 -0.78244,0.15564 -1.57254,0.23346 -2.3703,0.23346 h -95.70002 c -0.79779,0 -1.5879,-0.0778 -2.37036,-0.23346 -0.78245,-0.15564 -1.5422,-0.38611 -2.27926,-0.69142 -0.73705,-0.3053 -1.43724,-0.67955 -2.10057,-1.12277 -0.66333,-0.44323 -1.27706,-0.9469 -1.84118,-1.51102 -0.56411,-0.56412 -1.06778,-1.17784 -1.511,-1.84117 -0.44322,-0.66335 -0.81749,-1.36353 -1.12277,-2.10057 -0.30528,-0.73706 -0.53575,-1.49681 -0.69139,-2.27925 -0.15564,-0.78246 -0.23346,-1.57256 -0.23346,-2.37033 v -56.70002 c 0,-0.79779 0.0778,-1.5879 0.23346,-2.37036 0.15564,-0.78245 0.38611,-1.5422 0.69139,-2.27926 0.30528,-0.73705 0.67955,-1.43724 1.12277,-2.10056 0.44322,-0.66335 0.94689,-1.27707 1.511,-1.84117 0.56412,-0.56412 1.17785,-1.06778 1.84118,-1.511 0.66333,-0.44322 1.36352,-0.81749 2.10057,-1.12279 0.73706,-0.30529 1.49682,-0.53575 2.27928,-0.69139 0.78244,-0.15564 1.57255,-0.23346 2.37034,-0.23346 z" /></g><g
           transform="matrix(2.9984424,0,0,2.9984424,569.70404,473.75391)"
           id="g116"><text
             id="text120"
             style="font-variant:normal;font-weight:normal;font-size:16px;font-family:Helvetica;-inkscape-font-specification:Helvetica;writing-mode:lr-tb;fill:#000000;fill-opacity:1;fill-rule:nonzero;stroke:none"
             transform="translate(0.25,14)"><tspan
               id="tspan118"
               y="0"
               x="0 13.328125 22.226562 31.125 40.023438 43.578125 47.132812 50.6875 59.585938">Modelling</tspan></text>
</g><g
           transform="scale(2.9984424)"
           id="g122"><path
             id="path124"
             style="fill:none;stroke:#000000;stroke-width:1;stroke-linecap:butt;stroke-linejoin:miter;stroke-miterlimit:10;stroke-dasharray:none;stroke-opacity:1"
             d="m 444,167 c 13.33334,0 23.92001,0 31.76001,0" /><path
             id="path126"
             style="fill:#000000;fill-opacity:1;fill-rule:nonzero;stroke:none"
             d="m 481.76001,167 -8,4 2,-4 -2,-4 z" /><path
             id="path128"
             style="fill:none;stroke:#000000;stroke-width:1;stroke-linecap:butt;stroke-linejoin:miter;stroke-miterlimit:10;stroke-dasharray:none;stroke-opacity:1"
             d="m 481.76001,167 -8,4 2,-4 -2,-4 z" /><path
             id="path130"
             style="fill:#ffffff;fill-opacity:1;fill-rule:nonzero;stroke:none"
             d="m 336.14999,126.5 h 95.70002 c 0.79776,0 1.58786,0.0778 2.37027,0.23346 0.78247,0.15564 1.54223,0.3861 2.27926,0.69139 0.73703,0.3053 1.43723,0.67957 2.10059,1.12279 0.66333,0.44322 1.27707,0.94688 1.84122,1.511 0.56411,0.5641 1.06774,1.17782 1.51095,1.84117 0.44324,0.66332 0.81751,1.36351 1.1228,2.10056 0.3053,0.73706 0.53577,1.49681 0.69144,2.27926 0.15561,0.78246 0.23343,1.57257 0.23346,2.37036 v 56.70002 c -3e-5,0.79777 -0.0779,1.58787 -0.23349,2.37031 -0.15564,0.78246 -0.38611,1.54221 -0.69141,2.27925 -0.30529,0.73705 -0.67956,1.43724 -1.12277,2.10059 -0.44321,0.66333 -0.94687,1.27705 -1.51098,1.84117 -0.56415,0.56412 -1.17789,1.06779 -1.84122,1.51102 -0.66333,0.44322 -1.36353,0.81747 -2.10056,1.12277 -0.73706,0.30531 -1.49682,0.53578 -2.27926,0.69142 -0.78244,0.15564 -1.57254,0.23346 -2.3703,0.23346 h -95.70002 c -0.79779,0 -1.58792,-0.0778 -2.37036,-0.23346 -0.78244,-0.15564 -1.5422,-0.38611 -2.27926,-0.69142 -0.73703,-0.3053 -1.43723,-0.67955 -2.10059,-1.12277 -0.66333,-0.44323 -1.27704,-0.9469 -1.84113,-1.51102 -0.56414,-0.56412 -1.06784,-1.17784 -1.51104,-1.84117 -0.44321,-0.66335 -0.81748,-1.36353 -1.12277,-2.10057 -0.30533,-0.73706 -0.5358,-1.49681 -0.69141,-2.27925 C 324.07782,196.93788 324,196.14778 324,195.35001 v -56.70002 c 0,-0.79779 0.0778,-1.5879 0.23343,-2.37036 0.15561,-0.78245 0.38608,-1.5422 0.69141,-2.27926 0.30529,-0.73705 0.67956,-1.43724 1.12277,-2.10056 0.4432,-0.66335 0.9469,-1.27707 1.51104,-1.84117 0.56409,-0.56412 1.1778,-1.06778 1.84113,-1.511 0.66333,-0.44322 1.36353,-0.81749 2.10056,-1.12279 0.73706,-0.30529 1.49682,-0.53575 2.27929,-0.69139 0.78244,-0.15564 1.57257,-0.23346 2.37036,-0.23346 z" /><path
             id="path132"
             style="fill:none;stroke:#000000;stroke-width:1;stroke-linecap:butt;stroke-linejoin:miter;stroke-miterlimit:10;stroke-dasharray:none;stroke-opacity:1"
             d="m 336.14999,126.5 h 95.70002 c 0.79776,0 1.58786,0.0778 2.37027,0.23346 0.78247,0.15564 1.54223,0.3861 2.27926,0.69139 0.73703,0.3053 1.43723,0.67957 2.10059,1.12279 0.66333,0.44322 1.27707,0.94688 1.84122,1.511 0.56411,0.5641 1.06774,1.17782 1.51095,1.84117 0.44324,0.66332 0.81751,1.36351 1.1228,2.10056 0.3053,0.73706 0.53577,1.49681 0.69144,2.27926 0.15561,0.78246 0.23343,1.57257 0.23346,2.37036 v 56.70002 c -3e-5,0.79777 -0.0779,1.58787 -0.23349,2.37031 -0.15564,0.78246 -0.38611,1.54221 -0.69141,2.27925 -0.30529,0.73705 -0.67956,1.43724 -1.12277,2.10059 -0.44321,0.66333 -0.94687,1.27705 -1.51098,1.84117 -0.56415,0.56412 -1.17789,1.06779 -1.84122,1.51102 -0.66333,0.44322 -1.36353,0.81747 -2.10056,1.12277 -0.73706,0.30531 -1.49682,0.53578 -2.27926,0.69142 -0.78244,0.15564 -1.57254,0.23346 -2.3703,0.23346 h -95.70002 c -0.79779,0 -1.58792,-0.0778 -2.37036,-0.23346 -0.78244,-0.15564 -1.5422,-0.38611 -2.27926,-0.69142 -0.73703,-0.3053 -1.43723,-0.67955 -2.10059,-1.12277 -0.66333,-0.44323 -1.27704,-0.9469 -1.84113,-1.51102 -0.56414,-0.56412 -1.06784,-1.17784 -1.51104,-1.84117 -0.44321,-0.66335 -0.81748,-1.36353 -1.12277,-2.10057 -0.30533,-0.73706 -0.5358,-1.49681 -0.69141,-2.27925 C 324.07782,196.93788 324,196.14778 324,195.35001 v -56.70002 c 0,-0.79779 0.0778,-1.5879 0.23343,-2.37036 0.15561,-0.78245 0.38608,-1.5422 0.69141,-2.27926 0.30529,-0.73705 0.67956,-1.43724 1.12277,-2.10056 0.4432,-0.66335 0.9469,-1.27707 1.51104,-1.84117 0.56409,-0.56412 1.1778,-1.06778 1.84113,-1.511 0.66333,-0.44322 1.36353,-0.81749 2.10056,-1.12279 0.73706,-0.30529 1.49682,-0.53575 2.27929,-0.69139 0.78244,-0.15564 1.57257,-0.23346 2.37036,-0.23346 z" /></g><g
           transform="matrix(2.9984424,0,0,2.9984424,1037.4611,473.75391)"
           id="g134"><text
             id="text138"
             style="font-variant:normal;font-weight:normal;font-size:16px;font-family:Helvetica;-inkscape-font-specification:Helvetica;writing-mode:lr-tb;fill:#000000;fill-opacity:1;fill-rule:nonzero;stroke:none"
             transform="translate(0.140625,14)"><tspan
               id="tspan136"
               y="0"
               x="0 10.671875 18.671875 27.570312 31.125 40.023438 48.921875 53.367188 56.921875 65.820312">Evaluation</tspan></text>
</g><g
           transform="scale(2.9984424)"
           id="g140"><path
             id="path142"
             style="fill:none;stroke:#000000;stroke-width:1;stroke-linecap:butt;stroke-linejoin:miter;stroke-miterlimit:10;stroke-dasharray:none;stroke-opacity:1"
             d="m 574,208 c 0,45.33334 -14.58667,68 -43.76001,68" /><path
             id="path144"
             style="fill:#000000;fill-opacity:1;fill-rule:nonzero;stroke:none"
             d="m 524.23999,276 8,-4 -2,4 2,4 z" /><path
             id="path146"
             style="fill:none;stroke:#000000;stroke-width:1;stroke-linecap:butt;stroke-linejoin:miter;stroke-miterlimit:10;stroke-dasharray:none;stroke-opacity:1"
             d="m 524.23999,276 8,-4 -2,4 2,4 z" /><path
             id="path148"
             style="fill:none;stroke:#000000;stroke-width:1;stroke-linecap:butt;stroke-linejoin:miter;stroke-miterlimit:10;stroke-dasharray:none;stroke-opacity:1"
             d="m 603.5,167 c 13.66669,0 19.83331,0 18.5,0 -1.33331,0 1.91998,0 9.76001,0" /><path
             id="path150"
             style="fill:#000000;fill-opacity:1;fill-rule:nonzero;stroke:none"
             d="m 637.76001,167 -8,4 2,-4 -2,-4 z" /><path
             id="path152"
             style="fill:none;stroke:#000000;stroke-width:1;stroke-linecap:butt;stroke-linejoin:miter;stroke-miterlimit:10;stroke-dasharray:none;stroke-opacity:1"
             d="m 637.76001,167 -8,4 2,-4 -2,-4 z" /><path
             id="path154"
             style="fill:#ffffff;fill-opacity:1;fill-rule:nonzero;stroke:none"
             d="m 495.64999,126.5 h 95.69999 c 0.79779,0 1.58789,0.0778 2.37036,0.23346 0.78241,0.15564 1.54211,0.3861 2.27917,0.69139 0.737,0.3053 1.4372,0.67957 2.10053,1.12279 0.66339,0.44322 1.2771,0.94688 1.84124,1.511 0.56415,0.5641 1.06781,1.17782 1.51105,1.84117 0.44318,0.66332 0.81745,1.36351 1.12274,2.10056 0.3053,0.73706 0.53577,1.49681 0.69141,2.27926 0.15564,0.78246 0.23346,1.57257 0.23352,2.37036 v 56.70002 c -6e-5,0.79777 -0.0779,1.58787 -0.23352,2.37031 -0.1557,0.78246 -0.38617,1.54221 -0.69147,2.27925 -0.30536,0.73705 -0.67962,1.43724 -1.1228,2.10059 -0.44324,0.66333 -0.9469,1.27705 -1.51099,1.84117 -0.56408,0.56412 -1.17779,1.06779 -1.84118,1.51102 -0.66333,0.44322 -1.36353,0.81747 -2.10053,1.12277 -0.73706,0.30531 -1.49676,0.53578 -2.27917,0.69142 -0.78247,0.15564 -1.57257,0.23346 -2.37036,0.23346 h -95.69999 c -0.79782,0 -1.58795,-0.0778 -2.37039,-0.23346 -0.78244,-0.15564 -1.5422,-0.38611 -2.27926,-0.69142 -0.73706,-0.3053 -1.43726,-0.67955 -2.10059,-1.12277 -0.6633,-0.44323 -1.27701,-0.9469 -1.84113,-1.51102 -0.56411,-0.56412 -1.06781,-1.17784 -1.51101,-1.84117 -0.44324,-0.66335 -0.81751,-1.36353 -1.12281,-2.10057 -0.30532,-0.73706 -0.53579,-1.49681 -0.6914,-2.27925 -0.15564,-0.78246 -0.23343,-1.57256 -0.2334,-2.37033 v -56.70002 c -3e-5,-0.79779 0.0778,-1.5879 0.2334,-2.37036 0.15561,-0.78245 0.38608,-1.5422 0.6914,-2.27926 0.3053,-0.73705 0.67957,-1.43724 1.12278,-2.10056 0.44323,-0.66335 0.94693,-1.27707 1.51104,-1.84117 0.56412,-0.56412 1.17783,-1.06778 1.84116,-1.511 0.6633,-0.44322 1.3635,-0.81749 2.10059,-1.12279 0.73706,-0.30529 1.49679,-0.53575 2.27923,-0.69139 0.78244,-0.15564 1.57257,-0.23346 2.37039,-0.23346 z" /><path
             id="path156"
             style="fill:none;stroke:#000000;stroke-width:1;stroke-linecap:butt;stroke-linejoin:miter;stroke-miterlimit:10;stroke-dasharray:none;stroke-opacity:1"
             d="m 495.64999,126.5 h 95.69999 c 0.79779,0 1.58789,0.0778 2.37036,0.23346 0.78241,0.15564 1.54211,0.3861 2.27917,0.69139 0.737,0.3053 1.4372,0.67957 2.10053,1.12279 0.66339,0.44322 1.2771,0.94688 1.84124,1.511 0.56415,0.5641 1.06781,1.17782 1.51105,1.84117 0.44318,0.66332 0.81745,1.36351 1.12274,2.10056 0.3053,0.73706 0.53577,1.49681 0.69141,2.27926 0.15564,0.78246 0.23346,1.57257 0.23352,2.37036 v 56.70002 c -6e-5,0.79777 -0.0779,1.58787 -0.23352,2.37031 -0.1557,0.78246 -0.38617,1.54221 -0.69147,2.27925 -0.30536,0.73705 -0.67962,1.43724 -1.1228,2.10059 -0.44324,0.66333 -0.9469,1.27705 -1.51099,1.84117 -0.56408,0.56412 -1.17779,1.06779 -1.84118,1.51102 -0.66333,0.44322 -1.36353,0.81747 -2.10053,1.12277 -0.73706,0.30531 -1.49676,0.53578 -2.27917,0.69142 -0.78247,0.15564 -1.57257,0.23346 -2.37036,0.23346 h -95.69999 c -0.79782,0 -1.58795,-0.0778 -2.37039,-0.23346 -0.78244,-0.15564 -1.5422,-0.38611 -2.27926,-0.69142 -0.73706,-0.3053 -1.43726,-0.67955 -2.10059,-1.12277 -0.6633,-0.44323 -1.27701,-0.9469 -1.84113,-1.51102 -0.56411,-0.56412 -1.06781,-1.17784 -1.51101,-1.84117 -0.44324,-0.66335 -0.81751,-1.36353 -1.12281,-2.10057 -0.30532,-0.73706 -0.53579,-1.49681 -0.6914,-2.27925 -0.15564,-0.78246 -0.23343,-1.57256 -0.2334,-2.37033 v -56.70002 c -3e-5,-0.79779 0.0778,-1.5879 0.2334,-2.37036 0.15561,-0.78245 0.38608,-1.5422 0.6914,-2.27926 0.3053,-0.73705 0.67957,-1.43724 1.12278,-2.10056 0.44323,-0.66335 0.94693,-1.27707 1.51104,-1.84117 0.56412,-0.56412 1.17783,-1.06778 1.84116,-1.511 0.6633,-0.44322 1.3635,-0.81749 2.10059,-1.12279 0.73706,-0.30529 1.49679,-0.53575 2.27923,-0.69139 0.78244,-0.15564 1.57257,-0.23346 2.37039,-0.23346 z" /></g><g
           transform="matrix(2.9984424,0,0,2.9984424,1502.2196,473.75391)"
           id="g158"><text
             id="text162"
             style="font-variant:normal;font-weight:normal;font-size:16px;font-family:Helvetica;-inkscape-font-specification:Helvetica;writing-mode:lr-tb;fill:#000000;fill-opacity:1;fill-rule:nonzero;stroke:none"
             transform="translate(0.8125,14)"><tspan
               id="tspan160"
               y="0"
               x="0 11.554688 20.453125 29.351562 32.90625 41.804688 49.804688 63.132812 72.03125 80.929688">Deployment</tspan></text>
</g><g
           transform="scale(2.9984424)"
           id="g164"><path
             id="path166"
             style="fill:none;stroke:#000000;stroke-width:1;stroke-linecap:butt;stroke-linejoin:miter;stroke-miterlimit:10;stroke-dasharray:none;stroke-opacity:1"
             d="m 422,276 c 0,0 -11.92001,0 -35.76001,0" /><path
             id="path168"
             style="fill:#000000;fill-opacity:1;fill-rule:nonzero;stroke:none"
             d="m 380.23999,276 8,-4 -2,4 2,4 z" /><path
             id="path170"
             style="fill:none;stroke:#000000;stroke-width:1;stroke-linecap:butt;stroke-linejoin:miter;stroke-miterlimit:10;stroke-dasharray:none;stroke-opacity:1"
             d="m 380.23999,276 8,-4 -2,4 2,4 z" /><path
             id="path172"
             style="fill:#ffffff;fill-opacity:1;fill-rule:nonzero;stroke:none"
             d="m 522,276 c 0,1.63754 -0.0803,3.27118 -0.24078,4.90085 -0.16047,1.62967 -0.40052,3.24756 -0.72004,4.85361 -0.31945,1.60611 -0.71685,3.19268 -1.1922,4.75973 -0.47534,1.56708 -1.02636,3.10706 -1.65307,4.61993 -0.62665,1.51291 -1.32593,2.99149 -2.09784,4.43573 -0.77191,1.44419 -1.61279,2.84708 -2.52264,4.20865 -0.90979,1.36161 -1.8841,2.67536 -2.92295,3.9412 -1.03885,1.26583 -2.13724,2.47772 -3.29516,3.63562 -1.15793,1.15792 -2.36982,2.25634 -3.63568,3.29522 -1.26584,1.03882 -2.57956,2.01313 -3.94117,2.92289 -1.36157,0.90982 -2.76446,1.75067 -4.20865,2.52261 -1.44421,0.77194 -2.92279,1.47122 -4.4357,2.0979 -1.5129,0.62668 -3.05285,1.1777 -4.6199,1.65304 -1.56705,0.47538 -3.15362,0.87281 -4.75973,1.19227 -1.60608,0.31948 -3.22397,0.55947 -4.85364,0.72 C 475.27118,325.91974 473.63757,326 472,326 c -1.63754,0 -3.27118,-0.0803 -4.90085,-0.24075 -1.62967,-0.16053 -3.24759,-0.40052 -4.8537,-0.72 -1.60608,-0.31946 -3.19262,-0.71686 -4.75967,-1.19223 -1.56708,-0.47538 -3.10709,-1.0264 -4.62,-1.65308 -1.51291,-0.62668 -2.99145,-1.32599 -4.43563,-2.09793 -1.44422,-0.77191 -2.84711,-1.61276 -4.20871,-2.52258 -1.36158,-0.90976 -2.6753,-1.88407 -3.94114,-2.92292 -1.26583,-1.03885 -2.47775,-2.13727 -3.63568,-3.29519 -1.15793,-1.1579 -2.25631,-2.36979 -3.29516,-3.63565 -1.03888,-1.26584 -2.01322,-2.57956 -2.92301,-3.94117 -0.90976,-1.36157 -1.75061,-2.76446 -2.52252,-4.20868 -0.77197,-1.44421 -1.47128,-2.92279 -2.09796,-4.4357 -0.62668,-1.51287 -1.17767,-3.05285 -1.65302,-4.6199 -0.47534,-1.56705 -0.87277,-3.15365 -1.19226,-4.75976 -0.31945,-1.60605 -0.55944,-3.22394 -0.71994,-4.85361 C 422.08026,279.27118 422,277.63754 422,276 c 0,-1.63754 0.0803,-3.27118 0.24075,-4.90085 0.1605,-1.62967 0.40049,-3.24756 0.71994,-4.85367 0.31949,-1.60608 0.71692,-3.19265 1.19226,-4.75973 0.47535,-1.56705 1.02634,-3.10706 1.65302,-4.61997 0.62668,-1.51289 1.32599,-2.99144 2.09796,-4.43565 0.77194,-1.4442 1.61279,-2.84709 2.52255,-4.20868 0.90976,-1.36156 1.8841,-2.67526 2.92298,-3.94112 1.03885,-1.26585 2.13723,-2.47773 3.29516,-3.63568 1.15793,-1.15791 2.36985,-2.2563 3.63568,-3.29516 1.26584,-1.03887 2.57956,-2.01319 3.94111,-2.92299 1.3616,-0.90978 2.76449,-1.75063 4.20874,-2.52257 1.44418,-0.77193 2.92272,-1.47124 4.43563,-2.09793 1.51291,-0.62666 3.05292,-1.17766 4.61997,-1.65302 1.56705,-0.47535 3.15362,-0.87277 4.7597,-1.19224 1.60611,-0.31946 3.22403,-0.55945 4.8537,-0.71996 1.62967,-0.1605 3.26331,-0.24076 4.90085,-0.24078 1.63757,2e-5 3.27121,0.0803 4.90088,0.24078 1.62967,0.16051 3.24756,0.4005 4.85364,0.71996 1.60608,0.31947 3.19265,0.71689 4.75973,1.19224 1.56702,0.47536 3.10697,1.02636 4.61987,1.65302 1.51291,0.62669 2.99149,1.326 4.43567,2.09793 1.44422,0.77194 2.84711,1.61279 4.20868,2.52257 1.36161,0.9098 2.67533,1.88412 3.9412,2.92299 1.26583,1.03886 2.47772,2.13725 3.63565,3.29516 1.15792,1.15795 2.25631,2.36983 3.29519,3.63567 1.03882,1.26587 2.01313,2.57959 2.92292,3.94115 0.90985,1.36158 1.75073,2.76448 2.52264,4.20868 0.77191,1.44419 1.47119,2.92274 2.09784,4.43563 0.62671,1.51291 1.17773,3.05292 1.65314,4.61997 0.47534,1.56708 0.87274,3.15365 1.1922,4.75973 0.31951,1.60611 0.5595,3.224 0.71997,4.85367 C 521.91974,272.72882 522,274.36246 522,276 Z" /><path
             id="path174"
             style="fill:none;stroke:#000000;stroke-width:1;stroke-linecap:butt;stroke-linejoin:miter;stroke-miterlimit:10;stroke-dasharray:none;stroke-opacity:1"
             d="m 522,276 c 0,1.63754 -0.0803,3.27118 -0.24078,4.90085 -0.16047,1.62967 -0.40052,3.24756 -0.72004,4.85361 -0.31945,1.60611 -0.71685,3.19268 -1.1922,4.75973 -0.47534,1.56708 -1.02636,3.10706 -1.65307,4.61993 -0.62665,1.51291 -1.32593,2.99149 -2.09784,4.43573 -0.77191,1.44419 -1.61279,2.84708 -2.52264,4.20865 -0.90979,1.36161 -1.8841,2.67536 -2.92295,3.9412 -1.03885,1.26583 -2.13724,2.47772 -3.29516,3.63562 -1.15793,1.15792 -2.36982,2.25634 -3.63568,3.29522 -1.26584,1.03882 -2.57956,2.01313 -3.94117,2.92289 -1.36157,0.90982 -2.76446,1.75067 -4.20865,2.52261 -1.44421,0.77194 -2.92279,1.47122 -4.4357,2.0979 -1.5129,0.62668 -3.05285,1.1777 -4.6199,1.65304 -1.56705,0.47538 -3.15362,0.87281 -4.75973,1.19227 -1.60608,0.31948 -3.22397,0.55947 -4.85364,0.72 C 475.27118,325.91974 473.63757,326 472,326 c -1.63754,0 -3.27118,-0.0803 -4.90085,-0.24075 -1.62967,-0.16053 -3.24759,-0.40052 -4.8537,-0.72 -1.60608,-0.31946 -3.19262,-0.71686 -4.75967,-1.19223 -1.56708,-0.47538 -3.10709,-1.0264 -4.62,-1.65308 -1.51291,-0.62668 -2.99145,-1.32599 -4.43563,-2.09793 -1.44422,-0.77191 -2.84711,-1.61276 -4.20871,-2.52258 -1.36158,-0.90976 -2.6753,-1.88407 -3.94114,-2.92292 -1.26583,-1.03885 -2.47775,-2.13727 -3.63568,-3.29519 -1.15793,-1.1579 -2.25631,-2.36979 -3.29516,-3.63565 -1.03888,-1.26584 -2.01322,-2.57956 -2.92301,-3.94117 -0.90976,-1.36157 -1.75061,-2.76446 -2.52252,-4.20868 -0.77197,-1.44421 -1.47128,-2.92279 -2.09796,-4.4357 -0.62668,-1.51287 -1.17767,-3.05285 -1.65302,-4.6199 -0.47534,-1.56705 -0.87277,-3.15365 -1.19226,-4.75976 -0.31945,-1.60605 -0.55944,-3.22394 -0.71994,-4.85361 C 422.08026,279.27118 422,277.63754 422,276 c 0,-1.63754 0.0803,-3.27118 0.24075,-4.90085 0.1605,-1.62967 0.40049,-3.24756 0.71994,-4.85367 0.31949,-1.60608 0.71692,-3.19265 1.19226,-4.75973 0.47535,-1.56705 1.02634,-3.10706 1.65302,-4.61997 0.62668,-1.51289 1.32599,-2.99144 2.09796,-4.43565 0.77194,-1.4442 1.61279,-2.84709 2.52255,-4.20868 0.90976,-1.36156 1.8841,-2.67526 2.92298,-3.94112 1.03885,-1.26585 2.13723,-2.47773 3.29516,-3.63568 1.15793,-1.15791 2.36985,-2.2563 3.63568,-3.29516 1.26584,-1.03887 2.57956,-2.01319 3.94111,-2.92299 1.3616,-0.90978 2.76449,-1.75063 4.20874,-2.52257 1.44418,-0.77193 2.92272,-1.47124 4.43563,-2.09793 1.51291,-0.62666 3.05292,-1.17766 4.61997,-1.65302 1.56705,-0.47535 3.15362,-0.87277 4.7597,-1.19224 1.60611,-0.31946 3.22403,-0.55945 4.8537,-0.71996 1.62967,-0.1605 3.26331,-0.24076 4.90085,-0.24078 1.63757,2e-5 3.27121,0.0803 4.90088,0.24078 1.62967,0.16051 3.24756,0.4005 4.85364,0.71996 1.60608,0.31947 3.19265,0.71689 4.75973,1.19224 1.56702,0.47536 3.10697,1.02636 4.61987,1.65302 1.51291,0.62669 2.99149,1.326 4.43567,2.09793 1.44422,0.77194 2.84711,1.61279 4.20868,2.52257 1.36161,0.9098 2.67533,1.88412 3.9412,2.92299 1.26583,1.03886 2.47772,2.13725 3.63565,3.29516 1.15792,1.15795 2.25631,2.36983 3.29519,3.63567 1.03882,1.26587 2.01313,2.57959 2.92292,3.94115 0.90985,1.36158 1.75073,2.76448 2.52264,4.20868 0.77191,1.44419 1.47119,2.92274 2.09784,4.43563 0.62671,1.51291 1.17773,3.05292 1.65314,4.61997 0.47534,1.56708 0.87274,3.15365 1.1922,4.75973 0.31951,1.60611 0.5595,3.224 0.71997,4.85367 C 521.91974,272.72882 522,274.36246 522,276 Z" /></g><g
           transform="matrix(2.9984424,0,0,2.9984424,1271.3396,773.59814)"
           id="g176"><text
             id="text180"
             style="font-variant:normal;font-weight:normal;font-size:16px;font-family:Helvetica;-inkscape-font-specification:Helvetica;writing-mode:lr-tb;fill:#000000;fill-opacity:1;fill-rule:nonzero;stroke:none"
             transform="translate(8.5,14)"><tspan
               id="tspan178"
               y="0"
               x="0 11.554688 20.453125 24.898438 33.796875 38.242188 47.734375 56.632812 60.1875 69.085938">Data Value</tspan></text>
<text
             id="text184"
             style="font-variant:normal;font-weight:normal;font-size:16px;font-family:Helvetica;-inkscape-font-specification:Helvetica;writing-mode:lr-tb;fill:#000000;fill-opacity:1;fill-rule:nonzero;stroke:none"
             transform="translate(7.46875,33)"><tspan
               id="tspan182"
               y="0"
               x="0 10.671875 18.671875 27.570312 31.125 40.023438 45.351562 54.25 58.695312 62.25 71.148438">Exploration</tspan></text>
</g><g
           transform="scale(2.9984424)"
           id="g186"><path
             id="path188"
             style="fill:none;stroke:#000000;stroke-width:1;stroke-linecap:butt;stroke-linejoin:miter;stroke-miterlimit:10;stroke-dasharray:none;stroke-opacity:1"
             d="m 278,276 c 0,0 -13.58667,0 -40.75999,0" /><path
             id="path190"
             style="fill:#000000;fill-opacity:1;fill-rule:nonzero;stroke:none"
             d="m 231.24001,276 8,-4 -2,4 2,4 z" /><path
             id="path192"
             style="fill:none;stroke:#000000;stroke-width:1;stroke-linecap:butt;stroke-linejoin:miter;stroke-miterlimit:10;stroke-dasharray:none;stroke-opacity:1"
             d="m 231.24001,276 8,-4 -2,4 2,4 z" /><path
             id="path194"
             style="fill:#ffffff;fill-opacity:1;fill-rule:nonzero;stroke:none"
             d="m 378,276 c 3e-5,1.63754 -0.0802,3.27118 -0.24072,4.90085 -0.16056,1.62967 -0.40055,3.24756 -0.72003,4.85361 -0.31943,1.60611 -0.71683,3.19268 -1.1922,4.75973 -0.47538,1.56708 -1.02643,3.10706 -1.65311,4.61993 -0.62665,1.51291 -1.32593,2.99149 -2.09787,4.43573 -0.77194,1.44419 -1.61282,2.84708 -2.52261,4.20865 -0.90976,1.36161 -1.8841,2.67536 -2.92295,3.9412 -1.03885,1.26583 -2.13727,2.47772 -3.29519,3.63562 -1.1579,1.15792 -2.36979,2.25634 -3.63565,3.29522 -1.26584,1.03882 -2.57956,2.01313 -3.94117,2.92289 -1.36157,0.90982 -2.76446,1.75067 -4.20868,2.52261 -1.44421,0.77194 -2.92279,1.47122 -4.4357,2.0979 -1.5129,0.62668 -3.05285,1.1777 -4.6199,1.65304 -1.56705,0.47538 -3.15362,0.87281 -4.75973,1.19227 -1.60608,0.31948 -3.22397,0.55947 -4.85364,0.72 C 331.27118,325.91974 329.63757,326 328,326 c -1.63757,0 -3.27121,-0.0803 -4.90088,-0.24075 -1.62967,-0.16053 -3.24756,-0.40052 -4.85367,-0.72 -1.60611,-0.31946 -3.19265,-0.71686 -4.75967,-1.19223 -1.56708,-0.47538 -3.10706,-1.0264 -4.61997,-1.65308 -1.5129,-0.62668 -2.99145,-1.32599 -4.43566,-2.09793 -1.44419,-0.77191 -2.84708,-1.61276 -4.20868,-2.52258 -1.36158,-0.90976 -2.6753,-1.88407 -3.94114,-2.92292 -1.26583,-1.03885 -2.47775,-2.13727 -3.63568,-3.29519 -1.15793,-1.1579 -2.25634,-2.36979 -3.29519,-3.63565 -1.03885,-1.26584 -2.01319,-2.57956 -2.92298,-3.94117 -0.90976,-1.36157 -1.75061,-2.76446 -2.52255,-4.20868 -0.77194,-1.44421 -1.47125,-2.92279 -2.09793,-4.4357 -0.62668,-1.51287 -1.17767,-3.05285 -1.65302,-4.6199 -0.47534,-1.56705 -0.87277,-3.15365 -1.19226,-4.75976 -0.31945,-1.60605 -0.55944,-3.22394 -0.71994,-4.85361 C 278.08029,279.27118 278.00003,277.63754 278,276 c 3e-5,-1.63754 0.0803,-3.27118 0.24078,-4.90085 0.1605,-1.62967 0.40049,-3.24756 0.71994,-4.85367 0.31949,-1.60608 0.71692,-3.19265 1.19226,-4.75973 0.47535,-1.56705 1.02634,-3.10706 1.65302,-4.61997 0.62668,-1.51289 1.32599,-2.99144 2.09793,-4.43565 0.77194,-1.4442 1.61279,-2.84709 2.52255,-4.20868 0.90979,-1.36156 1.88413,-2.67526 2.92298,-3.94112 1.03885,-1.26585 2.13726,-2.47773 3.29519,-3.63568 1.15793,-1.15791 2.36985,-2.2563 3.63568,-3.29516 1.26584,-1.03887 2.57956,-2.01319 3.94114,-2.92299 1.3616,-0.90978 2.76449,-1.75063 4.20871,-2.52257 1.44418,-0.77193 2.92273,-1.47124 4.43563,-2.09793 1.51291,-0.62666 3.05289,-1.17766 4.61997,-1.65302 1.56702,-0.47535 3.15356,-0.87277 4.75967,-1.19224 1.60611,-0.31946 3.224,-0.55945 4.85367,-0.71996 1.62967,-0.1605 3.26331,-0.24076 4.90088,-0.24078 1.63757,2e-5 3.27118,0.0803 4.90085,0.24078 1.62967,0.16051 3.24756,0.4005 4.85364,0.71996 1.60611,0.31947 3.19268,0.71689 4.75973,1.19224 1.56705,0.47536 3.107,1.02636 4.6199,1.65302 1.51291,0.62669 2.99149,1.326 4.43573,2.09793 1.44419,0.77194 2.84708,1.61279 4.20865,2.52257 1.36161,0.9098 2.67533,1.88412 3.9412,2.92299 1.26583,1.03886 2.47772,2.13725 3.63562,3.29516 1.15792,1.15795 2.25634,2.36983 3.29519,3.63567 1.03885,1.26587 2.01319,2.57959 2.92295,3.94115 0.90979,1.36158 1.75067,2.76448 2.52261,4.20868 0.77194,1.44419 1.47122,2.92274 2.09787,4.43563 0.62668,1.51291 1.1777,3.05292 1.65308,4.61997 0.47537,1.56708 0.8728,3.15365 1.19223,4.75973 0.31948,1.60611 0.55947,3.224 0.72,4.85367 0.16052,1.62967 0.24078,3.26331 0.24075,4.90085 z" /><path
             id="path196"
             style="fill:none;stroke:#000000;stroke-width:1;stroke-linecap:butt;stroke-linejoin:miter;stroke-miterlimit:10;stroke-dasharray:none;stroke-opacity:1"
             d="m 378,276 c 3e-5,1.63754 -0.0802,3.27118 -0.24072,4.90085 -0.16056,1.62967 -0.40055,3.24756 -0.72003,4.85361 -0.31943,1.60611 -0.71683,3.19268 -1.1922,4.75973 -0.47538,1.56708 -1.02643,3.10706 -1.65311,4.61993 -0.62665,1.51291 -1.32593,2.99149 -2.09787,4.43573 -0.77194,1.44419 -1.61282,2.84708 -2.52261,4.20865 -0.90976,1.36161 -1.8841,2.67536 -2.92295,3.9412 -1.03885,1.26583 -2.13727,2.47772 -3.29519,3.63562 -1.1579,1.15792 -2.36979,2.25634 -3.63565,3.29522 -1.26584,1.03882 -2.57956,2.01313 -3.94117,2.92289 -1.36157,0.90982 -2.76446,1.75067 -4.20868,2.52261 -1.44421,0.77194 -2.92279,1.47122 -4.4357,2.0979 -1.5129,0.62668 -3.05285,1.1777 -4.6199,1.65304 -1.56705,0.47538 -3.15362,0.87281 -4.75973,1.19227 -1.60608,0.31948 -3.22397,0.55947 -4.85364,0.72 C 331.27118,325.91974 329.63757,326 328,326 c -1.63757,0 -3.27121,-0.0803 -4.90088,-0.24075 -1.62967,-0.16053 -3.24756,-0.40052 -4.85367,-0.72 -1.60611,-0.31946 -3.19265,-0.71686 -4.75967,-1.19223 -1.56708,-0.47538 -3.10706,-1.0264 -4.61997,-1.65308 -1.5129,-0.62668 -2.99145,-1.32599 -4.43566,-2.09793 -1.44419,-0.77191 -2.84708,-1.61276 -4.20868,-2.52258 -1.36158,-0.90976 -2.6753,-1.88407 -3.94114,-2.92292 -1.26583,-1.03885 -2.47775,-2.13727 -3.63568,-3.29519 -1.15793,-1.1579 -2.25634,-2.36979 -3.29519,-3.63565 -1.03885,-1.26584 -2.01319,-2.57956 -2.92298,-3.94117 -0.90976,-1.36157 -1.75061,-2.76446 -2.52255,-4.20868 -0.77194,-1.44421 -1.47125,-2.92279 -2.09793,-4.4357 -0.62668,-1.51287 -1.17767,-3.05285 -1.65302,-4.6199 -0.47534,-1.56705 -0.87277,-3.15365 -1.19226,-4.75976 -0.31945,-1.60605 -0.55944,-3.22394 -0.71994,-4.85361 C 278.08029,279.27118 278.00003,277.63754 278,276 c 3e-5,-1.63754 0.0803,-3.27118 0.24078,-4.90085 0.1605,-1.62967 0.40049,-3.24756 0.71994,-4.85367 0.31949,-1.60608 0.71692,-3.19265 1.19226,-4.75973 0.47535,-1.56705 1.02634,-3.10706 1.65302,-4.61997 0.62668,-1.51289 1.32599,-2.99144 2.09793,-4.43565 0.77194,-1.4442 1.61279,-2.84709 2.52255,-4.20868 0.90979,-1.36156 1.88413,-2.67526 2.92298,-3.94112 1.03885,-1.26585 2.13726,-2.47773 3.29519,-3.63568 1.15793,-1.15791 2.36985,-2.2563 3.63568,-3.29516 1.26584,-1.03887 2.57956,-2.01319 3.94114,-2.92299 1.3616,-0.90978 2.76449,-1.75063 4.20871,-2.52257 1.44418,-0.77193 2.92273,-1.47124 4.43563,-2.09793 1.51291,-0.62666 3.05289,-1.17766 4.61997,-1.65302 1.56702,-0.47535 3.15356,-0.87277 4.75967,-1.19224 1.60611,-0.31946 3.224,-0.55945 4.85367,-0.71996 1.62967,-0.1605 3.26331,-0.24076 4.90088,-0.24078 1.63757,2e-5 3.27118,0.0803 4.90085,0.24078 1.62967,0.16051 3.24756,0.4005 4.85364,0.71996 1.60611,0.31947 3.19268,0.71689 4.75973,1.19224 1.56705,0.47536 3.107,1.02636 4.6199,1.65302 1.51291,0.62669 2.99149,1.326 4.43573,2.09793 1.44419,0.77194 2.84708,1.61279 4.20865,2.52257 1.36161,0.9098 2.67533,1.88412 3.9412,2.92299 1.26583,1.03886 2.47772,2.13725 3.63562,3.29516 1.15792,1.15795 2.25634,2.36983 3.29519,3.63567 1.03885,1.26587 2.01319,2.57959 2.92295,3.94115 0.90979,1.36158 1.75067,2.76448 2.52261,4.20868 0.77194,1.44419 1.47122,2.92274 2.09787,4.43563 0.62668,1.51291 1.1777,3.05292 1.65308,4.61997 0.47537,1.56708 0.8728,3.15365 1.19223,4.75973 0.31948,1.60611 0.55947,3.224 0.72,4.85367 0.16052,1.62967 0.24078,3.26331 0.24075,4.90085 z" /></g><g
           transform="matrix(2.9984424,0,0,2.9984424,839.5639,773.59814)"
           id="g198"><text
             id="text202"
             style="font-variant:normal;font-weight:normal;font-size:16px;font-family:Helvetica;-inkscape-font-specification:Helvetica;writing-mode:lr-tb;fill:#000000;fill-opacity:1;fill-rule:nonzero;stroke:none"
             transform="translate(3.03125,14)"><tspan
               id="tspan200"
               y="0"
               x="0 11.554688 20.453125 24.898438 33.796875 38.242188 48.914062 57.8125 66.710938 72.039062 80.039062">Data Source</tspan></text>
<text
             id="text206"
             style="font-variant:normal;font-weight:normal;font-size:16px;font-family:Helvetica;-inkscape-font-specification:Helvetica;writing-mode:lr-tb;fill:#000000;fill-opacity:1;fill-rule:nonzero;stroke:none"
             transform="translate(7.46875,33)"><tspan
               id="tspan204"
               y="0"
               x="0 10.671875 18.671875 27.570312 31.125 40.023438 45.351562 54.25 58.695312 62.25 71.148438">Exploration</tspan></text>
</g><g
           transform="scale(2.9984424)"
           id="g208"><path
             id="path210"
             style="fill:none;stroke:#000000;stroke-width:1;stroke-linecap:butt;stroke-linejoin:miter;stroke-miterlimit:10;stroke-dasharray:none;stroke-opacity:1"
             d="M 69,276 C 43.666664,276 31,256.08002 31,216.24001" /><path
             id="path212"
             style="fill:#000000;fill-opacity:1;fill-rule:nonzero;stroke:none"
             d="m 31,210.24001 4,8 -4,-2 -4,2 z" /><path
             id="path214"
             style="fill:none;stroke:#000000;stroke-width:1;stroke-linecap:butt;stroke-linejoin:miter;stroke-miterlimit:10;stroke-dasharray:none;stroke-opacity:1"
             d="m 31,210.24001 4,8 -4,-2 -4,2 z" /><path
             id="path216"
             style="fill:#ffffff;fill-opacity:1;fill-rule:nonzero;stroke:none"
             d="m 69,258 c 0,-16 160,-16 160,0 v 36 c 0,16 -160,16 -160,0 z" /><path
             id="path218"
             style="fill:none;stroke:#000000;stroke-width:1;stroke-linecap:butt;stroke-linejoin:miter;stroke-miterlimit:10;stroke-dasharray:none;stroke-opacity:1"
             d="m 69,258 c 0,-16 160,-16 160,0 v 36 c 0,16 -160,16 -160,0 z" /><path
             id="path220"
             style="fill:none;stroke:#000000;stroke-width:1;stroke-linecap:butt;stroke-linejoin:miter;stroke-miterlimit:10;stroke-dasharray:none;stroke-opacity:1"
             d="m 69,258 c 0,12 160,12 160,0" /></g><g
           transform="matrix(2.9984424,0,0,2.9984424,272.85825,827.57013)"
           id="g222"><text
             id="text226"
             style="font-variant:normal;font-weight:normal;font-size:16px;font-family:Helvetica;-inkscape-font-specification:Helvetica;writing-mode:lr-tb;fill:#000000;fill-opacity:1;fill-rule:nonzero;stroke:none"
             transform="translate(0.6875,14)"><tspan
               id="tspan224"
               y="0"
               x="0 11.554688 20.453125 24.898438 33.796875 38.242188 48.914062 56.914062 65.8125 74.710938 78.265625 86.265625 89.820312 94.265625 97.820312 106.71875">Data Acquisition</tspan></text>
</g><g
           transform="matrix(2.9984424,0,0,2.9984424,413.78506,65.965736)"
           id="g228"><text
             id="text232"
             style="font-variant:normal;font-weight:bold;font-size:16px;font-family:Helvetica;-inkscape-font-specification:Helvetica-Bold;writing-mode:lr-tb;fill:#000000;fill-opacity:1;fill-rule:nonzero;stroke:none"
             transform="translate(0,14)"><tspan
               id="tspan230"
               y="0"
               x="0">0</tspan></text>
</g><g
           transform="scale(2.9984424)"
           id="g234"><path
             id="path236"
             style="fill:none;stroke:#000000;stroke-width:1;stroke-linecap:butt;stroke-linejoin:miter;stroke-miterlimit:10;stroke-dasharray:none;stroke-opacity:1"
             d="m 124.6,41.790001 h 32.76999" /><path
             id="path238"
             style="fill:#000000;fill-opacity:1;fill-rule:nonzero;stroke:none"
             d="m 163.36999,41.790001 -8,4 2,-4 -2,-4 z" /><path
             id="path240"
             style="fill:none;stroke:#000000;stroke-width:1;stroke-linecap:butt;stroke-linejoin:miter;stroke-miterlimit:10;stroke-dasharray:none;stroke-opacity:1"
             d="m 163.36999,41.790001 -8,4 2,-4 -2,-4 z" /></g><g
           transform="matrix(2.9984424,0,0,2.9984424,881.54205,59.968849)"
           id="g242"><text
             id="text246"
             style="font-variant:normal;font-weight:bold;font-size:16px;font-family:Helvetica;-inkscape-font-specification:Helvetica-Bold;writing-mode:lr-tb;fill:#000000;fill-opacity:1;fill-rule:nonzero;stroke:none"
             transform="translate(0,14)"><tspan
               id="tspan244"
               y="0"
               x="0">1</tspan></text>
</g><g
           transform="matrix(2.9984424,0,0,2.9984424,1145.405,269.8598)"
           id="g248"><text
             id="text252"
             style="font-variant:normal;font-weight:bold;font-size:16px;font-family:Helvetica;-inkscape-font-specification:Helvetica-Bold;writing-mode:lr-tb;fill:#000000;fill-opacity:1;fill-rule:nonzero;stroke:none"
             transform="translate(0,14)"><tspan
               id="tspan250"
               y="0"
               x="0">2</tspan></text>
</g><g
           transform="matrix(2.9984424,0,0,2.9984424,383.80063,434.77414)"
           id="g254"><text
             id="text258"
             style="font-variant:normal;font-weight:bold;font-size:16px;font-family:Helvetica;-inkscape-font-specification:Helvetica-Bold;writing-mode:lr-tb;fill:#000000;fill-opacity:1;fill-rule:nonzero;stroke:none"
             transform="translate(0,14)"><tspan
               id="tspan256"
               y="0"
               x="0 8.8984375 13.34375 22.242188">3,10</tspan></text>
</g><g
           transform="matrix(2.9984424,0,0,2.9984424,872.54675,434.77414)"
           id="g260"><text
             id="text264"
             style="font-variant:normal;font-weight:bold;font-size:16px;font-family:Helvetica;-inkscape-font-specification:Helvetica-Bold;writing-mode:lr-tb;fill:#000000;fill-opacity:1;fill-rule:nonzero;stroke:none"
             transform="translate(0,14)"><tspan
               id="tspan262"
               y="0"
               x="0 8.8984375 13.34375 21.367188">4,11</tspan></text>
</g><g
           transform="matrix(2.9984424,0,0,2.9984424,1346.3007,434.77414)"
           id="g266"><text
             id="text270"
             style="font-variant:normal;font-weight:bold;font-size:16px;font-family:Helvetica;-inkscape-font-specification:Helvetica-Bold;writing-mode:lr-tb;fill:#000000;fill-opacity:1;fill-rule:nonzero;stroke:none"
             transform="translate(0,14)"><tspan
               id="tspan268"
               y="0"
               x="0 8.8984375 13.34375 22.242188">5,12</tspan></text>
</g><g
           transform="matrix(2.9984424,0,0,2.9984424,1664.1355,680.64642)"
           id="g272"><text
             id="text276"
             style="font-variant:normal;font-weight:bold;font-size:16px;font-family:Helvetica;-inkscape-font-specification:Helvetica-Bold;writing-mode:lr-tb;fill:#000000;fill-opacity:1;fill-rule:nonzero;stroke:none"
             transform="translate(0,14)"><tspan
               id="tspan274"
               y="0"
               x="0">6</tspan></text>
</g><g
           transform="matrix(2.9984424,0,0,2.9984424,1193.3801,746.61218)"
           id="g278"><text
             id="text282"
             style="font-variant:normal;font-weight:bold;font-size:16px;font-family:Helvetica;-inkscape-font-specification:Helvetica-Bold;writing-mode:lr-tb;fill:#000000;fill-opacity:1;fill-rule:nonzero;stroke:none"
             transform="translate(0,14)"><tspan
               id="tspan280"
               y="0"
               x="0">7</tspan></text>
</g><g
           transform="matrix(2.9984424,0,0,2.9984424,749.6106,746.61218)"
           id="g284"><text
             id="text288"
             style="font-variant:normal;font-weight:bold;font-size:16px;font-family:Helvetica;-inkscape-font-specification:Helvetica-Bold;writing-mode:lr-tb;fill:#000000;fill-opacity:1;fill-rule:nonzero;stroke:none"
             transform="translate(0,14)"><tspan
               id="tspan286"
               y="0"
               x="0">8</tspan></text>
</g><g
           transform="matrix(2.9984424,0,0,2.9984424,47.975079,686.64331)"
           id="g290"><text
             id="text294"
             style="font-variant:normal;font-weight:bold;font-size:16px;font-family:Helvetica;-inkscape-font-specification:Helvetica-Bold;writing-mode:lr-tb;fill:#000000;fill-opacity:1;fill-rule:nonzero;stroke:none"
             transform="translate(0,14)"><tspan
               id="tspan292"
               y="0"
               x="0">9</tspan></text>
</g><g
           transform="matrix(2.9984424,0,0,2.9984424,1835.0468,434.77414)"
           id="g296"><text
             id="text300"
             style="font-variant:normal;font-weight:bold;font-size:16px;font-family:Helvetica;-inkscape-font-specification:Helvetica-Bold;writing-mode:lr-tb;fill:#000000;fill-opacity:1;fill-rule:nonzero;stroke:none"
             transform="translate(0,14)"><tspan
               id="tspan298"
               y="0"
               x="0 8.8984375">13</tspan></text>
</g></g></g></g></svg>