<?xml version="1.0" encoding="UTF-8" standalone="no"?>
<svg
   xmlns:dc="http://purl.org/dc/elements/1.1/"
   xmlns:cc="http://creativecommons.org/ns#"
   xmlns:rdf="http://www.w3.org/1999/02/22-rdf-syntax-ns#"
   xmlns:svg="http://www.w3.org/2000/svg"
   xmlns="http://www.w3.org/2000/svg"
   viewBox="0 0 653.44 98.559998"
   height="98.559998"
   width="653.44"
   xml:space="preserve"
   id="svg2"
   version="1.1"><metadata
     id="metadata8"><rdf:RDF><cc:Work
         rdf:about=""><dc:format>image/svg+xml</dc:format><dc:type
           rdf:resource="http://purl.org/dc/dcmitype/StillImage" /></cc:Work></rdf:RDF></metadata><defs
     id="defs6"><clipPath
       id="clipPath18"
       clipPathUnits="userSpaceOnUse"><path
         style="clip-rule:evenodd"
         id="path16"
         d="M 0,0 H 2041.667 V 305.8 H 0 Z" /></clipPath><clipPath
       id="clipPath30"
       clipPathUnits="userSpaceOnUse"><path
         style="clip-rule:evenodd"
         id="path28"
         d="M 0,0 H 2041.667 V 305.8 H 0 Z" /></clipPath><clipPath
       id="clipPath182"
       clipPathUnits="userSpaceOnUse"><path
         style="clip-rule:evenodd"
         id="path180"
         d="M 0,0 H 2041.667 V 305.8 H 0 Z" /></clipPath></defs><g
     transform="matrix(1.3333333,0,0,-1.3333333,0,98.559997)"
     id="g10"><g
       transform="matrix(0.24,0,0,-0.24,0,73.919998)"
       id="g12"><g
         clip-path="url(#clipPath18)"
         id="g14"><g
           transform="scale(2.9980421)"
           id="g20"><path
             id="path22"
             style="fill:#ffffff;fill-opacity:1;fill-rule:nonzero;stroke:none"
             d="M 0,0 H 681 V 102 H 0 Z" /></g></g></g><g
       transform="matrix(0.24,0,0,-0.24,0,73.919998)"
       id="g24"><g
         clip-path="url(#clipPath30)"
         id="g26"><g
           transform="scale(2.9980421)"
           id="g32"><g
             transform="translate(494,51)"
             id="g34"><path
               id="path36"
               style="fill:none;stroke:#000000;stroke-width:2;stroke-linecap:butt;stroke-linejoin:miter;stroke-miterlimit:10;stroke-dasharray:none;stroke-opacity:1"
               d="M 0,0 H 20 19 30.76" /></g><g
             transform="translate(530.76,51)"
             id="g38"><path
               id="path40"
               style="fill:#000000;fill-opacity:1;fill-rule:nonzero;stroke:none"
               d="M 0,0 -8,4 -6,0 -8,-4 Z" /></g><g
             transform="translate(530.76,51)"
             id="g42"><path
               id="path44"
               style="fill:none;stroke:#000000;stroke-width:2;stroke-linecap:butt;stroke-linejoin:miter;stroke-miterlimit:10;stroke-dasharray:none;stroke-opacity:1"
               d="M 0,0 -8,4 -6,0 -8,-4 Z" /></g><g
             transform="translate(386.15,10.5)"
             id="g46"><path
               id="path48"
               style="fill:#ffffff;fill-opacity:1;fill-rule:nonzero;stroke:none"
               d="m 0,0 h 95.7 c 0.798,0 1.588,0.078 2.37,0.233 0.783,0.156 1.543,0.387 2.28,0.692 0.737,0.305 1.437,0.679 2.1,1.123 0.663,0.443 1.277,0.947 1.841,1.511 0.564,0.564 1.068,1.177 1.511,1.841 0.444,0.663 0.818,1.363 1.123,2.1 0.305,0.737 0.536,1.497 0.691,2.28 0.156,0.782 0.234,1.572 0.234,2.37 v 56.7 c 0,0.798 -0.078,1.588 -0.233,2.37 -0.156,0.783 -0.387,1.543 -0.692,2.28 -0.305,0.737 -0.679,1.437 -1.123,2.1 -0.443,0.664 -0.947,1.277 -1.511,1.841 -0.564,0.564 -1.178,1.068 -1.841,1.511 -0.663,0.444 -1.363,0.818 -2.1,1.123 -0.737,0.305 -1.497,0.536 -2.28,0.692 C 97.288,80.922 96.498,81 95.7,81 H 0 c -0.798,0 -1.588,-0.078 -2.37,-0.233 -0.783,-0.156 -1.543,-0.387 -2.28,-0.692 -0.737,-0.305 -1.437,-0.679 -2.1,-1.123 -0.664,-0.443 -1.277,-0.947 -1.841,-1.511 -0.564,-0.564 -1.068,-1.177 -1.511,-1.841 -0.444,-0.663 -0.818,-1.363 -1.123,-2.1 -0.305,-0.737 -0.536,-1.497 -0.692,-2.28 -0.155,-0.782 -0.233,-1.572 -0.233,-2.37 v -56.7 c 0,-0.798 0.078,-1.588 0.233,-2.37 0.156,-0.783 0.386,-1.543 0.692,-2.28 0.305,-0.737 0.679,-1.437 1.123,-2.1 C -9.659,4.736 -9.155,4.123 -8.591,3.559 -8.027,2.995 -7.414,2.491 -6.75,2.048 -6.087,1.604 -5.387,1.23 -4.65,0.925 -3.913,0.62 -3.153,0.389 -2.37,0.233 -1.588,0.078 -0.798,0 0,0 Z" /></g><g
             transform="translate(386.15,10.5)"
             id="g50"><path
               id="path52"
               style="fill:none;stroke:#000000;stroke-width:2;stroke-linecap:butt;stroke-linejoin:miter;stroke-miterlimit:4;stroke-dasharray:none;stroke-opacity:1"
               d="m 0,0 h 95.7 c 0.798,0 1.588,0.078 2.37,0.233 0.783,0.156 1.543,0.387 2.28,0.692 0.737,0.305 1.437,0.679 2.1,1.123 0.663,0.443 1.277,0.947 1.841,1.511 0.564,0.564 1.068,1.177 1.511,1.841 0.444,0.663 0.818,1.363 1.123,2.1 0.305,0.737 0.536,1.497 0.691,2.28 0.156,0.782 0.234,1.572 0.234,2.37 v 56.7 c 0,0.798 -0.078,1.588 -0.233,2.37 -0.156,0.783 -0.387,1.543 -0.692,2.28 -0.305,0.737 -0.679,1.437 -1.123,2.1 -0.443,0.664 -0.947,1.277 -1.511,1.841 -0.564,0.564 -1.178,1.068 -1.841,1.511 -0.663,0.444 -1.363,0.818 -2.1,1.123 -0.737,0.305 -1.497,0.536 -2.28,0.692 C 97.288,80.922 96.498,81 95.7,81 H 0 c -0.798,0 -1.588,-0.078 -2.37,-0.233 -0.783,-0.156 -1.543,-0.387 -2.28,-0.692 -0.737,-0.305 -1.437,-0.679 -2.1,-1.123 -0.664,-0.443 -1.277,-0.947 -1.841,-1.511 -0.564,-0.564 -1.068,-1.177 -1.511,-1.841 -0.444,-0.663 -0.818,-1.363 -1.123,-2.1 -0.305,-0.737 -0.536,-1.497 -0.692,-2.28 -0.155,-0.782 -0.233,-1.572 -0.233,-2.37 v -56.7 c 0,-0.798 0.078,-1.588 0.233,-2.37 0.156,-0.783 0.386,-1.543 0.692,-2.28 0.305,-0.737 0.679,-1.437 1.123,-2.1 C -9.659,4.736 -9.155,4.123 -8.591,3.559 -8.027,2.995 -7.414,2.491 -6.75,2.048 -6.087,1.604 -5.387,1.23 -4.65,0.925 -3.913,0.62 -3.153,0.389 -2.37,0.233 -1.588,0.078 -0.798,0 0,0 Z" /></g><g
             transform="matrix(1.389796,0,0,-1.389796,0,102.73372)"
             id="g54"><text
               id="text60"
               style="font-variant:normal;font-weight:normal;font-size:11.51200008px;font-family:Helvetica;-inkscape-font-specification:Helvetica;writing-mode:lr-tb;fill:#000000;fill-opacity:1;fill-rule:nonzero;stroke:none"
               transform="matrix(1,0,0,-1,299.7517,40.1021)"><tspan
                 id="tspan56"
                 y="0"
                 x="0 8.3135977 14.716023 17.914425">Data</tspan><tspan
                 id="tspan58"
                 y="13.6705"
                 x="-17.593933 -9.9155197 -6.0819335 0.32049224 6.722918 13.125343 16.958929 23.361355 26.559757 29.117355 35.519779">Preparation</tspan></text>
<g
               transform="matrix(0.7195301,0,0,-0.7195301,0,73.919998)"
               id="g62"><g
                 transform="translate(633,51)"
                 id="g64"><path
                   id="path66"
                   style="fill:none;stroke:#000000;stroke-width:2;stroke-linecap:butt;stroke-linejoin:miter;stroke-miterlimit:10;stroke-dasharray:none;stroke-opacity:1"
                   d="m 0,0 h 20 l 8.77,-0.11" /></g></g><g
               transform="matrix(0.7195301,0,0,-0.7195301,0,73.919998)"
               id="g68"><g
                 transform="translate(667.76,50.82)"
                 id="g70"><path
                   id="path72"
                   style="fill:#000000;fill-opacity:1;fill-rule:nonzero;stroke:none"
                   d="M 0,0 -7.95,4.1 -5.99,0.07 -8.04,-3.9 Z" /></g></g><g
               transform="matrix(0.7195301,0,0,-0.7195301,0,73.919998)"
               id="g74"><g
                 transform="translate(667.76,50.82)"
                 id="g76"><path
                   id="path78"
                   style="fill:none;stroke:#000000;stroke-width:2;stroke-linecap:butt;stroke-linejoin:miter;stroke-miterlimit:10;stroke-dasharray:none;stroke-opacity:1"
                   d="M 0,0 -7.95,4.1 -5.99,0.07 -8.04,-3.9 Z" /></g></g><g
               transform="matrix(0.7195301,0,0,-0.7195301,0,73.919998)"
               id="g80"><g
                 transform="translate(633,51)"
                 id="g82"><path
                   id="path84"
                   style="fill:#ffffff;fill-opacity:1;fill-rule:nonzero;stroke:none"
                   d="m 0,0 c 0,1.638 -0.08,3.271 -0.241,4.901 -0.16,1.63 -0.4,3.247 -0.72,4.854 -0.319,1.606 -0.717,3.192 -1.192,4.759 -0.475,1.567 -1.026,3.107 -1.653,4.62 -0.627,1.513 -1.326,2.992 -2.098,4.436 -0.772,1.444 -1.613,2.847 -2.523,4.209 -0.909,1.361 -1.884,2.675 -2.922,3.941 -1.039,1.266 -2.138,2.477 -3.296,3.635 -1.158,1.158 -2.37,2.257 -3.635,3.296 -1.266,1.038 -2.58,2.013 -3.941,2.922 -1.362,0.91 -2.765,1.751 -4.209,2.523 -1.444,0.772 -2.923,1.471 -4.436,2.098 -1.513,0.627 -3.053,1.178 -4.62,1.653 -1.567,0.475 -3.153,0.873 -4.759,1.192 -1.607,0.32 -3.224,0.56 -4.854,0.72 C -46.729,49.92 -48.362,50 -50,50 c -1.638,0 -3.271,-0.08 -4.901,-0.241 -1.63,-0.16 -3.247,-0.4 -4.854,-0.72 -1.606,-0.319 -3.192,-0.717 -4.759,-1.192 -1.567,-0.475 -3.107,-1.026 -4.62,-1.653 -1.513,-0.627 -2.992,-1.326 -4.436,-2.098 -1.444,-0.772 -2.847,-1.613 -4.209,-2.523 -1.361,-0.909 -2.675,-1.884 -3.941,-2.922 -1.265,-1.039 -2.477,-2.138 -3.635,-3.296 -1.158,-1.158 -2.257,-2.369 -3.296,-3.635 -1.038,-1.266 -2.013,-2.58 -2.922,-3.941 -0.91,-1.362 -1.751,-2.765 -2.523,-4.209 -0.772,-1.444 -1.471,-2.923 -2.098,-4.436 -0.627,-1.513 -1.178,-3.053 -1.653,-4.62 -0.475,-1.567 -0.873,-3.153 -1.192,-4.759 -0.32,-1.607 -0.56,-3.224 -0.72,-4.854 C -99.92,3.271 -100,1.638 -100,0 c 0,-1.638 0.08,-3.271 0.241,-4.901 0.16,-1.63 0.4,-3.247 0.72,-4.854 0.319,-1.606 0.717,-3.192 1.192,-4.759 0.475,-1.567 1.026,-3.107 1.653,-4.62 0.627,-1.513 1.326,-2.992 2.098,-4.436 0.772,-1.444 1.613,-2.847 2.523,-4.209 0.909,-1.361 1.884,-2.675 2.922,-3.941 1.039,-1.266 2.138,-2.477 3.296,-3.635 1.158,-1.158 2.37,-2.257 3.635,-3.296 1.266,-1.038 2.58,-2.013 3.941,-2.922 1.362,-0.91 2.765,-1.751 4.209,-2.523 1.444,-0.772 2.923,-1.471 4.436,-2.098 1.513,-0.627 3.053,-1.178 4.62,-1.653 1.567,-0.475 3.153,-0.873 4.759,-1.192 1.607,-0.32 3.224,-0.56 4.854,-0.72 1.63,-0.161 3.263,-0.241 4.901,-0.241 1.638,0 3.271,0.08 4.901,0.241 1.63,0.16 3.247,0.4 4.854,0.72 1.606,0.319 3.192,0.717 4.759,1.192 1.567,0.475 3.107,1.026 4.62,1.653 1.513,0.627 2.992,1.326 4.436,2.098 1.444,0.772 2.847,1.613 4.209,2.523 1.361,0.909 2.675,1.884 3.941,2.922 1.265,1.039 2.477,2.138 3.635,3.296 1.158,1.158 2.257,2.369 3.296,3.635 1.038,1.266 2.013,2.58 2.922,3.941 0.91,1.362 1.751,2.765 2.523,4.209 0.772,1.444 1.471,2.923 2.098,4.436 0.627,1.513 1.178,3.053 1.653,4.62 0.475,1.567 0.873,3.153 1.192,4.759 0.32,1.607 0.56,3.224 0.72,4.854 C -0.08,-3.271 0,-1.638 0,0 Z" /></g></g><g
               transform="matrix(0.7195301,0,0,-0.7195301,0,73.919998)"
               id="g86"><g
                 transform="translate(633,51)"
                 id="g88"><path
                   id="path90"
                   style="fill:none;stroke:#000000;stroke-width:2;stroke-linecap:butt;stroke-linejoin:miter;stroke-miterlimit:4;stroke-dasharray:none;stroke-opacity:1"
                   d="m 0,0 c 0,1.638 -0.08,3.271 -0.241,4.901 -0.16,1.63 -0.4,3.247 -0.72,4.854 -0.319,1.606 -0.717,3.192 -1.192,4.759 -0.475,1.567 -1.026,3.107 -1.653,4.62 -0.627,1.513 -1.326,2.992 -2.098,4.436 -0.772,1.444 -1.613,2.847 -2.523,4.209 -0.909,1.361 -1.884,2.675 -2.922,3.941 -1.039,1.266 -2.138,2.477 -3.296,3.635 -1.158,1.158 -2.37,2.257 -3.635,3.296 -1.266,1.038 -2.58,2.013 -3.941,2.922 -1.362,0.91 -2.765,1.751 -4.209,2.523 -1.444,0.772 -2.923,1.471 -4.436,2.098 -1.513,0.627 -3.053,1.178 -4.62,1.653 -1.567,0.475 -3.153,0.873 -4.759,1.192 -1.607,0.32 -3.224,0.56 -4.854,0.72 C -46.729,49.92 -48.362,50 -50,50 c -1.638,0 -3.271,-0.08 -4.901,-0.241 -1.63,-0.16 -3.247,-0.4 -4.854,-0.72 -1.606,-0.319 -3.192,-0.717 -4.759,-1.192 -1.567,-0.475 -3.107,-1.026 -4.62,-1.653 -1.513,-0.627 -2.992,-1.326 -4.436,-2.098 -1.444,-0.772 -2.847,-1.613 -4.209,-2.523 -1.361,-0.909 -2.675,-1.884 -3.941,-2.922 -1.265,-1.039 -2.477,-2.138 -3.635,-3.296 -1.158,-1.158 -2.257,-2.369 -3.296,-3.635 -1.038,-1.266 -2.013,-2.58 -2.922,-3.941 -0.91,-1.362 -1.751,-2.765 -2.523,-4.209 -0.772,-1.444 -1.471,-2.923 -2.098,-4.436 -0.627,-1.513 -1.178,-3.053 -1.653,-4.62 -0.475,-1.567 -0.873,-3.153 -1.192,-4.759 -0.32,-1.607 -0.56,-3.224 -0.72,-4.854 C -99.92,3.271 -100,1.638 -100,0 c 0,-1.638 0.08,-3.271 0.241,-4.901 0.16,-1.63 0.4,-3.247 0.72,-4.854 0.319,-1.606 0.717,-3.192 1.192,-4.759 0.475,-1.567 1.026,-3.107 1.653,-4.62 0.627,-1.513 1.326,-2.992 2.098,-4.436 0.772,-1.444 1.613,-2.847 2.523,-4.209 0.909,-1.361 1.884,-2.675 2.922,-3.941 1.039,-1.266 2.138,-2.477 3.296,-3.635 1.158,-1.158 2.37,-2.257 3.635,-3.296 1.266,-1.038 2.58,-2.013 3.941,-2.922 1.362,-0.91 2.765,-1.751 4.209,-2.523 1.444,-0.772 2.923,-1.471 4.436,-2.098 1.513,-0.627 3.053,-1.178 4.62,-1.653 1.567,-0.475 3.153,-0.873 4.759,-1.192 1.607,-0.32 3.224,-0.56 4.854,-0.72 1.63,-0.161 3.263,-0.241 4.901,-0.241 1.638,0 3.271,0.08 4.901,0.241 1.63,0.16 3.247,0.4 4.854,0.72 1.606,0.319 3.192,0.717 4.759,1.192 1.567,0.475 3.107,1.026 4.62,1.653 1.513,0.627 2.992,1.326 4.436,2.098 1.444,0.772 2.847,1.613 4.209,2.523 1.361,0.909 2.675,1.884 3.941,2.922 1.265,1.039 2.477,2.138 3.635,3.296 1.158,1.158 2.257,2.369 3.296,3.635 1.038,1.266 2.013,2.58 2.922,3.941 0.91,1.362 1.751,2.765 2.523,4.209 0.772,1.444 1.471,2.923 2.098,4.436 0.627,1.513 1.178,3.053 1.653,4.62 0.475,1.567 0.873,3.153 1.192,4.759 0.32,1.607 0.56,3.224 0.72,4.854 C -0.08,-3.271 0,-1.638 0,0 Z" /></g></g><text
               id="text96"
               style="font-variant:normal;font-weight:normal;font-size:11.51200008px;font-family:Helvetica;-inkscape-font-specification:Helvetica;writing-mode:lr-tb;fill:#000000;fill-opacity:1;fill-rule:nonzero;stroke:none"
               transform="matrix(1,0,0,-1,399.283,40.1021)"><tspan
                 id="tspan92"
                 y="0"
                 x="0 7.6784139 11.512 17.914425 24.316851 30.719276 36.475277">Product</tspan><tspan
                 id="tspan94"
                 y="13.6705"
                 x="-8.9599333 -1.2815194 4.4744806 10.876906 13.434504 19.836929 23.670515 30.072941 33.271343 35.828941 42.231369">Exploration</tspan></text>
<g
               transform="matrix(0.7195301,0,0,-0.7195301,0,73.919998)"
               id="g98"><g
                 transform="translate(328,51)"
                 id="g100"><path
                   id="path102"
                   style="fill:none;stroke:#000000;stroke-width:2;stroke-linecap:butt;stroke-linejoin:miter;stroke-miterlimit:10;stroke-dasharray:none;stroke-opacity:1"
                   d="M 0,0 H 37.76" /></g></g><g
               transform="matrix(0.7195301,0,0,-0.7195301,0,73.919998)"
               id="g104"><g
                 transform="translate(371.76,51)"
                 id="g106"><path
                   id="path108"
                   style="fill:#000000;fill-opacity:1;fill-rule:nonzero;stroke:none"
                   d="M 0,0 -8,4 -6,0 -8,-4 Z" /></g></g><g
               transform="matrix(0.7195301,0,0,-0.7195301,0,73.919998)"
               id="g110"><g
                 transform="translate(371.76,51)"
                 id="g112"><path
                   id="path114"
                   style="fill:none;stroke:#000000;stroke-width:2;stroke-linecap:butt;stroke-linejoin:miter;stroke-miterlimit:10;stroke-dasharray:none;stroke-opacity:1"
                   d="M 0,0 -8,4 -6,0 -8,-4 Z" /></g></g><g
               transform="matrix(0.7195301,0,0,-0.7195301,0,73.919998)"
               id="g116"><g
                 transform="translate(189,33)"
                 id="g118"><path
                   id="path120"
                   style="fill:#ffffff;fill-opacity:1;fill-rule:nonzero;stroke:none"
                   d="M 0,0 C 0,-16 139,-16 139,0 V 36 C 139,52 0,52 0,36 Z" /></g></g><g
               transform="matrix(0.7195301,0,0,-0.7195301,0,73.919998)"
               id="g122"><g
                 transform="translate(189,33)"
                 id="g124"><path
                   id="path126"
                   style="fill:none;stroke:#000000;stroke-width:2;stroke-linecap:butt;stroke-linejoin:miter;stroke-miterlimit:10;stroke-dasharray:none;stroke-opacity:1"
                   d="M 0,0 C 0,-16 139,-16 139,0 V 36 C 139,52 0,52 0,36 Z" /></g></g><g
               transform="matrix(0.7195301,0,0,-0.7195301,0,73.919998)"
               id="g128"><g
                 transform="translate(189,33)"
                 id="g130"><path
                   id="path132"
                   style="fill:none;stroke:#000000;stroke-width:2;stroke-linecap:butt;stroke-linejoin:miter;stroke-miterlimit:10;stroke-dasharray:none;stroke-opacity:1"
                   d="M 0,0 C 0,12 139,12 139,0" /></g></g><text
               id="text136"
               style="font-variant:normal;font-weight:normal;font-size:11.51200008px;font-family:Helvetica;-inkscape-font-specification:Helvetica;writing-mode:lr-tb;fill:#000000;fill-opacity:1;fill-rule:nonzero;stroke:none"
               transform="matrix(1,0,0,-1,144.0409,27.1505)"><tspan
                 id="tspan134"
                 y="0"
                 x="0 8.3135977 14.716023 17.914425 24.316851 27.515253 35.193668 40.949669 47.352093 53.75452 56.312119 62.068115 64.625717 67.82412 70.381714 76.784142">Data Acquisition</tspan></text>
<g
               transform="matrix(0.7195301,0,0,-0.7195301,0,73.919998)"
               id="g138"><g
                 transform="translate(148,51)"
                 id="g140"><path
                   id="path142"
                   style="fill:none;stroke:#000000;stroke-width:2;stroke-linecap:butt;stroke-linejoin:miter;stroke-miterlimit:10;stroke-dasharray:none;stroke-opacity:1"
                   d="M 0,0 H 20 32.76" /></g></g><g
               transform="matrix(0.7195301,0,0,-0.7195301,0,73.919998)"
               id="g144"><g
                 transform="translate(186.76,51)"
                 id="g146"><path
                   id="path148"
                   style="fill:#000000;fill-opacity:1;fill-rule:nonzero;stroke:none"
                   d="M 0,0 -8,4 -6,0 -8,-4 Z" /></g></g><g
               transform="matrix(0.7195301,0,0,-0.7195301,0,73.919998)"
               id="g150"><g
                 transform="translate(186.76,51)"
                 id="g152"><path
                   id="path154"
                   style="fill:none;stroke:#000000;stroke-width:2;stroke-linecap:butt;stroke-linejoin:miter;stroke-miterlimit:10;stroke-dasharray:none;stroke-opacity:1"
                   d="M 0,0 -8,4 -6,0 -8,-4 Z" /></g></g><g
               transform="matrix(0.7195301,0,0,-0.7195301,0,73.919998)"
               id="g156"><g
                 transform="translate(148,51)"
                 id="g158"><path
                   id="path160"
                   style="fill:#ffffff;fill-opacity:1;fill-rule:nonzero;stroke:none"
                   d="m 0,0 c 0,1.638 -0.08,3.271 -0.241,4.901 -0.16,1.63 -0.4,3.247 -0.72,4.854 -0.319,1.606 -0.717,3.192 -1.192,4.759 -0.475,1.567 -1.026,3.107 -1.653,4.62 -0.627,1.513 -1.326,2.992 -2.098,4.436 -0.772,1.444 -1.613,2.847 -2.523,4.209 -0.909,1.361 -1.884,2.675 -2.922,3.941 -1.039,1.266 -2.138,2.477 -3.296,3.635 -1.158,1.158 -2.369,2.257 -3.635,3.296 -1.266,1.038 -2.58,2.013 -3.942,2.922 -1.361,0.91 -2.764,1.751 -4.208,2.523 -1.444,0.772 -2.923,1.471 -4.436,2.098 -1.513,0.627 -3.053,1.178 -4.62,1.653 -1.567,0.475 -3.153,0.873 -4.759,1.192 -1.607,0.32 -3.224,0.56 -4.854,0.72 C -46.729,49.92 -48.362,50 -50,50 c -1.638,0 -3.271,-0.08 -4.901,-0.241 -1.63,-0.16 -3.247,-0.4 -4.854,-0.72 -1.606,-0.319 -3.192,-0.717 -4.759,-1.192 -1.567,-0.475 -3.107,-1.026 -4.62,-1.653 -1.513,-0.627 -2.992,-1.326 -4.436,-2.098 -1.444,-0.772 -2.847,-1.613 -4.209,-2.523 -1.361,-0.909 -2.675,-1.884 -3.941,-2.922 -1.266,-1.039 -2.477,-2.138 -3.635,-3.296 -1.158,-1.158 -2.257,-2.369 -3.296,-3.635 -1.038,-1.266 -2.013,-2.58 -2.922,-3.941 -0.91,-1.362 -1.751,-2.765 -2.523,-4.209 -0.772,-1.444 -1.471,-2.923 -2.098,-4.436 -0.627,-1.513 -1.178,-3.053 -1.653,-4.62 -0.475,-1.567 -0.873,-3.153 -1.192,-4.759 -0.32,-1.607 -0.56,-3.224 -0.72,-4.854 C -99.92,3.271 -100,1.638 -100,0 c 0,-1.638 0.08,-3.271 0.241,-4.901 0.16,-1.63 0.4,-3.247 0.72,-4.854 0.319,-1.606 0.717,-3.192 1.192,-4.759 0.475,-1.567 1.026,-3.107 1.653,-4.62 0.627,-1.513 1.326,-2.992 2.098,-4.436 0.772,-1.444 1.613,-2.847 2.523,-4.209 0.909,-1.361 1.884,-2.675 2.922,-3.941 1.039,-1.266 2.138,-2.477 3.296,-3.635 1.158,-1.158 2.369,-2.257 3.635,-3.296 1.266,-1.038 2.58,-2.013 3.941,-2.922 1.362,-0.91 2.765,-1.751 4.209,-2.523 1.444,-0.772 2.923,-1.471 4.436,-2.098 1.513,-0.627 3.053,-1.178 4.62,-1.653 1.567,-0.475 3.153,-0.873 4.759,-1.192 1.607,-0.32 3.224,-0.56 4.854,-0.72 1.63,-0.161 3.263,-0.241 4.901,-0.241 1.638,0 3.271,0.08 4.901,0.241 1.63,0.16 3.247,0.4 4.854,0.72 1.606,0.319 3.192,0.717 4.759,1.192 1.567,0.475 3.107,1.026 4.62,1.653 1.513,0.627 2.992,1.326 4.436,2.098 1.444,0.772 2.847,1.613 4.208,2.523 1.362,0.909 2.676,1.884 3.942,2.922 1.266,1.039 2.477,2.138 3.635,3.296 1.158,1.158 2.257,2.369 3.296,3.635 1.038,1.266 2.013,2.58 2.922,3.941 0.91,1.362 1.751,2.765 2.523,4.209 0.772,1.444 1.471,2.923 2.098,4.436 0.627,1.513 1.178,3.053 1.653,4.62 0.475,1.567 0.873,3.153 1.192,4.759 0.32,1.607 0.56,3.224 0.72,4.854 C -0.08,-3.271 0,-1.638 0,0 Z" /></g></g><g
               transform="matrix(0.7195301,0,0,-0.7195301,0,73.919998)"
               id="g162"><g
                 transform="translate(148,51)"
                 id="g164"><path
                   id="path166"
                   style="fill:none;stroke:#000000;stroke-width:2;stroke-linecap:butt;stroke-linejoin:miter;stroke-miterlimit:4;stroke-dasharray:none;stroke-opacity:1"
                   d="m 0,0 c 0,1.638 -0.08,3.271 -0.241,4.901 -0.16,1.63 -0.4,3.247 -0.72,4.854 -0.319,1.606 -0.717,3.192 -1.192,4.759 -0.475,1.567 -1.026,3.107 -1.653,4.62 -0.627,1.513 -1.326,2.992 -2.098,4.436 -0.772,1.444 -1.613,2.847 -2.523,4.209 -0.909,1.361 -1.884,2.675 -2.922,3.941 -1.039,1.266 -2.138,2.477 -3.296,3.635 -1.158,1.158 -2.369,2.257 -3.635,3.296 -1.266,1.038 -2.58,2.013 -3.942,2.922 -1.361,0.91 -2.764,1.751 -4.208,2.523 -1.444,0.772 -2.923,1.471 -4.436,2.098 -1.513,0.627 -3.053,1.178 -4.62,1.653 -1.567,0.475 -3.153,0.873 -4.759,1.192 -1.607,0.32 -3.224,0.56 -4.854,0.72 C -46.729,49.92 -48.362,50 -50,50 c -1.638,0 -3.271,-0.08 -4.901,-0.241 -1.63,-0.16 -3.247,-0.4 -4.854,-0.72 -1.606,-0.319 -3.192,-0.717 -4.759,-1.192 -1.567,-0.475 -3.107,-1.026 -4.62,-1.653 -1.513,-0.627 -2.992,-1.326 -4.436,-2.098 -1.444,-0.772 -2.847,-1.613 -4.209,-2.523 -1.361,-0.909 -2.675,-1.884 -3.941,-2.922 -1.266,-1.039 -2.477,-2.138 -3.635,-3.296 -1.158,-1.158 -2.257,-2.369 -3.296,-3.635 -1.038,-1.266 -2.013,-2.58 -2.922,-3.941 -0.91,-1.362 -1.751,-2.765 -2.523,-4.209 -0.772,-1.444 -1.471,-2.923 -2.098,-4.436 -0.627,-1.513 -1.178,-3.053 -1.653,-4.62 -0.475,-1.567 -0.873,-3.153 -1.192,-4.759 -0.32,-1.607 -0.56,-3.224 -0.72,-4.854 C -99.92,3.271 -100,1.638 -100,0 c 0,-1.638 0.08,-3.271 0.241,-4.901 0.16,-1.63 0.4,-3.247 0.72,-4.854 0.319,-1.606 0.717,-3.192 1.192,-4.759 0.475,-1.567 1.026,-3.107 1.653,-4.62 0.627,-1.513 1.326,-2.992 2.098,-4.436 0.772,-1.444 1.613,-2.847 2.523,-4.209 0.909,-1.361 1.884,-2.675 2.922,-3.941 1.039,-1.266 2.138,-2.477 3.296,-3.635 1.158,-1.158 2.369,-2.257 3.635,-3.296 1.266,-1.038 2.58,-2.013 3.941,-2.922 1.362,-0.91 2.765,-1.751 4.209,-2.523 1.444,-0.772 2.923,-1.471 4.436,-2.098 1.513,-0.627 3.053,-1.178 4.62,-1.653 1.567,-0.475 3.153,-0.873 4.759,-1.192 1.607,-0.32 3.224,-0.56 4.854,-0.72 1.63,-0.161 3.263,-0.241 4.901,-0.241 1.638,0 3.271,0.08 4.901,0.241 1.63,0.16 3.247,0.4 4.854,0.72 1.606,0.319 3.192,0.717 4.759,1.192 1.567,0.475 3.107,1.026 4.62,1.653 1.513,0.627 2.992,1.326 4.436,2.098 1.444,0.772 2.847,1.613 4.208,2.523 1.362,0.909 2.676,1.884 3.942,2.922 1.266,1.039 2.477,2.138 3.635,3.296 1.158,1.158 2.257,2.369 3.296,3.635 1.038,1.266 2.013,2.58 2.922,3.941 0.91,1.362 1.751,2.765 2.523,4.209 0.772,1.444 1.471,2.923 2.098,4.436 0.627,1.513 1.178,3.053 1.653,4.62 0.475,1.567 0.873,3.153 1.192,4.759 0.32,1.607 0.56,3.224 0.72,4.854 C -0.08,-3.271 0,-1.638 0,0 Z" /></g></g></g></g></g></g><text
       id="text170"
       style="font-variant:normal;font-weight:normal;font-size:11.51200008px;font-family:Helvetica;-inkscape-font-specification:Helvetica;writing-mode:lr-tb;fill:#000000;fill-opacity:1;fill-rule:nonzero;stroke:none"
       transform="matrix(1,0,0,-1,39.093,39.877)"><tspan
         id="tspan168"
         y="0"
         x="0 8.3135977 14.716023 17.914425 24.316851">Data </tspan></text>
<text
       id="text174"
       style="font-variant:normal;font-weight:normal;font-stretch:normal;font-size:11.51200008px;font-family:Arial;-inkscape-font-specification:ArialMT;writing-mode:lr-tb;fill:#000000;fill-opacity:1;fill-rule:nonzero;stroke:none"
       transform="matrix(1,0,0,-1,66.608254,39.877)"><tspan
         id="tspan172"
         y="0"
         x="0 7.678504 14.079176 20.479849 24.313343 30.069344">Source</tspan></text>
<g
       transform="matrix(0.24,0,0,-0.24,0,73.919998)"
       id="g176"><g
         clip-path="url(#clipPath182)"
         id="g178"><g
           transform="matrix(4.1666668,0,0,-4.1666668,0,308)"
           id="g184"><text
             id="text188"
             style="font-variant:normal;font-weight:normal;font-size:11.51200008px;font-family:Helvetica;-inkscape-font-specification:Helvetica;writing-mode:lr-tb;fill:#000000;fill-opacity:1;fill-rule:nonzero;stroke:none"
             transform="matrix(1,0,0,-1,41.3505,26.431)"><tspan
               id="tspan186"
               y="0"
               x="0 7.6784139 13.434414 19.83684 22.394438 28.796864 32.630447 39.032875 42.231277 44.788876 51.191299">Exploration</tspan></text>
<text
             id="text194"
             style="font-variant:normal;font-weight:bold;font-size:11.51200008px;font-family:Helvetica;-inkscape-font-specification:Helvetica-Bold;writing-mode:lr-tb;fill:#000000;fill-opacity:1;fill-rule:nonzero;stroke:none"
             transform="matrix(1,0,0,-1,115.1248,41.5411)"><tspan
               id="tspan190"
               y="0"
               x="0">1</tspan><tspan
               id="tspan192"
               y="-0.71950001"
               x="130.94901 248.94701 347.51849">234</tspan></text>
<g
             transform="matrix(0.7195301,0,0,-0.7195301,0,73.919998)"
             id="g196"><g
               transform="translate(8,51)"
               id="g198"><path
                 id="path200"
                 style="fill:none;stroke:#000000;stroke-width:2;stroke-linecap:butt;stroke-linejoin:miter;stroke-miterlimit:10;stroke-dasharray:none;stroke-opacity:1"
                 d="M 0,0 H 31.76" /></g></g><g
             transform="matrix(0.7195301,0,0,-0.7195301,0,73.919998)"
             id="g202"><g
               transform="translate(45.76,51)"
               id="g204"><path
                 id="path206"
                 style="fill:#000000;fill-opacity:1;fill-rule:nonzero;stroke:none"
                 d="M 0,0 -8,4 -6,0 -8,-4 Z" /></g></g><g
             transform="matrix(0.7195301,0,0,-0.7195301,0,73.919998)"
             id="g208"><g
               transform="translate(45.76,51)"
               id="g210"><path
                 id="path212"
                 style="fill:none;stroke:#000000;stroke-width:2;stroke-linecap:butt;stroke-linejoin:miter;stroke-miterlimit:10;stroke-dasharray:none;stroke-opacity:1"
                 d="M 0,0 -8,4 -6,0 -8,-4 Z" /></g></g><text
             id="text216"
             style="font-variant:normal;font-weight:bold;font-size:11.51200008px;font-family:Helvetica;-inkscape-font-specification:Helvetica-Bold;writing-mode:lr-tb;fill:#000000;fill-opacity:1;fill-rule:nonzero;stroke:none"
             transform="matrix(1,0,0,-1,13.6711,41.5411)"><tspan
               id="tspan214"
               y="0"
               x="0">0</tspan></text>
</g></g></g></g></svg>