<?xml version="1.0" encoding="UTF-8" standalone="no"?>
<svg
   xmlns:dc="http://purl.org/dc/elements/1.1/"
   xmlns:cc="http://creativecommons.org/ns#"
   xmlns:rdf="http://www.w3.org/1999/02/22-rdf-syntax-ns#"
   xmlns:svg="http://www.w3.org/2000/svg"
   xmlns="http://www.w3.org/2000/svg"
   viewBox="0 0 716.15997 98.559998"
   height="98.559998"
   width="716.15997"
   xml:space="preserve"
   id="svg2"
   version="1.1"><metadata
     id="metadata8"><rdf:RDF><cc:Work
         rdf:about=""><dc:format>image/svg+xml</dc:format><dc:type
           rdf:resource="http://purl.org/dc/dcmitype/StillImage" /></cc:Work></rdf:RDF></metadata><defs
     id="defs6"><clipPath
       id="clipPath18"
       clipPathUnits="userSpaceOnUse"><path
         style="clip-rule:evenodd"
         id="path16"
         d="M 0,0 H 2237.5 V 305.52209 H 0 Z" /></clipPath><clipPath
       id="clipPath30"
       clipPathUnits="userSpaceOnUse"><path
         style="clip-rule:evenodd"
         id="path28"
         d="M 0,0 H 2237.5 V 305.52209 H 0 Z" /></clipPath></defs><g
     transform="matrix(0.31999998,0,0,0.31999998,0,2.1306666e-6)"
     id="g10"><g
       id="g12"><g
         clip-path="url(#clipPath18)"
         id="g14"><g
           transform="scale(2.9953146)"
           id="g20"><path
             id="path22"
             style="fill:#ffffff;fill-opacity:1;fill-rule:nonzero;stroke:none"
             d="M 0,0 H 747 V 102 H 0 Z" /></g></g></g><g
       id="g24"><g
         clip-path="url(#clipPath30)"
         id="g26"><g
           transform="scale(2.9953146)"
           id="g32"><path
             id="path34"
             style="fill:#ffffff;fill-opacity:1;fill-rule:nonzero;stroke:none"
             d="m 334,21 h 82 c 0.59091,0 1.17618,0.05764 1.75577,0.172932 0.57962,0.115287 1.14242,0.286005 1.68838,0.512151 0.54593,0.226145 1.06461,0.503374 1.55597,0.831688 0.49134,0.328314 0.94596,0.701403 1.36383,1.119267 0.41782,0.417864 0.7909,0.872473 1.1192,1.363828 0.32831,0.491354 0.60553,1.010016 0.8317,1.555981 0.22617,0.545965 0.39688,1.108746 0.51218,1.688339 C 424.94235,28.82378 425,29.409052 425,30 v 42 c 0,0.590942 -0.0577,1.176208 -0.17294,1.755806 -0.1153,0.579597 -0.28601,1.142372 -0.51218,1.688339 -0.22617,0.545967 -0.50342,1.064629 -0.83173,1.555985 -0.3283,0.491356 -0.70138,0.945961 -1.1192,1.36383 -0.41787,0.417855 -0.87253,0.790947 -1.36389,1.119263 -0.49133,0.328316 -1.00998,0.605545 -1.55594,0.831688 -0.54596,0.226143 -1.10873,0.396858 -1.68832,0.512146 C 417.17618,80.942352 416.59091,81 416,81 h -82 c -0.59097,0 -1.17624,-0.05765 -1.75583,-0.172943 -0.57962,-0.115288 -1.14239,-0.286003 -1.68835,-0.512146 -0.54596,-0.226143 -1.06461,-0.503372 -1.55597,-0.831688 -0.49137,-0.328316 -0.94596,-0.701408 -1.36383,-1.119263 -0.41788,-0.417869 -0.79096,-0.872474 -1.11927,-1.36383 -0.32833,-0.491356 -0.60556,-1.010018 -0.83169,-1.555985 -0.22617,-0.545967 -0.39688,-1.108742 -0.51215,-1.688339 C 325.05762,73.176208 324.99997,72.590942 325,72 V 30 c -3e-5,-0.590948 0.0576,-1.17622 0.17291,-1.755814 0.11527,-0.579593 0.28598,-1.142374 0.51215,-1.688339 0.22613,-0.545965 0.50336,-1.064627 0.83169,-1.555981 0.32831,-0.491355 0.70139,-0.945964 1.11927,-1.363828 0.41787,-0.417864 0.87246,-0.790955 1.36383,-1.119269 0.49136,-0.328312 1.01001,-0.605541 1.55597,-0.831686 0.54596,-0.226146 1.10873,-0.396864 1.68835,-0.512151 C 332.82376,21.057644 333.40903,21 334,21 Z" /><path
             id="path36"
             style="fill:none;stroke:#000000;stroke-width:1;stroke-linecap:butt;stroke-linejoin:miter;stroke-miterlimit:10;stroke-dasharray:none;stroke-opacity:1"
             d="m 334,21 h 82 c 0.59091,0 1.17618,0.05764 1.75577,0.172932 0.57962,0.115287 1.14242,0.286005 1.68838,0.512151 0.54593,0.226145 1.06461,0.503374 1.55597,0.831688 0.49134,0.328314 0.94596,0.701403 1.36383,1.119267 0.41782,0.417864 0.7909,0.872473 1.1192,1.363828 0.32831,0.491354 0.60553,1.010016 0.8317,1.555981 0.22617,0.545965 0.39688,1.108746 0.51218,1.688339 C 424.94235,28.82378 425,29.409052 425,30 v 42 c 0,0.590942 -0.0577,1.176208 -0.17294,1.755806 -0.1153,0.579597 -0.28601,1.142372 -0.51218,1.688339 -0.22617,0.545967 -0.50342,1.064629 -0.83173,1.555985 -0.3283,0.491356 -0.70138,0.945961 -1.1192,1.36383 -0.41787,0.417855 -0.87253,0.790947 -1.36389,1.119263 -0.49133,0.328316 -1.00998,0.605545 -1.55594,0.831688 -0.54596,0.226143 -1.10873,0.396858 -1.68832,0.512146 C 417.17618,80.942352 416.59091,81 416,81 h -82 c -0.59097,0 -1.17624,-0.05765 -1.75583,-0.172943 -0.57962,-0.115288 -1.14239,-0.286003 -1.68835,-0.512146 -0.54596,-0.226143 -1.06461,-0.503372 -1.55597,-0.831688 -0.49137,-0.328316 -0.94596,-0.701408 -1.36383,-1.119263 -0.41788,-0.417869 -0.79096,-0.872474 -1.11927,-1.36383 -0.32833,-0.491356 -0.60556,-1.010018 -0.83169,-1.555985 -0.22617,-0.545967 -0.39688,-1.108742 -0.51215,-1.688339 C 325.05762,73.176208 324.99997,72.590942 325,72 V 30 c -3e-5,-0.590948 0.0576,-1.17622 0.17291,-1.755814 0.11527,-0.579593 0.28598,-1.142374 0.51215,-1.688339 0.22613,-0.545965 0.50336,-1.064627 0.83169,-1.555981 0.32831,-0.491355 0.70139,-0.945964 1.11927,-1.363828 0.41787,-0.417864 0.87246,-0.790955 1.36383,-1.119269 0.49136,-0.328312 1.01001,-0.605541 1.55597,-0.831686 0.54596,-0.226146 1.10873,-0.396864 1.68835,-0.512151 C 332.82376,21.057644 333.40903,21 334,21 Z" /></g><g
           transform="matrix(2.9953146,0,0,2.9953146,979.4679,107.83133)"
           id="g38"><text
             id="text42"
             style="font-variant:normal;font-weight:normal;font-size:14px;font-family:Helvetica;-inkscape-font-specification:Helvetica;writing-mode:lr-tb;fill:#000000;fill-opacity:1;fill-rule:nonzero;stroke:none"
             transform="translate(32.71875,13)"><tspan
               id="tspan40"
               y="0"
               x="0 10.110352 17.896484 21.786133">Data</tspan></text>
<text
             id="text46"
             style="font-variant:normal;font-weight:normal;font-size:14px;font-family:Helvetica;-inkscape-font-specification:Helvetica;writing-mode:lr-tb;fill:#000000;fill-opacity:1;fill-rule:nonzero;stroke:none"
             transform="translate(11.3125,29)"><tspan
               id="tspan44"
               y="0"
               x="0 9.3378906 14 21.786133 29.572266 37.358398 42.020508 49.806641 53.696289 56.806641 64.592773">Preparation</tspan></text>
</g><g
           transform="scale(2.9953146)"
           id="g48"><path
             id="path50"
             style="fill:#ffffff;fill-opacity:1;fill-rule:nonzero;stroke:none"
             d="m 471,21 h 82 c 0.59094,0 1.17621,0.05764 1.7558,0.172932 0.57959,0.115287 1.14233,0.286005 1.68829,0.512151 0.54596,0.226145 1.06458,0.503374 1.55597,0.831688 0.4914,0.328314 0.94598,0.701403 1.36389,1.119267 0.41785,0.417864 0.79096,0.872473 1.11927,1.363828 0.3283,0.491354 0.60553,1.010016 0.83166,1.555981 0.22614,0.545965 0.39685,1.108746 0.51215,1.688339 C 561.94238,28.82378 562.00006,29.409052 562,30 v 42 c 6e-5,0.590942 -0.0576,1.176208 -0.17297,1.755806 -0.1153,0.579597 -0.28601,1.142372 -0.51215,1.688339 -0.22613,0.545967 -0.50336,1.064629 -0.83166,1.555985 -0.32831,0.491356 -0.70142,0.945961 -1.11927,1.36383 -0.41791,0.417855 -0.87249,0.790947 -1.36389,1.119263 -0.49139,0.328316 -1.01001,0.605545 -1.55597,0.831688 -0.54596,0.226143 -1.1087,0.396858 -1.68829,0.512146 C 554.17621,80.942352 553.59094,81 553,81 h -82 c -0.59097,0 -1.17624,-0.05765 -1.75586,-0.172943 -0.57956,-0.115288 -1.14233,-0.286003 -1.68832,-0.512146 -0.54599,-0.226143 -1.06464,-0.503372 -1.556,-0.831688 -0.49137,-0.328316 -0.94596,-0.701408 -1.3638,-1.119263 -0.41788,-0.417869 -0.79096,-0.872474 -1.1193,-1.36383 -0.32833,-0.491356 -0.60556,-1.010018 -0.83169,-1.555985 -0.22614,-0.545967 -0.39685,-1.108742 -0.51215,-1.688339 C 462.05762,73.176208 462,72.590942 462,72 V 30 c 0,-0.590948 0.0577,-1.17622 0.17291,-1.755814 0.11527,-0.579593 0.28598,-1.142374 0.51212,-1.688339 0.22613,-0.545965 0.50336,-1.064627 0.83169,-1.555981 0.32834,-0.491355 0.70142,-0.945964 1.1193,-1.363828 0.41784,-0.417864 0.87243,-0.790955 1.3638,-1.119269 0.49136,-0.328312 1.01001,-0.605541 1.556,-0.831686 0.54599,-0.226146 1.10876,-0.396864 1.68832,-0.512151 C 469.82376,21.057644 470.40903,21 471,21 Z" /><path
             id="path52"
             style="fill:none;stroke:#000000;stroke-width:1;stroke-linecap:butt;stroke-linejoin:miter;stroke-miterlimit:10;stroke-dasharray:none;stroke-opacity:1"
             d="m 471,21 h 82 c 0.59094,0 1.17621,0.05764 1.7558,0.172932 0.57959,0.115287 1.14233,0.286005 1.68829,0.512151 0.54596,0.226145 1.06458,0.503374 1.55597,0.831688 0.4914,0.328314 0.94598,0.701403 1.36389,1.119267 0.41785,0.417864 0.79096,0.872473 1.11927,1.363828 0.3283,0.491354 0.60553,1.010016 0.83166,1.555981 0.22614,0.545965 0.39685,1.108746 0.51215,1.688339 C 561.94238,28.82378 562.00006,29.409052 562,30 v 42 c 6e-5,0.590942 -0.0576,1.176208 -0.17297,1.755806 -0.1153,0.579597 -0.28601,1.142372 -0.51215,1.688339 -0.22613,0.545967 -0.50336,1.064629 -0.83166,1.555985 -0.32831,0.491356 -0.70142,0.945961 -1.11927,1.36383 -0.41791,0.417855 -0.87249,0.790947 -1.36389,1.119263 -0.49139,0.328316 -1.01001,0.605545 -1.55597,0.831688 -0.54596,0.226143 -1.1087,0.396858 -1.68829,0.512146 C 554.17621,80.942352 553.59094,81 553,81 h -82 c -0.59097,0 -1.17624,-0.05765 -1.75586,-0.172943 -0.57956,-0.115288 -1.14233,-0.286003 -1.68832,-0.512146 -0.54599,-0.226143 -1.06464,-0.503372 -1.556,-0.831688 -0.49137,-0.328316 -0.94596,-0.701408 -1.3638,-1.119263 -0.41788,-0.417869 -0.79096,-0.872474 -1.1193,-1.36383 -0.32833,-0.491356 -0.60556,-1.010018 -0.83169,-1.555985 -0.22614,-0.545967 -0.39685,-1.108742 -0.51215,-1.688339 C 462.05762,73.176208 462,72.590942 462,72 V 30 c 0,-0.590948 0.0577,-1.17622 0.17291,-1.755814 0.11527,-0.579593 0.28598,-1.142374 0.51212,-1.688339 0.22613,-0.545965 0.50336,-1.064627 0.83169,-1.555981 0.32834,-0.491355 0.70142,-0.945964 1.1193,-1.363828 0.41784,-0.417864 0.87243,-0.790955 1.3638,-1.119269 0.49136,-0.328312 1.01001,-0.605541 1.556,-0.831686 0.54599,-0.226146 1.10876,-0.396864 1.68832,-0.512151 C 469.82376,21.057644 470.40903,21 471,21 Z" /></g><g
           transform="matrix(2.9953146,0,0,2.9953146,1443.7416,131.79384)"
           id="g54"><text
             id="text58"
             style="font-variant:normal;font-weight:normal;font-size:14px;font-family:Helvetica;-inkscape-font-specification:Helvetica;writing-mode:lr-tb;fill:#000000;fill-opacity:1;fill-rule:nonzero;stroke:none"
             transform="translate(0.53125,13)"><tspan
               id="tspan56"
               y="0"
               x="0 11.662109 19.448242 27.234375 35.020508 38.130859 41.241211 44.351562 52.137695">Modelling</tspan></text>
</g><g
           transform="scale(2.9953146)"
           id="g60"><path
             id="path62"
             style="fill:none;stroke:#000000;stroke-width:1;stroke-linecap:butt;stroke-linejoin:miter;stroke-miterlimit:10;stroke-dasharray:none;stroke-opacity:1"
             d="m 425,51 c 0,0 9.58667,0 28.76001,0" /><path
             id="path64"
             style="fill:#000000;fill-opacity:1;fill-rule:nonzero;stroke:none"
             d="m 459.76001,51 -8,4 2,-4 -2,-4 z" /><path
             id="path66"
             style="fill:none;stroke:#000000;stroke-width:1;stroke-linecap:butt;stroke-linejoin:miter;stroke-miterlimit:10;stroke-dasharray:none;stroke-opacity:1"
             d="m 459.76001,51 -8,4 2,-4 -2,-4 z" /><path
             id="path68"
             style="fill:none;stroke:#000000;stroke-width:1;stroke-linecap:butt;stroke-linejoin:miter;stroke-miterlimit:10;stroke-dasharray:none;stroke-opacity:1"
             d="m 289,51 h 20 -4 11.76001" /><path
             id="path70"
             style="fill:#000000;fill-opacity:1;fill-rule:nonzero;stroke:none"
             d="m 322.76001,51 -8,4 2,-4 -2,-4 z" /><path
             id="path72"
             style="fill:none;stroke:#000000;stroke-width:1;stroke-linecap:butt;stroke-linejoin:miter;stroke-miterlimit:10;stroke-dasharray:none;stroke-opacity:1"
             d="m 322.76001,51 -8,4 2,-4 -2,-4 z" /><path
             id="path74"
             style="fill:#ffffff;fill-opacity:1;fill-rule:nonzero;stroke:none"
             d="m 289,51 c 3e-5,1.637562 -0.0802,3.271183 -0.24075,4.90086 -0.16053,1.629677 -0.40052,3.247562 -0.72,4.853653 -0.31949,1.606094 -0.71689,3.192665 -1.19223,4.759716 -0.47538,1.567047 -1.0264,3.107025 -1.65308,4.619934 -0.62668,1.512909 -1.32596,2.991463 -2.0979,4.435669 -0.77194,1.444206 -1.61282,2.847092 -2.52261,4.208671 -0.90976,1.361588 -1.8841,2.675309 -2.92295,3.941155 -1.03885,1.265854 -2.13724,2.477745 -3.29516,3.635673 -1.15793,1.157929 -2.36982,2.256325 -3.63565,3.295182 -1.26584,1.038856 -2.57959,2.013176 -3.9412,2.92295 -1.3616,0.90979 -2.76446,1.750657 -4.20865,2.522599 -1.44418,0.771942 -2.92276,1.471245 -4.4357,2.097908 -1.5129,0.626671 -3.05287,1.177688 -4.6199,1.653045 -1.56706,0.475357 -3.15364,0.872773 -4.75973,1.192245 -1.6061,0.31948 -3.22397,0.55947 -4.85364,0.71999 C 242.27119,100.91975 240.63757,101 239,101 c -1.63756,0 -3.27118,-0.0803 -4.90086,-0.24075 -1.62969,-0.16052 -3.24758,-0.40051 -4.85369,-0.71999 -1.60609,-0.319472 -3.19265,-0.716888 -4.7597,-1.192245 -1.56705,-0.475357 -3.10703,-1.026374 -4.61995,-1.653045 -1.51289,-0.626663 -2.99144,-1.325966 -4.43564,-2.097908 -1.44421,-0.771942 -2.84711,-1.612809 -4.20869,-2.522599 -1.36156,-0.909774 -2.67528,-1.884094 -3.94114,-2.92295 -1.26585,-1.038857 -2.47775,-2.137253 -3.63568,-3.295182 -1.15793,-1.157928 -2.25631,-2.369819 -3.29518,-3.635673 -1.03886,-1.265846 -2.01318,-2.579567 -2.92297,-3.941155 -0.90978,-1.361579 -1.75063,-2.764465 -2.52257,-4.208671 -0.77194,-1.444206 -1.47125,-2.92276 -2.09793,-4.435669 -0.62666,-1.512909 -1.17767,-3.052887 -1.65305,-4.619934 -0.47534,-1.567051 -0.87275,-3.153622 -1.19223,-4.759716 -0.31947,-1.606091 -0.55946,-3.223976 -0.71997,-4.853653 C 189.08026,54.271183 189.00002,52.637562 189,51 c 2e-5,-1.637562 0.0803,-3.271179 0.24075,-4.900856 0.16051,-1.629677 0.4005,-3.247562 0.71997,-4.853661 0.31948,-1.606094 0.71691,-3.192665 1.19226,-4.759716 0.47536,-1.567051 1.02636,-3.107029 1.65302,-4.619941 0.62668,-1.512909 1.32599,-2.991465 2.09793,-4.435665 0.77194,-1.444201 1.61279,-2.847092 2.52257,-4.208676 0.90979,-1.361582 1.88411,-2.675299 2.92297,-3.941151 1.03887,-1.265852 2.13725,-2.477745 3.29518,-3.635674 1.15793,-1.15793 2.36982,-2.256325 3.63567,-3.295183 1.26587,-1.038859 2.57959,-2.013178 3.94115,-2.9229586 1.36158,-0.9097805 2.76448,-1.7506413 4.20868,-2.522582 1.44419,-0.7719417 2.92276,-1.4712463 4.43565,-2.0979138 1.51292,-0.6266675 3.0529,-1.1776804 4.61996,-1.6530396 1.56705,-0.475359 3.15361,-0.8727747 4.75971,-1.1922472 1.60609,-0.3194723 3.224,-0.559463 4.85368,-0.7199721 C 235.72882,1.0802545 237.36244,1 239,1 c 1.63757,0 3.27119,0.080254 4.90086,0.2407637 1.62966,0.1605092 3.24753,0.4004999 4.85363,0.7199722 1.60609,0.3194727 3.19267,0.7168883 4.75973,1.1922475 1.56703,0.4753592 3.107,1.0263722 4.6199,1.6530397 1.51294,0.6266675 2.99152,1.3259721 4.4357,2.0979133 1.44419,0.7719407 2.84705,1.6128015 4.20865,2.522582 1.36161,0.9097806 2.67536,1.8840996 3.9412,2.9229586 1.26583,1.038858 2.47772,2.137253 3.63565,3.295183 1.15792,1.157929 2.25631,2.369822 3.29516,3.635674 1.03885,1.265852 2.01319,2.579571 2.92295,3.941153 0.90979,1.361582 1.75067,2.764475 2.52261,4.208677 0.77194,1.444199 1.47122,2.922753 2.0979,4.435662 0.62668,1.512912 1.1777,3.05289 1.65308,4.619941 0.47534,1.567047 0.87274,3.153618 1.19223,4.759713 0.31948,1.606098 0.55947,3.223987 0.72,4.853664 C 288.91977,47.728821 289.00003,49.362438 289,51 Z" /><path
             id="path76"
             style="fill:none;stroke:#000000;stroke-width:1;stroke-linecap:butt;stroke-linejoin:miter;stroke-miterlimit:10;stroke-dasharray:none;stroke-opacity:1"
             d="m 289,51 c 3e-5,1.637562 -0.0802,3.271183 -0.24075,4.90086 -0.16053,1.629677 -0.40052,3.247562 -0.72,4.853653 -0.31949,1.606094 -0.71689,3.192665 -1.19223,4.759716 -0.47538,1.567047 -1.0264,3.107025 -1.65308,4.619934 -0.62668,1.512909 -1.32596,2.991463 -2.0979,4.435669 -0.77194,1.444206 -1.61282,2.847092 -2.52261,4.208671 -0.90976,1.361588 -1.8841,2.675309 -2.92295,3.941155 -1.03885,1.265854 -2.13724,2.477745 -3.29516,3.635673 -1.15793,1.157929 -2.36982,2.256325 -3.63565,3.295182 -1.26584,1.038856 -2.57959,2.013176 -3.9412,2.92295 -1.3616,0.90979 -2.76446,1.750657 -4.20865,2.522599 -1.44418,0.771942 -2.92276,1.471245 -4.4357,2.097908 -1.5129,0.626671 -3.05287,1.177688 -4.6199,1.653045 -1.56706,0.475357 -3.15364,0.872773 -4.75973,1.192245 -1.6061,0.31948 -3.22397,0.55947 -4.85364,0.71999 C 242.27119,100.91975 240.63757,101 239,101 c -1.63756,0 -3.27118,-0.0803 -4.90086,-0.24075 -1.62969,-0.16052 -3.24758,-0.40051 -4.85369,-0.71999 -1.60609,-0.319472 -3.19265,-0.716888 -4.7597,-1.192245 -1.56705,-0.475357 -3.10703,-1.026374 -4.61995,-1.653045 -1.51289,-0.626663 -2.99144,-1.325966 -4.43564,-2.097908 -1.44421,-0.771942 -2.84711,-1.612809 -4.20869,-2.522599 -1.36156,-0.909774 -2.67528,-1.884094 -3.94114,-2.92295 -1.26585,-1.038857 -2.47775,-2.137253 -3.63568,-3.295182 -1.15793,-1.157928 -2.25631,-2.369819 -3.29518,-3.635673 -1.03886,-1.265846 -2.01318,-2.579567 -2.92297,-3.941155 -0.90978,-1.361579 -1.75063,-2.764465 -2.52257,-4.208671 -0.77194,-1.444206 -1.47125,-2.92276 -2.09793,-4.435669 -0.62666,-1.512909 -1.17767,-3.052887 -1.65305,-4.619934 -0.47534,-1.567051 -0.87275,-3.153622 -1.19223,-4.759716 -0.31947,-1.606091 -0.55946,-3.223976 -0.71997,-4.853653 C 189.08026,54.271183 189.00002,52.637562 189,51 c 2e-5,-1.637562 0.0803,-3.271179 0.24075,-4.900856 0.16051,-1.629677 0.4005,-3.247562 0.71997,-4.853661 0.31948,-1.606094 0.71691,-3.192665 1.19226,-4.759716 0.47536,-1.567051 1.02636,-3.107029 1.65302,-4.619941 0.62668,-1.512909 1.32599,-2.991465 2.09793,-4.435665 0.77194,-1.444201 1.61279,-2.847092 2.52257,-4.208676 0.90979,-1.361582 1.88411,-2.675299 2.92297,-3.941151 1.03887,-1.265852 2.13725,-2.477745 3.29518,-3.635674 1.15793,-1.15793 2.36982,-2.256325 3.63567,-3.295183 1.26587,-1.038859 2.57959,-2.013178 3.94115,-2.9229586 1.36158,-0.9097805 2.76448,-1.7506413 4.20868,-2.522582 1.44419,-0.7719417 2.92276,-1.4712463 4.43565,-2.0979138 1.51292,-0.6266675 3.0529,-1.1776804 4.61996,-1.6530396 1.56705,-0.475359 3.15361,-0.8727747 4.75971,-1.1922472 1.60609,-0.3194723 3.224,-0.559463 4.85368,-0.7199721 C 235.72882,1.0802545 237.36244,1 239,1 c 1.63757,0 3.27119,0.080254 4.90086,0.2407637 1.62966,0.1605092 3.24753,0.4004999 4.85363,0.7199722 1.60609,0.3194727 3.19267,0.7168883 4.75973,1.1922475 1.56703,0.4753592 3.107,1.0263722 4.6199,1.6530397 1.51294,0.6266675 2.99152,1.3259721 4.4357,2.0979133 1.44419,0.7719407 2.84705,1.6128015 4.20865,2.522582 1.36161,0.9097806 2.67536,1.8840996 3.9412,2.9229586 1.26583,1.038858 2.47772,2.137253 3.63565,3.295183 1.15792,1.157929 2.25631,2.369822 3.29516,3.635674 1.03885,1.265852 2.01319,2.579571 2.92295,3.941153 0.90979,1.361582 1.75067,2.764475 2.52261,4.208677 0.77194,1.444199 1.47122,2.922753 2.0979,4.435662 0.62668,1.512912 1.1777,3.05289 1.65308,4.619941 0.47534,1.567047 0.87274,3.153618 1.19223,4.759713 0.31948,1.606098 0.55947,3.223987 0.72,4.853664 C 288.91977,47.728821 289.00003,49.362438 289,51 Z" /></g><g
           transform="matrix(2.9953146,0,0,2.9953146,572.1051,98.845383)"
           id="g78"><text
             id="text82"
             style="font-variant:normal;font-weight:normal;font-size:16px;font-family:Helvetica;-inkscape-font-specification:Helvetica;writing-mode:lr-tb;fill:#000000;fill-opacity:1;fill-rule:nonzero;stroke:none"
             transform="translate(8.5,14)"><tspan
               id="tspan80"
               y="0"
               x="0 11.554688 20.453125 24.898438 33.796875 38.242188 47.734375 56.632812 60.1875 69.085938">Data Value</tspan></text>
<text
             id="text86"
             style="font-variant:normal;font-weight:normal;font-size:16px;font-family:Helvetica;-inkscape-font-specification:Helvetica;writing-mode:lr-tb;fill:#000000;fill-opacity:1;fill-rule:nonzero;stroke:none"
             transform="translate(7.46875,33)"><tspan
               id="tspan84"
               y="0"
               x="0 10.671875 18.671875 27.570312 31.125 40.023438 45.351562 54.25 58.695312 62.25 71.148438">Exploration</tspan></text>
</g><g
           transform="scale(2.9953146)"
           id="g88"><path
             id="path90"
             style="fill:none;stroke:#000000;stroke-width:1;stroke-linecap:butt;stroke-linejoin:miter;stroke-miterlimit:10;stroke-dasharray:none;stroke-opacity:1"
             d="m 148,51 h 20 12.75999" /><path
             id="path92"
             style="fill:#000000;fill-opacity:1;fill-rule:nonzero;stroke:none"
             d="m 186.75999,51 -8,4 2,-4 -2,-4 z" /><path
             id="path94"
             style="fill:none;stroke:#000000;stroke-width:1;stroke-linecap:butt;stroke-linejoin:miter;stroke-miterlimit:10;stroke-dasharray:none;stroke-opacity:1"
             d="m 186.75999,51 -8,4 2,-4 -2,-4 z" /><path
             id="path96"
             style="fill:#ffffff;fill-opacity:1;fill-rule:nonzero;stroke:none"
             d="m 148,51 c 0,1.637562 -0.0803,3.271183 -0.24077,4.90086 -0.16051,1.629677 -0.40051,3.247562 -0.71998,4.853653 -0.31948,1.606094 -0.71689,3.192665 -1.19225,4.759716 -0.47536,1.567047 -1.02638,3.107025 -1.65305,4.619934 -0.62666,1.512909 -1.32595,2.991463 -2.0979,4.435669 -0.77194,1.444206 -1.6128,2.847092 -2.52259,4.208671 -0.90978,1.361588 -1.88408,2.675309 -2.92295,3.941155 -1.03886,1.265854 -2.13725,2.477745 -3.29518,3.635673 -1.15793,1.157929 -2.36981,2.256325 -3.63566,3.295182 -1.26586,1.038856 -2.57959,2.013176 -3.94117,2.92295 -1.36158,0.90979 -2.76448,1.750657 -4.20868,2.522599 -1.44419,0.771942 -2.92275,1.471245 -4.43566,2.097908 -1.51291,0.626671 -3.05288,1.177688 -4.61993,1.653045 -1.56706,0.475357 -3.15363,0.872773 -4.75973,1.192245 -1.60609,0.31948 -3.22397,0.55947 -4.85364,0.71999 C 101.27118,100.91975 99.637566,101 98,101 c -1.63755,0 -3.271172,-0.0803 -4.900848,-0.24075 -1.629677,-0.16052 -3.247574,-0.40051 -4.853676,-0.71999 C 86.639381,99.719788 85.052811,99.322372 83.485771,98.847015 81.918724,98.371658 80.378746,97.820641 78.865829,97.19397 77.352921,96.567307 75.874367,95.868004 74.430168,95.096062 72.985962,94.32412 71.583069,93.483253 70.221489,92.573463 68.859901,91.663689 67.546181,90.689369 66.280334,89.650513 65.014481,88.611656 63.802589,87.51326 62.644657,86.355331 61.486729,85.197403 60.388332,83.985512 59.349472,82.719658 58.310616,81.453812 57.336296,80.140091 56.426514,78.778503 55.516735,77.416924 54.675877,76.014038 53.903934,74.569832 53.131992,73.125626 52.432686,71.647072 51.806015,70.134163 51.179348,68.621254 50.628338,67.081276 50.152981,65.514229 49.67762,63.947178 49.280205,62.360607 48.960732,60.754513 48.641262,59.148422 48.401272,57.530537 48.240761,55.90086 48.080254,54.271183 48,52.637562 48,51 c 0,-1.637562 0.08025,-3.271179 0.240761,-4.900856 0.160507,-1.629677 0.400497,-3.247562 0.719967,-4.853661 0.319473,-1.606094 0.716888,-3.192665 1.192249,-4.759716 0.475361,-1.567051 1.026371,-3.107029 1.653038,-4.619941 0.626671,-1.512909 1.325977,-2.991465 2.097916,-4.435665 0.771946,-1.444201 1.612804,-2.847092 2.522583,-4.208676 0.909782,-1.361582 1.884102,-2.675299 2.922958,-3.941151 1.03886,-1.265852 2.137257,-2.477745 3.295185,-3.635674 1.157932,-1.15793 2.369824,-2.256325 3.635677,-3.295183 1.265847,-1.038859 2.579567,-2.013178 3.941155,-2.9229586 1.36158,-0.9097805 2.764473,-1.7506413 4.208679,-2.522582 1.444199,-0.7719417 2.922753,-1.4712463 4.435661,-2.0979138 1.512917,-0.6266675 3.052895,-1.1776804 4.619942,-1.6530396 1.56704,-0.475359 3.15361,-0.8727747 4.759705,-1.1922472 1.606102,-0.3194723 3.223991,-0.559463 4.853668,-0.7199721 C 94.728828,1.0802545 96.36245,1 98,1 c 1.637566,0 3.27119,0.080254 4.90086,0.2407637 1.62967,0.1605092 3.24755,0.4004999 4.85364,0.7199722 1.6061,0.3194727 3.19267,0.7168883 4.75972,1.1922475 1.56706,0.4753592 3.10703,1.0263722 4.61994,1.6530397 1.51291,0.6266675 2.99147,1.3259721 4.43566,2.0979133 1.4442,0.7719407 2.8471,1.6128015 4.20868,2.522582 1.36158,0.9097806 2.67531,1.8840996 3.94117,2.9229586 1.26585,1.038858 2.47773,2.137253 3.63566,3.295183 1.15793,1.157929 2.25632,2.369822 3.29518,3.635674 1.03887,1.265852 2.01317,2.579571 2.92295,3.941153 0.90979,1.361582 1.75065,2.764475 2.52258,4.208677 0.77196,1.444199 1.47125,2.922753 2.09791,4.435662 0.62667,1.512912 1.17769,3.05289 1.65305,4.619941 0.47536,1.567047 0.87277,3.153618 1.19225,4.759713 0.31947,1.606098 0.55947,3.223987 0.71998,4.853664 C 147.91974,47.728821 148,49.362438 148,51 Z" /><path
             id="path98"
             style="fill:none;stroke:#000000;stroke-width:1;stroke-linecap:butt;stroke-linejoin:miter;stroke-miterlimit:10;stroke-dasharray:none;stroke-opacity:1"
             d="m 148,51 c 0,1.637562 -0.0803,3.271183 -0.24077,4.90086 -0.16051,1.629677 -0.40051,3.247562 -0.71998,4.853653 -0.31948,1.606094 -0.71689,3.192665 -1.19225,4.759716 -0.47536,1.567047 -1.02638,3.107025 -1.65305,4.619934 -0.62666,1.512909 -1.32595,2.991463 -2.0979,4.435669 -0.77194,1.444206 -1.6128,2.847092 -2.52259,4.208671 -0.90978,1.361588 -1.88408,2.675309 -2.92295,3.941155 -1.03886,1.265854 -2.13725,2.477745 -3.29518,3.635673 -1.15793,1.157929 -2.36981,2.256325 -3.63566,3.295182 -1.26586,1.038856 -2.57959,2.013176 -3.94117,2.92295 -1.36158,0.90979 -2.76448,1.750657 -4.20868,2.522599 -1.44419,0.771942 -2.92275,1.471245 -4.43566,2.097908 -1.51291,0.626671 -3.05288,1.177688 -4.61993,1.653045 -1.56706,0.475357 -3.15363,0.872773 -4.75973,1.192245 -1.60609,0.31948 -3.22397,0.55947 -4.85364,0.71999 C 101.27118,100.91975 99.637566,101 98,101 c -1.63755,0 -3.271172,-0.0803 -4.900848,-0.24075 -1.629677,-0.16052 -3.247574,-0.40051 -4.853676,-0.71999 C 86.639381,99.719788 85.052811,99.322372 83.485771,98.847015 81.918724,98.371658 80.378746,97.820641 78.865829,97.19397 77.352921,96.567307 75.874367,95.868004 74.430168,95.096062 72.985962,94.32412 71.583069,93.483253 70.221489,92.573463 68.859901,91.663689 67.546181,90.689369 66.280334,89.650513 65.014481,88.611656 63.802589,87.51326 62.644657,86.355331 61.486729,85.197403 60.388332,83.985512 59.349472,82.719658 58.310616,81.453812 57.336296,80.140091 56.426514,78.778503 55.516735,77.416924 54.675877,76.014038 53.903934,74.569832 53.131992,73.125626 52.432686,71.647072 51.806015,70.134163 51.179348,68.621254 50.628338,67.081276 50.152981,65.514229 49.67762,63.947178 49.280205,62.360607 48.960732,60.754513 48.641262,59.148422 48.401272,57.530537 48.240761,55.90086 48.080254,54.271183 48,52.637562 48,51 c 0,-1.637562 0.08025,-3.271179 0.240761,-4.900856 0.160507,-1.629677 0.400497,-3.247562 0.719967,-4.853661 0.319473,-1.606094 0.716888,-3.192665 1.192249,-4.759716 0.475361,-1.567051 1.026371,-3.107029 1.653038,-4.619941 0.626671,-1.512909 1.325977,-2.991465 2.097916,-4.435665 0.771946,-1.444201 1.612804,-2.847092 2.522583,-4.208676 0.909782,-1.361582 1.884102,-2.675299 2.922958,-3.941151 1.03886,-1.265852 2.137257,-2.477745 3.295185,-3.635674 1.157932,-1.15793 2.369824,-2.256325 3.635677,-3.295183 1.265847,-1.038859 2.579567,-2.013178 3.941155,-2.9229586 1.36158,-0.9097805 2.764473,-1.7506413 4.208679,-2.522582 1.444199,-0.7719417 2.922753,-1.4712463 4.435661,-2.0979138 1.512917,-0.6266675 3.052895,-1.1776804 4.619942,-1.6530396 1.56704,-0.475359 3.15361,-0.8727747 4.759705,-1.1922472 1.606102,-0.3194723 3.223991,-0.559463 4.853668,-0.7199721 C 94.728828,1.0802545 96.36245,1 98,1 c 1.637566,0 3.27119,0.080254 4.90086,0.2407637 1.62967,0.1605092 3.24755,0.4004999 4.85364,0.7199722 1.6061,0.3194727 3.19267,0.7168883 4.75972,1.1922475 1.56706,0.4753592 3.10703,1.0263722 4.61994,1.6530397 1.51291,0.6266675 2.99147,1.3259721 4.43566,2.0979133 1.4442,0.7719407 2.8471,1.6128015 4.20868,2.522582 1.36158,0.9097806 2.67531,1.8840996 3.94117,2.9229586 1.26585,1.038858 2.47773,2.137253 3.63566,3.295183 1.15793,1.157929 2.25632,2.369822 3.29518,3.635674 1.03887,1.265852 2.01317,2.579571 2.92295,3.941153 0.90979,1.361582 1.75065,2.764475 2.52258,4.208677 0.77196,1.444199 1.47125,2.922753 2.09791,4.435662 0.62667,1.512912 1.17769,3.05289 1.65305,4.619941 0.47536,1.567047 0.87277,3.153618 1.19225,4.759713 0.31947,1.606098 0.55947,3.223987 0.71998,4.853664 C 147.91974,47.728821 148,49.362438 148,51 Z" /></g><g
           transform="matrix(2.9953146,0,0,2.9953146,149.76573,98.845383)"
           id="g100"><text
             id="text104"
             style="font-variant:normal;font-weight:normal;font-size:16px;font-family:Helvetica;-inkscape-font-specification:Helvetica;writing-mode:lr-tb;fill:#000000;fill-opacity:1;fill-rule:nonzero;stroke:none"
             transform="translate(30.59375,14)"><tspan
               id="tspan102"
               y="0"
               x="0 12.445312 21.34375 30.242188">Goal</tspan></text>
<text
             id="text108"
             style="font-variant:normal;font-weight:normal;font-size:16px;font-family:Helvetica;-inkscape-font-specification:Helvetica;writing-mode:lr-tb;fill:#000000;fill-opacity:1;fill-rule:nonzero;stroke:none"
             transform="translate(7.46875,33)"><tspan
               id="tspan106"
               y="0"
               x="0 10.671875 18.671875 27.570312 31.125 40.023438 45.351562 54.25 58.695312 62.25 71.148438">Exploration</tspan></text>
</g><g
           transform="matrix(2.9953146,0,0,2.9953146,479.25034,92.854752)"
           id="g110"><text
             id="text114"
             style="font-variant:normal;font-weight:bold;font-size:16px;font-family:Helvetica;-inkscape-font-specification:Helvetica-Bold;writing-mode:lr-tb;fill:#000000;fill-opacity:1;fill-rule:nonzero;stroke:none"
             transform="translate(0,14)"><tspan
               id="tspan112"
               y="0"
               x="0">1</tspan></text>
</g><g
           transform="matrix(2.9953146,0,0,2.9953146,889.60846,89.859436)"
           id="g116"><text
             id="text120"
             style="font-variant:normal;font-weight:bold;font-size:16px;font-family:Helvetica;-inkscape-font-specification:Helvetica-Bold;writing-mode:lr-tb;fill:#000000;fill-opacity:1;fill-rule:nonzero;stroke:none"
             transform="translate(0,14)"><tspan
               id="tspan118"
               y="0"
               x="0">2</tspan></text>
</g><g
           transform="scale(2.9953146)"
           id="g122"><path
             id="path124"
             style="fill:none;stroke:#000000;stroke-width:1;stroke-linecap:butt;stroke-linejoin:miter;stroke-miterlimit:10;stroke-dasharray:none;stroke-opacity:1"
             d="M 8,51 H 39.759998" /><path
             id="path126"
             style="fill:#000000;fill-opacity:1;fill-rule:nonzero;stroke:none"
             d="m 45.759998,51 -8,4 2,-4 -2,-4 z" /><path
             id="path128"
             style="fill:none;stroke:#000000;stroke-width:1;stroke-linecap:butt;stroke-linejoin:miter;stroke-miterlimit:10;stroke-dasharray:none;stroke-opacity:1"
             d="m 45.759998,51 -8,4 2,-4 -2,-4 z" /></g><g
           transform="matrix(2.9953146,0,0,2.9953146,56.910976,92.854752)"
           id="g130"><text
             id="text134"
             style="font-variant:normal;font-weight:bold;font-size:16px;font-family:Helvetica;-inkscape-font-specification:Helvetica-Bold;writing-mode:lr-tb;fill:#000000;fill-opacity:1;fill-rule:nonzero;stroke:none"
             transform="translate(0,14)"><tspan
               id="tspan132"
               y="0"
               x="0">0</tspan></text>
</g><g
           transform="scale(2.9953146)"
           id="g136"><path
             id="path138"
             style="fill:none;stroke:#000000;stroke-width:1;stroke-linecap:butt;stroke-linejoin:miter;stroke-miterlimit:10;stroke-dasharray:none;stroke-opacity:1"
             d="m 562,51 h 31.76001" /><path
             id="path140"
             style="fill:#000000;fill-opacity:1;fill-rule:nonzero;stroke:none"
             d="m 599.76001,51 -8,4 2,-4 -2,-4 z" /><path
             id="path142"
             style="fill:none;stroke:#000000;stroke-width:1;stroke-linecap:butt;stroke-linejoin:miter;stroke-miterlimit:10;stroke-dasharray:none;stroke-opacity:1"
             d="m 599.76001,51 -8,4 2,-4 -2,-4 z" /><path
             id="path144"
             style="fill:none;stroke:#000000;stroke-width:1;stroke-linecap:butt;stroke-linejoin:miter;stroke-miterlimit:10;stroke-dasharray:none;stroke-opacity:1"
             d="m 702,51 h 20 -5 11.76001" /><path
             id="path146"
             style="fill:#000000;fill-opacity:1;fill-rule:nonzero;stroke:none"
             d="m 734.76001,51 -8,4 2,-4 -2,-4 z" /><path
             id="path148"
             style="fill:none;stroke:#000000;stroke-width:1;stroke-linecap:butt;stroke-linejoin:miter;stroke-miterlimit:10;stroke-dasharray:none;stroke-opacity:1"
             d="m 734.76001,51 -8,4 2,-4 -2,-4 z" /><path
             id="path150"
             style="fill:#ffffff;fill-opacity:1;fill-rule:nonzero;stroke:none"
             d="m 702,51 c 0,1.637562 -0.0803,3.271183 -0.24078,4.90086 -0.16053,1.629677 -0.40052,3.247562 -0.72004,4.853653 -0.31939,1.606094 -0.71685,3.192665 -1.19226,4.759716 -0.47534,1.567047 -1.02636,3.107025 -1.65301,4.619934 -0.62665,1.512909 -1.32593,2.991463 -2.0979,4.435669 -0.77191,1.444206 -1.61279,2.847092 -2.52265,4.208671 -0.90972,1.361588 -1.88403,2.675309 -2.92291,3.941155 -1.03888,1.265854 -2.13727,2.477745 -3.29516,3.635673 -1.1579,1.157929 -2.36982,2.256325 -3.63562,3.295182 -1.26593,1.038856 -2.57966,2.013176 -3.94123,2.92295 -1.36157,0.90979 -2.76446,1.750657 -4.20862,2.522599 -1.44427,0.771942 -2.92285,1.471245 -4.43573,2.097908 -1.51287,0.626671 -3.05285,1.177688 -4.61993,1.653045 -1.56696,0.475357 -3.1535,0.872773 -4.75964,1.192245 -1.60602,0.31948 -3.22394,0.55947 -4.85364,0.71999 C 655.27118,100.91975 653.63757,101 652,101 c -1.63751,0 -3.27112,-0.0803 -4.90082,-0.24075 -1.6297,-0.16052 -3.24756,-0.40051 -4.8537,-0.71999 -1.60614,-0.319472 -3.19268,-0.716888 -4.75976,-1.192245 -1.56702,-0.475357 -3.107,-1.026374 -4.62,-1.653045 -1.51288,-0.626663 -2.99139,-1.325966 -4.43567,-2.097908 -1.44415,-0.771942 -2.84698,-1.612809 -4.20861,-2.522599 -1.36158,-0.909774 -2.6753,-1.884094 -3.94111,-2.92295 -1.26586,-1.038857 -2.47778,-2.137253 -3.63574,-3.295182 -1.1579,-1.157928 -2.25628,-2.369819 -3.29516,-3.635673 -1.03888,-1.265846 -2.01319,-2.579567 -2.92304,-3.941155 -0.90973,-1.361579 -1.75061,-2.764465 -2.52258,-4.208671 -0.77191,-1.444206 -1.47119,-2.92276 -2.0979,-4.435669 -0.62665,-1.512909 -1.17768,-3.052887 -1.65308,-4.619934 -0.47534,-1.567051 -0.87274,-3.153622 -1.19214,-4.759716 -0.31945,-1.606091 -0.55944,-3.223976 -0.71991,-4.853653 C 602.08026,54.271183 602,52.637562 602,51 c 0,-1.637562 0.0803,-3.271179 0.24078,-4.900856 0.16047,-1.629677 0.40046,-3.247562 0.71991,-4.853661 0.3194,-1.606094 0.7168,-3.192665 1.19214,-4.759716 0.4754,-1.567051 1.02643,-3.107029 1.65308,-4.619941 0.62671,-1.512909 1.32599,-2.991465 2.0979,-4.435665 0.77197,-1.444201 1.61285,-2.847092 2.52258,-4.208676 0.90985,-1.361582 1.88416,-2.675299 2.92298,-3.941151 1.03887,-1.265852 2.13732,-2.477745 3.29522,-3.635674 1.15796,-1.15793 2.36988,-2.256325 3.63574,-3.295183 1.26581,-1.038859 2.57953,-2.013178 3.94111,-2.9229586 1.36163,-0.9097805 2.76446,-1.7506413 4.20861,-2.522582 1.44428,-0.7719417 2.92279,-1.4712463 4.43567,-2.0979138 1.513,-0.6266675 3.05298,-1.1776804 4.62,-1.6530396 1.56708,-0.475359 3.15362,-0.8727747 4.75976,-1.1922472 1.60614,-0.3194723 3.224,-0.559463 4.8537,-0.7199721 C 648.72888,1.0802545 650.36249,1 652,1 c 1.63757,0 3.27118,0.080254 4.90088,0.2407637 1.6297,0.1605092 3.24762,0.4004999 4.85364,0.7199722 1.60614,0.3194727 3.19268,0.7168883 4.7597,1.1922475 1.56708,0.4753592 3.107,1.0263722 4.61987,1.6530397 1.51288,0.6266675 2.99146,1.3259721 4.43573,2.0979133 1.44416,0.7719407 2.84705,1.6128015 4.20862,2.522582 1.36157,0.9097806 2.6753,1.8840996 3.94116,2.9229586 1.26587,1.038858 2.47779,2.137253 3.63569,3.295183 1.15789,1.157929 2.25628,2.369822 3.29516,3.635674 1.03888,1.265852 2.01319,2.579571 2.92291,3.941153 0.90986,1.361582 1.75074,2.764475 2.52265,4.208677 0.77197,1.444199 1.47125,2.922753 2.0979,4.435662 0.62665,1.512912 1.17767,3.05289 1.65307,4.619941 0.47541,1.567047 0.87281,3.153618 1.1922,4.759713 0.31952,1.606098 0.55951,3.223987 0.72004,4.853664 C 701.91974,47.728821 702,49.362438 702,51 Z" /><path
             id="path152"
             style="fill:none;stroke:#000000;stroke-width:1;stroke-linecap:butt;stroke-linejoin:miter;stroke-miterlimit:10;stroke-dasharray:none;stroke-opacity:1"
             d="m 702,51 c 0,1.637562 -0.0803,3.271183 -0.24078,4.90086 -0.16053,1.629677 -0.40052,3.247562 -0.72004,4.853653 -0.31939,1.606094 -0.71685,3.192665 -1.19226,4.759716 -0.47534,1.567047 -1.02636,3.107025 -1.65301,4.619934 -0.62665,1.512909 -1.32593,2.991463 -2.0979,4.435669 -0.77191,1.444206 -1.61279,2.847092 -2.52265,4.208671 -0.90972,1.361588 -1.88403,2.675309 -2.92291,3.941155 -1.03888,1.265854 -2.13727,2.477745 -3.29516,3.635673 -1.1579,1.157929 -2.36982,2.256325 -3.63562,3.295182 -1.26593,1.038856 -2.57966,2.013176 -3.94123,2.92295 -1.36157,0.90979 -2.76446,1.750657 -4.20862,2.522599 -1.44427,0.771942 -2.92285,1.471245 -4.43573,2.097908 -1.51287,0.626671 -3.05285,1.177688 -4.61993,1.653045 -1.56696,0.475357 -3.1535,0.872773 -4.75964,1.192245 -1.60602,0.31948 -3.22394,0.55947 -4.85364,0.71999 C 655.27118,100.91975 653.63757,101 652,101 c -1.63751,0 -3.27112,-0.0803 -4.90082,-0.24075 -1.6297,-0.16052 -3.24756,-0.40051 -4.8537,-0.71999 -1.60614,-0.319472 -3.19268,-0.716888 -4.75976,-1.192245 -1.56702,-0.475357 -3.107,-1.026374 -4.62,-1.653045 -1.51288,-0.626663 -2.99139,-1.325966 -4.43567,-2.097908 -1.44415,-0.771942 -2.84698,-1.612809 -4.20861,-2.522599 -1.36158,-0.909774 -2.6753,-1.884094 -3.94111,-2.92295 -1.26586,-1.038857 -2.47778,-2.137253 -3.63574,-3.295182 -1.1579,-1.157928 -2.25628,-2.369819 -3.29516,-3.635673 -1.03888,-1.265846 -2.01319,-2.579567 -2.92304,-3.941155 -0.90973,-1.361579 -1.75061,-2.764465 -2.52258,-4.208671 -0.77191,-1.444206 -1.47119,-2.92276 -2.0979,-4.435669 -0.62665,-1.512909 -1.17768,-3.052887 -1.65308,-4.619934 -0.47534,-1.567051 -0.87274,-3.153622 -1.19214,-4.759716 -0.31945,-1.606091 -0.55944,-3.223976 -0.71991,-4.853653 C 602.08026,54.271183 602,52.637562 602,51 c 0,-1.637562 0.0803,-3.271179 0.24078,-4.900856 0.16047,-1.629677 0.40046,-3.247562 0.71991,-4.853661 0.3194,-1.606094 0.7168,-3.192665 1.19214,-4.759716 0.4754,-1.567051 1.02643,-3.107029 1.65308,-4.619941 0.62671,-1.512909 1.32599,-2.991465 2.0979,-4.435665 0.77197,-1.444201 1.61285,-2.847092 2.52258,-4.208676 0.90985,-1.361582 1.88416,-2.675299 2.92298,-3.941151 1.03887,-1.265852 2.13732,-2.477745 3.29522,-3.635674 1.15796,-1.15793 2.36988,-2.256325 3.63574,-3.295183 1.26581,-1.038859 2.57953,-2.013178 3.94111,-2.9229586 1.36163,-0.9097805 2.76446,-1.7506413 4.20861,-2.522582 1.44428,-0.7719417 2.92279,-1.4712463 4.43567,-2.0979138 1.513,-0.6266675 3.05298,-1.1776804 4.62,-1.6530396 1.56708,-0.475359 3.15362,-0.8727747 4.75976,-1.1922472 1.60614,-0.3194723 3.224,-0.559463 4.8537,-0.7199721 C 648.72888,1.0802545 650.36249,1 652,1 c 1.63757,0 3.27118,0.080254 4.90088,0.2407637 1.6297,0.1605092 3.24762,0.4004999 4.85364,0.7199722 1.60614,0.3194727 3.19268,0.7168883 4.7597,1.1922475 1.56708,0.4753592 3.107,1.0263722 4.61987,1.6530397 1.51288,0.6266675 2.99146,1.3259721 4.43573,2.0979133 1.44416,0.7719407 2.84705,1.6128015 4.20862,2.522582 1.36157,0.9097806 2.6753,1.8840996 3.94116,2.9229586 1.26587,1.038858 2.47779,2.137253 3.63569,3.295183 1.15789,1.157929 2.25628,2.369822 3.29516,3.635674 1.03888,1.265852 2.01319,2.579571 2.92291,3.941153 0.90986,1.361582 1.75074,2.764475 2.52265,4.208677 0.77197,1.444199 1.47125,2.922753 2.0979,4.435662 0.62665,1.512912 1.17767,3.05289 1.65307,4.619941 0.47541,1.567047 0.87281,3.153618 1.1922,4.759713 0.31952,1.606098 0.55951,3.223987 0.72004,4.853664 C 701.91974,47.728821 702,49.362438 702,51 Z" /></g><g
           transform="matrix(2.9953146,0,0,2.9953146,1830.1372,98.845383)"
           id="g154"><text
             id="text158"
             style="font-variant:normal;font-weight:normal;font-size:16px;font-family:Helvetica;-inkscape-font-specification:Helvetica;writing-mode:lr-tb;fill:#000000;fill-opacity:1;fill-rule:nonzero;stroke:none"
             transform="translate(12.921875,14)"><tspan
               id="tspan156"
               y="0"
               x="0 10.671875 16 24.898438 33.796875 42.695312 50.695312">Product</tspan></text>
<text
             id="text162"
             style="font-variant:normal;font-weight:normal;font-size:16px;font-family:Helvetica;-inkscape-font-specification:Helvetica;writing-mode:lr-tb;fill:#000000;fill-opacity:1;fill-rule:nonzero;stroke:none"
             transform="translate(0.46875,33)"><tspan
               id="tspan160"
               y="0"
               x="0 10.671875 18.671875 27.570312 31.125 40.023438 45.351562 54.25 58.695312 62.25 71.148438">Exploration</tspan></text>
</g><g
           transform="matrix(2.9953146,0,0,2.9953146,2126.6733,89.859436)"
           id="g164"><text
             id="text168"
             style="font-variant:normal;font-weight:bold;font-size:16px;font-family:Helvetica;-inkscape-font-specification:Helvetica-Bold;writing-mode:lr-tb;fill:#000000;fill-opacity:1;fill-rule:nonzero;stroke:none"
             transform="translate(0,14)"><tspan
               id="tspan166"
               y="0"
               x="0">5</tspan></text>
</g><g
           transform="matrix(2.9953146,0,0,2.9953146,1719.3105,92.854752)"
           id="g170"><text
             id="text174"
             style="font-variant:normal;font-weight:bold;font-size:16px;font-family:Helvetica;-inkscape-font-specification:Helvetica-Bold;writing-mode:lr-tb;fill:#000000;fill-opacity:1;fill-rule:nonzero;stroke:none"
             transform="translate(0,14)"><tspan
               id="tspan172"
               y="0"
               x="0">4</tspan></text>
</g><g
           transform="matrix(2.9953146,0,0,2.9953146,1305.9572,89.859436)"
           id="g176"><text
             id="text180"
             style="font-variant:normal;font-weight:bold;font-size:16px;font-family:Helvetica;-inkscape-font-specification:Helvetica-Bold;writing-mode:lr-tb;fill:#000000;fill-opacity:1;fill-rule:nonzero;stroke:none"
             transform="translate(0,14)"><tspan
               id="tspan178"
               y="0"
               x="0">3</tspan></text>
</g></g></g></g></svg>